<svg width="24" height="25" viewBox="0 0 24 25" fill="none" xmlns="http://www.w3.org/2000/svg">
<path d="M17.34 5.98441C17.1027 5.98441 16.8707 6.05479 16.6733 6.18665C16.476 6.31851 16.3222 6.50592 16.2313 6.72519C16.1405 6.94447 16.1168 7.18575 16.1631 7.41852C16.2094 7.6513 16.3236 7.86512 16.4915 8.03294C16.6593 8.20077 16.8731 8.31505 17.1059 8.36136C17.3387 8.40766 17.5799 8.38389 17.7992 8.29307C18.0185 8.20224 18.2059 8.04844 18.3378 7.8511C18.4696 7.65376 18.54 7.42175 18.54 7.18441C18.54 6.86615 18.4136 6.56093 18.1885 6.33589C17.9635 6.11084 17.6583 5.98441 17.34 5.98441ZM21.94 8.40441C21.9206 7.57471 21.7652 6.75382 21.48 5.97441C21.2257 5.30755 20.83 4.70369 20.32 4.20441C19.8248 3.69184 19.2196 3.29859 18.55 3.05441C17.7727 2.76057 16.9508 2.60162 16.12 2.58441C15.06 2.52441 14.72 2.52441 12 2.52441C9.28 2.52441 8.94 2.52441 7.88 2.58441C7.04915 2.60162 6.22734 2.76057 5.45 3.05441C4.78168 3.30106 4.17693 3.69397 3.68 4.20441C3.16743 4.69959 2.77418 5.30485 2.53 5.97441C2.23616 6.75176 2.07721 7.57357 2.06 8.40441C2 9.46441 2 9.80441 2 12.5244C2 15.2444 2 15.5844 2.06 16.6444C2.07721 17.4753 2.23616 18.2971 2.53 19.0744C2.77418 19.744 3.16743 20.3492 3.68 20.8444C4.17693 21.3549 4.78168 21.7478 5.45 21.9944C6.22734 22.2883 7.04915 22.4472 7.88 22.4644C8.94 22.5244 9.28 22.5244 12 22.5244C14.72 22.5244 15.06 22.5244 16.12 22.4644C16.9508 22.4472 17.7727 22.2883 18.55 21.9944C19.2196 21.7502 19.8248 21.357 20.32 20.8444C20.8322 20.347 21.2283 19.7426 21.48 19.0744C21.7652 18.295 21.9206 17.4741 21.94 16.6444C21.94 15.5844 22 15.2444 22 12.5244C22 9.80441 22 9.46441 21.94 8.40441ZM20.14 16.5244C20.1327 17.1592 20.0178 17.7881 19.8 18.3844C19.6403 18.8196 19.3839 19.2128 19.05 19.5344C18.7256 19.8649 18.3332 20.1208 17.9 20.2844C17.3037 20.5022 16.6748 20.6171 16.04 20.6244C15.04 20.6744 14.67 20.6844 12.04 20.6844C9.41 20.6844 9.04 20.6844 8.04 20.6244C7.38089 20.6368 6.72459 20.5353 6.1 20.3244C5.68578 20.1525 5.31136 19.8972 5 19.5744C4.66809 19.2532 4.41484 18.8596 4.26 18.4244C4.01586 17.8196 3.88044 17.1764 3.86 16.5244C3.86 15.5244 3.8 15.1544 3.8 12.5244C3.8 9.89441 3.8 9.52441 3.86 8.52441C3.86448 7.87547 3.98295 7.23236 4.21 6.62441C4.38605 6.20233 4.65627 5.82607 5 5.52441C5.30381 5.18058 5.67929 4.90751 6.1 4.72441C6.70955 4.50446 7.352 4.38949 8 4.38441C9 4.38441 9.37 4.32441 12 4.32441C14.63 4.32441 15 4.32441 16 4.38441C16.6348 4.39169 17.2637 4.50666 17.86 4.72441C18.3144 4.89307 18.7223 5.16726 19.05 5.52441C19.3777 5.83159 19.6338 6.20715 19.8 6.62441C20.0223 7.23335 20.1373 7.87619 20.14 8.52441C20.19 9.52441 20.2 9.89441 20.2 12.5244C20.2 15.1544 20.19 15.5244 20.14 16.5244ZM12 7.39441C10.9858 7.39639 9.99496 7.69894 9.15265 8.26383C8.31035 8.82872 7.65438 9.63061 7.26763 10.5682C6.88089 11.5057 6.78072 12.5369 6.97979 13.5313C7.17886 14.5258 7.66824 15.4389 8.38608 16.1554C9.10392 16.8718 10.018 17.3594 11.0129 17.5566C12.0077 17.7537 13.0387 17.6515 13.9755 17.263C14.9123 16.8744 15.7129 16.2169 16.2761 15.3734C16.8394 14.53 17.14 13.5386 17.14 12.5244C17.1413 11.8495 17.0092 11.181 16.7512 10.5574C16.4933 9.93372 16.1146 9.36722 15.6369 8.89046C15.1592 8.41371 14.5919 8.03609 13.9678 7.77934C13.3436 7.52259 12.6749 7.39178 12 7.39441ZM12 15.8544C11.3414 15.8544 10.6976 15.6591 10.15 15.2932C9.60234 14.9273 9.17552 14.4072 8.92348 13.7987C8.67144 13.1903 8.6055 12.5207 8.73398 11.8748C8.86247 11.2288 9.17963 10.6355 9.64533 10.1697C10.111 9.70404 10.7044 9.38689 11.3503 9.2584C11.9963 9.12991 12.6659 9.19586 13.2743 9.4479C13.8828 9.69993 14.4029 10.1267 14.7688 10.6744C15.1347 11.222 15.33 11.8658 15.33 12.5244C15.33 12.9617 15.2439 13.3947 15.0765 13.7987C14.9092 14.2028 14.6639 14.5699 14.3547 14.8791C14.0454 15.1883 13.6784 15.4336 13.2743 15.6009C12.8703 15.7683 12.4373 15.8544 12 15.8544Z" fill="#000929"/>
</svg>
