<svg width="24" height="25" viewBox="0 0 24 25" fill="none" xmlns="http://www.w3.org/2000/svg">
<path d="M20.4705 2.52455H3.53055C3.34013 2.52191 3.15105 2.5568 2.97411 2.62724C2.79718 2.69767 2.63585 2.80227 2.49934 2.93507C2.36284 3.06786 2.25383 3.22624 2.17854 3.40116C2.10325 3.57609 2.06316 3.76413 2.06055 3.95455V21.0946C2.06316 21.285 2.10325 21.473 2.17854 21.6479C2.25383 21.8229 2.36284 21.9812 2.49934 22.114C2.63585 22.2468 2.79718 22.3514 2.97411 22.4219C3.15105 22.4923 3.34013 22.5272 3.53055 22.5246H20.4705C20.661 22.5272 20.85 22.4923 21.027 22.4219C21.2039 22.3514 21.3652 22.2468 21.5017 22.114C21.6383 21.9812 21.7473 21.8229 21.8226 21.6479C21.8978 21.473 21.9379 21.285 21.9405 21.0946V3.95455C21.9379 3.76413 21.8978 3.57609 21.8226 3.40116C21.7473 3.22624 21.6383 3.06786 21.5017 2.93507C21.3652 2.80227 21.2039 2.69767 21.027 2.62724C20.85 2.5568 20.661 2.52191 20.4705 2.52455ZM8.09055 19.2646H5.09055V10.2646H8.09055V19.2646ZM6.59055 9.00455C6.17681 9.00455 5.78002 8.8402 5.48746 8.54764C5.1949 8.25508 5.03055 7.85829 5.03055 7.44455C5.03055 7.03082 5.1949 6.63402 5.48746 6.34147C5.78002 6.04891 6.17681 5.88455 6.59055 5.88455C6.81024 5.85964 7.03272 5.88141 7.24342 5.94844C7.45412 6.01547 7.64829 6.12624 7.8132 6.27352C7.97812 6.42079 8.11007 6.60123 8.20042 6.80304C8.29076 7.00484 8.33746 7.22345 8.33746 7.44455C8.33746 7.66566 8.29076 7.88427 8.20042 8.08607C8.11007 8.28788 7.97812 8.46832 7.8132 8.61559C7.64829 8.76286 7.45412 8.87364 7.24342 8.94067C7.03272 9.0077 6.81024 9.02947 6.59055 9.00455ZM18.9105 19.2646H15.9105V14.4346C15.9105 13.2246 15.4805 12.4346 14.3905 12.4346C14.0532 12.437 13.7247 12.5428 13.4494 12.7377C13.174 12.9326 12.965 13.2072 12.8505 13.5246C12.7723 13.7596 12.7384 14.0071 12.7505 14.2546V19.2546H9.75055C9.75055 19.2546 9.75055 11.0746 9.75055 10.2546H12.7505V11.5246C13.0231 11.0517 13.4195 10.6621 13.897 10.3978C14.3745 10.1334 14.9151 10.0044 15.4605 10.0246C17.4605 10.0246 18.9105 11.3146 18.9105 14.0846V19.2646Z" fill="#000929"/>
</svg>
