<svg width="24" height="25" viewBox="0 0 24 25" fill="none" xmlns="http://www.w3.org/2000/svg">
<path d="M22 6.32462C21.2483 6.65072 20.4534 6.86629 19.64 6.96462C20.4982 6.45194 21.1413 5.64541 21.45 4.69462C20.6436 5.17469 19.7608 5.51292 18.84 5.69462C18.2245 5.0272 17.405 4.58292 16.5098 4.43148C15.6147 4.28003 14.6945 4.42998 13.8938 4.85781C13.093 5.28564 12.4569 5.96715 12.0852 6.79546C11.7135 7.62377 11.6273 8.55201 11.84 9.43462C10.2094 9.35215 8.61444 8.92758 7.15865 8.18849C5.70287 7.44939 4.41885 6.41232 3.39 5.14462C3.02914 5.77479 2.83952 6.48845 2.84 7.21462C2.83872 7.88901 3.00422 8.55324 3.32176 9.14819C3.63929 9.74314 4.09902 10.2503 4.66 10.6246C4.00798 10.6069 3.36989 10.4319 2.8 10.1146V10.1646C2.80489 11.1095 3.13599 12.0237 3.73731 12.7526C4.33864 13.4815 5.17326 13.9803 6.1 14.1646C5.74326 14.2732 5.37287 14.3304 5 14.3346C4.74189 14.3316 4.48442 14.3082 4.23 14.2646C4.49391 15.0774 5.00462 15.7878 5.69107 16.2968C6.37753 16.8058 7.20558 17.0882 8.06 17.1046C6.6172 18.2399 4.83588 18.8595 3 18.8646C2.66574 18.8657 2.33174 18.8457 2 18.8046C3.87443 20.0149 6.05881 20.6573 8.29 20.6546C9.82969 20.6706 11.3571 20.3796 12.7831 19.7987C14.2091 19.2178 15.505 18.3585 16.5952 17.2711C17.6854 16.1837 18.548 14.89 19.1326 13.4655C19.7172 12.041 20.012 10.5144 20 8.97462C20 8.80462 20 8.62462 20 8.44462C20.7847 7.85943 21.4615 7.14205 22 6.32462Z" fill="#000929"/>
</svg>
