<svg width="65" height="61" viewBox="0 0 65 61" fill="none" xmlns="http://www.w3.org/2000/svg">
<rect x="0.639496" y="1.1395" width="63.6487" height="58.6487" rx="29.3244" fill="white"/>
<rect x="0.639496" y="1.1395" width="63.6487" height="58.6487" rx="29.3244" stroke="#FAF5FF" stroke-width="1.27899"/>
<rect x="5.11523" y="5.61621" width="54.6958" height="49.6958" rx="24.8479" fill="#FAF5FF"/>
<g clip-path="url(#clip0_5209_31333)">
<path d="M22.8629 22.7451H39.6629C39.9929 22.7451 40.2629 23.0123 40.2629 23.3389V28.1965C40.9004 28.3115 41.5041 28.5193 42.0629 28.8014V23.3389C42.0629 22.0289 40.9866 20.9639 39.6629 20.9639H22.8629C21.5391 20.9639 20.4629 22.0289 20.4629 23.3389V34.0264C20.4629 35.3363 21.5391 36.4014 22.8629 36.4014H28.4016L28.1016 38.1826H26.1629C25.6641 38.1826 25.2629 38.5797 25.2629 39.0732C25.2629 39.5668 25.6641 39.9639 26.1629 39.9639H28.8629H33.6629H35.2679C34.5816 39.4852 33.9891 38.8803 33.5316 38.1826H32.6016H31.2629H29.9241L30.2241 36.4014H31.2629H32.3016H32.7141C32.5529 35.8336 32.4666 35.2361 32.4666 34.6201H29.4816C29.4704 34.6201 29.4591 34.6201 29.4516 34.6201H22.8629C22.5329 34.6201 22.2629 34.3529 22.2629 34.0264V23.3389C22.2629 23.0123 22.5329 22.7451 22.8629 22.7451ZM38.4629 28.1148V25.417C38.4629 24.9234 38.0616 24.5264 37.5629 24.5264H34.5629C34.0641 24.5264 33.6629 24.9234 33.6629 25.417C33.6629 25.9105 34.0641 26.3076 34.5629 26.3076H35.3916L31.8629 29.7996L29.5004 27.4617C29.1479 27.1129 28.5779 27.1129 28.2291 27.4617L24.3254 31.3174C23.9729 31.6662 23.9729 32.2303 24.3254 32.5754C24.6779 32.9205 25.2479 32.9242 25.5966 32.5754L28.8591 29.3469L31.2216 31.6848C31.3904 31.8518 31.6191 31.9445 31.8591 31.9445C32.0991 31.9445 32.3279 31.8518 32.4966 31.6848L36.6591 27.5656V28.3857C36.6591 28.434 36.6629 28.4822 36.6704 28.5305C37.2329 28.3152 37.8329 28.1705 38.4591 28.1148H38.4629ZM44.4629 34.6201C44.4629 33.2029 43.894 31.8437 42.8813 30.8415C41.8686 29.8394 40.4951 29.2764 39.0629 29.2764C37.6307 29.2764 36.2572 29.8394 35.2445 30.8415C34.2318 31.8437 33.6629 33.2029 33.6629 34.6201C33.6629 36.0374 34.2318 37.3966 35.2445 38.3987C36.2572 39.4009 37.6307 39.9639 39.0629 39.9639C40.4951 39.9639 41.8686 39.4009 42.8813 38.3987C43.894 37.3966 44.4629 36.0374 44.4629 34.6201ZM38.1929 33.4104C38.1779 33.4363 38.1591 33.4697 38.1629 33.5439C38.1629 33.5439 38.1629 33.5439 38.1629 33.5477C38.1629 33.5625 38.1629 33.6182 38.3429 33.7146C38.5529 33.826 38.8491 33.9076 39.2391 34.0189H39.2466C39.5954 34.1154 40.0379 34.2416 40.3904 34.4457C40.7729 34.6684 41.1404 35.0432 41.1591 35.6443C41.1779 36.3197 40.7954 36.7725 40.3454 37.0137C40.1279 37.1287 39.8916 37.2029 39.6591 37.2437V37.6445C39.6591 37.9711 39.3891 38.2383 39.0591 38.2383C38.7291 38.2383 38.4591 37.9711 38.4591 37.6445V37.2215C38.1366 37.1584 37.8329 37.0619 37.5704 36.9766C37.5066 36.9543 37.4429 36.9357 37.3829 36.9172C37.0679 36.8207 36.8879 36.4867 36.9891 36.175C37.0904 35.8633 37.4241 35.6852 37.7391 35.7854C37.8141 35.8076 37.8854 35.8299 37.9566 35.8521C38.3841 35.9857 38.7216 36.0934 39.0779 36.1045C39.3291 36.1119 39.5954 36.0637 39.7716 35.9709C39.8541 35.9264 39.8991 35.8818 39.9216 35.8484C39.9404 35.8188 39.9629 35.7705 39.9591 35.6814C39.9591 35.6295 39.9516 35.5701 39.7829 35.4736C39.5841 35.3586 39.2991 35.2732 38.9129 35.1656L38.8454 35.1471C38.5116 35.0543 38.1029 34.9393 37.7729 34.7648C37.4016 34.5682 37.0004 34.2193 36.9629 33.6256C36.9179 32.9279 37.3379 32.4789 37.7804 32.2451C37.9941 32.1301 38.2304 32.0559 38.4554 32.0113V31.6588C38.4554 31.3322 38.7254 31.065 39.0554 31.065C39.3854 31.065 39.6554 31.3322 39.6554 31.6588V32.0076C39.8916 32.041 40.1166 32.093 40.3266 32.1449C40.6491 32.2229 40.8441 32.5457 40.7654 32.8648C40.6866 33.184 40.3604 33.377 40.0379 33.299C39.6891 33.2137 39.3554 33.1506 39.0479 33.1469C38.8154 33.1432 38.5379 33.1951 38.3466 33.2953C38.2566 33.3436 38.2116 33.3881 38.1891 33.4215L38.1929 33.4104Z" fill="#8771C5"/>
</g>
<defs>
<clipPath id="clip0_5209_31333">
<rect width="24" height="19" fill="white" transform="translate(20.4629 20.9639)"/>
</clipPath>
</defs>
</svg>
