<svg width="65" height="66" viewBox="0 0 65 66" fill="none" xmlns="http://www.w3.org/2000/svg">
<rect x="0.639496" y="1.56723" width="63.6487" height="63.6487" rx="31.8244" fill="white"/>
<rect x="0.639496" y="1.56723" width="63.6487" height="63.6487" rx="31.8244" stroke="#FAF5FF" stroke-width="1.27899"/>
<rect x="5.11523" y="6.04395" width="54.6958" height="54.6958" rx="27.3479" fill="#FAF5FF"/>
<g clip-path="url(#clip0_5209_31341)">
<path d="M33.0066 21.5322C32.6691 21.3447 32.2566 21.3447 31.9191 21.5322L21.2879 27.3963C20.777 27.6775 20.4629 28.2119 20.4629 28.7932C20.4629 29.6791 21.1754 30.3916 22.0613 30.3916H42.8691C43.7504 30.3916 44.4676 29.6791 44.4676 28.7932C44.4676 28.2119 44.1535 27.6775 43.6426 27.3963L33.0066 21.5322ZM31.1645 28.1416H24.5973L32.4629 23.801L40.3285 28.1416H33.7613C33.8879 27.9213 33.9629 27.6635 33.9629 27.3916C33.9629 26.5619 33.2926 25.8916 32.4629 25.8916C31.6332 25.8916 30.9629 26.5619 30.9629 27.3916C30.9629 27.6635 31.0379 27.9213 31.1645 28.1416ZM23.4629 31.8916V39.3916C22.8395 39.3916 22.3379 39.8932 22.3379 40.5166C22.3379 41.14 22.8395 41.6416 23.4629 41.6416H41.8379C42.4613 41.6416 42.9629 41.14 42.9629 40.5166C42.9629 39.8932 42.4613 39.3916 41.8379 39.3916H41.4629V31.8916H39.2129V39.3916H36.2129V31.8916H33.9629V39.3916H30.9629V31.8916H28.7129V39.3916H25.7129V31.8916H23.4629ZM21.9629 43.1416C21.3395 43.1416 20.8379 43.6432 20.8379 44.2666C20.8379 44.89 21.3395 45.3916 21.9629 45.3916H43.3379C43.9613 45.3916 44.4629 44.89 44.4629 44.2666C44.4629 43.6432 43.9613 43.1416 43.3379 43.1416H21.9629Z" fill="#8771C5"/>
</g>
<defs>
<clipPath id="clip0_5209_31341">
<rect width="24" height="24" fill="white" transform="translate(20.4629 21.3916)"/>
</clipPath>
</defs>
</svg>
