<svg width="65" height="65" viewBox="0 0 65 65" fill="none" xmlns="http://www.w3.org/2000/svg">
<rect x="0.639496" y="0.639496" width="63.6487" height="63.6487" rx="31.8244" fill="white"/>
<rect x="0.639496" y="0.639496" width="63.6487" height="63.6487" rx="31.8244" stroke="#FAF5FF" stroke-width="1.27899"/>
<rect x="5.11523" y="5.11621" width="54.6958" height="54.6958" rx="27.3479" fill="#FAF5FF"/>
<g clip-path="url(#clip0_5209_31326)">
<path d="M24.1466 20.6978C23.7013 20.351 23.0685 20.3931 22.6654 20.7916L20.7904 22.6666C20.392 23.065 20.3498 23.6978 20.692 24.1478L24.442 29.0228C24.6529 29.2994 24.9857 29.4635 25.3326 29.4635H27.8685L32.9779 34.5728C32.2888 35.9322 32.5091 37.6385 33.6482 38.7728L38.8982 44.0228C39.4841 44.6088 40.4357 44.6088 41.0216 44.0228L44.0216 41.0228C44.6076 40.4369 44.6076 39.4853 44.0216 38.8994L38.7716 33.6494C37.6373 32.515 35.931 32.29 34.5716 32.9791L29.4623 27.8697V25.3338C29.4623 24.9822 29.2982 24.6541 29.0216 24.4431L24.1466 20.6978ZM21.5498 38.126C20.8513 38.8244 20.4623 39.7666 20.4623 40.751C20.4623 42.7994 22.1263 44.4635 24.1748 44.4635C25.1591 44.4635 26.1013 44.0744 26.7998 43.376L31.642 38.5338C31.2248 37.7088 31.042 36.7947 31.0982 35.8947L25.2107 41.7869C24.9341 42.0588 24.5638 42.2135 24.1748 42.2135C23.3685 42.2135 22.7123 41.5572 22.7123 40.751C22.7123 40.3619 22.867 39.9916 23.1388 39.715L29.5701 33.2838L27.981 31.6947L21.5498 38.126ZM42.2076 28.151C42.142 29.9744 41.1482 31.5635 39.6857 32.4541C39.7373 32.501 39.7841 32.5478 39.831 32.5947L41.3123 34.076C43.2201 32.7166 44.4623 30.4853 44.4623 27.9681C44.4623 26.8056 44.1951 25.7041 43.7263 24.7197C43.5201 24.2885 42.9529 24.2275 42.6154 24.565L39.4326 27.7478C39.292 27.8885 39.0998 27.9681 38.9029 27.9681L37.7123 27.9635C37.2998 27.9635 36.9623 27.626 36.9623 27.2135V26.0228C36.9623 25.826 37.042 25.6338 37.1826 25.4931L40.3654 22.3103C40.7029 21.9728 40.642 21.4056 40.2107 21.1994C39.2263 20.7306 38.1248 20.4635 36.9623 20.4635C34.2763 20.4635 31.9185 21.8744 30.5966 23.9978C30.831 24.401 30.9623 24.8603 30.9623 25.3385V27.251L31.7123 28.001V27.9635C31.7123 25.1275 33.9623 22.8119 36.7748 22.7181L35.5888 23.9041C35.0263 24.4666 34.7123 25.2306 34.7123 26.0275V27.2181C34.7123 28.8728 36.0576 30.2181 37.7123 30.2181H38.9029C39.6998 30.2181 40.4638 29.9041 41.0263 29.3416L42.2076 28.151Z" fill="#8771C5"/>
</g>
<defs>
<clipPath id="clip0_5209_31326">
<rect width="24" height="24" fill="white" transform="translate(20.4629 20.4639)"/>
</clipPath>
</defs>
</svg>
