<svg width="65" height="66" viewBox="0 0 65 66" fill="none" xmlns="http://www.w3.org/2000/svg">
<rect x="0.639496" y="1.56723" width="63.6487" height="63.6487" rx="31.8244" fill="white"/>
<rect x="0.639496" y="1.56723" width="63.6487" height="63.6487" rx="31.8244" stroke="#FAF5FF" stroke-width="1.27899"/>
<rect x="5.11523" y="6.04395" width="54.6958" height="54.6958" rx="27.3479" fill="#FAF5FF"/>
<g clip-path="url(#clip0_5209_31348)">
<path d="M34.8618 25.3911H22.8627C22.5327 25.3911 22.2627 25.6911 22.2627 26.0576V39.3879C22.2627 39.7544 22.5327 40.0544 22.8627 40.0544H32.9757C33.7331 40.9125 34.7005 41.5457 35.7804 41.8498C35.4955 41.9831 35.1842 42.0539 34.858 42.0539H22.8627C21.5391 42.0539 20.4629 40.8583 20.4629 39.3879V26.0576C20.4629 24.5872 21.5391 23.3916 22.8627 23.3916H34.8618C36.1854 23.3916 37.2616 24.5872 37.2616 26.0576V28.7237C36.6354 28.7237 36.0317 28.832 35.4617 29.0278V26.0576C35.4617 25.6911 35.1917 25.3911 34.8618 25.3911ZM34.2618 28.3904V29.6151C33.5606 30.065 32.9457 30.6732 32.462 31.3897V28.7237H29.7622V30.9898C30.2984 31.3356 30.6621 31.9813 30.6621 32.7227C30.6621 33.8267 29.8559 34.7223 28.8622 34.7223C27.8686 34.7223 27.0624 33.8267 27.0624 32.7227C27.0624 31.9813 27.4261 31.3356 27.9623 30.9898V28.3904C27.9623 27.4698 28.6335 26.7242 29.4622 26.7242H32.7619C33.5906 26.7242 34.2618 27.4698 34.2618 28.3904ZM32.0645 38.7213H24.9625C24.1339 38.7213 23.4627 37.9757 23.4627 37.0551V28.3904C23.4627 27.4698 24.1339 26.7242 24.9625 26.7242H25.5625C26.0612 26.7242 26.4624 27.1699 26.4624 27.7239C26.4624 28.278 26.0612 28.7237 25.5625 28.7237H25.2625V36.7218H31.382C31.5133 37.4383 31.7458 38.109 32.0645 38.7213ZM37.2616 38.7297C38.0572 38.7297 38.8202 38.3786 39.3827 37.7536C39.9453 37.1286 40.2613 36.281 40.2613 35.3971C40.2613 34.5133 39.9453 33.6656 39.3827 33.0407C38.8202 32.4157 38.0572 32.0646 37.2616 32.0646C36.466 32.0646 35.703 32.4157 35.1404 33.0407C34.5779 33.6656 34.2618 34.5133 34.2618 35.3971C34.2618 36.281 34.5779 37.1286 35.1404 37.7536C35.703 38.3786 36.466 38.7297 37.2616 38.7297ZM37.2616 40.7292C34.6105 40.7292 32.462 38.3423 32.462 35.3971C32.462 32.452 34.6105 30.065 37.2616 30.065C39.9126 30.065 42.0612 32.452 42.0612 35.3971C42.0612 36.5094 41.7537 37.5383 41.2325 38.3923L44.1985 41.6873C44.551 42.0789 44.551 42.7121 44.1985 43.0995C43.8461 43.4869 43.2761 43.4911 42.9274 43.0995L39.9576 39.8044C39.1889 40.3876 38.259 40.725 37.2616 40.725V40.7292Z" fill="#8771C5"/>
</g>
<defs>
<clipPath id="clip0_5209_31348">
<rect width="24" height="24" fill="white" transform="translate(20.4629 21.3916)"/>
</clipPath>
</defs>
</svg>
