<svg width="22" height="22" viewBox="0 0 22 22" fill="none" xmlns="http://www.w3.org/2000/svg">
<path d="M2.75 2.75V7.25H7.25V2.75H2.75ZM0.5 2.75C0.5 1.50781 1.50781 0.5 2.75 0.5H7.25C8.49219 0.5 9.5 1.50781 9.5 2.75V7.25C9.5 8.49219 8.49219 9.5 7.25 9.5H2.75C1.50781 9.5 0.5 8.49219 0.5 7.25V2.75ZM2.75 14.75V19.25H7.25V14.75H2.75ZM0.5 14.75C0.5 13.5078 1.50781 12.5 2.75 12.5H7.25C8.49219 12.5 9.5 13.5078 9.5 14.75V19.25C9.5 20.4922 8.49219 21.5 7.25 21.5H2.75C1.50781 21.5 0.5 20.4922 0.5 19.25V14.75ZM19.25 2.75H14.75V7.25H19.25V2.75ZM14.75 0.5H19.25C20.4922 0.5 21.5 1.50781 21.5 2.75V7.25C21.5 8.49219 20.4922 9.5 19.25 9.5H14.75C13.5078 9.5 12.5 8.49219 12.5 7.25V2.75C12.5 1.50781 13.5078 0.5 14.75 0.5ZM14.75 14.75V19.25H19.25V14.75H14.75ZM12.5 14.75C12.5 13.5078 13.5078 12.5 14.75 12.5H19.25C20.4922 12.5 21.5 13.5078 21.5 14.75V19.25C21.5 20.4922 20.4922 21.5 19.25 21.5H14.75C13.5078 21.5 12.5 20.4922 12.5 19.25V14.75Z" fill="white"/>
</svg>
