<svg width="16" height="15" viewBox="0 0 16 15" fill="none" xmlns="http://www.w3.org/2000/svg">
<g clip-path="url(#clip0_5341_982)">
<path d="M3.52332 1.40625C3.17761 1.40625 2.89929 1.68457 2.89929 2.03027V7.5H13.2118H14.618H14.8524C15.2421 7.5 15.5555 7.81348 15.5555 8.20312C15.5555 8.59277 15.2421 8.90625 14.8524 8.90625H14.618H13.2118H2.89929H1.49304H1.25867C0.869019 8.90625 0.555542 8.59277 0.555542 8.20312C0.555542 7.81348 0.869019 7.5 1.25867 7.5H1.49304V2.03027C1.49304 0.908203 2.40125 0 3.52332 0C4.06238 0 4.578 0.213867 4.95886 0.594727L5.09949 0.735352C5.42468 0.56543 5.79382 0.46875 6.18347 0.46875C6.88367 0.46875 7.51355 0.776367 7.94421 1.26562C8.21375 1.11035 8.56238 1.14844 8.79089 1.37988C9.06628 1.65527 9.06628 2.10059 8.79089 2.37305L5.74109 5.41992C5.4657 5.69531 5.02039 5.69531 4.74792 5.41992C4.51941 5.19141 4.48132 4.84277 4.63367 4.57324C4.14441 4.14258 3.83679 3.5127 3.83679 2.8125C3.83679 2.41992 3.93347 2.05371 4.10339 1.72852L3.96277 1.58789C3.84558 1.4707 3.68738 1.40625 3.52332 1.40625ZM1.49304 9.84375H2.89929V10.7812C2.89929 11.5576 3.52917 12.1875 4.30554 12.1875H11.8055C12.5819 12.1875 13.2118 11.5576 13.2118 10.7812V9.84375H14.618V10.7812C14.618 11.6133 14.2548 12.3633 13.6805 12.8789V14.2969C13.6805 14.6865 13.3671 15 12.9774 15C12.5878 15 12.2743 14.6865 12.2743 14.2969V13.5557C12.1219 13.582 11.9667 13.5938 11.8055 13.5938H4.30554C4.14441 13.5938 3.98914 13.5791 3.83679 13.5557V14.2969C3.83679 14.6865 3.52332 15 3.13367 15C2.74402 15 2.43054 14.6865 2.43054 14.2969V12.8789C1.85632 12.3633 1.49304 11.6133 1.49304 10.7812V9.84375ZM6.18054 1.875C5.66199 1.875 5.24304 2.29395 5.24304 2.8125C5.24304 3.11719 5.3866 3.38672 5.61218 3.55957L6.92468 2.24707C6.75476 2.01855 6.48523 1.875 6.18054 1.875Z" fill="#949494"/>
</g>
<defs>
<clipPath id="clip0_5341_982">
<rect width="15" height="15" fill="white" transform="translate(0.555542)"/>
</clipPath>
</defs>
</svg>
