<svg width="19" height="15" viewBox="0 0 19 15" fill="none" xmlns="http://www.w3.org/2000/svg">
<g clip-path="url(#clip0_5341_978)">
<path d="M1.40625 1.64062C1.40625 1.25098 1.09277 0.9375 0.703125 0.9375C0.313477 0.9375 0 1.25098 0 1.64062V10.5469V13.3594C0 13.749 0.313477 14.0625 0.703125 14.0625C1.09277 14.0625 1.40625 13.749 1.40625 13.3594V11.25H9.14062H17.3438V13.3594C17.3438 13.749 17.6572 14.0625 18.0469 14.0625C18.4365 14.0625 18.75 13.749 18.75 13.3594V10.5469V7.26562C18.75 5.32324 17.1768 3.75 15.2344 3.75H10.0781C9.17285 3.75 8.4375 4.48535 8.4375 5.39062V9.84375H1.40625V1.64062ZM17.3438 7.26562V9.84375H9.84375V5.39062C9.84375 5.26172 9.94922 5.15625 10.0781 5.15625H15.2344C16.4004 5.15625 17.3438 6.09961 17.3438 7.26562ZM3.75 6.32812C3.75 6.01732 3.87347 5.71925 4.09323 5.49948C4.313 5.27972 4.61107 5.15625 4.92188 5.15625C5.23268 5.15625 5.53075 5.27972 5.75052 5.49948C5.97028 5.71925 6.09375 6.01732 6.09375 6.32812C6.09375 6.63893 5.97028 6.937 5.75052 7.15677C5.53075 7.37653 5.23268 7.5 4.92188 7.5C4.61107 7.5 4.313 7.37653 4.09323 7.15677C3.87347 6.937 3.75 6.63893 3.75 6.32812ZM7.5 6.32812C7.5 5.64436 7.22838 4.98861 6.74488 4.50512C6.26139 4.02162 5.60564 3.75 4.92188 3.75C4.23811 3.75 3.58236 4.02162 3.09887 4.50512C2.61537 4.98861 2.34375 5.64436 2.34375 6.32812C2.34375 7.01189 2.61537 7.66764 3.09887 8.15113C3.58236 8.63463 4.23811 8.90625 4.92188 8.90625C5.60564 8.90625 6.26139 8.63463 6.74488 8.15113C7.22838 7.66764 7.5 7.01189 7.5 6.32812Z" fill="#949494"/>
</g>
<defs>
<clipPath id="clip0_5341_978">
<rect width="18.75" height="15" fill="white"/>
</clipPath>
</defs>
</svg>
