<svg width="17" height="16" viewBox="0 0 17 16" fill="none" xmlns="http://www.w3.org/2000/svg">
<g clip-path="url(#clip0_5257_24611)">
<path d="M4.24062 3.3375L3.48125 5.5H13.0156L12.2594 3.3375C12.0844 2.8375 11.6094 2.5 11.0781 2.5H5.41875C4.8875 2.5 4.41563 2.83438 4.2375 3.3375H4.24062ZM1.75312 5.9L2.82188 2.84063C3.20938 1.7375 4.25 1 5.41875 1H11.0813C12.25 1 13.2906 1.7375 13.6781 2.84063L14.75 5.9C15.6438 6.41875 16.25 7.3875 16.25 8.5V11V12.5V14.25C16.25 14.6656 15.9156 15 15.5 15C15.0844 15 14.75 14.6656 14.75 14.25V12.5H1.75V14.25C1.75 14.6656 1.41562 15 1 15C0.584375 15 0.25 14.6656 0.25 14.25V12.5V11V8.5C0.25 7.3875 0.853125 6.41875 1.75312 5.9ZM13.25 7H3.25C2.42188 7 1.75 7.67188 1.75 8.5V11H14.75V8.5C14.75 7.67188 14.0781 7 13.25 7ZM3.75 8C4.01522 8 4.26957 8.10536 4.45711 8.29289C4.64464 8.48043 4.75 8.73478 4.75 9C4.75 9.26522 4.64464 9.51957 4.45711 9.70711C4.26957 9.89464 4.01522 10 3.75 10C3.48478 10 3.23043 9.89464 3.04289 9.70711C2.85536 9.51957 2.75 9.26522 2.75 9C2.75 8.73478 2.85536 8.48043 3.04289 8.29289C3.23043 8.10536 3.48478 8 3.75 8ZM11.75 9C11.75 8.73478 11.8554 8.48043 12.0429 8.29289C12.2304 8.10536 12.4848 8 12.75 8C13.0152 8 13.2696 8.10536 13.4571 8.29289C13.6446 8.48043 13.75 8.73478 13.75 9C13.75 9.26522 13.6446 9.51957 13.4571 9.70711C13.2696 9.89464 13.0152 10 12.75 10C12.4848 10 12.2304 9.89464 12.0429 9.70711C11.8554 9.51957 11.75 9.26522 11.75 9Z" fill="#5E5E5E"/>
</g>
<defs>
<clipPath id="clip0_5257_24611">
<rect width="16" height="16" fill="white" transform="translate(0.25)"/>
</clipPath>
</defs>
</svg>
