<svg width="82" height="60" viewBox="0 0 82 60" fill="none" xmlns="http://www.w3.org/2000/svg">
<path d="M73.7802 55.8955H68.3906V55.9362H73.7802V55.8955Z" fill="#EBEBEB"/>
<path d="M54.4669 56.3389H53.0527V56.3795H54.4669V56.3389Z" fill="#EBEBEB"/>
<path d="M68.2282 54.3857H65.1055V54.4264H68.2282V54.3857Z" fill="#EBEBEB"/>
<path d="M16.1338 54.6592H9.10547V54.6999H16.1338V54.6592Z" fill="#EBEBEB"/>
<path d="M18.6141 54.6592H17.584V54.6999H18.6141V54.6592Z" fill="#EBEBEB"/>
<path d="M37.2074 55.3457H21.9629V55.3864H37.2074V55.3457Z" fill="#EBEBEB"/>
<path d="M39.364 46.0199H7.9409C7.69447 46.0199 7.45813 45.922 7.28387 45.7478C7.10961 45.5735 7.01172 45.3372 7.01172 45.0907V0.921049C7.01386 0.676026 7.11271 0.44177 7.28673 0.269269C7.46075 0.0967691 7.69587 -9.39371e-06 7.9409 6.83879e-10H39.364C39.486 6.8388e-10 39.6068 0.0240339 39.7196 0.0707298C39.8323 0.117426 39.9347 0.185869 40.021 0.272152C40.1073 0.358435 40.1757 0.460868 40.2224 0.573602C40.2691 0.686336 40.2932 0.807163 40.2932 0.929185V45.0907C40.2932 45.2127 40.2691 45.3336 40.2224 45.4463C40.1757 45.559 40.1073 45.6615 40.021 45.7478C39.9347 45.834 39.8323 45.9025 39.7196 45.9492C39.6068 45.9959 39.486 46.0199 39.364 46.0199ZM7.9409 0.032546C7.70539 0.0329762 7.47965 0.126724 7.31311 0.293258C7.14658 0.459791 7.05283 0.685535 7.0524 0.921049V45.0907C7.05283 45.3262 7.14658 45.552 7.31311 45.7185C7.47965 45.885 7.70539 45.9788 7.9409 45.9792H39.364C39.5995 45.9788 39.8252 45.885 39.9918 45.7185C40.1583 45.552 40.252 45.3262 40.2525 45.0907V0.921049C40.252 0.685535 40.1583 0.459791 39.9918 0.293258C39.8252 0.126724 39.5995 0.0329762 39.364 0.032546H7.9409Z" fill="#EBEBEB"/>
<path d="M74.5612 46.0199H43.1382C42.8917 46.0199 42.6554 45.922 42.4811 45.7478C42.3069 45.5735 42.209 45.3372 42.209 45.0907V0.921049C42.2111 0.676026 42.31 0.44177 42.484 0.269269C42.658 0.0967691 42.8931 -9.39371e-06 43.1382 6.83879e-10H74.5612C74.8077 6.83881e-10 75.044 0.0978961 75.2183 0.272152C75.3925 0.446408 75.4904 0.68275 75.4904 0.929185V45.0907C75.4904 45.3372 75.3925 45.5735 75.2183 45.7478C75.044 45.922 74.8077 46.0199 74.5612 46.0199ZM43.1382 0.032546C42.9027 0.0329762 42.6769 0.126724 42.5104 0.293258C42.3438 0.459791 42.2501 0.685535 42.2497 0.921049V45.0907C42.2501 45.3262 42.3438 45.552 42.5104 45.7185C42.6769 45.885 42.9027 45.9788 43.1382 45.9792H74.5612C74.7968 45.9788 75.0225 45.885 75.189 45.7185C75.3556 45.552 75.4493 45.3262 75.4497 45.0907V0.921049C75.4493 0.685535 75.3556 0.459791 75.189 0.293258C75.0225 0.126724 74.7968 0.0329762 74.5612 0.032546H43.1382Z" fill="#EBEBEB"/>
<path d="M81.9331 53.2773H0.568359V53.318H81.9331V53.2773Z" fill="#EBEBEB"/>
<path d="M35.1614 9.30294C34.9904 9.30021 34.8238 9.35783 34.6911 9.46567C34.718 9.31826 34.718 9.1672 34.6911 9.0198C34.6192 8.66951 34.4317 8.35352 34.1587 8.12247C33.8858 7.89143 33.5432 7.75873 33.1858 7.74562C32.9849 7.74306 32.787 7.79478 32.613 7.89533C32.4808 7.65263 32.2876 7.44859 32.0525 7.30334C31.8173 7.15808 31.5484 7.07664 31.2721 7.06704C31.1127 7.06146 30.954 7.09277 30.8086 7.15855C30.6632 7.22432 30.535 7.32278 30.4339 7.44625C30.3328 7.56972 30.2615 7.71487 30.2257 7.87039C30.1899 8.0259 30.1905 8.18758 30.2274 8.34284C30.2385 8.39783 30.2526 8.45215 30.2697 8.50557C30.1577 8.47573 30.0423 8.46041 29.9264 8.46001C29.7669 8.45442 29.6083 8.48574 29.4629 8.55151C29.3175 8.61729 29.1892 8.71575 29.0881 8.83922C28.987 8.96269 28.9158 9.10784 28.88 9.26335C28.8441 9.41887 28.8447 9.58055 28.8816 9.73581C28.9533 10.0862 29.1407 10.4024 29.4137 10.6335C29.6867 10.8646 30.0295 10.9972 30.3869 11.01H35.4689C35.576 11.0138 35.6826 10.9929 35.7803 10.9489C35.878 10.9048 35.9643 10.8388 36.0323 10.756C36.1003 10.6732 36.1483 10.5757 36.1725 10.4713C36.1967 10.3669 36.1965 10.2583 36.1719 10.154C36.1227 9.91971 35.9964 9.70862 35.8133 9.55438C35.6301 9.40014 35.4007 9.31163 35.1614 9.30294Z" fill="#F5F5F5"/>
<path d="M26.8123 10.354C26.5017 10.3485 26.1992 10.4528 25.958 10.6486C26.0091 10.3798 26.0091 10.1037 25.958 9.83494C25.7269 8.55589 24.5048 7.5193 23.2258 7.5193C22.8616 7.51523 22.503 7.60909 22.1876 7.79106C21.6994 6.91394 20.7441 6.28906 19.7466 6.28906C18.4676 6.28906 17.6181 7.32565 17.8492 8.6047C17.8687 8.70877 17.8948 8.8115 17.9273 8.91226C17.7238 8.85859 17.5144 8.83071 17.304 8.82927C16.025 8.82927 15.1772 9.86586 15.4066 11.1433C15.6361 12.4207 16.8614 13.4589 18.1388 13.4589H27.3656C28.2248 13.4589 28.7944 12.7624 28.6398 11.9032C28.5505 11.4787 28.3224 11.096 27.9915 10.8155C27.6606 10.5349 27.2457 10.3726 26.8123 10.354Z" fill="#F5F5F5"/>
<path d="M64.0966 10.882C63.7858 10.8768 63.4832 10.9817 63.2423 11.1782C63.2932 10.9094 63.2932 10.6334 63.2423 10.3646C63.0128 9.08713 61.7891 8.05055 60.5101 8.05055C60.1464 8.04653 59.7884 8.1404 59.4735 8.32231C58.9853 7.44519 58.0284 6.82031 57.0325 6.82031C55.7535 6.82031 54.904 7.8569 55.1351 9.13433C55.1552 9.2388 55.1812 9.34204 55.2132 9.44351C55.01 9.38855 54.8005 9.3601 54.5899 9.35889C53.3125 9.35889 52.4631 10.3955 52.6942 11.6745C52.9252 12.9536 54.1538 13.9951 55.4329 13.9951H64.658C65.5172 13.9951 66.0868 13.2986 65.9322 12.441C65.8445 12.0134 65.6161 11.6274 65.2833 11.3449C64.9506 11.0623 64.5328 10.8993 64.0966 10.882Z" fill="#F5F5F5"/>
<path d="M69.0784 8.82309C68.9486 8.82044 68.8222 8.86431 68.722 8.94676C68.7432 8.83548 68.7432 8.72119 68.722 8.60991C68.6681 8.34451 68.5264 8.10499 68.3197 7.92994C68.1131 7.75488 67.8535 7.65449 67.5829 7.64492C67.4309 7.6427 67.2812 7.68209 67.15 7.75883C67.0499 7.57542 66.9038 7.42122 66.7261 7.31137C66.5483 7.20152 66.345 7.13982 66.1362 7.13233C66.0156 7.12806 65.8955 7.15171 65.7855 7.20144C65.6755 7.25116 65.5784 7.32562 65.5019 7.41901C65.4253 7.51239 65.3714 7.62219 65.3442 7.73984C65.3171 7.8575 65.3175 7.97983 65.3454 8.09731C65.3537 8.14076 65.3646 8.18368 65.3779 8.22587C65.2936 8.20259 65.2066 8.19055 65.1192 8.19007C64.9984 8.18547 64.8782 8.2089 64.768 8.25852C64.6578 8.30814 64.5606 8.3826 64.484 8.47608C64.4074 8.56955 64.3535 8.67949 64.3264 8.79729C64.2994 8.91509 64.3001 9.03754 64.3283 9.15505C64.3825 9.42015 64.5244 9.6593 64.731 9.83404C64.9376 10.0088 65.197 10.1089 65.4674 10.1184H69.3111C69.3923 10.1212 69.4731 10.1051 69.5472 10.0715C69.6212 10.0379 69.6864 9.9876 69.7378 9.92457C69.7892 9.86154 69.8253 9.78749 69.8433 9.70819C69.8613 9.6289 69.8607 9.54652 69.8416 9.46749C69.8041 9.29053 69.7087 9.13109 69.5705 9.01439C69.4323 8.89769 69.2591 8.83038 69.0784 8.82309Z" fill="#F0F0F0"/>
<path d="M45.4144 16.6354V15.0635H42.2379V16.6354H36.9688V53.6174H46.1825V16.6354H45.4144Z" fill="#F0F0F0"/>
<path d="M41.3057 18.6211H39.9453V19.9815H41.3057V18.6211Z" fill="#FAFAFA"/>
<path d="M43.2061 18.6211H41.8457V19.9815H43.2061V18.6211Z" fill="#FAFAFA"/>
<path d="M39.4053 20.6729H38.0449V22.0333H39.4053V20.6729Z" fill="#FAFAFA"/>
<path d="M41.3057 20.6729H39.9453V22.0333H41.3057V20.6729Z" fill="#FAFAFA"/>
<path d="M45.1065 20.6729H43.7461V22.0333H45.1065V20.6729Z" fill="#FAFAFA"/>
<path d="M39.4053 22.7266H38.0449V24.087H39.4053V22.7266Z" fill="#FAFAFA"/>
<path d="M43.2061 22.7266H41.8457V24.087H43.2061V22.7266Z" fill="#FAFAFA"/>
<path d="M45.1065 22.7266H43.7461V24.087H45.1065V22.7266Z" fill="#FAFAFA"/>
<path d="M39.4053 26.8311H38.0449V28.1915H39.4053V26.8311Z" fill="#FAFAFA"/>
<path d="M43.2061 26.8311H41.8457V28.1915H43.2061V26.8311Z" fill="#FAFAFA"/>
<path d="M39.4053 28.8828H38.0449V30.2432H39.4053V28.8828Z" fill="#FAFAFA"/>
<path d="M41.3057 28.8828H39.9453V30.2432H41.3057V28.8828Z" fill="#FAFAFA"/>
<path d="M45.1065 28.8828H43.7461V30.2432H45.1065V28.8828Z" fill="#FAFAFA"/>
<path d="M39.4053 39.1318H38.0449V40.4923H39.4053V39.1318Z" fill="#FAFAFA"/>
<path d="M41.3057 39.1318H39.9453V40.4923H41.3057V39.1318Z" fill="#FAFAFA"/>
<path d="M45.1065 39.1318H43.7461V40.4923H45.1065V39.1318Z" fill="#FAFAFA"/>
<path d="M39.4053 41.1836H38.0449V42.544H39.4053V41.1836Z" fill="#FAFAFA"/>
<path d="M43.2061 41.1836H41.8457V42.544H43.2061V41.1836Z" fill="#FAFAFA"/>
<path d="M45.1065 41.1836H43.7461V42.544H45.1065V41.1836Z" fill="#FAFAFA"/>
<path d="M39.4053 45.2891H38.0449V46.6495H39.4053V45.2891Z" fill="#FAFAFA"/>
<path d="M43.2061 45.2891H41.8457V46.6495H43.2061V45.2891Z" fill="#FAFAFA"/>
<path d="M39.4053 47.3408H38.0449V48.7012H39.4053V47.3408Z" fill="#FAFAFA"/>
<path d="M41.3057 47.3408H39.9453V48.7012H41.3057V47.3408Z" fill="#FAFAFA"/>
<path d="M45.1065 47.3408H43.7461V48.7012H45.1065V47.3408Z" fill="#FAFAFA"/>
<path d="M45.1065 30.9365H43.7461V32.2969H45.1065V30.9365Z" fill="#FAFAFA"/>
<path d="M39.4053 32.9883H38.0449V34.3487H39.4053V32.9883Z" fill="#FAFAFA"/>
<path d="M41.3057 32.9883H39.9453V34.3487H41.3057V32.9883Z" fill="#FAFAFA"/>
<path d="M43.2177 35.0634L41.8574 35.0439L41.838 36.4042L43.1982 36.4237L43.2177 35.0634Z" fill="#FAFAFA"/>
<path d="M45.1181 35.0908L43.7578 35.0713L43.7383 36.4316L45.0986 36.451L45.1181 35.0908Z" fill="#FAFAFA"/>
<path d="M39.4053 37.0928H38.0449V38.4532H39.4053V37.0928Z" fill="#FAFAFA"/>
<path d="M63.0962 23.684V22.4131H65.6657V23.684H69.9325V53.6181H62.4746V23.684H63.0962Z" fill="#F0F0F0"/>
<path d="M66.4218 26.3936H67.5234V25.2919H66.4218V26.3936Z" fill="#FAFAFA"/>
<path d="M64.8827 26.3936H65.9844V25.2919H64.8827V26.3936Z" fill="#FAFAFA"/>
<path d="M67.9589 28.0547H69.0605V26.953H67.9589V28.0547Z" fill="#FAFAFA"/>
<path d="M66.4218 28.0547H67.5234V26.953H66.4218V28.0547Z" fill="#FAFAFA"/>
<path d="M63.3436 28.0547H64.4453V26.953H63.3436V28.0547Z" fill="#FAFAFA"/>
<path d="M67.9589 29.7158H69.0605V28.6141H67.9589V29.7158Z" fill="#FAFAFA"/>
<path d="M64.8827 29.7158H65.9844V28.6141H64.8827V29.7158Z" fill="#FAFAFA"/>
<path d="M63.3436 29.7158H64.4453V28.6141H63.3436V29.7158Z" fill="#FAFAFA"/>
<path d="M67.9589 33.0371H69.0605V31.9354H67.9589V33.0371Z" fill="#FAFAFA"/>
<path d="M64.8827 33.0371H65.9844V31.9354H64.8827V33.0371Z" fill="#FAFAFA"/>
<path d="M67.9589 34.7002H69.0605V33.5985H67.9589V34.7002Z" fill="#FAFAFA"/>
<path d="M66.4218 34.7002H67.5234V33.5985H66.4218V34.7002Z" fill="#FAFAFA"/>
<path d="M63.3436 34.7002H64.4453V33.5985H63.3436V34.7002Z" fill="#FAFAFA"/>
<path d="M67.9589 42.9951H69.0605V41.8934H67.9589V42.9951Z" fill="#FAFAFA"/>
<path d="M66.4218 42.9951H67.5234V41.8934H66.4218V42.9951Z" fill="#FAFAFA"/>
<path d="M63.3436 42.9951H64.4453V41.8934H63.3436V42.9951Z" fill="#FAFAFA"/>
<path d="M67.9589 44.6543H69.0605V43.5526H67.9589V44.6543Z" fill="#FAFAFA"/>
<path d="M64.8827 44.6543H65.9844V43.5526H64.8827V44.6543Z" fill="#FAFAFA"/>
<path d="M63.3436 44.6543H64.4453V43.5526H63.3436V44.6543Z" fill="#FAFAFA"/>
<path d="M67.9589 47.9795H69.0605V46.8778H67.9589V47.9795Z" fill="#FAFAFA"/>
<path d="M64.8827 47.9795H65.9844V46.8778H64.8827V47.9795Z" fill="#FAFAFA"/>
<path d="M67.9589 49.6406H69.0605V48.5389H67.9589V49.6406Z" fill="#FAFAFA"/>
<path d="M66.4218 49.6406H67.5234V48.5389H66.4218V49.6406Z" fill="#FAFAFA"/>
<path d="M63.3436 49.6406H64.4453V48.5389H63.3436V49.6406Z" fill="#FAFAFA"/>
<path d="M63.3436 36.3623H64.4453V35.2606H63.3436V36.3623Z" fill="#FAFAFA"/>
<path d="M67.9589 38.0215H69.0605V36.9198H67.9589V38.0215Z" fill="#FAFAFA"/>
<path d="M66.4218 38.0215H67.5234V36.9198H66.4218V38.0215Z" fill="#FAFAFA"/>
<path d="M64.8926 39.7003L65.9941 39.6846L65.9784 38.583L64.8768 38.5988L64.8926 39.7003Z" fill="#FAFAFA"/>
<path d="M63.3516 39.7248L64.4531 39.709L64.4374 38.6074L63.3358 38.6232L63.3516 39.7248Z" fill="#FAFAFA"/>
<path d="M67.9589 41.3447H69.0605V40.243H67.9589V41.3447Z" fill="#FAFAFA"/>
<path d="M47.58 23.9844H50.1251H54.3479V53.6174H46.9648V23.9844H47.58Z" fill="#EBEBEB"/>
<path d="M50.8746 26.666H51.9648V25.5757H50.8746V26.666Z" fill="#FAFAFA"/>
<path d="M49.3511 26.666H50.4414V25.5757H49.3511V26.666Z" fill="#FAFAFA"/>
<path d="M52.396 28.3115H53.4863V27.2212H52.396V28.3115Z" fill="#FAFAFA"/>
<path d="M50.8746 28.3115H51.9648V27.2212H50.8746V28.3115Z" fill="#FAFAFA"/>
<path d="M47.8277 28.3115H48.918V27.2212H47.8277V28.3115Z" fill="#FAFAFA"/>
<path d="M52.396 29.9551H53.4863V28.8648H52.396V29.9551Z" fill="#FAFAFA"/>
<path d="M49.3511 29.9551H50.4414V28.8648H49.3511V29.9551Z" fill="#FAFAFA"/>
<path d="M47.8277 29.9551H48.918V28.8648H47.8277V29.9551Z" fill="#FAFAFA"/>
<path d="M52.396 33.2461H53.4863V32.1558H52.396V33.2461Z" fill="#FAFAFA"/>
<path d="M49.3511 33.2461H50.4414V32.1558H49.3511V33.2461Z" fill="#FAFAFA"/>
<path d="M52.396 34.8896H53.4863V33.7994H52.396V34.8896Z" fill="#FAFAFA"/>
<path d="M50.8746 34.8896H51.9648V33.7994H50.8746V34.8896Z" fill="#FAFAFA"/>
<path d="M47.8277 34.8896H48.918V33.7994H47.8277V34.8896Z" fill="#FAFAFA"/>
<path d="M52.396 43.1006H53.4863V42.0103H52.396V43.1006Z" fill="#FAFAFA"/>
<path d="M50.8746 43.1006H51.9648V42.0103H50.8746V43.1006Z" fill="#FAFAFA"/>
<path d="M47.8277 43.1006H48.918V42.0103H47.8277V43.1006Z" fill="#FAFAFA"/>
<path d="M52.396 44.7461H53.4863V43.6558H52.396V44.7461Z" fill="#FAFAFA"/>
<path d="M49.3511 44.7461H50.4414V43.6558H49.3511V44.7461Z" fill="#FAFAFA"/>
<path d="M47.8277 44.7461H48.918V43.6558H47.8277V44.7461Z" fill="#FAFAFA"/>
<path d="M52.396 48.0342H53.4863V46.9439H52.396V48.0342Z" fill="#FAFAFA"/>
<path d="M49.3511 48.0342H50.4414V46.9439H49.3511V48.0342Z" fill="#FAFAFA"/>
<path d="M52.396 49.6777H53.4863V48.5874H52.396V49.6777Z" fill="#FAFAFA"/>
<path d="M50.8746 49.6777H51.9648V48.5874H50.8746V49.6777Z" fill="#FAFAFA"/>
<path d="M47.8277 49.6777H48.918V48.5874H47.8277V49.6777Z" fill="#FAFAFA"/>
<path d="M47.8277 36.5342H48.918V35.4439H47.8277V36.5342Z" fill="#FAFAFA"/>
<path d="M52.396 38.1777H53.4863V37.0874H52.396V38.1777Z" fill="#FAFAFA"/>
<path d="M50.8746 38.1777H51.9648V37.0874H50.8746V38.1777Z" fill="#FAFAFA"/>
<path d="M49.361 39.8418L50.4512 39.8262L50.4356 38.736L49.3454 38.7516L49.361 39.8418Z" fill="#FAFAFA"/>
<path d="M47.8356 39.8623L48.9258 39.8467L48.9102 38.7565L47.82 38.7721L47.8356 39.8623Z" fill="#FAFAFA"/>
<path d="M52.396 41.4688H53.4863V40.3785H52.396V41.4688Z" fill="#FAFAFA"/>
<path d="M13.5113 23.9844H16.0547H20.2792V53.6174H12.8945V23.9844H13.5113Z" fill="#F0F0F0"/>
<path d="M16.8042 26.666H17.8945V25.5757H16.8042V26.666Z" fill="#FAFAFA"/>
<path d="M15.2808 26.666H16.3711V25.5757H15.2808V26.666Z" fill="#FAFAFA"/>
<path d="M18.3257 28.3115H19.416V27.2212H18.3257V28.3115Z" fill="#FAFAFA"/>
<path d="M16.8042 28.3115H17.8945V27.2212H16.8042V28.3115Z" fill="#FAFAFA"/>
<path d="M13.7574 28.3115H14.8477V27.2212H13.7574V28.3115Z" fill="#FAFAFA"/>
<path d="M18.3257 29.9551H19.416V28.8648H18.3257V29.9551Z" fill="#FAFAFA"/>
<path d="M15.2808 29.9551H16.3711V28.8648H15.2808V29.9551Z" fill="#FAFAFA"/>
<path d="M13.7574 29.9551H14.8477V28.8648H13.7574V29.9551Z" fill="#FAFAFA"/>
<path d="M18.3257 33.2461H19.416V32.1558H18.3257V33.2461Z" fill="#FAFAFA"/>
<path d="M15.2808 33.2461H16.3711V32.1558H15.2808V33.2461Z" fill="#FAFAFA"/>
<path d="M18.3257 34.8896H19.416V33.7994H18.3257V34.8896Z" fill="#FAFAFA"/>
<path d="M16.8042 34.8896H17.8945V33.7994H16.8042V34.8896Z" fill="#FAFAFA"/>
<path d="M13.7574 34.8896H14.8477V33.7994H13.7574V34.8896Z" fill="#FAFAFA"/>
<path d="M18.3257 43.1006H19.416V42.0103H18.3257V43.1006Z" fill="#FAFAFA"/>
<path d="M16.8042 43.1006H17.8945V42.0103H16.8042V43.1006Z" fill="#FAFAFA"/>
<path d="M13.7574 43.1006H14.8477V42.0103H13.7574V43.1006Z" fill="#FAFAFA"/>
<path d="M18.3257 44.7461H19.416V43.6558H18.3257V44.7461Z" fill="#FAFAFA"/>
<path d="M15.2808 44.7461H16.3711V43.6558H15.2808V44.7461Z" fill="#FAFAFA"/>
<path d="M13.7574 44.7461H14.8477V43.6558H13.7574V44.7461Z" fill="#FAFAFA"/>
<path d="M18.3257 48.0342H19.416V46.9439H18.3257V48.0342Z" fill="#FAFAFA"/>
<path d="M15.2808 48.0342H16.3711V46.9439H15.2808V48.0342Z" fill="#FAFAFA"/>
<path d="M18.3257 49.6777H19.416V48.5874H18.3257V49.6777Z" fill="#FAFAFA"/>
<path d="M16.8042 49.6777H17.8945V48.5874H16.8042V49.6777Z" fill="#FAFAFA"/>
<path d="M13.7574 49.6777H14.8477V48.5874H13.7574V49.6777Z" fill="#FAFAFA"/>
<path d="M13.7574 36.5342H14.8477V35.4439H13.7574V36.5342Z" fill="#FAFAFA"/>
<path d="M18.3257 38.1777H19.416V37.0874H18.3257V38.1777Z" fill="#FAFAFA"/>
<path d="M16.8042 38.1777H17.8945V37.0874H16.8042V38.1777Z" fill="#FAFAFA"/>
<path d="M15.2907 39.8428L16.3809 39.8271L16.3653 38.737L15.2751 38.7526L15.2907 39.8428Z" fill="#FAFAFA"/>
<path d="M13.7653 39.8633L14.8555 39.8477L14.8399 38.7575L13.7497 38.7731L13.7653 39.8633Z" fill="#FAFAFA"/>
<path d="M18.3257 41.4688H19.416V40.3785H18.3257V41.4688Z" fill="#FAFAFA"/>
<path d="M28.0762 53.6182H36.1866V19.2969L28.0762 20.1642V53.6182Z" fill="#F0F0F0"/>
<path d="M33.5317 22.958H35.748V20.7416H33.5317V22.958Z" fill="#FAFAFA"/>
<path d="M31.0239 22.958H33.2402V20.7416H31.0239V22.958Z" fill="#F0F0F0"/>
<path d="M28.5121 22.958H30.7285V20.7416H28.5121V22.958Z" fill="#FAFAFA"/>
<path d="M33.5317 25.4346H35.748V23.2182H33.5317V25.4346Z" fill="#FAFAFA"/>
<path d="M31.0239 25.4346H33.2402V23.2182H31.0239V25.4346Z" fill="#FAFAFA"/>
<path d="M28.5121 25.4346H30.7285V23.2182H28.5121V25.4346Z" fill="#FAFAFA"/>
<path d="M33.5317 27.9111H35.748V25.6948H33.5317V27.9111Z" fill="#FAFAFA"/>
<path d="M31.0239 27.9111H33.2402V25.6948H31.0239V27.9111Z" fill="#F0F0F0"/>
<path d="M28.5121 27.9111H30.7285V25.6948H28.5121V27.9111Z" fill="#FAFAFA"/>
<path d="M33.5317 30.3867H35.748V28.1703H33.5317V30.3867Z" fill="#F0F0F0"/>
<path d="M31.0239 30.3867H33.2402V28.1703H31.0239V30.3867Z" fill="#FAFAFA"/>
<path d="M28.5121 30.3867H30.7285V28.1703H28.5121V30.3867Z" fill="#FAFAFA"/>
<path d="M33.5317 32.8633H35.748V30.6469H33.5317V32.8633Z" fill="#FAFAFA"/>
<path d="M31.0239 32.8633H33.2402V30.6469H31.0239V32.8633Z" fill="#FAFAFA"/>
<path d="M28.5121 32.8633H30.7285V30.6469H28.5121V32.8633Z" fill="#F0F0F0"/>
<path d="M33.5317 35.3369H35.748V33.1205H33.5317V35.3369Z" fill="#FAFAFA"/>
<path d="M31.0239 35.3369H33.2402V33.1205H31.0239V35.3369Z" fill="#F0F0F0"/>
<path d="M28.5121 35.3369H30.7285V33.1205H28.5121V35.3369Z" fill="#FAFAFA"/>
<path d="M33.5317 37.8135H35.748V35.5971H33.5317V37.8135Z" fill="#F0F0F0"/>
<path d="M31.0239 37.8135H33.2402V35.5971H31.0239V37.8135Z" fill="#F0F0F0"/>
<path d="M28.5121 37.8135H30.7285V35.5971H28.5121V37.8135Z" fill="#FAFAFA"/>
<path d="M33.5317 40.29H35.748V38.0737H33.5317V40.29Z" fill="#FAFAFA"/>
<path d="M31.0239 40.29H33.2402V38.0737H31.0239V40.29Z" fill="#F0F0F0"/>
<path d="M28.5121 40.29H30.7285V38.0737H28.5121V40.29Z" fill="#FAFAFA"/>
<path d="M33.5317 42.7656H35.748V40.5492H33.5317V42.7656Z" fill="#FAFAFA"/>
<path d="M31.0239 42.7656H33.2402V40.5492H31.0239V42.7656Z" fill="#FAFAFA"/>
<path d="M28.5121 42.7656H30.7285V40.5492H28.5121V42.7656Z" fill="#FAFAFA"/>
<path d="M33.5317 45.2402H35.748V43.0239H33.5317V45.2402Z" fill="#F0F0F0"/>
<path d="M31.0239 45.2402H33.2402V43.0239H31.0239V45.2402Z" fill="#FAFAFA"/>
<path d="M28.5121 45.2402H30.7285V43.0239H28.5121V45.2402Z" fill="#F0F0F0"/>
<path d="M33.5317 47.7168H35.748V45.5004H33.5317V47.7168Z" fill="#FAFAFA"/>
<path d="M31.0239 47.7168H33.2402V45.5004H31.0239V47.7168Z" fill="#F0F0F0"/>
<path d="M28.5121 47.7168H30.7285V45.5004H28.5121V47.7168Z" fill="#FAFAFA"/>
<path d="M33.5317 50.1924H35.748V47.976H33.5317V50.1924Z" fill="#F0F0F0"/>
<path d="M31.0239 50.1924H33.2402V47.976H31.0239V50.1924Z" fill="#FAFAFA"/>
<path d="M28.5121 50.1924H30.7285V47.976H28.5121V50.1924Z" fill="#FAFAFA"/>
<path d="M55.1309 53.6178H61.6954V25.835L55.1309 26.538V53.6178Z" fill="#F0F0F0"/>
<path d="M59.5488 28.7998H61.3438V27.0049H59.5488V28.7998Z" fill="#FAFAFA"/>
<path d="M57.5156 28.7998H59.3105V27.0049H57.5156V28.7998Z" fill="#F0F0F0"/>
<path d="M55.4824 28.7998H57.2773V27.0049H55.4824V28.7998Z" fill="#FAFAFA"/>
<path d="M59.5488 30.8027H61.3438V29.0078H59.5488V30.8027Z" fill="#FAFAFA"/>
<path d="M57.5156 30.8027H59.3105V29.0078H57.5156V30.8027Z" fill="#FAFAFA"/>
<path d="M55.4824 30.8027H57.2773V29.0078H55.4824V30.8027Z" fill="#FAFAFA"/>
<path d="M59.5488 32.8096H61.3438V31.0147H59.5488V32.8096Z" fill="#FAFAFA"/>
<path d="M57.5156 32.8096H59.3105V31.0147H57.5156V32.8096Z" fill="#F0F0F0"/>
<path d="M55.4824 32.8096H57.2773V31.0147H55.4824V32.8096Z" fill="#FAFAFA"/>
<path d="M59.5488 34.8125H61.3438V33.0176H59.5488V34.8125Z" fill="#F0F0F0"/>
<path d="M57.5156 34.8125H59.3105V33.0176H57.5156V34.8125Z" fill="#FAFAFA"/>
<path d="M55.4824 34.8125H57.2773V33.0176H55.4824V34.8125Z" fill="#FAFAFA"/>
<path d="M59.5488 36.8164H61.3438V35.0215H59.5488V36.8164Z" fill="#FAFAFA"/>
<path d="M57.5156 36.8164H59.3105V35.0215H57.5156V36.8164Z" fill="#FAFAFA"/>
<path d="M55.4824 36.8164H57.2773V35.0215H55.4824V36.8164Z" fill="#F0F0F0"/>
<path d="M59.5488 38.8203H61.3438V37.0254H59.5488V38.8203Z" fill="#FAFAFA"/>
<path d="M57.5156 38.8203H59.3105V37.0254H57.5156V38.8203Z" fill="#F0F0F0"/>
<path d="M55.4824 38.8203H57.2773V37.0254H55.4824V38.8203Z" fill="#FAFAFA"/>
<path d="M59.5488 40.8242H61.3438V39.0293H59.5488V40.8242Z" fill="#F0F0F0"/>
<path d="M57.5156 40.8242H59.3105V39.0293H57.5156V40.8242Z" fill="#F0F0F0"/>
<path d="M55.4824 40.8242H57.2773V39.0293H55.4824V40.8242Z" fill="#FAFAFA"/>
<path d="M59.5488 42.8291H61.3438V41.0342H59.5488V42.8291Z" fill="#FAFAFA"/>
<path d="M57.5156 42.8291H59.3105V41.0342H57.5156V42.8291Z" fill="#F0F0F0"/>
<path d="M55.4824 42.8291H57.2773V41.0342H55.4824V42.8291Z" fill="#FAFAFA"/>
<path d="M59.5488 44.832H61.3438V43.0371H59.5488V44.832Z" fill="#FAFAFA"/>
<path d="M57.5156 44.832H59.3105V43.0371H57.5156V44.832Z" fill="#FAFAFA"/>
<path d="M55.4824 44.832H57.2773V43.0371H55.4824V44.832Z" fill="#FAFAFA"/>
<path d="M59.5488 46.8369H61.3438V45.042H59.5488V46.8369Z" fill="#F0F0F0"/>
<path d="M57.5156 46.8369H59.3105V45.042H57.5156V46.8369Z" fill="#FAFAFA"/>
<path d="M55.4824 46.8369H57.2773V45.042H55.4824V46.8369Z" fill="#F0F0F0"/>
<path d="M59.5488 48.8398H61.3438V47.0449H59.5488V48.8398Z" fill="#FAFAFA"/>
<path d="M57.5156 48.8398H59.3105V47.0449H57.5156V48.8398Z" fill="#F0F0F0"/>
<path d="M55.4824 48.8398H57.2773V47.0449H55.4824V48.8398Z" fill="#FAFAFA"/>
<path d="M59.5488 50.8447H61.3438V49.0498H59.5488V50.8447Z" fill="#F0F0F0"/>
<path d="M57.5156 50.8447H59.3105V49.0498H57.5156V50.8447Z" fill="#FAFAFA"/>
<path d="M55.4824 50.8447H57.2773V49.0498H55.4824V50.8447Z" fill="#FAFAFA"/>
<path d="M20.8047 53.6832H27.3708V25.9004L20.8047 26.6034V53.6832Z" fill="#F5F5F5"/>
<path d="M25.2227 28.8652H27.0176V27.0703H25.2227V28.8652Z" fill="#FAFAFA"/>
<path d="M23.1914 28.8652H24.9863V27.0703H23.1914V28.8652Z" fill="#F0F0F0"/>
<path d="M21.1582 28.8652H22.9531V27.0703H21.1582V28.8652Z" fill="#FAFAFA"/>
<path d="M25.2227 30.8682H27.0176V29.0733H25.2227V30.8682Z" fill="#FAFAFA"/>
<path d="M23.1914 30.8682H24.9863V29.0733H23.1914V30.8682Z" fill="#FAFAFA"/>
<path d="M21.1582 30.8682H22.9531V29.0733H21.1582V30.8682Z" fill="#FAFAFA"/>
<path d="M25.2227 32.873H27.0176V31.0781H25.2227V32.873Z" fill="#FAFAFA"/>
<path d="M23.1914 32.873H24.9863V31.0781H23.1914V32.873Z" fill="#F0F0F0"/>
<path d="M21.1582 32.873H22.9531V31.0781H21.1582V32.873Z" fill="#FAFAFA"/>
<path d="M25.2227 34.8779H27.0176V33.083H25.2227V34.8779Z" fill="#F0F0F0"/>
<path d="M23.1914 34.8779H24.9863V33.083H23.1914V34.8779Z" fill="#FAFAFA"/>
<path d="M21.1582 34.8779H22.9531V33.083H21.1582V34.8779Z" fill="#FAFAFA"/>
<path d="M25.2227 36.8828H27.0176V35.0879H25.2227V36.8828Z" fill="#FAFAFA"/>
<path d="M23.1914 36.8828H24.9863V35.0879H23.1914V36.8828Z" fill="#FAFAFA"/>
<path d="M21.1582 36.8828H22.9531V35.0879H21.1582V36.8828Z" fill="#F0F0F0"/>
<path d="M25.2227 38.8857H27.0176V37.0908H25.2227V38.8857Z" fill="#FAFAFA"/>
<path d="M23.1914 38.8857H24.9863V37.0908H23.1914V38.8857Z" fill="#F0F0F0"/>
<path d="M21.1582 38.8857H22.9531V37.0908H21.1582V38.8857Z" fill="#FAFAFA"/>
<path d="M25.2227 40.8887H27.0176V39.0938H25.2227V40.8887Z" fill="#F0F0F0"/>
<path d="M23.1914 40.8887H24.9863V39.0938H23.1914V40.8887Z" fill="#F0F0F0"/>
<path d="M21.1582 40.8887H22.9531V39.0938H21.1582V40.8887Z" fill="#FAFAFA"/>
<path d="M25.2227 42.8936H27.0176V41.0986H25.2227V42.8936Z" fill="#FAFAFA"/>
<path d="M23.1914 42.8936H24.9863V41.0986H23.1914V42.8936Z" fill="#F0F0F0"/>
<path d="M21.1582 42.8936H22.9531V41.0986H21.1582V42.8936Z" fill="#FAFAFA"/>
<path d="M25.2227 44.8975H27.0176V43.1026H25.2227V44.8975Z" fill="#FAFAFA"/>
<path d="M23.1914 44.8975H24.9863V43.1026H23.1914V44.8975Z" fill="#FAFAFA"/>
<path d="M21.1582 44.8975H22.9531V43.1026H21.1582V44.8975Z" fill="#FAFAFA"/>
<path d="M25.2227 46.9023H27.0176V45.1074H25.2227V46.9023Z" fill="#F0F0F0"/>
<path d="M23.1914 46.9023H24.9863V45.1074H23.1914V46.9023Z" fill="#FAFAFA"/>
<path d="M21.1582 46.9023H22.9531V45.1074H21.1582V46.9023Z" fill="#F0F0F0"/>
<path d="M25.2227 48.9053H27.0176V47.1104H25.2227V48.9053Z" fill="#FAFAFA"/>
<path d="M23.1914 48.9053H24.9863V47.1104H23.1914V48.9053Z" fill="#F0F0F0"/>
<path d="M21.1582 48.9053H22.9531V47.1104H21.1582V48.9053Z" fill="#FAFAFA"/>
<path d="M25.2227 50.9102H27.0176V49.1152H25.2227V50.9102Z" fill="#F0F0F0"/>
<path d="M23.1914 50.9102H24.9863V49.1152H23.1914V50.9102Z" fill="#FAFAFA"/>
<path d="M21.1582 50.9102H22.9531V49.1152H21.1582V50.9102Z" fill="#FAFAFA"/>
<path d="M54.0304 10.2003C53.8215 10.1968 53.6181 10.2671 53.456 10.3989C53.491 10.2188 53.491 10.0337 53.456 9.85371C53.367 9.42594 53.1372 9.04034 52.8033 8.7586C52.4693 8.47686 52.0505 8.31526 51.6139 8.29965C51.3685 8.29681 51.1269 8.35974 50.9141 8.4819C50.7515 8.18548 50.5147 7.93636 50.2269 7.75894C49.939 7.58151 49.6101 7.48186 49.2722 7.46973C48.4097 7.46973 47.8385 8.16946 47.9931 9.0303C48.0062 9.10088 48.0242 9.17048 48.0468 9.2386C47.9093 9.20179 47.7677 9.18265 47.6254 9.18164C46.7645 9.18164 46.1917 9.87975 46.3479 10.7422C46.4355 11.1709 46.6645 11.5578 46.9983 11.8408C47.332 12.1238 47.7511 12.2865 48.1884 12.3028H54.4079C54.539 12.3073 54.6692 12.2815 54.7887 12.2275C54.9081 12.1735 55.0135 12.0926 55.0966 11.9912C55.1797 11.8898 55.2384 11.7707 55.2679 11.6429C55.2975 11.5152 55.2972 11.3824 55.2671 11.2548C55.2096 10.9656 55.0562 10.7043 54.8318 10.5129C54.6074 10.3216 54.3251 10.2115 54.0304 10.2003Z" fill="#FAFAFA"/>
<path d="M41.2508 59.9996C58.6763 59.9996 72.8025 59.1749 72.8025 58.1575C72.8025 57.1402 58.6763 56.3154 41.2508 56.3154C23.8254 56.3154 9.69922 57.1402 9.69922 58.1575C9.69922 59.1749 23.8254 59.9996 41.2508 59.9996Z" fill="#F5F5F5"/>
<path d="M60.1368 31.3839H58.7308C58.3382 31.3835 57.9618 31.2274 57.6842 30.9497C57.4066 30.6721 57.2504 30.2957 57.25 29.9031V28.4955C57.2504 28.1029 57.4066 27.7265 57.6842 27.4489C57.9618 27.1712 58.3382 27.0151 58.7308 27.0146H60.1368C60.5296 27.0151 60.9062 27.1712 61.184 27.4488C61.4619 27.7263 61.6184 28.1027 61.6193 28.4955V29.9031C61.6184 30.2959 61.4619 30.6723 61.184 30.9498C60.9062 31.2274 60.5296 31.3835 60.1368 31.3839ZM58.7308 27.4459C58.4526 27.4463 58.1859 27.557 57.9891 27.7538C57.7924 27.9505 57.6817 28.2172 57.6812 28.4955V29.9031C57.6812 30.1815 57.7918 30.4484 57.9887 30.6453C58.1855 30.8421 58.4525 30.9527 58.7308 30.9527H60.1368C60.4152 30.9527 60.6822 30.8421 60.879 30.6453C61.0758 30.4484 61.1864 30.1815 61.1864 29.9031V28.4955C61.186 28.2172 61.0753 27.9505 60.8785 27.7538C60.6818 27.557 60.4151 27.4463 60.1368 27.4459H58.7308Z" fill="#8771C5"/>
<g opacity="0.6">
<path d="M60.1368 31.3839H58.7308C58.3382 31.3835 57.9618 31.2274 57.6842 30.9497C57.4066 30.6721 57.2504 30.2957 57.25 29.9031V28.4955C57.2504 28.1029 57.4066 27.7265 57.6842 27.4489C57.9618 27.1712 58.3382 27.0151 58.7308 27.0146H60.1368C60.5296 27.0151 60.9062 27.1712 61.184 27.4488C61.4619 27.7263 61.6184 28.1027 61.6193 28.4955V29.9031C61.6184 30.2959 61.4619 30.6723 61.184 30.9498C60.9062 31.2274 60.5296 31.3835 60.1368 31.3839ZM58.7308 27.4459C58.4526 27.4463 58.1859 27.557 57.9891 27.7538C57.7924 27.9505 57.6817 28.2172 57.6812 28.4955V29.9031C57.6812 30.1815 57.7918 30.4484 57.9887 30.6453C58.1855 30.8421 58.4525 30.9527 58.7308 30.9527H60.1368C60.4152 30.9527 60.6822 30.8421 60.879 30.6453C61.0758 30.4484 61.1864 30.1815 61.1864 29.9031V28.4955C61.186 28.2172 61.0753 27.9505 60.8785 27.7538C60.6818 27.557 60.4151 27.4463 60.1368 27.4459H58.7308Z" fill="white"/>
</g>
<path d="M59.2805 30.4016L57.2285 28.3512L57.8388 27.7394L59.2805 29.1811L61.8923 26.5693L62.5026 27.1796L59.2805 30.4016Z" fill="#8771C5"/>
<path d="M29.1369 15.634H27.8936C27.5492 15.6315 27.2195 15.4935 26.9759 15.2499C26.7323 15.0063 26.5944 14.6767 26.5918 14.3322V13.0873C26.5922 12.7414 26.7293 12.4097 26.9731 12.1644C27.2169 11.919 27.5478 11.7799 27.8936 11.7773H29.1369C29.4842 11.7778 29.8171 11.9159 30.0627 12.1615C30.3083 12.4071 30.4464 12.74 30.4469 13.0873V14.3208C30.4471 14.493 30.4134 14.6636 30.3476 14.8229C30.2819 14.9821 30.1855 15.1268 30.0639 15.2487C29.9422 15.3707 29.7977 15.4675 29.6387 15.5336C29.4796 15.5997 29.3091 15.6338 29.1369 15.634ZM27.8936 12.1516C27.6475 12.1516 27.4114 12.2493 27.2372 12.4232C27.063 12.5971 26.9649 12.833 26.9644 13.0792V14.3208C26.9649 14.567 27.063 14.8029 27.2372 14.9768C27.4114 15.1507 27.6475 15.2484 27.8936 15.2484H29.1369C29.3829 15.2484 29.6188 15.1506 29.7928 14.9767C29.9667 14.8027 30.0644 14.5668 30.0644 14.3208V13.0759C30.0644 12.8299 29.9667 12.594 29.7928 12.42C29.6188 12.2461 29.3829 12.1484 29.1369 12.1484L27.8936 12.1516Z" fill="#8771C5"/>
<g opacity="0.6">
<path d="M29.1369 15.634H27.8936C27.5492 15.6315 27.2195 15.4935 26.9759 15.2499C26.7323 15.0063 26.5944 14.6767 26.5918 14.3322V13.0873C26.5922 12.7414 26.7293 12.4097 26.9731 12.1644C27.2169 11.919 27.5478 11.7799 27.8936 11.7773H29.1369C29.4842 11.7778 29.8171 11.9159 30.0627 12.1615C30.3083 12.4071 30.4464 12.74 30.4469 13.0873V14.3208C30.4471 14.493 30.4134 14.6636 30.3476 14.8229C30.2819 14.9821 30.1855 15.1268 30.0639 15.2487C29.9422 15.3707 29.7977 15.4675 29.6387 15.5336C29.4796 15.5997 29.3091 15.6338 29.1369 15.634ZM27.8936 12.1516C27.6475 12.1516 27.4114 12.2493 27.2372 12.4232C27.063 12.5971 26.9649 12.833 26.9644 13.0792V14.3208C26.9649 14.567 27.063 14.8029 27.2372 14.9768C27.4114 15.1507 27.6475 15.2484 27.8936 15.2484H29.1369C29.3829 15.2484 29.6188 15.1506 29.7928 14.9767C29.9667 14.8027 30.0644 14.5668 30.0644 14.3208V13.0759C30.0644 12.8299 29.9667 12.594 29.7928 12.42C29.6188 12.2461 29.3829 12.1484 29.1369 12.1484L27.8936 12.1516Z" fill="white"/>
</g>
<path d="M28.3792 14.763L26.5664 12.9502L27.105 12.41L28.3792 13.6841L30.6883 11.375L31.2286 11.9153L28.3792 14.763Z" fill="#8771C5"/>
<path d="M65.6611 13.7666C64.382 13.4635 63.1688 12.9297 62.0811 12.1914C60.9935 12.93 59.7803 13.4638 58.501 13.7666C58.0336 13.8778 57.5597 13.9599 57.082 14.0123C57.082 14.0335 57.082 14.0563 57.082 14.0774C57.082 18.4711 59.0543 21.5386 62.0827 23.9372C65.1111 21.5386 67.0834 18.4728 67.0834 14.0774C67.0834 14.0563 67.0834 14.0335 67.0834 14.0123C66.6047 13.9599 66.1297 13.8779 65.6611 13.7666Z" fill="#8771C5"/>
<path opacity="0.1" d="M62.0811 12.1914C60.9935 12.93 59.7803 13.4638 58.501 13.7666C58.0336 13.8778 57.5597 13.9599 57.082 14.0123C57.082 14.0335 57.082 14.0563 57.082 14.0774C57.082 18.4711 59.0543 21.5386 62.0827 23.9372L62.0811 12.1914Z" fill="black"/>
<g opacity="0.5">
<path d="M62.0815 23.1397L61.9481 23.0258C59.2191 20.689 57.8798 18.056 57.7171 14.7363L57.709 14.5541L57.888 14.5231C58.1451 14.4792 58.4022 14.4271 58.6496 14.3604C59.8232 14.0824 60.9457 13.6211 61.9758 12.9935L62.0832 12.9268L62.1906 12.9935C63.2207 13.6208 64.3432 14.0821 65.5167 14.3604C65.7673 14.4206 66.0228 14.4727 66.2783 14.5231L66.4589 14.5541L66.4492 14.7363C66.2865 18.056 64.9456 20.6906 62.2182 23.0258L62.0815 23.1397ZM58.137 14.8974C58.3257 17.9567 59.5836 20.4107 62.0815 22.5961C64.5794 20.4123 65.8373 17.9567 66.0261 14.8974C65.8227 14.86 65.6193 14.816 65.4191 14.7672C64.2446 14.4888 63.1192 14.0333 62.0815 13.4166C61.044 14.0336 59.9186 14.4891 58.7439 14.7672C58.5454 14.816 58.3387 14.8584 58.137 14.8974Z" fill="white"/>
</g>
<path opacity="0.9" d="M62.0812 22.5965C59.5833 20.411 58.3254 17.9571 58.1366 14.8977C58.3417 14.8587 58.5451 14.8164 58.7436 14.7676C59.9183 14.4894 61.0437 14.0339 62.0812 13.4169V12.9287L61.9738 12.9954C60.9438 13.623 59.8213 14.0843 58.6476 14.3624C58.4003 14.4226 58.1431 14.4746 57.886 14.5251L57.707 14.556L57.7152 14.7383C57.8779 18.0579 59.2188 20.6909 61.9461 23.0277L62.0796 23.1416L62.0812 22.5965Z" fill="#F0F0F0"/>
<g opacity="0.2">
<path d="M61.7981 19.9572L59.6094 17.7669L60.2603 17.116L61.7981 18.6538L64.5856 15.8662L65.2382 16.5171L61.7981 19.9572Z" fill="#8771C5"/>
</g>
<g opacity="0.9">
<path d="M61.7981 19.9572L59.6094 17.7669L60.2603 17.116L61.7981 18.6538L64.5856 15.8662L65.2382 16.5171L61.7981 19.9572Z" fill="white"/>
</g>
<path d="M52.649 12.0322H46.9648V17.3161H52.649V12.0322Z" fill="#8771C5"/>
<path opacity="0.3" d="M52.649 12.0322H46.9648V17.3161H52.649V12.0322Z" fill="white"/>
<path d="M55.1713 12.0322H52.3301V17.3161H55.1713V12.0322Z" fill="#8771C5"/>
<path d="M50.6992 13.0684H48.9141V17.3156H50.6992V13.0684Z" fill="#263238"/>
<path d="M49.3599 13.0684H48.9141V17.3156H49.3599V13.0684Z" fill="#8771C5"/>
<path d="M49.1531 16.6113H34.3496V58.6606H49.1531V16.6113Z" fill="#8771C5"/>
<path opacity="0.6" d="M49.1531 16.6113H34.3496V58.6606H49.1531V16.6113Z" fill="white"/>
<path d="M48.93 16.6113V22.8292H45.6641V24.2075H48.93V29.5369H45.6641V30.9153H48.93V36.2446H45.6641V37.623H48.93V42.9524H45.6641V44.3307H48.93V49.6601H45.6641V51.0384H48.93V58.6606H55.929V16.6113H48.93Z" fill="#8771C5"/>
<path opacity="0.2" d="M48.93 16.6113V22.8292H45.6641V24.2075H48.93V29.5369H45.6641V30.9153H48.93V36.2446H45.6641V37.623H48.93V42.9524H45.6641V44.3307H48.93V49.6601H45.6641V51.0384H48.93V58.6606H55.929V16.6113H48.93Z" fill="white"/>
<path d="M45.8487 49.6602H32.2754V51.0385H45.8487V49.6602Z" fill="#8771C5"/>
<path d="M45.8487 42.9521H32.2754V44.3305H45.8487V42.9521Z" fill="#8771C5"/>
<path d="M45.8487 36.2451H32.2754V37.6234H45.8487V36.2451Z" fill="#8771C5"/>
<path d="M45.8487 29.5371H32.2754V30.9154H45.8487V29.5371Z" fill="#8771C5"/>
<path d="M45.8487 22.8291H32.2754V24.2074H45.8487V22.8291Z" fill="#8771C5"/>
<g opacity="0.4">
<path d="M45.8487 49.6602H32.2754V51.0385H45.8487V49.6602Z" fill="white"/>
<path d="M45.8487 42.9521H32.2754V44.3305H45.8487V42.9521Z" fill="white"/>
<path d="M45.8487 36.2441H32.2754V37.6225H45.8487V36.2441Z" fill="white"/>
<path d="M45.8487 29.5371H32.2754V30.9154H45.8487V29.5371Z" fill="white"/>
<path d="M45.8487 22.8291H32.2754V24.2074H45.8487V22.8291Z" fill="white"/>
</g>
<path d="M46.0752 52.5449H37.4277V58.6603H46.0752V52.5449Z" fill="#8771C5"/>
<path d="M39.1849 18.2334H35.6016V21.8167H39.1849V18.2334Z" fill="#8771C5"/>
<path d="M43.4583 18.2334H39.875V21.8167H43.4583V18.2334Z" fill="#8771C5"/>
<path opacity="0.7" d="M47.7317 18.2334H44.1484V21.8167H47.7317V18.2334Z" fill="white"/>
<path opacity="0.7" d="M39.1849 25.0801H35.6016V28.6634H39.1849V25.0801Z" fill="white"/>
<path d="M43.4583 25.0801H39.875V28.6634H43.4583V25.0801Z" fill="#8771C5"/>
<path opacity="0.7" d="M47.7317 25.0801H44.1484V28.6634H47.7317V25.0801Z" fill="white"/>
<path opacity="0.7" d="M39.1849 31.7871H35.6016V35.3704H39.1849V31.7871Z" fill="white"/>
<path opacity="0.7" d="M43.4583 31.7871H39.875V35.3704H43.4583V31.7871Z" fill="white"/>
<path d="M47.7317 31.7871H44.1484V35.3704H47.7317V31.7871Z" fill="#8771C5"/>
<path opacity="0.7" d="M39.1849 38.4951H35.6016V42.0784H39.1849V38.4951Z" fill="white"/>
<path d="M43.4583 38.4951H39.875V42.0784H43.4583V38.4951Z" fill="#8771C5"/>
<path opacity="0.7" d="M47.7317 38.4951H44.1484V42.0784H47.7317V38.4951Z" fill="white"/>
<path d="M39.1849 45.2051H35.6016V48.7884H39.1849V45.2051Z" fill="#8771C5"/>
<path d="M43.4583 45.2051H39.875V48.7884H43.4583V45.2051Z" fill="#8771C5"/>
<path opacity="0.7" d="M47.7317 45.2051H44.1484V48.7884H47.7317V45.2051Z" fill="white"/>
<path d="M35.9791 18.2334H35.6016V21.8167H35.9791V18.2334Z" fill="#8771C5"/>
<path d="M40.2525 18.2334H39.875V21.8167H40.2525V18.2334Z" fill="#8771C5"/>
<path d="M44.526 18.2334H44.1484V21.8167H44.526V18.2334Z" fill="#8771C5"/>
<path d="M35.9791 25.0801H35.6016V28.6634H35.9791V25.0801Z" fill="#8771C5"/>
<path d="M40.2525 25.0801H39.875V28.6634H40.2525V25.0801Z" fill="#8771C5"/>
<path d="M44.526 25.0801H44.1484V28.6634H44.526V25.0801Z" fill="#8771C5"/>
<path d="M35.9791 31.7871H35.6016V35.3704H35.9791V31.7871Z" fill="#8771C5"/>
<path d="M40.2525 31.7871H39.875V35.3704H40.2525V31.7871Z" fill="#8771C5"/>
<path d="M44.526 31.7871H44.1484V35.3704H44.526V31.7871Z" fill="#8771C5"/>
<path d="M35.9791 38.4951H35.6016V42.0784H35.9791V38.4951Z" fill="#8771C5"/>
<path d="M40.2525 38.4951H39.875V42.0784H40.2525V38.4951Z" fill="#8771C5"/>
<path d="M44.526 38.4951H44.1484V42.0784H44.526V38.4951Z" fill="#8771C5"/>
<path d="M35.9791 45.2051H35.6016V48.7884H35.9791V45.2051Z" fill="#8771C5"/>
<path d="M40.2525 45.2051H39.875V48.7884H40.2525V45.2051Z" fill="#8771C5"/>
<path d="M44.526 45.2051H44.1484V48.7884H44.526V45.2051Z" fill="#8771C5"/>
<g opacity="0.2">
<path d="M35.9791 18.2334H35.6016V21.8167H35.9791V18.2334Z" fill="black"/>
<path d="M40.2525 18.2334H39.875V21.8167H40.2525V18.2334Z" fill="black"/>
<path d="M44.526 18.2334H44.1484V21.8167H44.526V18.2334Z" fill="black"/>
<path d="M35.9791 25.0791H35.6016V28.6624H35.9791V25.0791Z" fill="black"/>
<path d="M40.2525 25.0791H39.875V28.6624H40.2525V25.0791Z" fill="black"/>
<path d="M44.526 25.0791H44.1484V28.6624H44.526V25.0791Z" fill="black"/>
<path d="M35.9791 31.7871H35.6016V35.3704H35.9791V31.7871Z" fill="black"/>
<path d="M40.2525 31.7871H39.875V35.3704H40.2525V31.7871Z" fill="black"/>
<path d="M44.526 31.7871H44.1484V35.3704H44.526V31.7871Z" fill="black"/>
<path d="M35.9791 38.4951H35.6016V42.0784H35.9791V38.4951Z" fill="black"/>
<path d="M40.2525 38.4951H39.875V42.0784H40.2525V38.4951Z" fill="black"/>
<path d="M44.526 38.4951H44.1484V42.0784H44.526V38.4951Z" fill="black"/>
<path d="M35.9791 45.2041H35.6016V48.7874H35.9791V45.2041Z" fill="black"/>
<path d="M40.2525 45.2041H39.875V48.7874H40.2525V45.2041Z" fill="black"/>
<path d="M44.526 45.2041H44.1484V48.7874H44.526V45.2041Z" fill="black"/>
</g>
<path opacity="0.4" d="M45.6623 52.959H41.752V58.661H45.6623V52.959Z" fill="white"/>
<path opacity="0.7" d="M41.7522 52.959H37.8418V58.661H41.7522V52.959Z" fill="white"/>
<path d="M38.2551 52.959H37.8418V58.661H38.2551V52.959Z" fill="#8771C5"/>
<path opacity="0.2" d="M38.2551 52.959H37.8418V58.661H38.2551V52.959Z" fill="black"/>
<path d="M17.0038 25.0837C17.0711 24.7687 17.1698 24.4613 17.2984 24.1659C17.4334 23.8405 17.5864 23.515 17.754 23.1896C17.9216 22.8641 18.0974 22.5386 18.2764 22.2132C18.4554 21.8877 18.6523 21.5623 18.8345 21.2596L17.396 20.3418C17.1682 20.6884 16.9745 21.0236 16.7776 21.3735C16.5807 21.7234 16.4001 22.0765 16.226 22.4394C16.0519 22.8023 15.9005 23.1798 15.7524 23.5785C15.5955 23.9989 15.4863 24.4355 15.427 24.8803C15.4123 25.0323 15.4085 25.1851 15.4156 25.3376H16.968C16.9723 25.2521 16.9843 25.1671 17.0038 25.0837Z" fill="#CE7A63"/>
<path d="M28.8118 21.5098C28.4507 22.1416 28.0468 22.7478 27.6027 23.3243C27.502 23.452 27.3933 23.5733 27.2772 23.6872C27.1877 23.7792 27.0852 23.8576 26.9729 23.9199H26.955C26.955 23.9199 26.8964 23.8841 26.8281 23.8157C26.6121 23.6033 26.4225 23.3656 26.2634 23.1078C26.0828 22.8182 25.907 22.5057 25.7427 22.1835C25.5783 21.8613 25.4172 21.5326 25.2675 21.1974C25.1178 20.8622 24.9665 20.5156 24.8314 20.1934L23.248 20.802C23.3929 21.1925 23.5491 21.544 23.7135 21.9085C23.8778 22.273 24.0584 22.6262 24.2521 22.9793C24.4498 23.3402 24.6671 23.69 24.903 24.0273C25.0267 24.1998 25.1585 24.3706 25.3049 24.5415C25.4628 24.7268 25.6389 24.8958 25.8306 25.046C25.9459 25.1362 26.0696 25.2152 26.2 25.2819C26.3657 25.366 26.5445 25.421 26.7288 25.4446C26.9359 25.4675 27.1454 25.4442 27.3423 25.3763C27.4979 25.3222 27.6444 25.2449 27.7768 25.1468C27.9829 24.9951 28.1669 24.8154 28.3236 24.6131C28.4587 24.4402 28.5816 24.258 28.6914 24.0679C28.8972 23.7123 29.0751 23.3413 29.2235 22.9581C29.371 22.5868 29.4944 22.2063 29.5929 21.819L28.8118 21.5098Z" fill="#CE7A63"/>
<path d="M26.6201 22.8849L24.8529 24.2047C24.8529 24.2047 24.7845 24.1298 24.6723 23.9996C24.5909 23.9052 24.4851 23.7783 24.3631 23.6302C23.6763 22.7938 22.6723 21.2658 22.6642 20.5188C22.6512 19.4025 23.8033 19.2382 25.1051 20.3789C25.6649 20.8671 25.9578 21.6889 26.2442 22.195C26.3386 22.3577 26.4183 22.5074 26.4802 22.6213C26.5713 22.7824 26.6201 22.8849 26.6201 22.8849Z" fill="#263238"/>
<path opacity="0.5" d="M26.6201 22.8849L24.8529 24.2047C24.8529 24.2047 24.7845 24.1298 24.6723 23.9996C24.5909 23.9052 24.4851 23.7783 24.3631 23.6302C23.6763 22.7938 22.6723 21.2658 22.6642 20.5188C22.6512 19.4025 23.8033 19.2382 25.1051 20.3789C25.6649 20.8671 25.9578 21.6889 26.2442 22.195C26.3386 22.3577 26.4183 22.5074 26.4802 22.6213C26.5713 22.7824 26.6201 22.8849 26.6201 22.8849Z" fill="white"/>
<path opacity="0.2" d="M22.6543 20.6478C23.053 20.3825 23.3443 21.066 24.1352 21.6437C24.4867 21.9024 25.258 23.5802 25.1945 23.9512L24.8544 24.205C24.8544 24.205 22.6446 21.7592 22.6543 20.6478Z" fill="black"/>
<path d="M28.6758 21.7788L29.3055 20.6396L29.8816 22.1384C29.8816 22.1384 29.1689 22.734 28.8043 22.3337L28.6758 21.7788Z" fill="#CE7A63"/>
<path d="M30.0353 20.626L30.2892 21.7472L29.8808 22.1312L29.3047 20.6325L30.0353 20.626Z" fill="#CE7A63"/>
<path d="M28.7768 21.6906C28.7649 21.4842 28.7187 21.2813 28.6401 21.0901C28.5425 20.8688 28.3146 20.6833 28.3618 20.5612C28.3846 20.5075 28.5246 20.4815 28.5815 20.4945C28.7165 20.5572 28.8298 20.6586 28.907 20.7858C28.9835 20.9192 29.1966 21.3863 29.1966 21.3863L28.7768 21.6906Z" fill="#CE7A63"/>
<path d="M22.5631 14.4004C22.5631 14.4004 23.0512 14.6282 22.825 14.9927C22.8808 15.0306 22.928 15.0797 22.9638 15.1367C22.9997 15.1938 23.0233 15.2577 23.0332 15.3243C23.0432 15.391 23.0392 15.459 23.0216 15.524C23.0039 15.589 22.973 15.6497 22.9308 15.7022C22.9308 15.7022 22.9585 16.3727 22.5631 15.9837C22.1676 15.5948 22.0488 14.5029 22.0488 14.5029L22.5631 14.4004Z" fill="#263238"/>
<path d="M19.2262 21.6706C18.9458 22.4486 18.6197 23.2093 18.2498 23.9489C18.1701 24.1116 18.0871 24.2629 18.035 24.3833C17.9292 24.5916 17.8625 24.7186 17.8625 24.7186L15.5957 23.4639C15.5957 23.4639 15.625 23.3679 15.6754 23.2084C15.7161 23.088 15.7666 22.9285 15.8382 22.7463C16.2157 21.6706 16.987 19.7504 17.7421 19.6414C18.8714 19.4689 19.6851 20.3135 19.2262 21.6706Z" fill="#263238"/>
<path opacity="0.5" d="M19.2262 21.6706C18.9458 22.4486 18.6197 23.2093 18.2498 23.9489C18.1701 24.1116 18.0871 24.2629 18.035 24.3833C17.9292 24.5916 17.8625 24.7186 17.8625 24.7186L15.5957 23.4639C15.5957 23.4639 15.625 23.3679 15.6754 23.2084C15.7161 23.088 15.7666 22.9285 15.8382 22.7463C16.2157 21.6706 16.987 19.7504 17.7421 19.6414C18.8714 19.4689 19.6851 20.3135 19.2262 21.6706Z" fill="white"/>
<path d="M27.6685 57.2742L28.7327 56.9292L28.0721 54.4199L27.0078 54.7649L27.6685 57.2742Z" fill="#CE7A63"/>
<path d="M28.7487 56.7934L27.5527 57.1807C27.5425 57.1835 27.5329 57.1883 27.5246 57.1948C27.5163 57.2014 27.5094 57.2095 27.5042 57.2187C27.4991 57.228 27.4958 57.2381 27.4946 57.2486C27.4935 57.2591 27.4944 57.2698 27.4974 57.2799L27.7463 58.2449C27.7624 58.2946 27.7974 58.3359 27.8436 58.3599C27.8899 58.384 27.9438 58.3888 27.9937 58.3735C28.4086 58.2303 28.599 58.1424 29.1328 57.9715C29.4582 57.8658 30.8431 57.4541 31.2889 57.3092C31.7348 57.1644 31.5802 56.7267 31.3768 56.7478C30.4704 56.8438 29.3378 56.9382 28.9619 56.7983C28.8934 56.7727 28.8183 56.771 28.7487 56.7934Z" fill="#263238"/>
<path opacity="0.2" d="M27.0078 54.7649L28.0721 54.4199L28.4122 55.7136L27.3479 56.0586L27.0078 54.7649Z" fill="black"/>
<path d="M24.4153 29.3613C24.4153 29.3613 25.9254 38.4742 26.368 41.6458C26.8562 45.1249 28.7845 55.3004 28.7845 55.3004L26.809 55.8456C26.809 55.8456 24.0019 45.9858 23.1883 42.6026C22.3258 38.9331 20.4219 29.3613 20.4219 29.3613H24.4153Z" fill="#263238"/>
<path opacity="0.4" d="M21.9881 33.0959C22.7611 35.0259 22.849 38.3033 22.5349 39.6523C22.0613 37.4441 21.5178 34.803 21.0996 32.7493C21.2493 32.2204 21.5195 31.9226 21.9881 33.0959Z" fill="black"/>
<path d="M26.7646 55.8845L28.8801 55.3019L28.8394 54.4395L26.457 55.2629L26.7646 55.8845Z" fill="#263238"/>
<path d="M29.1877 56.8516C29.091 56.8789 28.9918 56.8969 28.8916 56.9053C28.8865 56.9056 28.8814 56.9045 28.8768 56.9022C28.8722 56.9 28.8684 56.8965 28.8655 56.8923C28.8628 56.8879 28.8613 56.8828 28.8613 56.8776C28.8613 56.8724 28.8628 56.8674 28.8655 56.863C28.8916 56.8288 29.1259 56.5245 29.2723 56.5375C29.2889 56.5382 29.305 56.5432 29.319 56.5521C29.333 56.5609 29.3444 56.5733 29.3521 56.588C29.367 56.6087 29.3761 56.6331 29.3783 56.6586C29.3806 56.6841 29.3761 56.7097 29.3651 56.7328C29.3222 56.7924 29.2592 56.8346 29.1877 56.8516ZM28.9469 56.8516C29.1503 56.8272 29.2886 56.7767 29.3228 56.7116C29.3291 56.6962 29.3314 56.6795 29.3294 56.663C29.3274 56.6464 29.3212 56.6307 29.3114 56.6173C29.3082 56.6095 29.3028 56.603 29.2958 56.5983C29.2889 56.5937 29.2807 56.5912 29.2723 56.5912C29.1942 56.5815 29.0462 56.7279 28.9469 56.8467V56.8516Z" fill="#8771C5"/>
<path d="M28.8956 56.9036H28.8826C28.8781 56.903 28.874 56.9011 28.8705 56.8982C28.8671 56.8954 28.8645 56.8916 28.863 56.8874C28.863 56.8743 28.7345 56.5766 28.8077 56.4382C28.8169 56.4202 28.8303 56.4046 28.8467 56.3928C28.8631 56.3809 28.8821 56.373 28.9021 56.3699C28.9234 56.363 28.9465 56.3638 28.9673 56.3721C28.9881 56.3804 29.0053 56.3958 29.016 56.4155C29.0778 56.5229 28.9916 56.7962 28.9053 56.8939C28.9034 56.8982 28.8999 56.9017 28.8956 56.9036ZM28.8956 56.4252C28.8855 56.4283 28.8762 56.4333 28.8681 56.44C28.86 56.4467 28.8533 56.455 28.8484 56.4643C28.8231 56.5859 28.8373 56.7125 28.8891 56.8255C28.9622 56.7124 28.9895 56.5757 28.9656 56.4431C28.9574 56.4285 28.9444 56.4138 28.907 56.422L28.8956 56.4252Z" fill="#8771C5"/>
<path d="M16.9609 57.7645H18.0789L18.4515 55.1738H17.3336L16.9609 57.7645Z" fill="#CE7A63"/>
<path d="M18.1512 57.6348H16.8933C16.8717 57.6345 16.8507 57.6422 16.8342 57.6562C16.8178 57.6703 16.807 57.6898 16.8038 57.7113L16.6558 58.7055C16.6524 58.7315 16.6548 58.7579 16.6627 58.7829C16.6706 58.8078 16.6838 58.8308 16.7015 58.8501C16.7191 58.8695 16.7408 58.8848 16.7649 58.8949C16.789 58.9051 16.8151 58.9099 16.8413 58.9089C17.279 58.9008 17.4922 58.8748 18.0438 58.8748C18.3839 58.8748 19.8339 58.9106 20.296 58.9106C20.7582 58.9106 20.7842 58.4452 20.5971 58.4045C19.7216 58.2157 18.6443 57.9553 18.3433 57.7064C18.2901 57.6599 18.2218 57.6344 18.1512 57.6348Z" fill="#263238"/>
<path opacity="0.2" d="M17.3326 55.1738H18.4522L18.2602 56.5098H17.1406L17.3326 55.1738Z" fill="black"/>
<path d="M22.3882 29.3047C22.3882 29.3047 21.7471 37.8545 21.2849 41.0586C20.7805 44.5655 18.7675 56.1925 18.7675 56.1925H16.7188C16.7188 56.1925 17.7716 44.8535 17.9522 41.3841C18.1475 37.6153 18.5267 29.3128 18.5267 29.3128L22.3882 29.3047Z" fill="#263238"/>
<path d="M16.6367 56.188H18.8515L19.0419 55.4102L16.5879 55.5306L16.6367 56.188Z" fill="#263238"/>
<path d="M18.5296 57.8294C18.4302 57.8273 18.3313 57.8137 18.2351 57.7888C18.2303 57.788 18.2259 57.7857 18.2227 57.7821C18.2194 57.7786 18.2175 57.774 18.2172 57.7692C18.2163 57.7641 18.217 57.7587 18.2194 57.7541C18.2217 57.7494 18.2255 57.7456 18.2302 57.7432C18.2676 57.7172 18.6028 57.5007 18.7347 57.5544C18.7499 57.5606 18.7631 57.5709 18.7728 57.5841C18.7826 57.5973 18.7885 57.6129 18.79 57.6293C18.7942 57.6548 18.7922 57.681 18.7843 57.7056C18.7764 57.7302 18.7627 57.7526 18.7444 57.7709C18.6819 57.815 18.6059 57.8358 18.5296 57.8294ZM18.3099 57.7513C18.5068 57.792 18.6549 57.7855 18.7102 57.7334C18.7224 57.7216 18.7313 57.7069 18.7361 57.6907C18.741 57.6744 18.7416 57.6572 18.7379 57.6407C18.7374 57.6326 18.7347 57.6249 18.7301 57.6183C18.7255 57.6117 18.7192 57.6065 18.7119 57.6032C18.6403 57.574 18.4466 57.6683 18.305 57.7513H18.3099Z" fill="#8771C5"/>
<path d="M18.2416 57.7906H18.2302C18.2265 57.7885 18.2235 57.7854 18.2215 57.7816C18.2195 57.7779 18.2185 57.7737 18.2188 57.7694C18.2188 57.7564 18.2188 57.4342 18.3441 57.3252C18.3593 57.3112 18.3773 57.3007 18.397 57.2945C18.4167 57.2883 18.4376 57.2866 18.458 57.2894C18.4795 57.2899 18.5001 57.2981 18.5162 57.3124C18.5323 57.3267 18.5428 57.3462 18.5459 57.3675C18.5605 57.4895 18.3734 57.7239 18.2562 57.7906H18.2416ZM18.4352 57.3366C18.4136 57.3367 18.3927 57.3448 18.3766 57.3594C18.3062 57.4647 18.2699 57.5891 18.2725 57.7157C18.3766 57.6327 18.5036 57.4554 18.4938 57.3756C18.4938 57.3594 18.484 57.3415 18.4466 57.3382L18.4352 57.3366Z" fill="#8771C5"/>
<path d="M24.4138 29.3616H18.4286C18.3863 28.8262 18.5099 27.0834 18.4188 24.8752C18.3624 23.2337 18.1631 21.6002 17.8232 19.9933C17.7972 19.8728 17.7695 19.7541 17.7402 19.6336C17.7402 19.6336 18.0445 19.5718 18.479 19.5083C18.8403 19.4546 19.2927 19.4009 19.7369 19.3798C20.5835 19.3317 21.4322 19.3317 22.2788 19.3798C22.6693 19.4156 23.0517 19.4807 23.356 19.5425C23.7466 19.6206 23.976 19.689 23.976 19.689C23.976 19.689 25.4504 23.0689 24.4138 29.3616Z" fill="#263238"/>
<path opacity="0.5" d="M24.4138 29.3616H18.4286C18.3863 28.8262 18.5099 27.0834 18.4188 24.8752C18.3624 23.2337 18.1631 21.6002 17.8232 19.9933C17.7972 19.8728 17.7695 19.7541 17.7402 19.6336C17.7402 19.6336 18.0445 19.5718 18.479 19.5083C18.8403 19.4546 19.2927 19.4009 19.7369 19.3798C20.5835 19.3317 21.4322 19.3317 22.2788 19.3798C22.6693 19.4156 23.0517 19.4807 23.356 19.5425C23.7466 19.6206 23.976 19.689 23.976 19.689C23.976 19.689 25.4504 23.0689 24.4138 29.3616Z" fill="white"/>
<path d="M20.6237 20.8606L21.2519 20.0698L21.4 19.8777L21.7352 20.0567L22.5374 20.667C23.1884 20.1202 22.8629 19.6304 22.7311 19.4351C22.5846 19.414 22.4333 19.3944 22.2787 19.3798C21.4316 19.3317 20.5824 19.3317 19.7352 19.3798C19.5514 19.3798 19.3642 19.4026 19.1836 19.4205C19.3134 19.7457 19.508 20.041 19.7556 20.2886C20.0032 20.5362 20.2986 20.7308 20.6237 20.8606Z" fill="#263238"/>
<path opacity="0.7" d="M20.6237 20.8606L21.2519 20.0698L21.4 19.8777L21.7352 20.0567L22.5374 20.667C23.1884 20.1202 22.8629 19.6304 22.7311 19.4351C22.5846 19.414 22.4333 19.3944 22.2787 19.3798C21.4316 19.3317 20.5824 19.3317 19.7352 19.3798C19.5514 19.3798 19.3642 19.4026 19.1836 19.4205C19.3134 19.7457 19.508 20.041 19.7556 20.2886C20.0032 20.5362 20.2986 20.7308 20.6237 20.8606Z" fill="white"/>
<path d="M19.7923 16.5273L20.4725 17.092L21.4001 17.8617C21.3723 17.9851 21.3522 18.1101 21.3398 18.236C21.291 18.7388 21.4212 19.1961 22.1535 19.3751C22.1535 19.3751 23.0306 19.9561 21.7288 20.0618C21.7246 20.2034 21.7027 20.3439 21.6637 20.48C21.5493 20.3214 21.4077 20.1842 21.2455 20.0748C19.8216 20.0504 19.6328 19.3914 19.6328 19.3914C20.1942 18.8397 19.9811 17.3475 19.7923 16.5273Z" fill="#CE7A63"/>
<path opacity="0.2" d="M21.3968 17.8615C21.3691 17.9849 21.349 18.1099 21.3366 18.2358C20.9916 18.1658 20.523 17.798 20.4823 17.4449C20.4648 17.3281 20.4605 17.2096 20.4693 17.0918L21.3968 17.8615Z" fill="black"/>
<path d="M19.5095 15.3493C19.7471 16.4364 19.835 17.084 20.4729 17.5804C20.68 17.7436 20.9278 17.8472 21.1896 17.88C21.4513 17.9128 21.717 17.8734 21.958 17.7662C22.199 17.6591 22.4062 17.4881 22.5571 17.2718C22.7081 17.0555 22.7971 16.8021 22.8146 16.5389C22.8992 15.5251 22.4891 13.9157 21.35 13.6098C21.1041 13.5372 20.8435 13.5304 20.5942 13.5901C20.3448 13.6498 20.1156 13.7739 19.9292 13.95C19.7429 14.1261 19.6061 14.348 19.5325 14.5936C19.4588 14.8392 19.4509 15.0998 19.5095 15.3493Z" fill="#CE7A63"/>
<path d="M20.9441 15.7391C20.9571 15.8286 21.0173 15.9018 21.0759 15.8888C21.1345 15.8758 21.1703 15.8042 21.1556 15.7147C21.141 15.6252 21.084 15.552 21.0254 15.565C20.9669 15.578 20.9311 15.6496 20.9441 15.7391Z" fill="#263238"/>
<path d="M21.9558 15.6229C21.9704 15.7124 22.029 15.7856 22.0876 15.7726C22.1462 15.7596 22.182 15.688 22.169 15.5985C22.156 15.509 22.0957 15.4358 22.0372 15.4488C21.9786 15.4618 21.9428 15.5301 21.9558 15.6229Z" fill="#263238"/>
<path d="M21.7832 15.7021C21.9324 15.9629 22.1157 16.2026 22.3283 16.4149C22.273 16.4658 22.2071 16.5038 22.1354 16.5263C22.0637 16.5488 21.9879 16.5552 21.9134 16.5451L21.7832 15.7021Z" fill="#BA4D3C"/>
<path d="M21.7077 16.8702C21.6029 16.872 21.4989 16.8522 21.4021 16.8122C21.3052 16.7722 21.2176 16.7127 21.1446 16.6375C21.1421 16.635 21.14 16.632 21.1387 16.6287C21.1373 16.6253 21.1366 16.6218 21.1367 16.6182C21.1368 16.6146 21.1377 16.611 21.1392 16.6078C21.1407 16.6045 21.1429 16.6016 21.1456 16.5992C21.1483 16.5968 21.1515 16.5951 21.1549 16.594C21.1584 16.5929 21.162 16.5925 21.1656 16.5929C21.1691 16.5933 21.1726 16.5944 21.1757 16.5962C21.1788 16.598 21.1816 16.6004 21.1837 16.6033C21.2645 16.6833 21.3626 16.7436 21.4703 16.7797C21.5781 16.8158 21.6927 16.8267 21.8053 16.8116C21.8087 16.8116 21.8121 16.8123 21.8153 16.8136C21.8185 16.8149 21.8213 16.8168 21.8237 16.8193C21.8262 16.8217 21.8281 16.8246 21.8294 16.8277C21.8307 16.8309 21.8314 16.8343 21.8314 16.8377C21.8314 16.8411 21.8307 16.8445 21.8294 16.8476C21.8281 16.8508 21.8262 16.8537 21.8237 16.8561C21.8213 16.8585 21.8185 16.8604 21.8153 16.8617C21.8121 16.863 21.8087 16.8637 21.8053 16.8637C21.7729 16.8679 21.7403 16.8701 21.7077 16.8702Z" fill="#263238"/>
<path d="M20.7213 15.4593C20.7128 15.4618 20.7037 15.4618 20.6952 15.4593C20.6831 15.4525 20.6741 15.4412 20.6702 15.4278C20.6662 15.4145 20.6676 15.4001 20.6741 15.3877C20.7131 15.3138 20.7698 15.2507 20.839 15.2039C20.9083 15.157 20.988 15.128 21.0711 15.1192C21.0781 15.1188 21.0851 15.1198 21.0917 15.1221C21.0983 15.1244 21.1043 15.128 21.1095 15.1327C21.1147 15.1374 21.1188 15.1431 21.1217 15.1495C21.1246 15.1558 21.1263 15.1627 21.1265 15.1697C21.1269 15.1767 21.1259 15.1837 21.1236 15.1902C21.1213 15.1968 21.1177 15.2029 21.113 15.2081C21.1083 15.2132 21.1026 15.2174 21.0962 15.2203C21.0899 15.2232 21.083 15.2248 21.076 15.225C21.011 15.2327 20.9489 15.2561 20.895 15.2933C20.8411 15.3304 20.7971 15.3802 20.7668 15.4382C20.7616 15.4453 20.7547 15.4509 20.7468 15.4546C20.7388 15.4583 20.73 15.46 20.7213 15.4593Z" fill="#263238"/>
<path d="M22.4797 15.2206C22.4712 15.2204 22.4628 15.2182 22.4552 15.2143C22.4476 15.2103 22.4409 15.2047 22.4358 15.1979C22.4002 15.1419 22.3525 15.0947 22.2961 15.0598C22.2398 15.0249 22.1763 15.0031 22.1103 14.9961C22.0962 14.9957 22.0828 14.9899 22.0728 14.9799C22.0628 14.9699 22.057 14.9565 22.0566 14.9424C22.0566 14.9281 22.0623 14.9145 22.0724 14.9044C22.0824 14.8943 22.0961 14.8887 22.1103 14.8887C22.1951 14.8947 22.2773 14.9203 22.3504 14.9635C22.4235 15.0067 22.4856 15.0663 22.5318 15.1376C22.5396 15.1494 22.5426 15.1637 22.5402 15.1777C22.5378 15.1916 22.5301 15.204 22.5188 15.2125C22.5131 15.2164 22.5068 15.2191 22.5001 15.2205C22.4934 15.2219 22.4865 15.2219 22.4797 15.2206Z" fill="#263238"/>
<path d="M19.2149 19.3559C19.2427 19.3521 19.271 19.3561 19.2966 19.3676C19.3222 19.3792 19.3441 19.3976 19.3597 19.421C19.7974 20.0914 22.8779 24.8724 23.0293 26.8024C23.0878 27.5493 22.4467 29.2319 22.0382 30.2197C21.9485 30.4347 21.7893 30.6135 21.5861 30.7273C21.3828 30.8412 21.1472 30.8836 20.917 30.8478L18.5282 30.4736C18.4758 30.4654 18.4256 30.4467 18.3806 30.4186C18.3356 30.3905 18.2967 30.3536 18.2663 30.3102C18.2359 30.2667 18.2146 30.2176 18.2037 30.1657C18.1927 30.1138 18.1924 30.0602 18.2027 30.0082C18.2907 29.5311 18.3321 29.0466 18.3264 28.5615C18.3264 27.3085 18.2564 23.9449 18.2564 23.9449C18.2564 23.9449 19.2328 22.0588 18.0676 19.7139C18.0574 19.6928 18.0523 19.6695 18.0528 19.6461C18.0533 19.6226 18.0593 19.5996 18.0704 19.579C18.0816 19.5583 18.0974 19.5406 18.1168 19.5273C18.1361 19.5139 18.1583 19.5054 18.1815 19.5023L19.2149 19.3559Z" fill="#8771C5"/>
<path opacity="0.1" d="M23.0247 26.802C22.9531 25.8891 22.2257 24.3383 21.4333 22.8867C21.0622 24.4147 20.7482 26.0502 20.8377 26.9224C20.9093 27.6238 21.609 29.0802 22.1053 30.0419C22.517 29.0444 23.085 27.5017 23.0247 26.802Z" fill="black"/>
<path opacity="0.6" d="M22.3902 24.7822C22.2876 24.5544 22.177 24.32 22.0647 24.0824C21.5423 24.0987 21.0297 24.102 20.5497 24.0971C20.2706 22.4615 19.764 20.873 19.0444 19.3779L18.2991 19.4821C19.0185 20.9369 19.528 22.4863 19.8125 24.0841C19.1616 24.0678 18.6067 24.0418 18.2617 24.0222C18.2617 24.1459 18.2699 24.4014 18.2764 24.7334C18.6555 24.7561 19.2365 24.7838 19.9281 24.7984C20.2099 26.7453 20.1626 28.7256 19.7881 30.6567L20.4895 30.7674C20.8702 28.8012 20.9252 26.7857 20.6522 24.8017H20.9093C21.3861 24.8115 21.8857 24.8033 22.3902 24.7822Z" fill="white"/>
<path d="M22.9039 19.3749C22.8853 19.3709 22.8661 19.3712 22.8477 19.3758C22.8293 19.3804 22.8122 19.3891 22.7977 19.4014C22.7832 19.4137 22.7718 19.4291 22.7642 19.4465C22.7567 19.4639 22.7532 19.4828 22.7542 19.5018C22.7712 20.249 22.6814 20.9948 22.4873 21.7166C22.0105 23.5066 21.0536 25.8206 21.1675 26.9239C21.2424 27.6627 22.0154 29.2395 22.5117 30.1915C22.6256 30.41 22.8136 30.5808 23.042 30.6733C23.2705 30.7657 23.5244 30.7738 23.7582 30.696L24.4433 30.4681C24.5322 30.4385 24.6077 30.3782 24.6563 30.298C24.7049 30.2178 24.7234 30.123 24.7085 30.0304C24.6516 29.6464 24.6076 28.8913 24.7834 27.5553C25.0633 25.4284 24.7834 22.6734 24.7834 22.6734C24.3869 21.7197 24.1235 20.716 24.0007 19.6906C23.997 19.6647 23.9855 19.6406 23.9678 19.6214C23.9501 19.6022 23.9269 19.5889 23.9014 19.5832L22.9039 19.3749Z" fill="#8771C5"/>
<path opacity="0.6" d="M24.8968 24.5433C24.8968 24.3529 24.8838 24.1706 24.8757 23.9998C24.8757 23.9428 24.8757 23.8859 24.8675 23.837C24.6527 23.8745 24.4265 23.907 24.1955 23.9347C24.1227 22.4667 23.9744 21.0035 23.7512 19.5508L23.0043 19.3994C23.2561 20.9248 23.4191 22.4636 23.4925 24.0079C22.9229 24.0551 22.3355 24.0828 21.761 24.0942C21.6845 24.3383 21.6113 24.5823 21.543 24.8118C22.1939 24.8004 22.8708 24.7727 23.5283 24.7174C23.5462 25.1015 23.5624 25.5034 23.5755 25.9265C23.6471 28.3886 23.6438 29.8792 23.6227 30.7335C23.67 30.7254 23.7168 30.714 23.7626 30.6993L24.337 30.509C24.3533 29.6107 24.3501 28.1657 24.2833 25.9053C24.2703 25.4627 24.254 25.0445 24.2361 24.6458C24.4623 24.6181 24.6853 24.5872 24.9001 24.5514L24.8968 24.5433Z" fill="white"/>
<path d="M20.1526 27.3295C19.8581 27.1196 18.7841 27.3198 18.3171 27.4207C18.3171 27.8682 18.3268 28.2701 18.3268 28.5598C18.3268 28.7648 18.3268 28.9503 18.3105 29.1196C18.7678 29.2123 19.8288 29.4011 20.1526 29.2156C20.6408 28.9357 20.5985 27.6485 20.1526 27.3295Z" fill="#8771C5"/>
<path opacity="0.2" d="M20.1526 27.3295C19.8581 27.1196 18.7841 27.3198 18.3171 27.4207C18.3171 27.8682 18.3268 28.2701 18.3268 28.5598C18.3268 28.7648 18.3268 28.9503 18.3105 29.1196C18.7678 29.2123 19.8288 29.4011 20.1526 29.2156C20.6408 28.9357 20.5985 27.6485 20.1526 27.3295Z" fill="black"/>
<path d="M22.163 28.69C21.4951 28.6978 20.8276 28.6488 20.168 28.5435L20.2705 27.9854C21.5731 28.1738 22.8961 28.1738 24.1988 27.9854L24.2753 28.5468C23.5753 28.6428 22.8696 28.6906 22.163 28.69Z" fill="#8771C5"/>
<g opacity="0.2">
<path d="M22.163 28.69C21.4951 28.6978 20.8276 28.6488 20.168 28.5435L20.2705 27.9854C21.5731 28.1738 22.8961 28.1738 24.1988 27.9854L24.2753 28.5468C23.5753 28.6428 22.8696 28.6906 22.163 28.69Z" fill="black"/>
</g>
<path d="M24.8154 27.2641C24.5192 27.2218 24.2361 27.2202 24.1173 27.3292C23.769 27.6546 23.7365 28.9353 24.1173 29.2136C24.2832 29.295 24.4704 29.3223 24.6527 29.2917C24.6542 28.7129 24.696 28.1349 24.778 27.5619L24.8154 27.2641Z" fill="#8771C5"/>
<path opacity="0.2" d="M24.8154 27.2641C24.5192 27.2218 24.2361 27.2202 24.1173 27.3292C23.769 27.6546 23.7365 28.9353 24.1173 29.2136C24.2832 29.295 24.4704 29.3223 24.6527 29.2917C24.6542 28.7129 24.696 28.1349 24.778 27.5619L24.8154 27.2641Z" fill="black"/>
<path d="M19.5325 14.9082C19.5325 14.9082 18.5399 15.2076 18.9174 15.6079C18.9174 15.6079 18.5529 15.9089 18.906 16.197C18.906 16.197 18.7058 16.7144 19.2852 16.6852C19.2852 16.6852 19.2575 17.297 19.7001 17.0855C19.7001 17.0855 19.8173 17.3133 20.0581 17.1294C20.299 16.9455 20.0028 16.3158 20.0028 16.3158C20.0028 16.3158 20.4259 16.1319 20.2859 15.743C20.2859 15.743 20.657 15.5802 20.4666 15.092C20.4666 15.092 20.7741 14.8235 20.6684 14.6348L19.5325 14.9082Z" fill="#263238"/>
<path d="M19.259 16.4834C19.4351 16.6964 19.6795 16.8419 19.9506 16.8951C20.294 16.9537 20.3705 16.6347 20.1964 16.3288C20.0336 16.0522 19.6707 15.6893 19.3648 15.769C19.0589 15.8487 19.0377 16.2165 19.259 16.4834Z" fill="#CE7A63"/>
<path d="M22.5625 14.0379L19.2217 14.9931C19.2217 14.9931 18.683 13.3561 20.2876 12.972C21.8156 12.6059 22.5625 14.0379 22.5625 14.0379Z" fill="#8771C5"/>
<path d="M20.4949 13.8488L19.1606 14.2328C19.1421 14.2378 19.1226 14.2377 19.1042 14.2328C19.0857 14.2278 19.0689 14.2181 19.0554 14.2046C19.0419 14.1911 19.0321 14.1742 19.0272 14.1558C19.0222 14.1373 19.0222 14.1179 19.0271 14.0994L19.115 13.7739C19.1208 13.7527 19.1329 13.7337 19.1498 13.7194C19.1666 13.7052 19.1874 13.6964 19.2094 13.6942L20.4608 13.5689C20.4731 13.5675 20.4856 13.5688 20.4974 13.5726C20.5092 13.5764 20.5201 13.5826 20.5293 13.5909C20.5385 13.5992 20.5459 13.6094 20.5509 13.6207C20.5559 13.6321 20.5585 13.6444 20.5584 13.6568V13.7609C20.5592 13.7806 20.5533 13.7999 20.5418 13.8158C20.5303 13.8317 20.5138 13.8434 20.4949 13.8488Z" fill="#8771C5"/>
<path opacity="0.2" d="M20.4949 13.8488L19.1606 14.2328C19.1421 14.2378 19.1226 14.2377 19.1042 14.2328C19.0857 14.2278 19.0689 14.2181 19.0554 14.2046C19.0419 14.1911 19.0321 14.1742 19.0272 14.1558C19.0222 14.1373 19.0222 14.1179 19.0271 14.0994L19.115 13.7739C19.1208 13.7527 19.1329 13.7337 19.1498 13.7194C19.1666 13.7052 19.1874 13.6964 19.2094 13.6942L20.4608 13.5689C20.4731 13.5675 20.4856 13.5688 20.4974 13.5726C20.5092 13.5764 20.5201 13.5826 20.5293 13.5909C20.5385 13.5992 20.5459 13.6094 20.5509 13.6207C20.5559 13.6321 20.5585 13.6444 20.5584 13.6568V13.7609C20.5592 13.7806 20.5533 13.7999 20.5418 13.8158C20.5303 13.8317 20.5138 13.8434 20.4949 13.8488Z" fill="white"/>
<path d="M22.0146 13.4955L21.6632 13.5492C21.5874 13.5621 21.5096 13.5446 21.4467 13.5004C21.19 13.3125 20.887 13.1981 20.5702 13.1694C20.2534 13.1407 19.9348 13.1989 19.6486 13.3377C19.6419 13.3418 19.6338 13.3431 19.6262 13.3412C19.6186 13.3394 19.612 13.3346 19.6079 13.3279C19.6038 13.3212 19.6025 13.3132 19.6043 13.3056C19.6062 13.2979 19.6109 13.2913 19.6176 13.2872C20.0017 12.9732 20.9423 12.4199 22.0586 13.3247C22.0742 13.3357 22.0861 13.3512 22.0927 13.3692C22.0993 13.3872 22.1003 13.4067 22.0955 13.4252C22.0907 13.4438 22.0805 13.4604 22.066 13.473C22.0516 13.4855 22.0337 13.4934 22.0146 13.4955Z" fill="#8771C5"/>
<path opacity="0.2" d="M22.0146 13.4955L21.6632 13.5492C21.5874 13.5621 21.5096 13.5446 21.4467 13.5004C21.19 13.3125 20.887 13.1981 20.5702 13.1694C20.2534 13.1407 19.9348 13.1989 19.6486 13.3377C19.6419 13.3418 19.6338 13.3431 19.6262 13.3412C19.6186 13.3394 19.612 13.3346 19.6079 13.3279C19.6038 13.3212 19.6025 13.3132 19.6043 13.3056C19.6062 13.2979 19.6109 13.2913 19.6176 13.2872C20.0017 12.9732 20.9423 12.4199 22.0586 13.3247C22.0742 13.3357 22.0861 13.3512 22.0927 13.3692C22.0993 13.3872 22.1003 13.4067 22.0955 13.4252C22.0907 13.4438 22.0805 13.4604 22.066 13.473C22.0516 13.4855 22.0337 13.4934 22.0146 13.4955Z" fill="white"/>
<path opacity="0.6" d="M22.4045 13.7949L21.5908 13.9902C21.5732 13.9947 21.5546 13.9933 21.5378 13.9863C21.5211 13.9792 21.5071 13.9669 21.4981 13.9511L21.4362 13.8437C21.4299 13.832 21.4263 13.8189 21.4258 13.8056C21.4254 13.7923 21.428 13.779 21.4335 13.7669C21.439 13.7547 21.4473 13.744 21.4576 13.7356C21.468 13.7272 21.4802 13.7213 21.4932 13.7184L22.2076 13.5703C22.2775 13.6413 22.3433 13.7163 22.4045 13.7949Z" fill="white"/>
<path d="M22.5131 13.9512C22.5131 13.9512 23.7824 14.2766 22.5636 14.5468C21.6514 14.7319 20.7267 14.8489 19.7972 14.8966L19.2455 15.0594C19.2179 15.0675 19.1882 15.0643 19.1629 15.0506C19.1376 15.0369 19.1187 15.0137 19.1104 14.9861V14.9682C19.106 14.9539 19.1045 14.9389 19.1061 14.9239C19.1076 14.909 19.1122 14.8946 19.1195 14.8815C19.1268 14.8684 19.1367 14.857 19.1486 14.8478C19.1604 14.8387 19.174 14.832 19.1885 14.8283L22.5131 13.9512Z" fill="#8771C5"/>
<path opacity="0.2" d="M22.5131 13.9512C22.5131 13.9512 23.7824 14.2766 22.5636 14.5468C21.6514 14.7319 20.7267 14.8489 19.7972 14.8966L19.2455 15.0594C19.2179 15.0675 19.1882 15.0643 19.1629 15.0506C19.1376 15.0369 19.1187 15.0137 19.1104 14.9861V14.9682C19.106 14.9539 19.1045 14.9389 19.1061 14.9239C19.1076 14.909 19.1122 14.8946 19.1195 14.8815C19.1268 14.8684 19.1367 14.857 19.1486 14.8478C19.1604 14.8387 19.174 14.832 19.1885 14.8283L22.5131 13.9512Z" fill="white"/>
<path d="M24.7696 23.7715H21.4662L19.7852 27.8153L19.8893 27.9048H23.1927L24.8721 23.861L24.7696 23.7715Z" fill="#263238"/>
<path opacity="0.4" d="M24.7696 23.7715H21.4662L19.7852 27.8153L19.8893 27.9048H23.1927L24.8721 23.861L24.7696 23.7715Z" fill="white"/>
<path d="M23.1921 27.9052H19.8887L21.5697 23.8613H24.8715L23.1921 27.9052Z" fill="#263238"/>
<path d="M23.9128 23.7129H22.6549L22.4629 24.1767L22.5052 24.2141H23.7631L23.9567 23.7503L23.9128 23.7129Z" fill="#8771C5"/>
<path opacity="0.5" d="M23.9128 23.7129H22.6549L22.4629 24.1767L22.5052 24.2141H23.7631L23.9567 23.7503L23.9128 23.7129Z" fill="white"/>
<path d="M23.7638 24.2148L23.9574 23.751H22.6995L22.5059 24.2148H23.7638Z" fill="#8771C5"/>
<path opacity="0.2" d="M23.7638 24.2148L23.9574 23.751H22.6995L22.5059 24.2148H23.7638Z" fill="white"/>
<path d="M19.5384 25.8892L20.6059 25.4336L20.3374 26.851C20.3374 26.851 19.3203 27.0837 19.2422 26.5499L19.5384 25.8892Z" fill="#CE7A63"/>
<path d="M21.5873 25.886L20.9722 27.0511L20.3359 26.8575L20.6044 25.4336L21.5873 25.886Z" fill="#CE7A63"/>
<path d="M17.0039 25.0781H15.4173C15.4047 25.3062 15.4289 25.5347 15.4889 25.7551C15.5019 25.799 15.5165 25.843 15.5344 25.8901C15.5558 25.9463 15.5813 26.0007 15.6109 26.0529C15.6634 26.1481 15.728 26.2361 15.803 26.3149C15.9244 26.443 16.0669 26.5492 16.2244 26.6289C16.4573 26.7463 16.7063 26.8285 16.9632 26.873C17.1782 26.9124 17.3957 26.9363 17.6141 26.9446C18.4329 26.9668 19.2509 26.8804 20.0469 26.6875L19.9591 25.8527C19.2268 25.822 18.4973 25.7437 17.7752 25.6184C17.6136 25.5861 17.4539 25.5448 17.2968 25.4947C17.1844 25.4557 17.0756 25.4072 16.9714 25.3499C16.9705 25.2587 16.9787 25.1677 16.9958 25.0781H17.0039Z" fill="#CE7A63"/>
</svg>
