<svg width="24" height="24" viewBox="0 0 24 24" fill="none" xmlns="http://www.w3.org/2000/svg">
<path d="M19.875 22.5C20.4984 22.5 21 21.9984 21 21.375C21 20.7516 20.4984 20.25 19.875 20.25H4.125C3.50156 20.25 3 20.7516 3 21.375C3 21.9984 3.50156 22.5 4.125 22.5H19.875ZM11.1797 16.1437C11.3906 16.3687 11.6906 16.5 12 16.5C12.3094 16.5 12.6047 16.3734 12.8203 16.1437L18.8203 9.76875C19.2469 9.31406 19.2234 8.60625 18.7734 8.17969C18.3234 7.75313 17.6109 7.77656 17.1844 8.22656L13.125 12.5391V8.625V2.625C13.125 2.00156 12.6234 1.5 12 1.5C11.3766 1.5 10.875 2.00156 10.875 2.625V8.625V12.5391L6.82031 8.23125C6.39375 7.77656 5.68125 7.75781 5.23125 8.18438C4.78125 8.61094 4.75781 9.32344 5.18437 9.77344L11.1844 16.1484L11.1797 16.1437Z" fill="#8771C5"/>
</svg>
