<svg width="17" height="16" viewBox="0 0 17 16" fill="none" xmlns="http://www.w3.org/2000/svg">
<g clip-path="url(#clip0_5257_24615)">
<path d="M14.5835 8C14.5835 6.27609 13.8987 4.62279 12.6797 3.40381C11.4607 2.18482 9.8074 1.5 8.0835 1.5C6.35959 1.5 4.70629 2.18482 3.4873 3.40381C2.26832 4.62279 1.5835 6.27609 1.5835 8C1.5835 9.72391 2.26832 11.3772 3.4873 12.5962C4.70629 13.8152 6.35959 14.5 8.0835 14.5C9.8074 14.5 11.4607 13.8152 12.6797 12.5962C13.8987 11.3772 14.5835 9.72391 14.5835 8ZM0.0834961 8C0.0834961 5.87827 0.926351 3.84344 2.42664 2.34315C3.92693 0.842855 5.96176 0 8.0835 0C10.2052 0 12.2401 0.842855 13.7404 2.34315C15.2406 3.84344 16.0835 5.87827 16.0835 8C16.0835 10.1217 15.2406 12.1566 13.7404 13.6569C12.2401 15.1571 10.2052 16 8.0835 16C5.96176 16 3.92693 15.1571 2.42664 13.6569C0.926351 12.1566 0.0834961 10.1217 0.0834961 8ZM9.66787 10.1594L5.1585 11.8938C4.55225 12.1281 3.95537 11.5312 4.18975 10.925L5.92412 6.41563C6.02725 6.15 6.2335 5.94375 6.49912 5.84062L11.0085 4.10625C11.6147 3.87187 12.2116 4.46875 11.9772 5.075L10.2429 9.58438C10.1429 9.85 9.9335 10.0563 9.66787 10.1594ZM9.0835 8C9.0835 7.73478 8.97814 7.48043 8.7906 7.29289C8.60307 7.10536 8.34871 7 8.0835 7C7.81828 7 7.56393 7.10536 7.37639 7.29289C7.18885 7.48043 7.0835 7.73478 7.0835 8C7.0835 8.26522 7.18885 8.51957 7.37639 8.70711C7.56393 8.89464 7.81828 9 8.0835 9C8.34871 9 8.60307 8.89464 8.7906 8.70711C8.97814 8.51957 9.0835 8.26522 9.0835 8Z" fill="#5E5E5E"/>
</g>
<defs>
<clipPath id="clip0_5257_24615">
<rect width="16" height="16" fill="white" transform="translate(0.0834961)"/>
</clipPath>
</defs>
</svg>
