<svg width="21" height="24" viewBox="0 0 21 24" fill="none" xmlns="http://www.w3.org/2000/svg">
<g clip-path="url(#clip0_5515_28206)">
<path d="M17.0703 3.92832C15.9266 2.78457 14.0703 2.78457 12.9266 3.92832L4.30156 12.5533C2.32813 14.5268 2.32813 17.7236 4.30156 19.6971C6.275 21.6705 9.47188 21.6705 11.4453 19.6971L18.5703 12.5721C19.0812 12.0611 19.9156 12.0611 20.4266 12.5721C20.9375 13.083 20.9375 13.9174 20.4266 14.4283L13.3016 21.5533C10.3016 24.5533 5.44531 24.5533 2.44531 21.5533C-0.554688 18.5533 -0.554688 13.6971 2.44531 10.6971L11.0703 2.07207C13.2406 -0.0982422 16.7562 -0.0982422 18.9266 2.07207C21.0969 4.24238 21.0969 7.75801 18.9266 9.92832L10.6766 18.1783C9.33594 19.5189 7.16094 19.5189 5.82031 18.1783C4.47969 16.8377 4.47969 14.6627 5.82031 13.3221L12.5703 6.57207C13.0813 6.06113 13.9156 6.06113 14.4266 6.57207C14.9375 7.08301 14.9375 7.91738 14.4266 8.42832L7.67656 15.1783C7.3625 15.4924 7.3625 16.008 7.67656 16.3221C7.99063 16.6361 8.50625 16.6361 8.82031 16.3221L17.0703 8.07207C18.2141 6.92832 18.2141 5.07207 17.0703 3.92832Z" fill="#350F9D"/>
</g>
<defs>
<clipPath id="clip0_5515_28206">
<rect width="21" height="24" fill="white"/>
</clipPath>
</defs>
</svg>
