<svg width="28" height="27" viewBox="0 0 28 27" fill="none" xmlns="http://www.w3.org/2000/svg">
<g clip-path="url(#clip0_5875_11125)">
<path d="M0.5 21.9375C0.5 22.6389 1.06426 23.2031 1.76562 23.2031H4.91387C5.45176 24.917 7.04961 26.1562 8.9375 26.1562C10.8254 26.1562 12.4232 24.917 12.9611 23.2031H26.2344C26.9357 23.2031 27.5 22.6389 27.5 21.9375C27.5 21.2361 26.9357 20.6719 26.2344 20.6719H12.9611C12.4232 18.958 10.8254 17.7188 8.9375 17.7188C7.04961 17.7188 5.45176 18.958 4.91387 20.6719H1.76562C1.06426 20.6719 0.5 21.2361 0.5 21.9375ZM7.25 21.9375C7.25 21.4899 7.42779 21.0607 7.74426 20.7443C8.06073 20.4278 8.48995 20.25 8.9375 20.25C9.38505 20.25 9.81427 20.4278 10.1307 20.7443C10.4472 21.0607 10.625 21.4899 10.625 21.9375C10.625 22.3851 10.4472 22.8143 10.1307 23.1307C9.81427 23.4472 9.38505 23.625 8.9375 23.625C8.48995 23.625 8.06073 23.4472 7.74426 23.1307C7.42779 22.8143 7.25 22.3851 7.25 21.9375ZM17.375 13.5C17.375 13.0524 17.5528 12.6232 17.8693 12.3068C18.1857 11.9903 18.6149 11.8125 19.0625 11.8125C19.5101 11.8125 19.9393 11.9903 20.2557 12.3068C20.5722 12.6232 20.75 13.0524 20.75 13.5C20.75 13.9476 20.5722 14.3768 20.2557 14.6932C19.9393 15.0097 19.5101 15.1875 19.0625 15.1875C18.6149 15.1875 18.1857 15.0097 17.8693 14.6932C17.5528 14.3768 17.375 13.9476 17.375 13.5ZM19.0625 9.28125C17.1746 9.28125 15.5768 10.5205 15.0389 12.2344H1.76562C1.06426 12.2344 0.5 12.7986 0.5 13.5C0.5 14.2014 1.06426 14.7656 1.76562 14.7656H15.0389C15.5768 16.4795 17.1746 17.7188 19.0625 17.7188C20.9504 17.7188 22.5482 16.4795 23.0861 14.7656H26.2344C26.9357 14.7656 27.5 14.2014 27.5 13.5C27.5 12.7986 26.9357 12.2344 26.2344 12.2344H23.0861C22.5482 10.5205 20.9504 9.28125 19.0625 9.28125ZM10.625 6.75C10.1774 6.75 9.74823 6.57221 9.43176 6.25574C9.11529 5.93928 8.9375 5.51005 8.9375 5.0625C8.9375 4.61495 9.11529 4.18572 9.43176 3.86926C9.74823 3.55279 10.1774 3.375 10.625 3.375C11.0726 3.375 11.5018 3.55279 11.8182 3.86926C12.1347 4.18572 12.3125 4.61495 12.3125 5.0625C12.3125 5.51005 12.1347 5.93928 11.8182 6.25574C11.5018 6.57221 11.0726 6.75 10.625 6.75ZM14.6486 3.79688C14.1107 2.08301 12.5129 0.84375 10.625 0.84375C8.73711 0.84375 7.13926 2.08301 6.60137 3.79688H1.76562C1.06426 3.79688 0.5 4.36113 0.5 5.0625C0.5 5.76387 1.06426 6.32812 1.76562 6.32812H6.60137C7.13926 8.04199 8.73711 9.28125 10.625 9.28125C12.5129 9.28125 14.1107 8.04199 14.6486 6.32812H26.2344C26.9357 6.32812 27.5 5.76387 27.5 5.0625C27.5 4.36113 26.9357 3.79688 26.2344 3.79688H14.6486Z" fill="white"/>
</g>
<defs>
<clipPath id="clip0_5875_11125">
<rect width="27" height="27" fill="white" transform="translate(0.5)"/>
</clipPath>
</defs>
</svg>
