<svg width="44" height="40" viewBox="0 0 44 40" fill="none" xmlns="http://www.w3.org/2000/svg">
<rect y="0.5" width="43.75" height="39" rx="19.5" fill="#FDD0D0"/>
<g clip-path="url(#clip0_5207_24282)">
<path d="M11.9219 16.452C11.7846 16.5299 11.7401 16.7043 11.818 16.8416L18.0152 27.5774C18.0932 27.7147 18.2676 27.7592 18.4049 27.6813L25.5633 23.5473C25.7006 23.4693 25.7451 23.2949 25.6672 23.1576L19.4699 12.4219C19.392 12.2846 19.2176 12.2401 19.0803 12.318L11.9219 16.452ZM10.2779 17.7322C9.70646 16.7451 10.0442 15.4797 11.035 14.9082L18.1897 10.7779C19.1768 10.2065 20.4422 10.5442 21.0137 11.535L27.211 22.2707C27.7824 23.2578 27.441 24.5233 26.4539 25.0947L19.2955 29.2213C18.3084 29.7928 17.043 29.4514 16.4715 28.4643L10.2779 17.7322ZM27.0477 26.119C28.6026 25.2209 29.1369 23.2318 28.2389 21.6733L23.1623 12.882C23.2254 12.8746 23.2922 12.8746 23.359 12.8746H31.6715C32.8182 12.8746 33.7496 13.8061 33.7496 14.9527V27.4215C33.7496 28.5682 32.8182 29.4996 31.6715 29.4996H23.359C22.8506 29.4996 22.3867 29.3178 22.0268 29.0172L27.0477 26.119Z" fill="#F20000"/>
</g>
<defs>
<clipPath id="clip0_5207_24282">
<rect width="23.75" height="19" fill="white" transform="translate(10 10.5)"/>
</clipPath>
</defs>
</svg>
