<svg width="20" height="14" viewBox="0 0 20 14" fill="none" xmlns="http://www.w3.org/2000/svg">
<path d="M14.2168 1.84375H6.61679C5.3046 1.84375 4.24179 2.89258 4.24179 4.1875V5.35938C3.87663 5.20996 3.47585 5.125 3.05429 5.125C2.97413 5.125 2.89397 5.12793 2.81679 5.13379V4.1875C2.81679 2.11621 4.51788 0.4375 6.61679 0.4375H14.2168C16.3157 0.4375 18.0168 2.11621 18.0168 4.1875V5.13379C17.9396 5.12793 17.8594 5.125 17.7793 5.125C17.3577 5.125 16.9569 5.20703 16.5918 5.35938V4.1875C16.5918 2.89258 15.529 1.84375 14.2168 1.84375ZM17.7793 6.0625C17.8594 6.0625 17.9396 6.06543 18.0168 6.07422C19.0855 6.19141 19.9168 7.08496 19.9168 8.17188V12.1562C19.9168 12.9326 19.2785 13.5625 18.4918 13.5625H17.0668C16.4463 13.5625 15.9179 13.1699 15.7219 12.625H5.10866C4.91272 13.1699 4.38429 13.5625 3.76382 13.5625H2.33882C1.5521 13.5625 0.913818 12.9326 0.913818 12.1562L0.916787 8.17188C0.916787 7.08496 1.74804 6.19141 2.81679 6.07422C2.89397 6.06543 2.97413 6.0625 3.05429 6.0625C3.50554 6.0625 3.9271 6.2002 4.27147 6.4375C4.76726 6.77734 5.10866 7.31641 5.17694 7.9375H15.6537C15.7219 7.31641 16.0663 6.77734 16.5591 6.4375C16.9035 6.2002 17.3251 6.0625 17.7763 6.0625H17.7793ZM17.0668 8.17188V9.34375V11.2188V12.1562H18.4918V8.17188C18.4918 7.78223 18.1741 7.46875 17.7793 7.46875C17.3844 7.46875 17.0668 7.78223 17.0668 8.17188ZM15.6418 11.2188V9.34375H5.19179V11.2188H15.6418ZM3.76679 11.2188V9.34375V8.17188C3.76679 7.78223 3.44913 7.46875 3.05429 7.46875C2.65944 7.46875 2.34179 7.78223 2.34179 8.17188V12.1562H3.76679V11.2188Z" fill="#5E5E5E"/>
</svg>
