<svg width="41" height="41" viewBox="0 0 41 41" fill="none" xmlns="http://www.w3.org/2000/svg">
<g clip-path="url(#clip0_5386_24579)">
<path d="M14.4344 1.81556C10.4378 3.20202 6.99112 5.83358 4.60064 9.32369C2.21016 12.8138 1.00189 16.9785 1.1533 21.2061C1.30471 25.4336 2.80782 29.5012 5.44185 32.8114C8.07587 36.1216 11.702 38.4998 15.7875 39.5968C19.0998 40.4515 22.5701 40.489 25.9 39.7062C28.9167 39.0286 31.7056 37.5792 33.9938 35.4999C36.3753 33.2698 38.1039 30.4327 38.9938 27.2937C39.961 23.8801 40.1332 20.2903 39.4969 16.7999H20.8969V24.5156H31.6688C31.4535 25.7461 30.9922 26.9207 30.3124 27.9688C29.6326 29.0169 28.7484 29.9171 27.7125 30.6156C26.3972 31.4857 24.9144 32.0711 23.3594 32.3343C21.7999 32.6243 20.2002 32.6243 18.6407 32.3343C17.06 32.0075 15.5647 31.3551 14.25 30.4187C12.138 28.9236 10.5522 26.7997 9.71879 24.3499C8.87134 21.8543 8.87134 19.1487 9.71879 16.6531C10.312 14.9037 11.2926 13.311 12.5875 11.9937C14.0694 10.4585 15.9455 9.36117 18.0099 8.82205C20.0744 8.28292 22.2474 8.32284 24.2907 8.93743C25.8868 9.42741 27.3464 10.2835 28.5532 11.4374C29.7678 10.2291 30.9803 9.01764 32.1907 7.80306C32.8157 7.14993 33.4969 6.52806 34.1125 5.85931C32.2706 4.14517 30.1084 2.81136 27.75 1.93431C23.4554 0.374901 18.7562 0.332994 14.4344 1.81556Z" fill="white"/>
<path d="M14.4342 1.8161C18.7556 0.332528 23.4548 0.373333 27.7498 1.93173C30.1086 2.81474 32.2698 4.15497 34.1092 5.87548C33.4842 6.54423 32.8248 7.16923 32.1873 7.81923C30.9748 9.02964 29.7633 10.2359 28.5529 11.438C27.3462 10.284 25.8866 9.42795 24.2904 8.93798C22.2479 8.32123 20.0749 8.279 18.0099 8.81592C15.9449 9.35284 14.0677 10.4482 12.5842 11.9817C11.2893 13.299 10.3086 14.8918 9.71543 16.6411L3.2373 11.6255C5.55608 7.02723 9.5709 3.50993 14.4342 1.8161Z" fill="#E33629"/>
<path d="M1.51835 16.5938C1.86654 14.8681 2.44461 13.197 3.2371 11.625L9.71523 16.6531C8.86777 19.1488 8.86777 21.8544 9.71523 24.35C7.55689 26.0167 5.39752 27.6917 3.2371 29.375C1.2532 25.426 0.64814 20.9266 1.51835 16.5938Z" fill="#F8BD00"/>
<path d="M20.8969 16.7969H39.4969C40.1331 20.2873 39.961 23.8771 38.9938 27.2906C38.1039 30.4296 36.3753 33.2667 33.9938 35.4969C31.9031 33.8656 29.8031 32.2469 27.7125 30.6156C28.749 29.9165 29.6337 29.0153 30.3135 27.966C30.9933 26.9168 31.4543 25.7411 31.6688 24.5094H20.8969C20.8938 21.9406 20.8969 19.3687 20.8969 16.7969Z" fill="#587DBD"/>
<path d="M3.23438 29.3746C5.39479 27.7079 7.55417 26.0329 9.7125 24.3496C10.5475 26.8002 12.1356 28.9243 14.25 30.4184C15.5688 31.3504 17.0673 31.9975 18.65 32.3184C20.2096 32.6083 21.8092 32.6083 23.3687 32.3184C24.9237 32.0551 26.4065 31.4697 27.7219 30.5996C29.8125 32.2309 31.9125 33.8496 34.0031 35.4809C31.7153 37.5613 28.9263 39.0117 25.9094 39.6902C22.5794 40.4731 19.1091 40.4355 15.7969 39.5809C13.1772 38.8814 10.7302 37.6483 8.60938 35.959C6.36457 34.1768 4.53111 31.9308 3.23438 29.3746Z" fill="#319F43"/>
</g>
<defs>
<clipPath id="clip0_5386_24579">
<rect width="40" height="40" fill="white" transform="translate(0.5 0.5)"/>
</clipPath>
</defs>
</svg>
