<svg width="24" height="22" viewBox="0 0 24 22" fill="none" xmlns="http://www.w3.org/2000/svg">
<path d="M21 2.75C21.4125 2.75 21.75 3.0875 21.75 3.5V18.4906L21.5156 18.1859L15.1406 9.93594C14.9297 9.65938 14.5969 9.5 14.25 9.5C13.9031 9.5 13.575 9.65938 13.3594 9.93594L9.46875 14.9703L8.03906 12.9688C7.82812 12.6734 7.49062 12.5 7.125 12.5C6.75938 12.5 6.42188 12.6734 6.21094 12.9734L2.46094 18.2234L2.25 18.5141V18.5V3.5C2.25 3.0875 2.5875 2.75 3 2.75H21ZM3 0.5C1.34531 0.5 0 1.84531 0 3.5V18.5C0 20.1547 1.34531 21.5 3 21.5H21C22.6547 21.5 24 20.1547 24 18.5V3.5C24 1.84531 22.6547 0.5 21 0.5H3ZM6.75 9.5C7.04547 9.5 7.33806 9.4418 7.61104 9.32873C7.88402 9.21566 8.13206 9.04992 8.34099 8.84099C8.54992 8.63206 8.71566 8.38402 8.82873 8.11104C8.9418 7.83806 9 7.54547 9 7.25C9 6.95453 8.9418 6.66194 8.82873 6.38896C8.71566 6.11598 8.54992 5.86794 8.34099 5.65901C8.13206 5.45008 7.88402 5.28434 7.61104 5.17127C7.33806 5.0582 7.04547 5 6.75 5C6.45453 5 6.16194 5.0582 5.88896 5.17127C5.61598 5.28434 5.36794 5.45008 5.15901 5.65901C4.95008 5.86794 4.78434 6.11598 4.67127 6.38896C4.5582 6.66194 4.5 6.95453 4.5 7.25C4.5 7.54547 4.5582 7.83806 4.67127 8.11104C4.78434 8.38402 4.95008 8.63206 5.15901 8.84099C5.36794 9.04992 5.61598 9.21566 5.88896 9.32873C6.16194 9.4418 6.45453 9.5 6.75 9.5Z" fill="#350F9D"/>
</svg>
