<svg width="80" height="60" viewBox="0 0 80 60" fill="none" xmlns="http://www.w3.org/2000/svg">
<path d="M12.4747 53.8343C27.8142 62.0549 52.6847 62.0549 68.0242 53.8343C83.3637 45.6137 83.362 32.2874 68.0242 24.0668C52.6864 15.8462 27.8142 15.8462 12.4747 24.0668C-2.86481 32.2874 -2.86311 45.6154 12.4747 53.8343Z" fill="#F5F5F5"/>
<path d="M17.4672 0.644483L16.279 1.32345C16.279 1.27083 16.2892 1.21821 16.2892 1.16729V0.827804C16.2892 0.220131 15.8615 -0.0209026 15.3353 0.277842C15.1082 0.416441 14.9141 0.602979 14.7666 0.824409C14.6801 0.0588759 14.0877 -0.226289 13.351 0.194669C12.5634 0.649575 11.9235 1.75629 11.9235 2.6678V3.17702C11.9211 3.38481 11.9663 3.59038 12.0559 3.77791L11.0765 4.34314C10.9224 4.44362 10.7942 4.57895 10.7022 4.7382C10.6102 4.89744 10.557 5.07611 10.5469 5.25975C10.5469 5.59923 10.7845 5.73502 11.0765 5.56528L17.4672 1.86662C17.6214 1.76625 17.7496 1.63093 17.8417 1.47167C17.9337 1.3124 17.9868 1.13368 17.9968 0.950017C18.0002 0.613929 17.7626 0.47644 17.4672 0.644483Z" fill="#EBEBEB"/>
<path d="M22.5202 4.08322L21.6291 4.59245C21.6316 4.55288 21.6316 4.51319 21.6291 4.47363V4.22071C21.6291 3.76241 21.3066 3.5757 20.9094 3.80485C20.7385 3.91025 20.5921 4.05087 20.4799 4.21732C20.4154 3.6402 19.9622 3.42632 19.4123 3.74374C19.0981 3.94795 18.8367 4.22356 18.6494 4.54805C18.4621 4.87254 18.3542 5.23673 18.3344 5.61089V5.9962C18.3311 6.15055 18.3624 6.30368 18.4261 6.44432L17.686 6.87037C17.5698 6.94639 17.4732 7.0487 17.4039 7.16901C17.3346 7.28933 17.2946 7.42427 17.2871 7.56292C17.2871 7.81753 17.4653 7.92107 17.686 7.79376L22.5117 5.00661C22.6279 4.93096 22.7246 4.82897 22.7939 4.70893C22.8632 4.58889 22.9032 4.45418 22.9106 4.31577C22.9191 4.05946 22.7409 3.95592 22.5202 4.08322Z" fill="#EBEBEB"/>
<path d="M70.2136 8.71194L69.3224 9.22116C69.3249 9.1816 69.3249 9.14191 69.3224 9.10235V8.84434C69.3224 8.38604 68.9999 8.19932 68.6027 8.43017C68.4312 8.5346 68.2846 8.6754 68.1733 8.84264C68.1088 8.26552 67.6641 8.04995 67.1056 8.36737C66.7918 8.57177 66.5307 8.84746 66.3437 9.17194C66.1567 9.49642 66.049 9.86051 66.0295 10.2345V10.6198C66.0251 10.7741 66.0559 10.9273 66.1194 11.0679L65.3811 11.494C65.2646 11.5699 65.1677 11.6722 65.0981 11.7925C65.0286 11.9128 64.9882 12.0478 64.9805 12.1865C64.9805 12.4412 65.1604 12.5447 65.3811 12.4174L70.2068 9.63024C70.3229 9.55459 70.4196 9.4526 70.4889 9.33256C70.5582 9.21251 70.5982 9.07781 70.6057 8.93939C70.6125 8.68818 70.4343 8.58463 70.2136 8.71194Z" fill="#EBEBEB"/>
<path d="M17.0174 25.2402L3.7793 32.8837V33.5202L15.9141 40.5254L29.1522 32.8837V32.2471L17.0174 25.2402Z" fill="#8771C5"/>
<path opacity="0.15" d="M3.7793 32.8838L15.9141 39.889V40.5255L3.7793 33.5203V32.8838Z" fill="black"/>
<path opacity="0.1" d="M15.9141 39.8888L29.1522 32.2471V32.8836L15.9141 40.5253V39.8888Z" fill="black"/>
<path d="M27.9743 29.9487L27.4512 30.9795L27.5359 31.0225L28.0591 29.9917L27.9743 29.9487Z" fill="#455A64"/>
<path d="M27.0066 29.8679L26.9258 29.918L27.4359 30.7421L27.5168 30.692L27.0066 29.8679Z" fill="#455A64"/>
<path d="M27.5739 29.7725V32.2575C27.5735 32.2644 27.5713 32.271 27.5674 32.2767C27.5635 32.2824 27.5581 32.2869 27.5518 32.2897C27.5346 32.2989 27.5153 32.3038 27.4958 32.3038C27.4763 32.3038 27.457 32.2989 27.4398 32.2897C27.4332 32.2872 27.4274 32.2828 27.4232 32.2771C27.419 32.2713 27.4165 32.2645 27.416 32.2575V29.7725H27.5739Z" fill="#455A64"/>
<path d="M29.453 28.9999C29.453 29.2282 29.3853 29.4514 29.2585 29.6412C29.1317 29.831 28.9514 29.979 28.7405 30.0663C28.5296 30.1537 28.2975 30.1765 28.0736 30.132C27.8497 30.0875 27.644 29.9775 27.4826 29.8161C27.3212 29.6547 27.2112 29.449 27.1667 29.2251C27.1222 29.0012 27.145 28.7691 27.2324 28.5582C27.3198 28.3473 27.4677 28.1671 27.6575 28.0402C27.8473 27.9134 28.0705 27.8457 28.2988 27.8457C28.6048 27.8462 28.8981 27.9679 29.1144 28.1843C29.3308 28.4006 29.4526 28.694 29.453 28.9999Z" fill="#8771C5"/>
<path opacity="0.2" d="M28.6595 28.7047C28.8088 28.2362 28.9667 28.0528 28.8665 27.9951C28.6754 27.8867 28.4573 27.835 28.2378 27.8462C28.0183 27.8575 27.8066 27.9311 27.6275 28.0586C27.4485 28.186 27.3095 28.3619 27.227 28.5656C27.1445 28.7693 27.1219 28.9923 27.1617 29.2085C27.2016 29.4246 27.3024 29.6248 27.4522 29.7857C27.602 29.9465 27.7946 30.0612 28.0073 30.1163C28.2201 30.1714 28.4441 30.1647 28.6532 30.0968C28.8622 30.029 29.0475 29.9028 29.1874 29.7333C28.8394 29.8334 28.466 29.3123 28.6595 28.7047Z" fill="black"/>
<path d="M27.2926 29.326C27.2926 29.4865 27.2451 29.6434 27.1559 29.7768C27.0668 29.9102 26.94 30.0142 26.7918 30.0756C26.6435 30.137 26.4804 30.1531 26.323 30.1218C26.1656 30.0905 26.021 30.0132 25.9076 29.8997C25.7941 29.7863 25.7168 29.6417 25.6855 29.4843C25.6542 29.3269 25.6703 29.1638 25.7317 29.0155C25.7931 28.8673 25.8971 28.7405 26.0305 28.6514C26.1639 28.5622 26.3208 28.5146 26.4813 28.5146C26.6965 28.5146 26.9028 28.6001 27.055 28.7523C27.2072 28.9045 27.2926 29.1108 27.2926 29.326Z" fill="#8771C5"/>
<path opacity="0.2" d="M26.4801 28.5146C26.3098 28.5146 26.144 28.5687 26.0065 28.6691C25.9844 29.1631 26.4054 29.6468 26.2866 29.8098C26.1677 29.9727 25.8809 29.8726 25.7773 29.7334C25.8488 29.8565 25.9514 29.9587 26.0749 30.0296C26.1983 30.1005 26.3383 30.1377 26.4807 30.1374C26.623 30.1371 26.7628 30.0993 26.886 30.0279C27.0091 29.9565 27.1113 29.854 27.1823 29.7306C27.2533 29.6072 27.2906 29.4672 27.2904 29.3249C27.2902 29.1825 27.2525 29.0427 27.1812 28.9195C27.1099 28.7963 27.0074 28.694 26.884 28.6229C26.7606 28.5519 26.6207 28.5145 26.4784 28.5146H26.4801Z" fill="black"/>
<path d="M27.4964 29.9402C28.3186 29.9402 28.9851 29.2737 28.9851 28.4515C28.9851 27.6294 28.3186 26.9629 27.4964 26.9629C26.6743 26.9629 26.0078 27.6294 26.0078 28.4515C26.0078 29.2737 26.6743 29.9402 27.4964 29.9402Z" fill="#8771C5"/>
<path opacity="0.1" d="M28.9442 28.7909C28.888 29.0319 28.7726 29.2551 28.6084 29.4403C28.4442 29.6255 28.2365 29.7668 28.0039 29.8515C27.7714 29.9362 27.5214 29.9616 27.2766 29.9254C27.0317 29.8892 26.7998 29.7925 26.6018 29.644C26.4037 29.4956 26.2458 29.3001 26.1423 29.0753C26.0388 28.8505 25.993 28.6035 26.009 28.3565C26.025 28.1095 26.1023 27.8704 26.234 27.6609C26.3657 27.4513 26.5475 27.2779 26.763 27.1562C26.6373 27.2304 26.5229 27.3225 26.4236 27.4295C26.3496 27.7477 26.3824 28.0815 26.5171 28.3791C26.6517 28.6768 26.8806 28.9218 27.1685 29.0764C27.4563 29.2309 27.787 29.2864 28.1095 29.2341C28.432 29.1819 28.7284 29.0249 28.9527 28.7875L28.9442 28.7909Z" fill="black"/>
<path d="M5.9177 30.5825L5.39453 31.6133L5.47929 31.6563L6.00246 30.6255L5.9177 30.5825Z" fill="#455A64"/>
<path d="M4.94801 30.5007L4.86719 30.5508L5.37735 31.3749L5.45817 31.3248L4.94801 30.5007Z" fill="#455A64"/>
<path d="M5.51528 30.4053V32.8903C5.5146 32.8973 5.51204 32.904 5.50785 32.9097C5.50367 32.9154 5.49802 32.9198 5.49152 32.9225C5.47405 32.931 5.4549 32.9353 5.4355 32.9353C5.41611 32.9353 5.39696 32.931 5.37949 32.9225C5.37319 32.9197 5.36779 32.9152 5.3639 32.9095C5.36 32.9038 5.35776 32.8972 5.35742 32.8903V30.4053H5.51528Z" fill="#455A64"/>
<path d="M7.39442 29.6308C7.39442 29.8591 7.32672 30.0823 7.19989 30.2721C7.07306 30.4619 6.8928 30.6098 6.68189 30.6972C6.47098 30.7845 6.2389 30.8074 6.015 30.7629C5.7911 30.7183 5.58543 30.6084 5.42401 30.447C5.26258 30.2856 5.15265 30.0799 5.10812 29.856C5.06358 29.6321 5.08644 29.4 5.1738 29.1891C5.26116 28.9782 5.4091 28.7979 5.59892 28.6711C5.78873 28.5443 6.01189 28.4766 6.24018 28.4766C6.5463 28.4766 6.83989 28.5982 7.05635 28.8146C7.27281 29.0311 7.39442 29.3247 7.39442 29.6308Z" fill="#8771C5"/>
<path opacity="0.2" d="M6.60422 29.3355C6.75359 28.867 6.91145 28.6837 6.81131 28.6276C6.63836 28.5281 6.44221 28.476 6.24267 28.4766C6.04819 28.4765 5.85684 28.5255 5.68638 28.6192C5.51592 28.7128 5.37189 28.848 5.26766 29.0122C5.16343 29.1764 5.10237 29.3643 5.09017 29.5584C5.07796 29.7525 5.115 29.9465 5.19784 30.1225C5.28068 30.2984 5.40664 30.4506 5.56402 30.5648C5.7214 30.6791 5.9051 30.7517 6.09807 30.776C6.29103 30.8003 6.487 30.7754 6.66777 30.7037C6.84855 30.632 7.00828 30.5157 7.13212 30.3658C6.78924 30.4659 6.40902 29.9431 6.60422 29.3355Z" fill="black"/>
<path d="M5.23405 29.9588C5.23405 30.1193 5.18647 30.2762 5.09731 30.4096C5.00816 30.543 4.88144 30.647 4.73319 30.7084C4.58493 30.7698 4.42179 30.7859 4.2644 30.7546C4.10701 30.7233 3.96244 30.646 3.84897 30.5325C3.7355 30.4191 3.65823 30.2745 3.62692 30.1171C3.59561 29.9597 3.61168 29.7966 3.67309 29.6483C3.7345 29.5001 3.83849 29.3734 3.97192 29.2842C4.10535 29.195 4.26222 29.1475 4.42269 29.1475C4.5293 29.1472 4.63491 29.1681 4.73345 29.2088C4.83199 29.2495 4.92152 29.3092 4.99691 29.3846C5.0723 29.46 5.13205 29.5495 5.17275 29.6481C5.21344 29.7466 5.23428 29.8522 5.23405 29.9588Z" fill="#8771C5"/>
<path opacity="0.2" d="M4.42343 29.1475C4.25336 29.1468 4.0875 29.2003 3.94985 29.3002C3.92779 29.7959 4.34705 30.2796 4.22993 30.4409C4.11281 30.6021 3.82255 30.5037 3.7207 30.3662C3.79219 30.4893 3.89481 30.5915 4.01826 30.6624C4.14171 30.7333 4.28165 30.7705 4.42401 30.7702C4.56638 30.7699 4.70617 30.7322 4.82933 30.6608C4.9525 30.5893 5.05471 30.4868 5.12569 30.3634C5.19668 30.24 5.23394 30.1001 5.23374 29.9577C5.23354 29.8153 5.19589 29.6755 5.12455 29.5523C5.05322 29.4291 4.95073 29.3268 4.82736 29.2558C4.70399 29.1847 4.5641 29.1474 4.42173 29.1475H4.42343Z" fill="black"/>
<path d="M5.4359 30.572C6.25804 30.572 6.92453 29.9055 6.92453 29.0834C6.92453 28.2612 6.25804 27.5947 5.4359 27.5947C4.61375 27.5947 3.94727 28.2612 3.94727 29.0834C3.94727 29.9055 4.61375 30.572 5.4359 30.572Z" fill="#8771C5"/>
<path opacity="0.1" d="M6.88315 29.4244C6.82631 29.6647 6.71052 29.887 6.54624 30.0714C6.38196 30.2557 6.17436 30.3962 5.94218 30.4803C5.71 30.5643 5.46055 30.5892 5.21634 30.5527C4.97213 30.5162 4.74086 30.4194 4.5434 30.2712C4.34594 30.1229 4.1885 29.9279 4.08531 29.7035C3.98211 29.4792 3.9364 29.2327 3.95231 28.9863C3.96821 28.7399 4.04523 28.5013 4.17641 28.2921C4.30758 28.083 4.48879 27.9097 4.70367 27.7881C4.57526 27.8621 4.45809 27.9542 4.3557 28.0614C4.28234 28.3792 4.31553 28.7124 4.45017 29.0095C4.58481 29.3066 4.81343 29.5512 5.10079 29.7056C5.38815 29.86 5.71831 29.9156 6.0404 29.8639C6.36248 29.8122 6.65861 29.6559 6.88315 29.4193V29.4244Z" fill="black"/>
<path d="M20.0215 35.606L21.87 34.54L23.5283 35.4974L21.6816 36.5617L20.0215 35.606Z" fill="#F0F0F0"/>
<path d="M7.09154 32.8835L7.08984 27.1514L15.9164 32.2453V37.9792L7.09154 32.8835Z" fill="#F0F0F0"/>
<path d="M7.08984 29.4259L15.9164 34.5232V32.2453L7.08984 27.1514V29.4259Z" fill="#E0E0E0"/>
<path d="M25.8425 32.2455V26.6729L22.5325 25.8768V25.2402L15.916 32.2455V37.9793L25.8425 32.2455Z" fill="#FAFAFA"/>
<path d="M22.5332 25.2402V25.8768L26.3948 26.8324V26.1959L22.5332 25.2402Z" fill="#263238"/>
<path d="M17.5703 21.1002L26.3935 26.1958L22.5319 25.2402L13.707 20.1445L17.5703 21.1002Z" fill="#37474F"/>
<path d="M15.3622 33.2043L22.5338 25.24V24.6035L14.8105 33.52L15.3622 33.2043Z" fill="#37474F"/>
<path d="M13.7096 19.5078L22.5344 24.6034L14.8248 33.5284L5.98633 28.4243L13.7096 19.5078Z" fill="#455A64"/>
<path d="M10.9414 27.7637L12.0532 28.4053V30.0161L10.9414 29.3796V27.7637Z" fill="#263238"/>
<path d="M12.0527 28.4053L13.1628 27.7637V28.7431L12.0527 30.0161V28.4053Z" fill="#37474F"/>
<path d="M12.0534 26.6729L10.8262 27.3807V27.7015L12.0534 28.4059L13.2789 27.7015V27.3807L12.0534 26.6729Z" fill="#F5F5F5"/>
<path d="M10.8262 27.7017L12.0534 28.4061V28.0853L10.8262 27.3809V27.7017Z" fill="#E0E0E0"/>
<path d="M13.2783 27.7017L12.0527 28.4061V28.0853L13.2783 27.3809V27.7017Z" fill="#EBEBEB"/>
<path d="M11.2383 27.3803L12.053 26.9102L12.8678 27.3803L12.053 27.8488L11.2383 27.3803Z" fill="#8771C5"/>
<path d="M12.053 26.9102V27.8488L11.2383 27.3803L12.053 26.9102Z" fill="#37474F"/>
<path d="M12.0527 26.9102L12.8675 27.3803L12.0527 27.8488V26.9102Z" fill="#263238"/>
<path d="M16.6309 33.7441L19.1142 32.3115V34.2228L16.6309 35.6554V33.7441Z" fill="#455A64"/>
<path d="M19.0038 34.1583V32.376L16.6309 33.7441V35.5281L19.0038 34.1583Z" fill="#E0E0E0"/>
<path d="M19.1142 34.2227L19.0038 34.1582L16.6309 35.528V35.6553L19.1142 34.2227Z" fill="#37474F"/>
<path d="M16.6309 34.6993L19.1142 33.2667V33.1377L16.6309 34.5703V34.6993Z" fill="#455A64"/>
<path d="M22.6992 30.2393L25.1808 28.8066V30.7179L22.6992 32.1505V30.2393Z" fill="#455A64"/>
<path d="M25.0705 30.6534V28.8711L22.6992 30.2392V32.0232L25.0705 30.6534Z" fill="#E0E0E0"/>
<path d="M25.1808 30.7178L25.0705 30.6533L22.6992 32.0231V32.1504L25.1808 30.7178Z" fill="#37474F"/>
<path d="M22.6992 31.1944L25.1808 29.7618V29.6328L22.6992 31.0671V31.1944Z" fill="#455A64"/>
<path d="M20.0215 35.6056V31.7847L21.87 30.7188V34.5396L20.0215 35.6056Z" fill="#37474F"/>
<path d="M21.8055 34.4911V30.7568L20.0215 31.7855V35.5198L21.8055 34.4911Z" fill="#455A64"/>
<path d="M21.8711 30.7188L21.8066 30.7561V34.4904L21.8711 34.5396V30.7188Z" fill="#263238"/>
<path d="M13.9003 32.9956L12.6035 32.2471V34.1567L13.9003 34.9052V32.9956Z" fill="#455A64"/>
<path d="M12.7148 34.0919V32.3096L13.9013 32.9953V34.7776L12.7148 34.0919Z" fill="#FAFAFA"/>
<path d="M12.6035 34.1563L12.7138 34.0918L13.9003 34.7776V34.9049L12.6035 34.1563Z" fill="#37474F"/>
<path d="M13.9003 33.9447L12.6035 33.2013V33.0723L13.9003 33.8157V33.9447Z" fill="#455A64"/>
<path d="M12.7148 32.3096L13.9013 32.9953V33.3637L12.7148 32.683V32.3096Z" fill="#F5F5F5"/>
<path d="M10.039 30.7652L8.74219 30.0166V31.9279L10.039 32.6764V30.7652Z" fill="#455A64"/>
<path d="M8.85547 31.8633V30.0811L10.0403 30.7651V32.5474L8.85547 31.8633Z" fill="#FAFAFA"/>
<path d="M8.74219 31.9278L8.85422 31.8633L10.039 32.5473V32.6763L8.74219 31.9278Z" fill="#37474F"/>
<path d="M10.039 31.7143L8.74219 30.9708V30.8418L10.039 31.5853V31.7143Z" fill="#455A64"/>
<path d="M8.85547 30.0811L10.0403 30.7651V31.1182L8.85547 30.4392V30.0811Z" fill="#F5F5F5"/>
<path d="M62.9334 24.6826L49.6953 32.3261V32.9626L62.9334 40.606L76.1732 32.9626V32.3261L62.9334 24.6826Z" fill="#8771C5"/>
<path opacity="0.15" d="M49.6953 32.3262L62.9351 39.9696L62.9334 40.6061L49.6953 32.9627V32.3262Z" fill="black"/>
<path opacity="0.1" d="M62.9353 39.9696L76.1734 32.3262V32.9627L62.9336 40.6061L62.9353 39.9696Z" fill="black"/>
<path d="M75.0329 30.0493L74.5098 31.0801L74.5945 31.1231L75.1177 30.0923L75.0329 30.0493Z" fill="#455A64"/>
<path d="M74.198 29.6781L74.1172 29.7285L74.6309 30.5524L74.7117 30.502L74.198 29.6781Z" fill="#455A64"/>
<path d="M74.6344 29.874V32.359C74.6341 32.3659 74.6318 32.3726 74.6279 32.3783C74.6241 32.384 74.6187 32.3885 74.6124 32.3913C74.5951 32.4005 74.5759 32.4053 74.5563 32.4053C74.5368 32.4053 74.5176 32.4005 74.5003 32.3913C74.4938 32.3886 74.4882 32.3841 74.484 32.3784C74.4798 32.3728 74.4772 32.3661 74.4766 32.359V29.874H74.6344Z" fill="#455A64"/>
<path d="M76.5136 29.1015C76.5136 29.3298 76.4459 29.553 76.319 29.7428C76.1922 29.9326 76.0119 30.0805 75.801 30.1679C75.5901 30.2552 75.358 30.2781 75.1341 30.2336C74.9102 30.189 74.7046 30.0791 74.5431 29.9177C74.3817 29.7563 74.2718 29.5506 74.2273 29.3267C74.1827 29.1028 74.2056 28.8707 74.2929 28.6598C74.3803 28.4489 74.5282 28.2686 74.7181 28.1418C74.9079 28.015 75.131 27.9473 75.3593 27.9473C75.6654 27.9473 75.959 28.0689 76.1755 28.2853C76.392 28.5018 76.5136 28.7954 76.5136 29.1015Z" fill="#8771C5"/>
<path opacity="0.2" d="M75.7208 28.8056C75.8702 28.3371 76.0297 28.1538 75.9279 28.096C75.7366 27.9878 75.5185 27.9364 75.299 27.9479C75.0796 27.9593 74.8679 28.0332 74.689 28.1608C74.5101 28.2885 74.3714 28.4645 74.2891 28.6683C74.2068 28.872 74.1844 29.095 74.2244 29.3111C74.2645 29.5272 74.3655 29.7273 74.5154 29.888C74.6653 30.0486 74.858 30.1632 75.0708 30.2181C75.2835 30.2731 75.5076 30.2661 75.7165 30.1981C75.9255 30.1301 76.1107 30.0038 76.2504 29.8342C75.9075 29.9343 75.529 29.4081 75.7208 28.8056Z" fill="black"/>
<path d="M74.3512 29.4276C74.3512 29.588 74.3037 29.7449 74.2145 29.8783C74.1254 30.0118 73.9986 30.1158 73.8504 30.1772C73.7021 30.2386 73.539 30.2547 73.3816 30.2233C73.2242 30.192 73.0796 30.1148 72.9662 30.0013C72.8527 29.8878 72.7754 29.7433 72.7441 29.5859C72.7128 29.4285 72.7289 29.2653 72.7903 29.1171C72.8517 28.9688 72.9557 28.8421 73.0891 28.7529C73.2225 28.6638 73.3794 28.6162 73.5399 28.6162C73.7551 28.6162 73.9614 28.7017 74.1136 28.8539C74.2658 29.006 74.3512 29.2124 74.3512 29.4276Z" fill="#8771C5"/>
<path opacity="0.2" d="M73.5409 28.6162C73.3707 28.6164 73.2049 28.6705 73.0673 28.7707C73.0452 29.2646 73.4662 29.7484 73.3491 29.9113C73.2319 30.0743 72.9417 29.9741 72.8398 29.835C72.9113 29.9581 73.0139 30.0602 73.1374 30.1311C73.2609 30.202 73.4008 30.2392 73.5432 30.2389C73.6855 30.2386 73.8253 30.2009 73.9485 30.1295C74.0716 30.0581 74.1738 29.9555 74.2448 29.8321C74.3158 29.7087 74.3531 29.5688 74.3529 29.4264C74.3527 29.2841 74.315 29.1443 74.2437 29.021C74.1724 28.8978 74.0699 28.7956 73.9465 28.7245C73.8231 28.6534 73.6832 28.6161 73.5409 28.6162Z" fill="black"/>
<path d="M74.555 30.0417C75.3772 30.0417 76.0437 29.3752 76.0437 28.5531C76.0437 27.7309 75.3772 27.0645 74.555 27.0645C73.7329 27.0645 73.0664 27.7309 73.0664 28.5531C73.0664 29.3752 73.7329 30.0417 74.555 30.0417Z" fill="#8771C5"/>
<path opacity="0.1" d="M76.0046 28.8992C75.947 29.1393 75.8307 29.3614 75.6659 29.5453C75.5012 29.7292 75.2933 29.8693 75.061 29.9529C74.8286 30.0365 74.5792 30.061 74.335 30.0242C74.0908 29.9874 73.8597 29.8904 73.6623 29.742C73.465 29.5936 73.3076 29.3984 73.2045 29.1741C73.1013 28.9498 73.0556 28.7033 73.0714 28.4569C73.0872 28.2105 73.1641 27.9718 73.2951 27.7625C73.426 27.5532 73.607 27.3798 73.8217 27.2578C73.6921 27.3309 73.5743 27.423 73.4721 27.5311C73.3981 27.8493 73.4309 28.183 73.5656 28.4807C73.7002 28.7784 73.9291 29.0234 74.217 29.1779C74.5048 29.3325 74.8355 29.3879 75.158 29.3357C75.4805 29.2835 75.7769 29.1265 76.0012 28.889L76.0046 28.8992Z" fill="black"/>
<path d="M51.8298 29.9946L51.3066 31.0254L51.3914 31.0684L51.9146 30.0376L51.8298 29.9946Z" fill="#455A64"/>
<path d="M51.0027 29.7065L50.9219 29.7568L51.4356 30.5807L51.5164 30.5303L51.0027 29.7065Z" fill="#455A64"/>
<path d="M51.4313 29.8193V32.3043C51.4304 32.3113 51.4278 32.3179 51.4236 32.3236C51.4195 32.3292 51.4139 32.3337 51.4075 32.3366C51.3901 32.345 51.3709 32.3494 51.3515 32.3494C51.3321 32.3494 51.313 32.345 51.2955 32.3366C51.2895 32.3334 51.2844 32.3288 51.2805 32.3232C51.2767 32.3176 51.2743 32.3111 51.2734 32.3043V29.8193H51.4313Z" fill="#455A64"/>
<path d="M53.3104 29.0449C53.3104 29.2732 53.2427 29.4963 53.1159 29.6861C52.9891 29.8759 52.8088 30.0239 52.5979 30.1112C52.387 30.1986 52.1549 30.2215 51.931 30.1769C51.7071 30.1324 51.5014 30.0225 51.34 29.861C51.1786 29.6996 51.0687 29.4939 51.0241 29.27C50.9796 29.0461 51.0025 28.8141 51.0898 28.6032C51.1772 28.3922 51.3251 28.212 51.5149 28.0852C51.7047 27.9583 51.9279 27.8906 52.1562 27.8906C52.4622 27.8911 52.7555 28.0128 52.9719 28.2292C53.1882 28.4456 53.31 28.7389 53.3104 29.0449Z" fill="#8771C5"/>
<path opacity="0.2" d="M52.5179 28.75C52.6673 28.2815 52.8251 28.0982 52.725 28.0405C52.5338 27.9322 52.3158 27.8808 52.0964 27.8922C51.877 27.9036 51.6655 27.9773 51.4865 28.1047C51.3076 28.2322 51.1688 28.408 51.0863 28.6116C51.0039 28.8152 50.9813 29.0381 51.0211 29.2542C51.0609 29.4702 51.1616 29.6704 51.3112 29.8312C51.4609 29.992 51.6533 30.1067 51.8659 30.162C52.0785 30.2172 52.3024 30.2107 52.5114 30.1431C52.7204 30.0755 52.9058 29.9496 53.0458 29.7803C52.7046 29.8788 52.3244 29.3577 52.5179 28.75Z" fill="black"/>
<path d="M51.1501 29.3712C51.1504 29.5317 51.1031 29.6888 51.0142 29.8224C50.9252 29.9561 50.7986 30.0603 50.6504 30.122C50.5021 30.1837 50.339 30.2 50.1815 30.1689C50.024 30.1378 49.8792 30.0606 49.7656 29.9472C49.6519 29.8338 49.5745 29.6892 49.5431 29.5318C49.5116 29.3744 49.5276 29.2111 49.5889 29.0628C49.6503 28.9144 49.7543 28.7876 49.8878 28.6984C50.0212 28.6092 50.1782 28.5615 50.3387 28.5615C50.5536 28.5615 50.7597 28.6468 50.9118 28.7986C51.0639 28.9504 51.1496 29.1563 51.1501 29.3712Z" fill="#8771C5"/>
<path opacity="0.2" d="M50.3394 28.5596C50.1694 28.5589 50.0035 28.6124 49.8659 28.7123C49.8438 29.208 50.2648 29.6901 50.1459 29.853C50.0271 30.016 49.7386 29.9158 49.6367 29.7783C49.7082 29.9014 49.8108 30.0036 49.9343 30.0745C50.0577 30.1454 50.1977 30.1826 50.34 30.1823C50.4824 30.182 50.6222 30.1443 50.7454 30.0729C50.8685 30.0015 50.9707 29.8989 51.0417 29.7755C51.1127 29.6521 51.15 29.5122 51.1498 29.3698C51.1496 29.2274 51.1119 29.0876 51.0406 28.9644C50.9692 28.8412 50.8667 28.7389 50.7434 28.6679C50.62 28.5968 50.4801 28.5595 50.3378 28.5596H50.3394Z" fill="black"/>
<path d="M51.3519 29.986C52.1741 29.986 52.8405 29.3196 52.8405 28.4974C52.8405 27.6753 52.1741 27.0088 51.3519 27.0088C50.5298 27.0088 49.8633 27.6753 49.8633 28.4974C49.8633 29.3196 50.5298 29.986 51.3519 29.986Z" fill="#8771C5"/>
<path opacity="0.1" d="M52.8012 28.8385C52.7447 29.0793 52.629 29.3023 52.4647 29.4872C52.3004 29.6721 52.0926 29.8132 51.8601 29.8976C51.6275 29.9821 51.3776 30.0073 51.1329 29.9709C50.8882 29.9345 50.6565 29.8377 50.4586 29.6892C50.2607 29.5408 50.1029 29.3453 49.9995 29.1206C49.8961 28.8958 49.8504 28.6489 49.8664 28.402C49.8824 28.1551 49.9597 27.9162 50.0913 27.7067C50.2229 27.4972 50.4046 27.3238 50.62 27.2021C50.4912 27.2757 50.374 27.3677 50.272 27.4754C50.1995 27.7933 50.2334 28.1261 50.3683 28.4229C50.5033 28.7196 50.732 28.9639 51.0192 29.1181C51.3064 29.2723 51.6363 29.328 51.9583 29.2765C52.2802 29.2251 52.5763 29.0694 52.8012 28.8334V28.8385Z" fill="black"/>
<path d="M65.5996 21.3594L66.7097 22.001V23.2842L65.5996 22.6426V21.3594Z" fill="#E0E0E0"/>
<path d="M66.7109 22.001L67.8227 21.3594V23.9242L66.7109 23.2842V22.001Z" fill="#F0F0F0"/>
<path d="M66.7099 20.2676L65.4844 20.9737V21.2945L66.7099 22.0006L67.9371 21.2945V20.9737L66.7099 20.2676Z" fill="#455A64"/>
<path d="M65.4844 21.2954L66.7099 22.0015V21.6807L65.4844 20.9746V21.2954Z" fill="#37474F"/>
<path d="M67.9382 21.2954L66.7109 22.0015V21.6807L67.9382 20.9746V21.2954Z" fill="#263238"/>
<path d="M65.8965 20.9743L66.7112 20.5059L67.5277 20.9743L66.7112 21.4445L65.8965 20.9743Z" fill="#8771C5"/>
<path d="M66.7112 20.5059V21.4445L65.8965 20.9743L66.7112 20.5059Z" fill="#37474F"/>
<path d="M66.7109 20.5059L67.5274 20.9743L66.7109 21.4445V20.5059Z" fill="#263238"/>
<path d="M62.9353 34.238L62.9336 28.5059L66.2385 30.4154V36.1476L62.9353 34.238Z" fill="#F0F0F0"/>
<path d="M62.9336 28.5059L66.2385 30.4154V32.6985L62.9336 30.7923V28.5059Z" fill="#E0E0E0"/>
<path d="M72.8633 32.3261V26.5939L69.5465 24.6826L66.2383 30.4148V36.1469L72.8633 32.3261Z" fill="#FAFAFA"/>
<path d="M65.6923 31.3712L69.5471 24.6834V24.0469L65.1406 31.6903L65.6923 31.3712Z" fill="#37474F"/>
<path d="M62.9336 20.2256L69.5467 24.0465L65.1402 31.6899L62.9353 30.4151L62.9336 20.2256Z" fill="#455A64"/>
<path d="M69.5469 24.6834L73.4153 26.9121L73.9669 26.5947L69.5469 24.0469V24.6834Z" fill="#263238"/>
<path d="M70.9297 29.7396L72.2265 28.9961V30.9074L70.9297 31.6508V29.7396Z" fill="#455A64"/>
<path d="M72.1162 30.8428V29.0605L70.9297 29.7395V31.5218L72.1162 30.8428Z" fill="#E0E0E0"/>
<path d="M72.2265 30.9073L72.1162 30.8428L70.9297 31.5217V31.6507L72.2265 30.9073Z" fill="#37474F"/>
<path d="M70.9297 30.6947L72.2265 29.9513V29.8223L70.9297 30.5657V30.6947Z" fill="#455A64"/>
<path d="M66.8594 32.0872L68.1562 31.3438V33.2533L66.8594 33.9985V32.0872Z" fill="#455A64"/>
<path d="M68.0459 33.1902V31.4062L66.8594 32.0869V33.8692L68.0459 33.1902Z" fill="#E0E0E0"/>
<path d="M68.1562 33.2532L68.0459 33.1904L66.8594 33.8694V33.9984L68.1562 33.2532Z" fill="#37474F"/>
<path d="M66.8594 33.0424L68.1562 32.2989V32.1699L66.8594 32.9134V33.0424Z" fill="#455A64"/>
<path d="M68.7207 27.5504L70.3757 26.5947V28.0273L68.7207 28.983V27.5504Z" fill="#455A64"/>
<path d="M70.2653 27.9625V26.6572L68.7207 27.5501V28.8554L70.2653 27.9625Z" fill="#E0E0E0"/>
<path d="M70.3757 28.0264L70.2653 27.9619L68.7207 28.8548V28.9821L70.3757 28.0264Z" fill="#37474F"/>
<path d="M73.4149 26.9121H72.8633V26.5947L73.4149 26.9121Z" fill="black"/>
<path d="M68.623 34.7687V30.9478L70.4715 29.8818V33.7027L68.623 34.7687Z" fill="#37474F"/>
<path d="M70.407 33.6542V29.9199L68.623 30.9486V34.6829L70.407 33.6542Z" fill="#455A64"/>
<path d="M70.4727 29.8818L70.4082 29.9192V33.6535L70.4727 33.7027V29.8818Z" fill="#263238"/>
<path d="M62.934 34.238V28.5059L59.6309 30.4154V36.1476L62.934 34.238Z" fill="#FAFAFA"/>
<path d="M62.934 28.5059L59.6309 30.4154V32.6985L62.9357 30.7923L62.934 28.5059Z" fill="#F5F5F5"/>
<path d="M53.0059 32.3261V26.5939L56.3209 24.6826L59.6309 30.4148V36.1469L53.0059 32.3261Z" fill="#EBEBEB"/>
<path d="M60.1768 31.3712L56.3203 24.6834V24.0469L60.7285 31.6903L60.1768 31.3712Z" fill="#455A64"/>
<path d="M62.9334 20.2256L56.3203 24.0465L60.7285 31.6899L62.9334 30.4151V20.2256Z" fill="#37474F"/>
<path d="M56.3207 24.6834L52.454 26.9121L51.9023 26.5947L56.3207 24.0469V24.6834Z" fill="#263238"/>
<path d="M55.4062 29.8851L54.1094 29.1416V31.0529L55.4062 31.7947V29.8851Z" fill="#455A64"/>
<path d="M54.2188 30.9891V29.2051L55.4052 29.8857V31.668L54.2188 30.9891Z" fill="#FAFAFA"/>
<path d="M54.2188 29.2051L55.4052 29.8908V30.1268L54.2188 29.4461V29.2051Z" fill="#F5F5F5"/>
<path d="M57.3359 31.0039L58.5224 31.6897V31.9256L57.3359 31.2449V31.0039Z" fill="#F5F5F5"/>
<path d="M54.1094 31.0538L54.2197 30.9893L55.4062 31.6682V31.7955L54.1094 31.0538Z" fill="#37474F"/>
<path d="M55.4062 30.8412L54.1094 30.0978V29.9688L55.4062 30.7122V30.8412Z" fill="#455A64"/>
<path d="M57.1491 27.5504L55.4941 26.5947V28.0273L57.1491 28.983V27.5504Z" fill="#455A64"/>
<path d="M55.6035 27.9625V26.6572L57.1482 27.5501V28.8554L55.6035 27.9625Z" fill="#FAFAFA"/>
<path d="M55.6035 26.6572L57.1482 27.5501V27.786L55.6035 26.9V26.6572Z" fill="#F5F5F5"/>
<path d="M55.4941 28.0264L55.6045 27.9619L57.1491 28.8548V28.9821L55.4941 28.0264Z" fill="#37474F"/>
<path d="M52.4531 26.9121H53.0048V26.5947L52.4531 26.9121Z" fill="black"/>
<path d="M58.5214 31.69L57.2246 30.9414V32.851L58.5214 33.5996V31.69Z" fill="#455A64"/>
<path d="M57.3359 32.7862V31.0039L58.5224 31.6897V33.4719L57.3359 32.7862Z" fill="#FAFAFA"/>
<path d="M57.2246 32.8506L57.3349 32.7861L58.5214 33.4719V33.5992L57.2246 32.8506Z" fill="#37474F"/>
<path d="M58.5214 32.6391L57.2246 31.8956V31.7666L58.5214 32.5101V32.6391Z" fill="#455A64"/>
<path d="M57.3359 31.0039L58.5224 31.6897V31.9256L57.3359 31.2449V31.0039Z" fill="#F5F5F5"/>
<path d="M65.141 31.6898L63.4844 30.7324V32.4943L65.141 33.45V31.6898Z" fill="#263238"/>
<path d="M63.5859 32.4351V30.792L65.1408 31.6899V33.333L63.5859 32.4351Z" fill="#FAFAFA"/>
<path d="M63.5859 30.792V31.1739L65.1408 32.0735V31.6899L63.5859 30.792Z" fill="#F0F0F0"/>
<path d="M63.4844 32.495L63.5862 32.4355L65.141 33.3335V33.4506L63.4844 32.495Z" fill="#37474F"/>
<path d="M63.4844 31.6131L63.5862 31.5537L65.141 32.4516V32.5705L63.4844 31.6131Z" fill="#37474F"/>
<path d="M64.2773 32.9523L64.3792 33.0101V31.2498L64.2773 31.1904V32.9523Z" fill="#37474F"/>
<path d="M61.8004 35.5191L62.0941 35.3494C62.1749 34.8721 62.1869 34.3856 62.1297 33.9049C61.982 32.9679 61.3421 32.6437 61.1113 32.7371C60.8804 32.8304 60.8261 33.1088 61.2454 33.6503C61.6244 34.1984 61.8188 34.853 61.8004 35.5191Z" fill="#8771C5"/>
<g opacity="0.2">
<path d="M61.8004 35.5191L62.0941 35.3494C62.1749 34.8721 62.1869 34.3856 62.1297 33.9049C61.982 32.9679 61.3421 32.6437 61.1113 32.7371C60.8804 32.8304 60.8261 33.1088 61.2454 33.6503C61.6244 34.1984 61.8188 34.853 61.8004 35.5191Z" fill="black"/>
</g>
<path d="M61.9086 35.1525C61.9057 35.1523 61.9029 35.1515 61.9004 35.1502C61.8979 35.1489 61.8957 35.147 61.8939 35.1448C61.8922 35.1426 61.8909 35.14 61.8902 35.1372C61.8895 35.1345 61.8894 35.1316 61.8899 35.1288C62.0121 34.2512 61.659 33.2888 61.2618 32.9001C61.258 32.8962 61.2559 32.891 61.2559 32.8856C61.2559 32.8802 61.258 32.875 61.2618 32.8712C61.2657 32.8674 61.2709 32.8652 61.2763 32.8652C61.2817 32.8652 61.2869 32.8674 61.2907 32.8712C61.6947 33.265 62.0545 34.2427 61.9323 35.1356C61.9319 35.1382 61.931 35.1408 61.9295 35.1431C61.9281 35.1455 61.9262 35.1475 61.924 35.1491C61.9218 35.1506 61.9193 35.1518 61.9166 35.1524C61.914 35.153 61.9112 35.153 61.9086 35.1525Z" fill="white"/>
<path d="M60.9864 35.9964C60.9389 36.0236 60.8438 35.9659 60.8065 35.9404C60.744 35.8973 60.6938 35.8388 60.6605 35.7707C60.6229 35.6939 60.6098 35.6073 60.6232 35.5228C60.6306 35.4781 60.6408 35.4339 60.6537 35.3904C60.6673 35.3463 60.6792 35.3039 60.6911 35.2614C60.7065 35.2197 60.7128 35.1751 60.7097 35.1307C60.6982 35.088 60.6781 35.0481 60.6506 35.0134C60.6232 34.9787 60.589 34.9499 60.5502 34.9287C60.5065 34.9035 60.4694 34.8684 60.4417 34.8262C60.414 34.7841 60.3965 34.7361 60.3906 34.686C60.3962 34.6036 60.429 34.5253 60.484 34.4637C60.5349 34.3992 60.5943 34.3431 60.6401 34.2752C60.6714 34.2387 60.69 34.1929 60.6931 34.1448C60.6962 34.0968 60.6835 34.049 60.6571 34.0087C60.6142 33.9429 60.5767 33.8736 60.5451 33.8017C60.5297 33.7655 60.5248 33.7258 60.5311 33.687C60.5374 33.6482 60.5546 33.6121 60.5807 33.5827C60.6065 33.5634 60.6358 33.5494 60.6669 33.5416C60.6981 33.5337 60.7306 33.5321 60.7624 33.5369C60.8227 33.5438 60.8807 33.5641 60.9321 33.5963C61.1018 33.6896 61.1969 33.8899 61.3751 33.9612C61.4457 33.9837 61.5177 34.0013 61.5907 34.0138C61.6274 34.0203 61.6623 34.0346 61.693 34.0557C61.7238 34.0767 61.7496 34.1042 61.7689 34.1361C61.8351 34.2668 61.7129 34.428 61.7587 34.5672C61.8046 34.7064 61.92 34.7369 61.9862 34.849C62.0146 34.897 62.026 34.9532 62.0184 35.0085C62.0124 35.103 61.9894 35.1955 61.9505 35.2818C61.9062 35.3665 61.8563 35.4481 61.8012 35.5262L60.9864 35.9964Z" fill="#8771C5"/>
<g opacity="0.1">
<path d="M60.9864 35.9964C60.9389 36.0236 60.8438 35.9659 60.8065 35.9404C60.744 35.8973 60.6938 35.8388 60.6605 35.7707C60.6229 35.6939 60.6098 35.6073 60.6232 35.5228C60.6306 35.4781 60.6408 35.4339 60.6537 35.3904C60.6673 35.3463 60.6792 35.3039 60.6911 35.2614C60.7065 35.2197 60.7128 35.1751 60.7097 35.1307C60.6982 35.088 60.6781 35.0481 60.6506 35.0134C60.6232 34.9787 60.589 34.9499 60.5502 34.9287C60.5065 34.9035 60.4694 34.8684 60.4417 34.8262C60.414 34.7841 60.3965 34.7361 60.3906 34.686C60.3962 34.6036 60.429 34.5253 60.484 34.4637C60.5349 34.3992 60.5943 34.3431 60.6401 34.2752C60.6714 34.2387 60.69 34.1929 60.6931 34.1448C60.6962 34.0968 60.6835 34.049 60.6571 34.0087C60.6142 33.9429 60.5767 33.8736 60.5451 33.8017C60.5297 33.7655 60.5248 33.7258 60.5311 33.687C60.5374 33.6482 60.5546 33.6121 60.5807 33.5827C60.6065 33.5634 60.6358 33.5494 60.6669 33.5416C60.6981 33.5337 60.7306 33.5321 60.7624 33.5369C60.8227 33.5438 60.8807 33.5641 60.9321 33.5963C61.1018 33.6896 61.1969 33.8899 61.3751 33.9612C61.4457 33.9837 61.5177 34.0013 61.5907 34.0138C61.6274 34.0203 61.6623 34.0346 61.693 34.0557C61.7238 34.0767 61.7496 34.1042 61.7689 34.1361C61.8351 34.2668 61.7129 34.428 61.7587 34.5672C61.8046 34.7064 61.92 34.7369 61.9862 34.849C62.0146 34.897 62.026 34.9532 62.0184 35.0085C62.0124 35.103 61.9894 35.1955 61.9505 35.2818C61.9062 35.3665 61.8563 35.4481 61.8012 35.5262L60.9864 35.9964Z" fill="black"/>
</g>
<path d="M61.4635 35.7429C61.4581 35.7421 61.4531 35.7395 61.4494 35.7354C61.4457 35.7314 61.4435 35.7262 61.4431 35.7208C61.4788 34.8891 61.0867 33.9708 60.8015 33.7043C60.7995 33.7024 60.7979 33.7001 60.7968 33.6976C60.7956 33.6951 60.795 33.6923 60.7949 33.6896C60.7949 33.6868 60.7953 33.6841 60.7963 33.6815C60.7973 33.6789 60.7988 33.6766 60.8007 33.6746C60.8026 33.6725 60.8048 33.6709 60.8073 33.6698C60.8099 33.6687 60.8126 33.6681 60.8153 33.668C60.8181 33.6679 60.8208 33.6684 60.8234 33.6693C60.826 33.6703 60.8284 33.6718 60.8304 33.6737C61.1206 33.9453 61.5212 34.8789 61.4856 35.7225C61.4851 35.728 61.4826 35.7332 61.4785 35.737C61.4744 35.7408 61.4691 35.7429 61.4635 35.7429Z" fill="white"/>
<path d="M61.3376 34.7603C61.1402 34.7067 60.9376 34.6743 60.7333 34.6635C60.7305 34.6635 60.7277 34.663 60.7251 34.6618C60.7225 34.6607 60.7202 34.6591 60.7183 34.657C60.7164 34.6549 60.7149 34.6525 60.714 34.6498C60.7131 34.6471 60.7127 34.6443 60.713 34.6415C60.7134 34.6359 60.7159 34.6307 60.72 34.6269C60.7241 34.6232 60.7295 34.6211 60.735 34.6211C60.9429 34.6319 61.1489 34.6655 61.3495 34.7212C61.3521 34.722 61.3544 34.7233 61.3565 34.725C61.3586 34.7267 61.3603 34.7288 61.3616 34.7312C61.3628 34.7335 61.3636 34.7361 61.3639 34.7388C61.3641 34.7414 61.3639 34.7441 61.3631 34.7467C61.3612 34.7516 61.3575 34.7557 61.3529 34.7582C61.3482 34.7607 61.3428 34.7615 61.3376 34.7603Z" fill="white"/>
<path d="M68.623 34.7691L70.4715 33.7031L72.1299 34.6605L70.2814 35.7247L68.623 34.7691Z" fill="#F0F0F0"/>
<path d="M38.7333 37.5391L22.5977 46.8545V47.5708L39.3528 57.2443L55.4867 47.9289V47.2126L38.7333 37.5391Z" fill="#8771C5"/>
<path d="M46.1797 50.4382L48.0299 51.5195L51.1378 49.7253L49.2826 48.6475L46.1797 50.4382Z" fill="#F0F0F0"/>
<path opacity="0.15" d="M22.5977 46.8545L39.3528 56.528V57.2443L22.5977 47.5708V46.8545Z" fill="black"/>
<path opacity="0.1" d="M39.3516 56.5283L55.4855 47.2129V47.9292L39.3516 57.2446V56.5283Z" fill="black"/>
<path d="M53.6722 44.0413L52.9531 45.458L53.0697 45.5172L53.7887 44.1004L53.6722 44.0413Z" fill="#263238"/>
<path d="M52.3363 43.9204L52.2266 43.9883L52.9279 45.1212L53.0376 45.0533L52.3363 43.9204Z" fill="#263238"/>
<path d="M53.1138 43.7891V47.2026C53.1128 47.2121 53.1092 47.2212 53.1036 47.229C53.0979 47.2367 53.0903 47.2428 53.0815 47.2467C53.0576 47.2589 53.0311 47.2653 53.0043 47.2653C52.9774 47.2653 52.9509 47.2589 52.927 47.2467C52.9185 47.2428 52.9111 47.2366 52.9057 47.2288C52.9003 47.221 52.8971 47.212 52.8965 47.2026V43.7891H53.1138Z" fill="#263238"/>
<path d="M54.1127 44.3124C54.9883 44.3124 55.6981 43.6026 55.6981 42.727C55.6981 41.8514 54.9883 41.1416 54.1127 41.1416C53.2371 41.1416 52.5273 41.8514 52.5273 42.727C52.5273 43.6026 53.2371 44.3124 54.1127 44.3124Z" fill="#455A64"/>
<path d="M54.6108 42.3229C54.8145 41.6779 55.0335 41.4267 54.8943 41.3486C54.6317 41.1998 54.3321 41.1291 54.0307 41.1447C53.7293 41.1603 53.4387 41.2616 53.1929 41.4367C52.9471 41.6118 52.7563 41.8535 52.6431 42.1332C52.5299 42.413 52.4989 42.7193 52.5537 43.016C52.6086 43.3128 52.747 43.5878 52.9527 43.8086C53.1584 44.0294 53.4229 44.187 53.7151 44.2627C54.0072 44.3384 54.3149 44.3291 54.602 44.236C54.889 44.1428 55.1436 43.9697 55.3356 43.7369C54.8672 43.8727 54.346 43.1581 54.6108 42.3229Z" fill="#37474F"/>
<path d="M51.6155 44.2905C52.2304 44.2905 52.729 43.7919 52.729 43.177C52.729 42.562 52.2304 42.0635 51.6155 42.0635C51.0005 42.0635 50.502 42.562 50.502 43.177C50.502 43.7919 51.0005 44.2905 51.6155 44.2905Z" fill="#455A64"/>
<path d="M51.6167 42.0615C51.3827 42.0612 51.1546 42.1349 50.9649 42.272C50.9361 42.951 51.5132 43.6164 51.3519 43.8404C51.1907 44.0645 50.7918 43.9253 50.6543 43.7369C50.7528 43.9054 50.8938 44.045 51.0633 44.1418C51.2327 44.2387 51.4246 44.2892 51.6198 44.2885C51.815 44.2878 52.0065 44.2358 52.1752 44.1377C52.344 44.0396 52.484 43.8989 52.5812 43.7297C52.6784 43.5605 52.7294 43.3686 52.7292 43.1735C52.7289 42.9783 52.6773 42.7867 52.5796 42.6177C52.482 42.4487 52.3416 42.3084 52.1726 42.2108C52.0036 42.1132 51.8119 42.0617 51.6167 42.0615Z" fill="#37474F"/>
<path d="M54.9964 42.4411C55.2556 41.3426 54.5753 40.2419 53.4768 39.9826C52.3783 39.7233 51.2776 40.4037 51.0183 41.5022C50.759 42.6007 51.4394 43.7014 52.5379 43.9607C53.6364 44.2199 54.7371 43.5396 54.9964 42.4411Z" fill="#455A64"/>
<path d="M54.9987 42.442C54.9192 42.7695 54.7596 43.0723 54.5342 43.323C54.3089 43.5737 54.0249 43.7646 53.7076 43.8785C53.3903 43.9924 53.0498 44.0258 52.7164 43.9756C52.3831 43.9255 52.0674 43.7934 51.7976 43.5912C51.5279 43.3891 51.3126 43.1231 51.1709 42.8172C51.0293 42.5113 50.9658 42.175 50.9861 41.8385C51.0065 41.502 51.11 41.1759 51.2874 40.8893C51.4649 40.6026 51.7107 40.3645 52.0028 40.1963C51.8258 40.2973 51.6645 40.4237 51.5241 40.5714C51.4886 40.7245 51.4704 40.8811 51.4698 41.0382C51.4663 41.4489 51.5871 41.851 51.8162 42.1918C52.0453 42.5326 52.3721 42.7963 52.7537 42.948C53.1353 43.0998 53.5539 43.1327 53.9545 43.0424C54.3552 42.9521 54.7191 42.7428 54.9987 42.442Z" fill="#37474F"/>
<path d="M25.7659 43.636L25.0469 45.0527L25.1634 45.1119L25.8825 43.6951L25.7659 43.636Z" fill="#263238"/>
<path d="M24.4339 43.5239L24.3242 43.5918L25.0256 44.7247L25.1353 44.6568L24.4339 43.5239Z" fill="#263238"/>
<path d="M25.2134 43.3906V46.8041C25.2127 46.8135 25.2095 46.8226 25.2041 46.8304C25.1988 46.8381 25.1914 46.8443 25.1828 46.8483C25.1589 46.8605 25.1324 46.8668 25.1056 46.8668C25.0787 46.8668 25.0523 46.8605 25.0283 46.8483C25.0195 46.8444 25.0119 46.8383 25.0063 46.8305C25.0006 46.8228 24.9971 46.8137 24.9961 46.8041V43.3906H25.2134Z" fill="#263238"/>
<path d="M26.2084 43.9149C27.084 43.9149 27.7938 43.2051 27.7938 42.3295C27.7938 41.4539 27.084 40.7441 26.2084 40.7441C25.3328 40.7441 24.623 41.4539 24.623 42.3295C24.623 43.2051 25.3328 43.9149 26.2084 43.9149Z" fill="#455A64"/>
<path d="M26.7065 41.9235C26.9102 41.2785 27.1275 41.0273 26.99 40.9492C26.7274 40.8004 26.4278 40.7297 26.1264 40.7453C25.825 40.7609 25.5344 40.8622 25.2886 41.0373C25.0428 41.2124 24.852 41.4541 24.7388 41.7338C24.6256 42.0136 24.5946 42.3199 24.6494 42.6166C24.7043 42.9134 24.8427 43.1884 25.0484 43.4092C25.2541 43.63 25.5186 43.7875 25.8108 43.8632C26.1029 43.9389 26.4106 43.9297 26.6977 43.8366C26.9848 43.7434 27.2393 43.5703 27.4313 43.3375C26.9629 43.475 26.4401 42.7587 26.7065 41.9235Z" fill="#37474F"/>
<path d="M23.7112 43.8911C24.3261 43.8911 24.8247 43.3925 24.8247 42.7776C24.8247 42.1626 24.3261 41.6641 23.7112 41.6641C23.0962 41.6641 22.5977 42.1626 22.5977 42.7776C22.5977 43.3925 23.0962 43.8911 23.7112 43.8911Z" fill="#455A64"/>
<path d="M23.7122 41.6641C23.4784 41.6637 23.2504 41.7368 23.0604 41.8728C23.0298 42.5518 23.6086 43.2172 23.4474 43.4413C23.2861 43.6653 22.8872 43.5261 22.748 43.3377C22.8463 43.5064 22.9871 43.6464 23.1564 43.7435C23.3258 43.8406 23.5177 43.8915 23.7129 43.8911C23.9081 43.8906 24.0998 43.8389 24.2687 43.741C24.4376 43.6431 24.5778 43.5025 24.6753 43.3334C24.7727 43.1642 24.824 42.9724 24.8239 42.7772C24.8238 42.582 24.7725 42.3902 24.6749 42.2211C24.5773 42.052 24.437 41.9115 24.2681 41.8138C24.0991 41.716 23.9074 41.6644 23.7122 41.6641Z" fill="#37474F"/>
<path d="M26.5502 43.0213C27.3483 42.2232 27.3483 40.9292 26.5501 40.1311C25.752 39.333 24.4581 39.333 23.6599 40.1311C22.8618 40.9292 22.8618 42.2232 23.6599 43.0213C24.4581 43.8194 25.752 43.8194 26.5502 43.0213Z" fill="#455A64"/>
<path d="M27.0927 42.0425C27.0134 42.3703 26.8538 42.6732 26.6285 42.9242C26.4031 43.1751 26.119 43.3661 25.8016 43.4801C25.4842 43.5941 25.1435 43.6275 24.81 43.5773C24.4765 43.5272 24.1607 43.395 23.8909 43.1926C23.6211 42.9903 23.4058 42.7241 23.2643 42.418C23.1227 42.1119 23.0594 41.7754 23.08 41.4388C23.1005 41.1022 23.2044 40.776 23.3821 40.4894C23.5599 40.2028 23.8061 39.9649 24.0985 39.7969C23.9209 39.897 23.7595 40.0235 23.6198 40.172C23.5843 40.3251 23.5661 40.4817 23.5655 40.6388C23.5624 41.0491 23.6833 41.4508 23.9124 41.7912C24.1414 42.1316 24.4679 42.3949 24.8492 42.5467C25.2304 42.6984 25.6486 42.7314 26.0489 42.6415C26.4492 42.5515 26.8131 42.3428 27.0927 42.0425Z" fill="#37474F"/>
<path d="M30.043 44.7055L43.0757 52.2285V40.7641L30.043 33.2412V44.7055Z" fill="#F0F0F0"/>
<path d="M39.3513 47.9292V54.3793L26.3203 46.8547V40.4062L39.3513 47.9292Z" fill="#F0F0F0"/>
<path d="M26.3203 42.5552L39.3513 50.0798V47.9292L26.3203 40.4062V42.5552Z" fill="#E0E0E0"/>
<path d="M30.043 35.3909L43.0757 42.9138V40.7649L30.043 33.2402V35.3909Z" fill="#E0E0E0"/>
<path d="M43.0762 40.7649L51.7635 35.749V47.2133L43.0762 52.2292V40.7649Z" fill="#FAFAFA"/>
<path d="M39.3516 47.9292L43.0757 44.3477V52.2287L39.3516 54.3794V47.9292Z" fill="#FAFAFA"/>
<path d="M47.4198 33.2402L43.0762 40.7649L51.7635 35.749L47.4198 33.2402Z" fill="#FAFAFA"/>
<path d="M42.4551 41.8386L47.42 33.2395V32.7031L42.4551 41.3022V41.8386Z" fill="#8771C5"/>
<path opacity="0.1" d="M42.4551 41.8386L47.42 33.2395V32.7031L42.4551 41.3022V41.8386Z" fill="black"/>
<path d="M34.3879 25.1803L29.4238 33.7783L42.4554 41.3021L47.4195 32.7041L34.3879 25.1803Z" fill="#8771C5"/>
<path d="M29.4238 33.7783L42.4549 41.3029V41.8393L29.4238 34.3164V33.7783Z" fill="#8771C5"/>
<path opacity="0.15" d="M29.4238 33.7783L42.4549 41.3029V41.8393L29.4238 34.3164V33.7783Z" fill="black"/>
<path d="M47.4199 32.7031L52.8499 35.8382L52.3832 36.1064L47.4199 33.2395V32.7031Z" fill="#8771C5"/>
<path opacity="0.15" d="M47.4199 32.7031L52.8499 35.8382L52.3832 36.1064L47.4199 33.2395V32.7031Z" fill="black"/>
<path d="M52.3832 36.1072H51.7637V35.749L52.3832 36.1072Z" fill="#8771C5"/>
<path opacity="0.3" d="M52.3832 36.1072H51.7637V35.749L52.3832 36.1072Z" fill="black"/>
<path d="M32.043 33.6765V31.0965L33.5282 30.2393L35.0083 32.8023V35.3909L32.043 33.6765Z" fill="#F0F0F0"/>
<path opacity="0.2" d="M33.5284 30.2384L31.6952 31.2959L31.4609 31.1601L33.5284 29.9668V30.2384Z" fill="black"/>
<path d="M35.0078 35.3905L36.4897 32.8206L37.2467 31.5068L35.0078 32.802V35.3905Z" fill="#FAFAFA"/>
<path opacity="0.4" d="M31.6953 31.296H32.0433V31.0957L31.6953 31.296Z" fill="black"/>
<path d="M35.3605 33.4125L33.5273 30.2384V29.9668L35.5897 33.5449L35.3605 33.4125Z" fill="#8771C5"/>
<path opacity="0.1" d="M35.3605 33.4125L33.5273 30.2384V29.9668L35.5897 33.5449L35.3605 33.4125Z" fill="black"/>
<path d="M35.5897 33.5458L33.5273 29.9677L35.661 28.7354L37.7233 32.3135L35.5897 33.5458Z" fill="#8771C5"/>
<path opacity="0.3" d="M35.5897 33.5458L33.5273 29.9677L35.661 28.7354L37.7233 32.3135L35.5897 33.5458Z" fill="white"/>
<path d="M34.2687 32.3875L32.7852 31.5303V33.2413L34.2687 34.0985V32.3875Z" fill="#455A64"/>
<path d="M32.9355 33.1533V31.6172L34.268 32.3878V33.9223L32.9355 33.1533Z" fill="#E0E0E0"/>
<path d="M32.7852 33.2416L32.9362 33.1533L34.2687 33.9222V34.0988L32.7852 33.2416Z" fill="#37474F"/>
<path d="M38.2461 37.2595V34.6795L39.733 33.8223L41.2132 36.3854V38.9739L38.2461 37.2595Z" fill="#F0F0F0"/>
<path opacity="0.2" d="M39.7332 33.8224L37.9 34.8799L37.6641 34.7441L39.7332 33.5508V33.8224Z" fill="black"/>
<path d="M41.2148 38.9735L42.695 36.4036L43.452 35.0898L41.2148 36.385V38.9735Z" fill="#FAFAFA"/>
<path opacity="0.4" d="M37.9004 34.88H38.2467V34.6797L37.9004 34.88Z" fill="black"/>
<path d="M41.5676 36.9965L39.7344 33.8224V33.5508L41.795 37.1289L41.5676 36.9965Z" fill="#8771C5"/>
<path opacity="0.1" d="M41.5676 36.9965L39.7344 33.8224V33.5508L41.795 37.1289L41.5676 36.9965Z" fill="black"/>
<path d="M41.795 37.1286L39.7344 33.5504L41.8663 32.3164L43.9287 35.8945L41.795 37.1286Z" fill="#8771C5"/>
<path opacity="0.3" d="M41.795 37.1286L39.7344 33.5504L41.8663 32.3164L43.9287 35.8945L41.795 37.1286Z" fill="white"/>
<path d="M40.4718 35.9698L38.9883 35.1143V36.8253L40.4718 37.6824V35.9698Z" fill="#455A64"/>
<path d="M39.1406 36.7364V35.2002L40.4714 35.9691V37.5053L39.1406 36.7364Z" fill="#E0E0E0"/>
<path d="M38.9883 36.8246L39.141 36.7363L40.4718 37.5053V37.6818L38.9883 36.8246Z" fill="#37474F"/>
<path d="M30.0429 36.3389L43.0756 43.8618V44.3473L38.7319 49.005L25.6992 41.4803V40.9966L30.0429 36.3389Z" fill="#8771C5"/>
<path d="M30.0429 36.3389L43.0756 43.8618L38.7319 48.5195L25.6992 40.9966L30.0429 36.3389Z" fill="#8771C5"/>
<path opacity="0.1" d="M38.7324 48.52V49.0055L43.0761 44.3478V43.8623L38.7324 48.52Z" fill="black"/>
<path opacity="0.15" d="M38.7319 49.0055L25.6992 41.4808V40.9971L38.7319 48.52V49.0055Z" fill="black"/>
<path d="M31.2865 44.7039L28.1836 42.9131V46.2095L31.2865 48.0002V44.7039Z" fill="#263238"/>
<path d="M28.373 46.0991V43.0234L31.2858 44.7056V47.7796L28.373 46.0991Z" fill="#FAFAFA"/>
<path d="M28.373 43.0234V43.7414L31.2858 45.4219V44.7039L28.373 43.0234Z" fill="#F0F0F0"/>
<path d="M28.1836 46.2099L28.3737 46.0996L31.2865 47.7801V48.0007L28.1836 46.2099Z" fill="#37474F"/>
<path d="M28.1836 44.5615L28.3737 44.4512L31.2865 46.1316V46.3523L28.1836 44.5615Z" fill="#37474F"/>
<path d="M29.6699 47.0688L29.86 47.1792V43.8828L29.6699 43.7725V47.0688Z" fill="#37474F"/>
<path d="M36.8704 47.9294L33.7676 46.1387V49.435L36.8704 51.2258V47.9294Z" fill="#263238"/>
<path d="M33.957 49.3247V46.249L36.8698 47.9295V51.0052L33.957 49.3247Z" fill="#FAFAFA"/>
<path d="M33.957 46.249V46.9653L36.8698 48.6475V47.9295L33.957 46.249Z" fill="#F0F0F0"/>
<path d="M33.7676 49.4346L33.9577 49.3242L36.8704 51.0047V51.2253L33.7676 49.4346Z" fill="#37474F"/>
<path d="M33.7676 47.7871L33.9577 47.6768L36.8704 49.3572V49.5779L33.7676 47.7871Z" fill="#37474F"/>
<path d="M35.2539 50.2934L35.444 50.4038V47.1074L35.2539 46.9971V50.2934Z" fill="#37474F"/>
<path d="M41.2148 48.2895L44.3177 46.4971V49.7934L41.2148 51.5842V48.2895Z" fill="#263238"/>
<path d="M44.1276 49.6831V46.6074L41.2148 48.2896V51.3636L44.1276 49.6831Z" fill="#E6E6E6"/>
<path d="M44.1276 46.6074V46.9231L41.2148 48.6036V48.2896L44.1276 46.6074Z" fill="#E0E0E0"/>
<path d="M44.3177 49.7929L44.1276 49.6826L41.2148 51.3631V51.5837L44.3177 49.7929Z" fill="#37474F"/>
<path d="M44.3177 48.1445L44.1276 48.0342L41.2148 49.7146V49.9353L44.3177 48.1445Z" fill="#37474F"/>
<path d="M42.8307 50.6518L42.6406 50.7622V47.4658L42.8307 47.3555V50.6518Z" fill="#37474F"/>
<path d="M46.1211 37.6209L49.224 35.8301V39.1265L46.1211 40.9172V37.6209Z" fill="#263238"/>
<path d="M49.0339 39.0161V35.9404L46.1211 37.6209V40.6966L49.0339 39.0161Z" fill="#E6E6E6"/>
<path d="M49.0339 35.9404V36.2561L46.1211 37.9366V37.6209L49.0339 35.9404Z" fill="#E0E0E0"/>
<path d="M49.224 39.1269L49.0339 39.0166L46.1211 40.697V40.9177L49.224 39.1269Z" fill="#37474F"/>
<path d="M49.224 37.4785L49.0339 37.3682L46.1211 39.0503V39.271L49.224 37.4785Z" fill="#37474F"/>
<path d="M47.737 39.9858L47.5469 40.0962V36.7998L47.737 36.6895V39.9858Z" fill="#37474F"/>
<path d="M46.1797 50.4377V44.7056L49.2826 42.9131V48.6469L46.1797 50.4377Z" fill="#37474F"/>
<path d="M49.1688 48.5606V42.9795L46.1797 44.7058V50.2868L49.1688 48.5606Z" fill="#455A64"/>
<path d="M49.2817 42.9131L49.168 42.9793V48.5604L49.2817 48.6469V42.9131Z" fill="#263238"/>
<path d="M63.8807 2.8359C63.8712 2.38637 63.7559 1.94541 63.5442 1.54876C63.3324 1.15211 63.0302 0.810931 62.662 0.552882C62.3225 0.33731 61.9966 0.30506 61.759 0.427274C60.3247 1.14698 50.2454 7.60902 49.6021 7.92813H49.5936C49.5258 7.97312 49.4712 8.03536 49.4354 8.10845C49.3996 8.18154 49.3839 8.26284 49.3899 8.344C49.3939 8.5706 49.4515 8.79303 49.558 8.99307C49.6645 9.19312 49.8169 9.36507 50.0027 9.49485C50.067 9.54505 50.1435 9.57718 50.2244 9.58792C50.3053 9.59866 50.3875 9.58763 50.4627 9.55595H50.4729C51.4913 8.99411 61.4399 4.75398 63.4734 3.66424C63.7127 3.53184 63.8672 3.24667 63.8807 2.8359Z" fill="#8771C5"/>
<path opacity="0.1" d="M63.4863 1.44273C63.2868 1.08478 63.0046 0.779792 62.6631 0.553284C62.3236 0.337713 62.0011 0.305462 61.7634 0.425979L61.7329 0.442952C60.4242 1.11173 52.9233 5.89674 50.3993 7.45326L50.3823 7.46345L50.2805 7.52625L50.2499 7.54492L50.1922 7.58057L50.1243 7.62131C49.8578 7.79105 49.6779 7.8895 49.6151 7.92514H49.6066C49.585 7.93795 49.565 7.95334 49.5472 7.97097C49.4996 8.01984 49.4623 8.07778 49.4375 8.14134C49.4127 8.20491 49.4009 8.27281 49.4029 8.34101C49.3996 8.38904 49.3996 8.43725 49.4029 8.48529C49.4029 8.50396 49.4029 8.52263 49.4114 8.5413C49.4199 8.55997 49.4216 8.59902 49.4284 8.62957C49.4351 8.66012 49.4402 8.6771 49.447 8.69916C49.4538 8.72123 49.464 8.75518 49.4742 8.78234C49.4844 8.80949 49.4895 8.82307 49.4963 8.84344V8.85363L63.4863 1.44273Z" fill="black"/>
<path d="M50.0014 9.49718C49.8165 9.36772 49.6647 9.19653 49.5582 8.99748C49.4518 8.79843 49.3937 8.57711 49.3887 8.35143C49.4039 7.93726 49.6993 7.77771 50.0507 7.99667C50.2358 8.12631 50.3878 8.29776 50.4942 8.49713C50.6007 8.6965 50.6587 8.91816 50.6634 9.14412C50.6499 9.55829 50.3528 9.71954 50.0014 9.49718Z" fill="#8771C5"/>
<path d="M46.9893 9.77572C46.9933 9.94911 47.0379 10.1191 47.1195 10.2721C47.2012 10.4252 47.3176 10.5569 47.4594 10.6567C47.5087 10.6948 47.5672 10.7191 47.6289 10.7271C47.6907 10.7352 47.7534 10.7267 47.8108 10.7025L50.2483 9.40399C50.3001 9.36962 50.3418 9.32213 50.3692 9.26637C50.3967 9.21061 50.4088 9.14856 50.4045 9.08657C50.4007 8.91313 50.3562 8.743 50.2746 8.58995C50.1929 8.43691 50.0763 8.30524 49.9343 8.20562C49.8853 8.16709 49.8268 8.14237 49.7651 8.13402C49.7033 8.12566 49.6404 8.13397 49.5829 8.15809L47.1454 9.45661C47.0934 9.49112 47.0515 9.53888 47.024 9.59497C46.9966 9.65106 46.9846 9.71345 46.9893 9.77572Z" fill="#37474F"/>
<path d="M47.1487 9.45661C47.096 9.49071 47.0534 9.53829 47.0254 9.59441C46.9973 9.65052 46.9848 9.71313 46.9891 9.77572C46.9882 9.90454 47.0136 10.0322 47.0638 10.1508L50.2074 8.47381C50.1362 8.36737 50.0444 8.2762 49.9375 8.20562C49.8885 8.16709 49.8301 8.14237 49.7683 8.13402C49.7065 8.12566 49.6436 8.13397 49.5862 8.15809L47.1487 9.45661Z" fill="#263238"/>
<path d="M50.1171 11.9375C50.1171 10.3758 49.085 8.81421 47.0193 7.62263C42.8912 5.23777 36.1966 5.23777 32.0668 7.62263C30.0027 8.81082 28.9707 10.3758 28.9707 11.9375V14.8231C28.9707 16.3847 30.0027 17.9463 32.0685 19.1396C36.1966 21.5159 42.8912 21.5159 47.0193 19.1396C49.085 17.9514 50.1171 16.3847 50.1171 14.8231V11.9375ZM32.5743 8.50698C34.4177 7.44271 36.8908 6.8571 39.5337 6.8571C42.1766 6.8571 44.6548 7.44271 46.4931 8.50698C48.1599 9.46942 49.0782 10.6882 49.0782 11.9391C49.0782 13.1901 48.1599 14.4072 46.4931 15.3696C44.6497 16.4339 42.1766 17.0195 39.5337 17.0195C36.8908 17.0195 34.4126 16.4339 32.5743 15.3696C30.9058 14.4072 29.9892 13.1884 29.9892 11.9391C29.9892 10.6899 30.9108 9.46942 32.5743 8.50698Z" fill="#8771C5"/>
<path opacity="0.3" d="M32.0648 16.2543C36.1946 18.6392 42.8875 18.6392 47.0173 16.2543C51.1471 13.8694 51.1471 10.0061 47.0173 7.62297C42.8875 5.23981 36.1946 5.23811 32.0648 7.62297C27.935 10.0078 27.9384 13.8711 32.0648 16.2543ZM29.9906 11.9395C29.9906 10.6885 30.9089 9.46976 32.5757 8.50732C34.4208 7.44305 36.894 6.85744 39.5351 6.85744C42.1763 6.85744 44.6562 7.44305 46.4945 8.50732C48.1614 9.46976 49.0797 10.6885 49.0797 11.9395C49.0797 13.1905 48.1614 14.4075 46.4945 15.37C44.6494 16.4342 42.1763 17.0198 39.5351 17.0198C36.894 17.0198 34.414 16.4342 32.5757 15.37C30.9106 14.4075 29.9923 13.1888 29.9923 11.9395H29.9906Z" fill="white"/>
<path d="M29.9922 11.9378C29.9982 12.4464 30.1407 12.9441 30.4047 13.3789C30.8239 12.6524 31.5623 11.9717 32.579 11.3861C34.4207 10.3201 36.8956 9.73453 39.5384 9.73453C42.1813 9.73453 44.6595 10.3201 46.4978 11.3861C47.5163 11.9717 48.2529 12.6524 48.6739 13.3789C48.9366 12.9436 49.0784 12.4461 49.0847 11.9378C49.0847 10.6885 48.1664 9.46974 46.4978 8.50731C44.6561 7.44303 42.1813 6.85742 39.5384 6.85742C36.8956 6.85742 34.4156 7.44303 32.579 8.50731C30.9105 9.46974 29.9922 10.6885 29.9922 11.9378Z" fill="#8771C5"/>
<path opacity="0.1" d="M29.9922 11.9378C29.9982 12.4464 30.1407 12.9441 30.4047 13.3789C30.8239 12.6524 31.5623 11.9717 32.579 11.3861C34.4207 10.3201 36.8956 9.73453 39.5384 9.73453C42.1813 9.73453 44.6595 10.3201 46.4978 11.3861C47.5163 11.9717 48.2529 12.6524 48.6739 13.3789C48.9366 12.9436 49.0784 12.4461 49.0847 11.9378C49.0847 10.6885 48.1664 9.46974 46.4978 8.50731C44.6561 7.44303 42.1813 6.85742 39.5384 6.85742C36.8956 6.85742 34.4156 7.44303 32.579 8.50731C30.9105 9.46974 29.9922 10.6885 29.9922 11.9378Z" fill="black"/>
<path opacity="0.4" d="M32.5745 9.81076C34.4196 8.74648 36.8927 8.15918 39.5339 8.15918C42.1751 8.15918 44.655 8.74648 46.4933 9.81076C47.8682 10.6052 48.7322 11.5727 48.9936 12.5894C48.7322 13.6079 47.8682 14.5754 46.4933 15.3698C44.6482 16.4341 42.1751 17.0197 39.5339 17.0197C36.8927 17.0197 34.4128 16.4341 32.5745 15.3698C31.1996 14.5754 30.3356 13.6062 30.0742 12.5894C30.339 11.5727 31.203 10.6052 32.5745 9.81076Z" fill="white"/>
<path opacity="0.1" d="M37.0517 17.8664V20.752C35.2253 20.4974 33.4872 19.9594 32.0681 19.1361C30.0024 17.9479 28.9703 16.3812 28.9703 14.8179V11.9323C28.9711 11.6141 29.0133 11.2975 29.0959 10.9902C28.5867 12.8489 29.5848 14.8162 32.0647 16.2522C33.4939 17.0789 35.2253 17.6169 37.0517 17.8664Z" fill="black"/>
</svg>
