<svg width="27" height="24" viewBox="0 0 27 24" fill="none" xmlns="http://www.w3.org/2000/svg">
<path d="M26.5125 1.69688C26.8172 1.90782 27 2.2547 27 2.62501V18.375C27 18.8438 26.7094 19.2609 26.2734 19.425L18.3984 22.425C18.1547 22.5188 17.8875 22.5234 17.6437 22.4391L9.02344 19.5703L1.52344 22.4297C1.17656 22.5609 0.7875 22.5141 0.482813 22.3031C0.178125 22.0922 0 21.7453 0 21.375V5.62501C0 5.15626 0.285938 4.73907 0.726562 4.57501L8.60156 1.57501C8.84531 1.48126 9.1125 1.47657 9.35625 1.56095L17.9766 4.4297L25.4766 1.57032C25.8234 1.43907 26.2125 1.48595 26.5172 1.69688H26.5125ZM2.25 6.39845V19.7391L7.875 17.5969V4.25626L2.25 6.39845ZM16.875 19.8141V6.43595L10.125 4.18595V17.5641L16.875 19.8141ZM19.125 19.7438L24.75 17.6016V4.26095L19.125 6.39845V19.7391V19.7438Z" fill="black"/>
</svg>
