<svg width="44" height="44" viewBox="0 0 44 44" fill="none" xmlns="http://www.w3.org/2000/svg">
<rect width="44" height="44" rx="22" fill="#D0FAD2"/>
<g clip-path="url(#clip0_5207_24288)">
<path d="M26.1719 11.8334C25.7359 11.3928 25.0234 11.3881 24.5828 11.824C24.1422 12.26 24.1375 12.9725 24.5734 13.4131L30.5594 19.474C32.1484 21.0819 32.1484 23.6647 30.5594 25.2725L25.3141 30.5834C24.8781 31.024 24.8828 31.7365 25.3234 32.1725C25.7641 32.6084 26.4766 32.6037 26.9125 32.1631L32.1625 26.8569C34.6187 24.3725 34.6187 20.3787 32.1625 17.8944L26.1719 11.8334ZM21.3766 12.3772C20.8141 11.8147 20.05 11.5006 19.2531 11.5006H12.25C11.0078 11.5006 10 12.5084 10 13.7506V20.7584C10 21.5553 10.3141 22.3194 10.8766 22.8819L18.7516 30.7569C19.9234 31.9287 21.8219 31.9287 22.9938 30.7569L29.2516 24.499C30.4234 23.3272 30.4234 21.4287 29.2516 20.2569L21.3766 12.3819V12.3772ZM12.25 13.7506H19.2578C19.4547 13.7506 19.6469 13.8303 19.7875 13.9709L27.6625 21.8459C27.9531 22.1365 27.9531 22.6147 27.6625 22.9053L21.4047 29.1631C21.1141 29.4537 20.6359 29.4537 20.3453 29.1631L12.4703 21.2881C12.3297 21.1475 12.25 20.9553 12.25 20.7584V13.7506ZM16.75 16.7506C16.75 16.3528 16.592 15.9713 16.3107 15.6899C16.0294 15.4086 15.6478 15.2506 15.25 15.2506C14.8522 15.2506 14.4706 15.4086 14.1893 15.6899C13.908 15.9713 13.75 16.3528 13.75 16.7506C13.75 17.1484 13.908 17.53 14.1893 17.8113C14.4706 18.0926 14.8522 18.2506 15.25 18.2506C15.6478 18.2506 16.0294 18.0926 16.3107 17.8113C16.592 17.53 16.75 17.1484 16.75 16.7506Z" fill="#00E309"/>
</g>
<defs>
<clipPath id="clip0_5207_24288">
<rect width="24" height="24" fill="white" transform="translate(10 10)"/>
</clipPath>
</defs>
</svg>
