<svg width="12" height="16" viewBox="0 0 12 16" fill="none" xmlns="http://www.w3.org/2000/svg">
<g clip-path="url(#clip0_5341_973)">
<path d="M1.5 6.16699C1.5 3.88965 3.51562 2.04199 6 2.04199C8.48438 2.04199 10.5 3.88965 10.5 6.16699C10.5 6.5222 10.3594 7.0722 10.0219 7.80553C9.69375 8.51595 9.22812 9.30085 8.69375 10.0943C7.80312 11.4178 6.77187 12.6954 6 13.6063C5.225 12.6954 4.19375 11.4178 3.30625 10.0943C2.77187 9.30085 2.30625 8.51595 1.97812 7.80553C1.64062 7.0722 1.5 6.5222 1.5 6.16699ZM0 6.16699C0 8.67064 3.65625 13.1279 5.25938 14.967C5.64375 15.4053 6.35625 15.4053 6.74062 14.967C8.34375 13.1279 12 8.67064 12 6.16699C12 3.13053 9.3125 0.666992 6 0.666992C2.6875 0.666992 0 3.13053 0 6.16699ZM5 6.16699C5 5.92388 5.10536 5.69072 5.29289 5.51881C5.48043 5.3469 5.73478 5.25033 6 5.25033C6.26522 5.25033 6.51957 5.3469 6.70711 5.51881C6.89464 5.69072 7 5.92388 7 6.16699C7 6.41011 6.89464 6.64327 6.70711 6.81517C6.51957 6.98708 6.26522 7.08366 6 7.08366C5.73478 7.08366 5.48043 6.98708 5.29289 6.81517C5.10536 6.64327 5 6.41011 5 6.16699ZM8.5 6.16699C8.5 5.5592 8.23661 4.97631 7.76777 4.54654C7.29893 4.11677 6.66304 3.87533 6 3.87533C5.33696 3.87533 4.70107 4.11677 4.23223 4.54654C3.76339 4.97631 3.5 5.5592 3.5 6.16699C3.5 6.77478 3.76339 7.35767 4.23223 7.78745C4.70107 8.21722 5.33696 8.45866 6 8.45866C6.66304 8.45866 7.29893 8.21722 7.76777 7.78745C8.23661 7.35767 8.5 6.77478 8.5 6.16699Z" fill="#350F9D"/>
</g>
<defs>
<clipPath id="clip0_5341_973">
<rect width="12" height="14.6667" fill="white" transform="matrix(-1 0 0 1 12 0.666992)"/>
</clipPath>
</defs>
</svg>
