<svg width="220" height="200" viewBox="0 0 220 200" fill="none" xmlns="http://www.w3.org/2000/svg">
<path d="M112.773 199.999C171.928 199.999 219.882 172.313 219.882 138.159C219.882 104.005 171.928 76.3184 112.773 76.3184C53.6185 76.3184 5.66406 104.005 5.66406 138.159C5.66406 172.313 53.6185 199.999 112.773 199.999Z" fill="#F0F0F0"/>
<path d="M182.122 162.256C198.141 162.256 211.128 154.758 211.128 145.509C211.128 136.26 198.141 128.762 182.122 128.762C166.102 128.762 153.115 136.26 153.115 145.509C153.115 154.758 166.102 162.256 182.122 162.256Z" fill="#E0E0E0"/>
<path d="M20.9539 150.328L30.0455 155.587C30.427 155.782 30.8496 155.884 31.2784 155.884C31.7071 155.884 32.1297 155.782 32.5112 155.587L138.711 94.2679C139.394 93.8754 139.394 93.2382 138.711 92.8458L129.615 87.5912C129.233 87.3977 128.812 87.2969 128.384 87.2969C127.956 87.2969 127.535 87.3977 127.153 87.5912L20.9539 148.915C20.2706 149.298 20.2706 149.935 20.9539 150.328Z" fill="#E0E0E0"/>
<path d="M143.45 172.285L102.656 195.834C102.349 195.991 102.01 196.073 101.665 196.073C101.321 196.073 100.981 195.991 100.675 195.834L45.6266 164.052C45.5071 164.011 45.4033 163.934 45.3298 163.832C45.2563 163.729 45.2168 163.606 45.2168 163.48C45.2168 163.353 45.2563 163.23 45.3298 163.127C45.4033 163.025 45.5071 162.948 45.6266 162.907L86.4164 139.358C86.7229 139.201 87.0624 139.119 87.4069 139.119C87.7513 139.119 88.0908 139.201 88.3973 139.358L143.45 171.14C143.57 171.18 143.674 171.258 143.747 171.36C143.82 171.463 143.86 171.586 143.86 171.712C143.86 171.839 143.82 171.962 143.747 172.064C143.674 172.167 143.57 172.244 143.45 172.285Z" fill="#E0E0E0"/>
<path opacity="0.1" d="M167.436 110.386L163.354 108.031C162.977 107.811 162.549 107.695 162.112 107.695C161.676 107.695 161.247 107.811 160.87 108.031L110.079 137.744L105.296 143.372C105.245 143.432 105.215 143.507 105.21 143.585C105.204 143.663 105.224 143.74 105.266 143.807C105.307 143.873 105.369 143.924 105.441 143.953C105.514 143.982 105.594 143.987 105.67 143.968L116.082 141.198L167.436 111.582C167.541 111.521 167.627 111.433 167.687 111.329C167.748 111.224 167.779 111.105 167.779 110.984C167.779 110.863 167.748 110.744 167.687 110.639C167.627 110.534 167.541 110.447 167.436 110.386Z" fill="#455A64"/>
<path d="M43.6906 9.33484L41.8899 9.93511V6.49516C41.8899 3.7709 39.378 3.11523 36.6538 4.48198C33.9295 5.86719 31.7178 9.15477 31.7178 11.8698V12.3685C31.3321 12.2624 30.9291 12.2347 30.5326 12.287C30.1361 12.3394 29.754 12.4707 29.4091 12.6732C27.4467 13.6521 25.8584 16.0393 25.8584 18.0017V18.2279L23.3742 19.4977C22.0813 20.1441 21.0332 21.714 21.0332 23.0069C21.0332 24.2998 22.0906 24.8215 23.3742 24.1751L43.6906 14.0169C44.9835 13.3704 46.0316 11.8005 46.0316 10.5077C46.0316 9.21479 45.002 8.68841 43.6906 9.33484Z" fill="#EBEBEB"/>
<path d="M64.6479 17.0653L61.3788 18.6999C61.3972 18.5761 61.4065 18.4511 61.4065 18.3259V17.5271C61.4065 16.0726 60.2244 15.4816 58.7654 16.2111C58.1529 16.5329 57.6162 16.9815 57.1908 17.5271C56.9553 15.6801 55.2931 15.0106 53.2753 16.0218C51.0913 17.1115 49.3228 19.7665 49.3228 21.9459V23.1741C49.3107 23.6687 49.4251 24.1583 49.6553 24.5963L46.9449 25.9492C46.5364 26.1642 46.1881 26.4779 45.9317 26.8617C45.6753 27.2455 45.5188 27.6874 45.4766 28.147C45.4766 28.9551 46.1368 29.2829 46.9449 28.8812L64.6479 20.0297C65.0555 19.8141 65.4029 19.5002 65.6584 19.1164C65.914 18.7326 66.0698 18.291 66.1116 17.8318C66.1116 17.0053 65.4559 16.6775 64.6479 17.0653Z" fill="#EBEBEB"/>
<path d="M24.7581 137.638L28.5213 136.286C28.5213 136.286 29.6295 128.062 28.6044 121.307C27.0761 111.195 18.5155 101.406 12.4159 99.5128C1.20956 96.022 1.2742 106.642 9.73784 112.571C17.1025 117.724 23.6638 125.426 24.7581 137.638Z" fill="#8771C5"/>
<path d="M26.6063 137.17H26.5601C26.4482 137.141 26.3514 137.07 26.2889 136.973C26.2265 136.875 26.203 136.758 26.223 136.644C28.2408 127.409 21.07 109.932 10.9857 104.752C10.9125 104.683 10.8637 104.592 10.8466 104.493C10.8295 104.395 10.8451 104.293 10.891 104.204C10.9369 104.114 11.0107 104.042 11.1011 103.999C11.1915 103.955 11.2936 103.942 11.392 103.962C21.7996 109.304 29.1874 127.298 27.0911 136.833C27.0624 136.937 26.9982 137.028 26.9096 137.089C26.821 137.151 26.7137 137.18 26.6063 137.17Z" fill="white"/>
<path d="M29.7033 145.797C29.8834 144.702 29.9988 143.091 30.0311 142.698C30.1656 141.296 30.0084 139.881 29.5694 138.543C29.3662 137.956 28.9645 137.388 28.8906 136.793C28.8168 136.197 28.9553 135.666 28.8029 135.075C28.656 134.487 28.3939 133.933 28.0317 133.446C27.6695 132.96 27.2144 132.55 26.6928 132.24C25.6862 131.667 24.3841 131.409 23.8161 130.393C23.4375 129.71 23.5253 128.879 23.5576 128.084C23.6038 126.888 23.4606 125.605 22.6941 124.691C21.706 123.513 19.9791 123.278 18.4508 123.435C16.9224 123.592 15.4079 124.053 13.8749 123.924C11.2846 123.716 9.07288 121.874 6.48716 121.5C5.57522 121.376 4.64864 121.412 3.74905 121.606C2.41925 121.883 1.05713 122.53 0.4384 123.739C0.185355 124.31 0.0781876 124.934 0.12655 125.557C0.174912 126.179 0.377284 126.779 0.715442 127.304C1.43113 128.486 2.56239 129.234 3.75829 129.885C4.95419 130.536 5.87305 131.243 5.26817 132.789C5.05646 133.225 4.9206 133.693 4.86646 134.175C4.879 134.599 5.00181 135.013 5.22283 135.376C5.44384 135.739 5.75545 136.038 6.127 136.243C6.8724 136.648 7.68384 136.917 8.52342 137.037L11.4647 137.633C12.3189 137.809 13.3717 138.196 13.4132 139.069C13.4409 139.609 13.0346 140.062 12.8268 140.565C12.6522 141.08 12.6326 141.634 12.7705 142.159C12.9084 142.685 13.1978 143.158 13.6025 143.52C14.4294 144.234 15.4568 144.674 16.5438 144.781C17.6196 144.938 18.7093 144.919 19.7759 145.039C21.4445 145.231 23.0573 145.757 24.518 146.586C24.8735 146.832 25.2664 147.02 25.6816 147.14C26.3141 147.274 29.5879 146.485 29.7033 145.797Z" fill="#8771C5"/>
<g opacity="0.1">
<path d="M29.7033 145.797C29.8834 144.702 29.9988 143.091 30.0311 142.698C30.1656 141.296 30.0084 139.881 29.5694 138.543C29.3662 137.956 28.9645 137.388 28.8906 136.793C28.8168 136.197 28.9553 135.666 28.8029 135.075C28.656 134.487 28.3939 133.933 28.0317 133.446C27.6695 132.96 27.2144 132.55 26.6928 132.24C25.6862 131.667 24.3841 131.409 23.8161 130.393C23.4375 129.71 23.5253 128.879 23.5576 128.084C23.6038 126.888 23.4606 125.605 22.6941 124.691C21.706 123.513 19.9791 123.278 18.4508 123.435C16.9224 123.592 15.4079 124.053 13.8749 123.924C11.2846 123.716 9.07288 121.874 6.48716 121.5C5.57522 121.376 4.64864 121.412 3.74905 121.606C2.41925 121.883 1.05713 122.53 0.4384 123.739C0.185355 124.31 0.0781876 124.934 0.12655 125.557C0.174912 126.179 0.377284 126.779 0.715442 127.304C1.43113 128.486 2.56239 129.234 3.75829 129.885C4.95419 130.536 5.87305 131.243 5.26817 132.789C5.05646 133.225 4.9206 133.693 4.86646 134.175C4.879 134.599 5.00181 135.013 5.22283 135.376C5.44384 135.739 5.75545 136.038 6.127 136.243C6.8724 136.648 7.68384 136.917 8.52342 137.037L11.4647 137.633C12.3189 137.809 13.3717 138.196 13.4132 139.069C13.4409 139.609 13.0346 140.062 12.8268 140.565C12.6522 141.08 12.6326 141.634 12.7705 142.159C12.9084 142.685 13.1978 143.158 13.6025 143.52C14.4294 144.234 15.4568 144.674 16.5438 144.781C17.6196 144.938 18.7093 144.919 19.7759 145.039C21.4445 145.231 23.0573 145.757 24.518 146.586C24.8735 146.832 25.2664 147.02 25.6816 147.14C26.3141 147.274 29.5879 146.485 29.7033 145.797Z" fill="black"/>
</g>
<path d="M27.9257 146.811C27.8498 146.804 27.7775 146.775 27.7171 146.729C27.6567 146.682 27.6106 146.62 27.5841 146.548C23.8902 136.819 15.1449 129.044 2.93192 124.648C2.83118 124.611 2.74894 124.536 2.70311 124.44C2.65728 124.343 2.65156 124.232 2.68719 124.131C2.72565 124.031 2.80073 123.951 2.89695 123.905C2.99317 123.86 3.1032 123.853 3.20434 123.886C15.6435 128.365 24.5689 136.311 28.3367 146.262C28.356 146.311 28.3654 146.364 28.3642 146.417C28.3631 146.47 28.3514 146.522 28.33 146.571C28.3085 146.619 28.2777 146.663 28.2392 146.7C28.2007 146.736 28.1554 146.765 28.1058 146.784C28.0486 146.806 27.9871 146.816 27.9257 146.811Z" fill="white"/>
<path d="M158.321 113.789L157.476 114.278L156.464 114.874L115.892 138.473C116.206 137.762 115.947 136.345 115.213 134.987C114.359 133.408 113.056 132.161 112.119 132.12L152.42 108.677L154.363 107.564C153.149 108.349 157.088 114.578 158.321 113.789Z" fill="#8771C5"/>
<path d="M154.242 107.621C154.778 107.284 155.72 108.286 156.62 109.555C157.821 111.245 158.8 113.48 158.093 113.923L156.708 114.731L156.209 115.013C156.916 114.551 155.937 112.33 154.736 110.645C153.873 109.426 152.889 108.493 152.34 108.724L154.242 107.621Z" fill="#EBEBEB"/>
<path d="M152.745 108.487C153.987 107.707 157.921 113.968 156.679 114.748L154.795 115.847C156.037 115.067 152.107 108.81 150.865 109.591L152.745 108.487Z" fill="#8771C5"/>
<path d="M149.066 110.631L150.913 109.545C152.123 108.77 155.992 114.777 154.954 115.742L154.889 115.793L153.01 116.873C154.242 116.07 150.299 109.841 149.066 110.631Z" fill="#EBEBEB"/>
<path d="M106.553 138.51L105.205 140.061L106.553 138.51Z" fill="#E0E0E0"/>
<path d="M115.02 133.796C114.245 132.826 113.201 132.124 112.13 132.115L106.557 138.501C106.78 138.537 106.985 138.648 107.138 138.815C107.794 139.692 107.734 140.126 107.734 140.126L115.893 138.464C116.696 137.231 116.152 135.223 115.02 133.796Z" fill="#FFA8A7"/>
<path d="M107.137 138.824C107.069 138.732 106.982 138.656 106.881 138.602C106.781 138.547 106.669 138.516 106.555 138.51L105.207 140.061C105.161 140.111 105.132 140.175 105.125 140.242C105.118 140.31 105.132 140.378 105.166 140.436C105.2 140.495 105.252 140.542 105.314 140.569C105.376 140.596 105.446 140.603 105.512 140.588L107.733 140.126C107.733 140.126 107.83 139.706 107.137 138.824Z" fill="#37474F"/>
<path d="M165.718 109.471L158.33 113.793C158.289 113.816 158.246 113.833 158.201 113.844C158.704 113.253 157.766 111.156 156.626 109.554C155.795 108.386 154.807 107.481 154.248 107.62L161.959 103.108C163.649 101.931 165.875 105.121 166.318 107.402C166.507 108.266 166.341 109.028 165.718 109.471Z" fill="#F28F8F"/>
<path opacity="0.15" d="M165.72 109.473C166.343 109.011 166.486 108.267 166.311 107.404C166.311 107.298 166.26 107.187 166.233 107.076L116.153 136.087L105.232 140.511C105.269 140.546 105.314 140.571 105.364 140.585C105.413 140.598 105.464 140.6 105.514 140.589L107.735 140.127L115.894 138.465L165.72 109.473Z" fill="black"/>
<path d="M134.094 2.28825C133.401 1.91425 132.505 1.96966 131.526 2.53298L33.6473 59.0359C32.4701 59.7903 31.5141 60.8435 30.8768 62.088L26.9336 59.807C27.797 58.1678 29.0206 57.6091 30.0873 56.9904L127.976 0.478243C129.001 -0.108165 129.929 -0.135871 130.631 0.288928L134.094 2.28825Z" fill="#455A64"/>
<path d="M27.4871 150.658C26.6237 150.173 26.0742 149.028 26.0742 147.398V64.6734C26.0742 62.8264 26.2035 61.1688 26.9469 59.8066L30.8901 62.0876C30.7886 62.2723 30.6916 62.4662 30.5946 62.6648C30.4977 62.8633 30.4515 62.9834 30.3915 63.1265C30.3782 63.1495 30.3689 63.1744 30.3638 63.2004C30.2834 63.3829 30.2125 63.5694 30.1514 63.7591C30.0821 63.953 30.0221 64.1516 29.9713 64.3455C29.925 64.497 29.888 64.6512 29.8605 64.8073C29.7097 65.4334 29.6322 66.0749 29.6296 66.7189V149.439C29.6296 151.088 30.1883 152.242 31.061 152.718L27.4871 150.658Z" fill="#263238"/>
<path d="M131.526 2.52816L32.7602 59.4651C30.5392 60.7487 29.625 62.9512 29.625 65.9294V149.444C29.625 152.408 31.4258 153.766 33.6467 152.487L131.535 95.9747C133.756 94.6957 135.557 91.2511 135.557 88.2914V5.5664C135.547 2.60666 133.728 1.24453 131.526 2.52816Z" fill="#37474F"/>
<path d="M126.132 95.2358L39.0395 145.519C37.8897 146.184 36.957 145.478 36.957 143.94V63.7545C36.957 62.2169 37.8805 60.4346 39.0395 59.7697L126.132 9.48642C127.282 8.82152 128.215 9.52798 128.215 11.0656V91.251C128.215 92.7886 127.264 94.5709 126.132 95.2358Z" fill="#8771C5"/>
<path opacity="0.1" d="M126.132 95.2358L39.0395 145.519C37.8897 146.184 36.957 145.478 36.957 143.94V63.7545C36.957 62.2169 37.8805 60.4346 39.0395 59.7697L126.132 9.48642C127.282 8.82152 128.215 9.52798 128.215 11.0656V91.251C128.215 92.7886 127.264 94.5709 126.132 95.2358Z" fill="black"/>
<path d="M34.3404 108.489C34.3338 108.881 34.2356 109.267 34.0537 109.615C33.8717 109.963 33.611 110.263 33.2923 110.492C32.7151 110.825 32.2441 110.469 32.2441 109.698C32.2507 109.306 32.3489 108.92 32.5309 108.572C32.7129 108.224 32.9736 107.924 33.2923 107.694C33.8695 107.353 34.3404 107.708 34.3404 108.489Z" fill="#263238"/>
<path d="M33.2919 95.0461C33.0432 95.2243 32.8397 95.4582 32.6978 95.7293C32.5559 96.0003 32.4794 96.3008 32.4746 96.6067V103.745C32.4746 104.345 32.8394 104.623 33.2919 104.359C33.5394 104.181 33.7418 103.948 33.8829 103.678C34.024 103.408 34.0999 103.108 34.1045 102.803V95.6648C34.1045 95.0645 33.7398 94.7875 33.2919 95.0461Z" fill="#263238"/>
<path d="M125.094 17.4454C125.03 16.9468 124.632 16.7667 124.171 17.0437L42.8126 63.9979C42.5345 64.1797 42.3034 64.425 42.1385 64.7136L40.3516 63.6977C40.4372 63.5496 40.5395 63.4118 40.6563 63.2868L40.744 63.1991C40.8293 63.1175 40.9238 63.0462 41.0257 62.9867L122.361 16.014C122.803 15.782 123.314 15.7164 123.801 15.8294C123.945 15.8562 124.082 15.9077 124.208 15.9817C124.266 16.0155 124.322 16.0541 124.374 16.0972C124.412 16.1227 124.446 16.1538 124.475 16.1895C124.503 16.2106 124.528 16.2354 124.549 16.2634C124.598 16.3113 124.641 16.3639 124.679 16.4204C124.714 16.4647 124.746 16.5109 124.776 16.5589C124.844 16.6649 124.902 16.7779 124.946 16.896C124.977 16.9602 125.004 17.0265 125.025 17.0945C125.025 17.1453 125.048 17.1915 125.062 17.2469C125.077 17.3123 125.088 17.3786 125.094 17.4454Z" fill="#FAFAFA"/>
<path d="M42.3919 138.921C42.0779 138.921 41.8609 138.672 41.8609 138.238V65.6524C41.8743 65.3262 41.9695 65.0086 42.138 64.7289L40.351 63.6992C40.2424 63.8834 40.1615 64.0825 40.1109 64.2902C40.0934 64.3678 40.0811 64.4465 40.074 64.5257C40.0717 64.5642 40.0717 64.6027 40.074 64.6412V137.208C40.0849 137.529 40.1718 137.843 40.3275 138.124C40.4832 138.405 40.7033 138.645 40.9698 138.824C41.3068 138.997 41.6881 139.065 42.0641 139.018C42.3282 139.005 42.5851 138.927 42.8121 138.792C42.6841 138.867 42.5401 138.911 42.3919 138.921Z" fill="#E0E0E0"/>
<path d="M125.103 17.6001C125.103 16.9906 124.674 16.7459 124.152 17.046L42.8125 64.0048C42.5359 64.1858 42.3057 64.4293 42.1405 64.7156C41.9753 65.002 41.8797 65.3231 41.8613 65.6532V138.238C41.8613 138.848 42.2907 139.093 42.8125 138.792L124.152 91.8383C124.429 91.6566 124.659 91.4123 124.825 91.1251C124.99 90.838 125.085 90.5161 125.103 90.1853V17.6001Z" fill="#F0F0F0"/>
<path d="M54.6653 84.2781L50.1541 90.0175L47.5222 93.3605C46.9538 92.1075 46.6775 90.7418 46.7142 89.3665C46.7142 85.511 48.381 81.0552 51.0822 77.6152L51.6778 78.7234L54.6653 84.2781Z" fill="#8771C5"/>
<path d="M58.5298 72.7637L54.9975 83.4529L53.386 80.4885L51.5391 77.0301C52.5776 75.7607 53.8272 74.6797 55.233 73.8349C56.2314 73.2214 57.3614 72.8542 58.5298 72.7637Z" fill="#8771C5"/>
<path d="M62.5649 75.1546L55.9297 82.7963L59.2403 72.7812C59.9509 72.8606 60.6293 73.1203 61.2112 73.5357C61.7931 73.9511 62.259 74.5084 62.5649 75.1546Z" fill="#8771C5"/>
<path d="M63.448 79.2837C63.448 85.1154 59.6156 92.0785 54.9012 94.7935C51.9738 96.4881 49.3604 96.1787 47.8828 93.9854L55.3075 84.566L55.3491 84.5152L62.88 75.8438C63.2798 76.9456 63.4723 78.1118 63.448 79.2837Z" fill="#8771C5"/>
<path opacity="0.7" d="M58.5298 72.7637L54.9975 83.4529L53.386 80.4885L51.5391 77.0301C52.5776 75.7607 53.8272 74.6797 55.233 73.8349C56.2314 73.2214 57.3614 72.8542 58.5298 72.7637Z" fill="white"/>
<path opacity="0.3" d="M62.5649 75.1546L55.9297 82.7963L59.2403 72.7812C59.9509 72.8606 60.6293 73.1203 61.2112 73.5357C61.7931 73.9511 62.259 74.5084 62.5649 75.1546Z" fill="black"/>
<path opacity="0.5" d="M63.448 79.2837C63.448 85.1154 59.6156 92.0785 54.9012 94.7935C51.9738 96.4881 49.3604 96.1787 47.8828 93.9854L55.3075 84.566L55.3491 84.5152L62.88 75.8438C63.2798 76.9456 63.4723 78.1118 63.448 79.2837Z" fill="white"/>
<path d="M47.892 68.0573C48.0338 67.9689 48.1902 67.9064 48.3538 67.8726C48.4736 67.8464 48.5988 67.8662 48.7047 67.928C48.8136 68.0008 48.8924 68.1108 48.9263 68.2374C48.9838 68.4226 49.0103 68.616 49.0048 68.8099C49.0083 69.0919 48.9662 69.3725 48.8802 69.641C48.8042 69.8811 48.687 70.1061 48.5338 70.3059L49.0233 71.4741C49.028 71.4939 49.028 71.5144 49.0233 71.5342C49.0229 71.5728 49.0134 71.6107 48.9956 71.645C48.9834 71.6751 48.9625 71.7008 48.9356 71.7189L48.3953 72.0282C48.3445 72.0605 48.3076 72.0605 48.2845 72.0282C48.2609 72.0061 48.2421 71.9794 48.2291 71.9497L47.7674 70.897L47.4026 71.1094V72.4161C47.4029 72.4627 47.3918 72.5086 47.3703 72.55C47.3545 72.5869 47.3289 72.6188 47.2964 72.6423L46.7746 72.9425C46.7645 72.9516 46.7513 72.9566 46.7377 72.9566C46.7241 72.9566 46.7109 72.9516 46.7008 72.9425C46.6891 72.9293 46.6802 72.914 46.6746 72.8973C46.669 72.8806 46.6669 72.863 46.6684 72.8455V68.9023C46.6676 68.8556 46.6787 68.8095 46.7008 68.7684C46.7136 68.7298 46.7398 68.697 46.7746 68.676L47.892 68.0573ZM47.4303 70.1674L47.892 69.9088C48.0022 69.844 48.0968 69.7557 48.1691 69.6503C48.2443 69.5251 48.2812 69.3806 48.2753 69.2347C48.2753 69.0639 48.2383 68.9669 48.1691 68.9438C48.1213 68.934 48.0719 68.9343 48.0242 68.9446C47.9765 68.9549 47.9315 68.9751 47.892 69.0038L47.4303 69.2624V70.1674Z" fill="#455A64"/>
<path d="M51.6506 69.1849C51.6612 69.1766 51.6742 69.1722 51.6875 69.1722C51.7009 69.1722 51.7139 69.1766 51.7245 69.1849C51.7362 69.198 51.7451 69.2134 51.7506 69.23C51.7562 69.2467 51.7583 69.2643 51.7568 69.2818V69.9329C51.7566 69.9794 51.7455 70.0253 51.7245 70.0668C51.7089 70.1038 51.6833 70.1358 51.6506 70.1591L49.7713 71.2442C49.7612 71.2533 49.748 71.2583 49.7344 71.2583C49.7208 71.2583 49.7076 71.2533 49.6975 71.2442C49.685 71.2316 49.6756 71.2163 49.67 71.1995C49.6644 71.1827 49.6627 71.1648 49.6651 71.1473V67.204C49.6654 67.1575 49.6765 67.1116 49.6975 67.0701C49.7131 67.0331 49.7386 67.0011 49.7713 66.9778L51.6183 65.9111C51.6288 65.9029 51.6418 65.8984 51.6552 65.8984C51.6686 65.8984 51.6816 65.9029 51.6922 65.9111C51.7039 65.9243 51.7128 65.9396 51.7183 65.9563C51.7239 65.973 51.726 65.9906 51.7245 66.0081V66.6592C51.7242 66.7057 51.7132 66.7515 51.6922 66.7931C51.6766 66.8301 51.651 66.8621 51.6183 66.8854L50.3993 67.5873V68.2475L51.5306 67.5919C51.5407 67.5828 51.5539 67.5778 51.5675 67.5778C51.5811 67.5778 51.5943 67.5828 51.6044 67.5919C51.6169 67.6045 51.6263 67.6198 51.6319 67.6366C51.6375 67.6534 51.6392 67.6713 51.6368 67.6888V68.3353C51.637 68.3819 51.6259 68.4278 51.6044 68.4692C51.59 68.5069 51.5642 68.5392 51.5306 68.5615L50.3993 69.2403V69.9237L51.6506 69.1849Z" fill="#455A64"/>
<path d="M53.6474 64.733C53.789 64.6462 53.9456 64.5867 54.1091 64.5576C54.2291 64.5339 54.3537 64.5588 54.4554 64.6268C54.5623 64.7077 54.6401 64.8212 54.677 64.9501C54.7402 65.1422 54.7714 65.3434 54.7694 65.5457C54.7717 65.7726 54.7469 65.9989 54.6955 66.2198C54.6454 66.4191 54.571 66.6114 54.4739 66.7924C54.3782 66.9602 54.2619 67.1153 54.1276 67.2541C53.9916 67.3943 53.8361 67.514 53.6658 67.6097L53.1625 67.9006V69.1473C53.1606 69.1936 53.1496 69.2391 53.1302 69.2812C53.1155 69.3201 53.0878 69.3527 53.0517 69.3735L52.5346 69.6736C52.5244 69.6827 52.5113 69.6877 52.4976 69.6877C52.484 69.6877 52.4708 69.6827 52.4607 69.6736C52.4488 69.6607 52.4397 69.6453 52.4341 69.6286C52.4286 69.6119 52.4266 69.5942 52.4284 69.5767V65.6334C52.4275 65.5868 52.4386 65.5407 52.4607 65.4995C52.4735 65.4609 52.4997 65.4282 52.5346 65.4072L53.6474 64.733ZM53.1441 66.9309L53.6058 66.6493C53.7284 66.5793 53.8292 66.4766 53.8969 66.3527C53.9646 66.2287 53.9965 66.0884 53.989 65.9474C53.989 65.7766 53.9567 65.675 53.8828 65.638C53.8363 65.623 53.7869 65.6193 53.7387 65.6273C53.6905 65.6354 53.6449 65.6549 53.6058 65.6842L53.1441 65.9659V66.9309Z" fill="#455A64"/>
<path d="M55.2324 65.4122C55.242 65.1757 55.2745 64.9406 55.3294 64.7104C55.3843 64.4805 55.4649 64.2574 55.5695 64.0455C55.6739 63.84 55.8025 63.6478 55.9527 63.4729C56.0985 63.3004 56.2735 63.1551 56.4699 63.0435C56.625 62.9444 56.8032 62.8871 56.987 62.8773C57.1248 62.8726 57.2595 62.9186 57.3656 63.0066C57.4816 63.1107 57.5663 63.2449 57.6104 63.3944C57.6695 63.5845 57.7022 63.7818 57.7073 63.9808C57.7073 64.1517 57.7073 64.3364 57.7073 64.5257C57.7073 64.715 57.7073 64.8997 57.7073 65.0705C57.6973 65.3055 57.6648 65.539 57.6104 65.7678C57.5552 65.9997 57.4731 66.2244 57.3656 66.4373C57.2645 66.6436 57.1373 66.836 56.987 67.0098C56.839 67.18 56.6644 67.3251 56.4699 67.4393C56.3145 67.5378 56.1365 67.595 55.9527 67.6055C55.8124 67.6124 55.675 67.5643 55.5695 67.4716C55.4554 67.3667 55.3724 67.2326 55.3294 67.0837C55.2702 66.8936 55.2376 66.6963 55.2324 66.4973C55.2324 66.3311 55.2324 66.1556 55.2324 65.9663C55.2324 65.777 55.2324 65.5877 55.2324 65.4122ZM56.9732 65.463C56.9732 65.3845 56.9732 65.3014 56.9732 65.2137C56.9732 65.1259 56.9732 65.029 56.9732 64.9366C56.9732 64.8443 56.9732 64.7519 56.9732 64.6642C56.9732 64.5765 56.9732 64.5026 56.9732 64.438C56.9706 64.3503 56.9566 64.2634 56.9316 64.1794C56.915 64.1162 56.8815 64.0587 56.8347 64.0132C56.7941 63.9727 56.7395 63.9496 56.6823 63.9485C56.6069 63.9539 56.5339 63.9776 56.4699 64.0178C56.3881 64.0635 56.316 64.1247 56.2575 64.1978C56.1941 64.2675 56.1426 64.347 56.1051 64.4333C56.0631 64.522 56.0306 64.6149 56.0081 64.7104C55.9852 64.8105 55.9713 64.9125 55.9666 65.0151C55.9666 65.089 55.9666 65.1721 55.9666 65.2598C55.9666 65.3476 55.9666 65.4353 55.9666 65.5323C55.9666 65.6292 55.9666 65.717 55.9666 65.8047C55.9666 65.8924 55.9666 65.9709 55.9666 66.0448C55.9616 66.1983 56.0106 66.3486 56.1051 66.4696C56.1836 66.5573 56.3036 66.5573 56.4699 66.4696C56.6332 66.3763 56.7613 66.2319 56.8347 66.0587C56.9168 65.87 56.9653 65.6684 56.9778 65.463H56.9732Z" fill="#455A64"/>
<path d="M59.5532 61.3268C59.6953 61.2391 59.8515 61.1766 60.0149 61.1421C60.1342 61.1167 60.2586 61.1347 60.3658 61.1929C60.4738 61.2677 60.5534 61.3767 60.5921 61.5022C60.647 61.6895 60.672 61.8843 60.6659 62.0794C60.6684 62.3609 60.6279 62.6412 60.5459 62.9105C60.4673 63.149 60.3487 63.3723 60.195 63.5708L60.6844 64.739C60.6882 64.7588 60.6882 64.7792 60.6844 64.799C60.6841 64.8376 60.6746 64.8756 60.6567 64.9098C60.6457 64.9406 60.6245 64.9667 60.5967 64.9837L60.0565 65.2977C60.0057 65.3254 59.9687 65.33 59.9456 65.2977C59.9231 65.2746 59.9044 65.2481 59.8902 65.2192L59.4516 64.1664L59.0868 64.3742V65.6809C59.0877 65.7276 59.0766 65.7737 59.0545 65.8149C59.0401 65.8538 59.0144 65.8876 58.9806 65.9118L58.4588 66.2073C58.4541 66.2124 58.4484 66.2164 58.442 66.2191C58.4357 66.2218 58.4288 66.2233 58.4219 66.2233C58.415 66.2233 58.4081 66.2218 58.4018 66.2191C58.3954 66.2164 58.3897 66.2124 58.385 66.2073C58.3725 66.1947 58.3631 66.1794 58.3575 66.1626C58.3519 66.1458 58.3502 66.1279 58.3526 66.1104V62.1671C58.3524 62.1205 58.3635 62.0746 58.385 62.0332C58.4008 61.9963 58.4263 61.9644 58.4588 61.9409L59.5532 61.3268ZM59.0914 63.4323L59.5532 63.1737C59.6631 63.1105 59.7577 63.0238 59.8302 62.9198C59.9048 62.7926 59.9416 62.6469 59.9364 62.4996C59.9364 62.3287 59.8995 62.2318 59.8302 62.2087C59.7821 62.1998 59.7326 62.201 59.6849 62.2121C59.6373 62.2232 59.5924 62.2441 59.5532 62.2733L59.0914 62.5319V63.4323Z" fill="#455A64"/>
<path d="M63.3427 59.1358C63.3532 59.1275 63.3662 59.123 63.3796 59.123C63.393 59.123 63.406 59.1275 63.4166 59.1358C63.4286 59.1496 63.4377 59.1657 63.4433 59.1832C63.4488 59.2007 63.4507 59.2191 63.4489 59.2373V59.8838C63.4486 59.9303 63.4376 59.9762 63.4166 60.0177C63.401 60.0547 63.3754 60.0867 63.3427 60.11L62.6455 60.5117V63.6423C62.6463 63.689 62.6352 63.7351 62.6131 63.7762C62.6003 63.8148 62.5741 63.8476 62.5393 63.8686L62.0175 64.1687C62.0073 64.1778 61.9942 64.1828 61.9806 64.1828C61.9669 64.1828 61.9538 64.1778 61.9436 64.1687C61.9312 64.1561 61.9218 64.1408 61.9161 64.124C61.9105 64.1072 61.9089 64.0893 61.9113 64.0717V60.9273L61.2141 61.329C61.2039 61.3381 61.1908 61.3431 61.1771 61.3431C61.1635 61.3431 61.1504 61.3381 61.1402 61.329C61.1285 61.3159 61.1196 61.3005 61.1141 61.2839C61.1085 61.2672 61.1064 61.2496 61.1079 61.2321V60.5856C61.1076 60.5375 61.1187 60.4901 61.1402 60.4471C61.1558 60.4101 61.1814 60.3781 61.2141 60.3547L63.3427 59.1358Z" fill="#455A64"/>
<path d="M67.0254 57.013L118.925 27.0508V31.1833L67.0254 61.1455V57.013Z" fill="#8771C5"/>
<g opacity="0.3">
<path d="M66.7082 70.0301C66.6316 70.0306 66.5561 70.0108 66.4896 69.9727C66.4231 69.9345 66.3679 69.8795 66.3296 69.8131C66.2752 69.711 66.2611 69.5921 66.2902 69.4801C66.3193 69.368 66.3894 69.271 66.4866 69.2082L96.9104 51.6622C97.0087 51.6326 97.114 51.6366 97.2097 51.6735C97.3054 51.7104 97.3861 51.7782 97.439 51.8661C97.492 51.9539 97.5141 52.0569 97.502 52.1588C97.4899 52.2607 97.4442 52.3556 97.3722 52.4287L66.9529 69.9747C66.878 70.0154 66.7933 70.0346 66.7082 70.0301Z" fill="#455A64"/>
<path d="M66.7082 74.161C66.6316 74.1615 66.5561 74.1416 66.4896 74.1035C66.4231 74.0654 66.3679 74.0103 66.3296 73.944C66.2752 73.8418 66.2611 73.723 66.2902 73.6109C66.3193 73.4989 66.3894 73.4019 66.4866 73.3391L96.9104 55.793C97.0087 55.7635 97.114 55.7674 97.2097 55.8044C97.3054 55.8413 97.3861 55.909 97.439 55.9969C97.492 56.0848 97.5141 56.1878 97.502 56.2897C97.4899 56.3916 97.4442 56.4865 97.3722 56.5595L66.9529 74.1056C66.878 74.1463 66.7933 74.1655 66.7082 74.161Z" fill="#455A64"/>
<path d="M66.7082 78.2938C66.6316 78.2943 66.5561 78.2744 66.4896 78.2363C66.4231 78.1982 66.3679 78.1432 66.3296 78.0768C66.2752 77.9746 66.2611 77.8558 66.2902 77.7437C66.3193 77.6317 66.3894 77.5347 66.4866 77.4719L96.9104 59.9259C97.0087 59.8963 97.114 59.9003 97.2097 59.9372C97.3054 59.9741 97.3861 60.0418 97.439 60.1297C97.492 60.2176 97.5141 60.3206 97.502 60.4225C97.4899 60.5244 97.4442 60.6193 97.3722 60.6923L66.9529 78.2384C66.878 78.2791 66.7933 78.2983 66.7082 78.2938Z" fill="#455A64"/>
<path d="M66.7082 82.4278C66.6316 82.4283 66.5561 82.4084 66.4896 82.3703C66.4231 82.3322 66.3679 82.2772 66.3296 82.2108C66.2752 82.1086 66.2611 81.9898 66.2902 81.8777C66.3193 81.7657 66.3894 81.6687 66.4866 81.6059L96.9104 64.0599C96.9593 64.0084 97.0194 63.9688 97.0861 63.9443C97.1527 63.9198 97.2241 63.9111 97.2947 63.9187C97.3653 63.9263 97.4332 63.9501 97.4931 63.9882C97.5531 64.0263 97.6034 64.0777 97.6402 64.1384C97.677 64.1992 97.6993 64.2676 97.7054 64.3383C97.7114 64.4091 97.7011 64.4803 97.6752 64.5464C97.6492 64.6125 97.6084 64.6717 97.5558 64.7195C97.5033 64.7672 97.4404 64.8022 97.3722 64.8217L66.9529 82.3678C66.8785 82.4101 66.7938 82.4309 66.7082 82.4278Z" fill="#455A64"/>
<path d="M66.7084 86.565C66.6277 86.5628 66.549 86.5395 66.4801 86.4974C66.4112 86.4552 66.3546 86.3958 66.3159 86.3249C66.2615 86.2228 66.2475 86.1039 66.2765 85.9919C66.3056 85.8799 66.3757 85.7829 66.4729 85.7201L96.8967 68.174C96.9941 68.1462 97.0979 68.1512 97.1922 68.1881C97.2865 68.2251 97.366 68.2921 97.4185 68.3787C97.471 68.4653 97.4935 68.5667 97.4827 68.6674C97.4719 68.7681 97.4282 68.8624 97.3585 68.9359L66.9393 86.4819C66.8712 86.53 66.7914 86.5587 66.7084 86.565Z" fill="#455A64"/>
</g>
<path d="M101.503 47.4089L105.418 45.151C105.681 44.9986 105.88 45.1233 105.88 45.428V49.9484C105.873 50.112 105.827 50.2717 105.747 50.4145C105.667 50.5573 105.554 50.6792 105.418 50.7703L101.503 53.0328C101.24 53.1852 101.041 53.0605 101.041 52.7558V48.2354C101.049 48.0713 101.095 47.9112 101.175 47.7678C101.255 47.6244 101.367 47.5015 101.503 47.4089Z" fill="#8771C5"/>
<path d="M107.995 43.6637L111.91 41.4058C112.174 41.2535 112.372 41.3735 112.372 41.6782V46.1987C112.365 46.3629 112.32 46.5232 112.239 46.6668C112.159 46.8103 112.047 46.933 111.91 47.0252L107.995 49.2831C107.732 49.4354 107.533 49.3154 107.533 49.0107V44.4902C107.54 44.326 107.586 44.1657 107.666 44.0221C107.746 43.8786 107.859 43.7559 107.995 43.6637Z" fill="#8771C5"/>
<path d="M114.489 39.9147L118.4 37.6568C118.663 37.5045 118.862 37.6291 118.862 37.9339V42.4589C118.854 42.6231 118.809 42.7833 118.729 42.9267C118.648 43.0702 118.536 43.193 118.4 43.2854L114.489 45.5479C114.226 45.7003 114.027 45.5756 114.027 45.2709V40.7505C114.033 40.5847 114.078 40.4227 114.159 40.2775C114.239 40.1323 114.352 40.0081 114.489 39.9147Z" fill="#8771C5"/>
<path d="M101.503 54.9272L105.418 52.6646C105.681 52.5123 105.88 52.6369 105.88 52.9417V57.4621C105.873 57.6264 105.827 57.7867 105.747 57.9302C105.667 58.0737 105.554 58.1965 105.418 58.2886L101.503 60.5465C101.24 60.6989 101.041 60.5742 101.041 60.2695V55.7537C101.048 55.5894 101.094 55.4291 101.174 55.2856C101.254 55.1421 101.367 55.0193 101.503 54.9272Z" fill="#8771C5"/>
<path d="M107.995 51.1579L111.91 48.9C112.174 48.7476 112.372 48.8676 112.372 49.1724V53.6928C112.365 53.8571 112.32 54.0174 112.239 54.1609C112.159 54.3044 112.047 54.4272 111.91 54.5193L107.995 56.7726C107.732 56.925 107.533 56.8049 107.533 56.5002V51.9798C107.541 51.8163 107.587 51.6569 107.667 51.5142C107.747 51.3716 107.859 51.2495 107.995 51.1579Z" fill="#8771C5"/>
<path d="M114.489 47.4135L118.4 45.151C118.663 44.9986 118.862 45.1233 118.862 45.428V49.9484C118.854 50.112 118.809 50.2715 118.728 50.4142C118.648 50.5569 118.536 50.6789 118.4 50.7703L114.489 53.0328C114.226 53.1852 114.027 53.0605 114.027 52.7558V48.2354C114.035 48.0718 114.08 47.9123 114.161 47.7696C114.241 47.6269 114.353 47.5049 114.489 47.4135Z" fill="#8771C5"/>
<path d="M101.503 62.4018L105.418 60.1393C105.681 59.9869 105.88 60.1115 105.88 60.4163V64.9367C105.873 65.101 105.827 65.2613 105.747 65.4048C105.667 65.5483 105.554 65.6711 105.418 65.7632L101.503 68.0211C101.24 68.1735 101.041 68.0488 101.041 67.7487V63.2375C101.047 63.0717 101.091 62.9095 101.172 62.7643C101.252 62.619 101.365 62.4948 101.503 62.4018Z" fill="#8771C5"/>
<path d="M107.995 58.6531L111.91 56.3952C112.174 56.2428 112.372 56.3675 112.372 56.6677V61.1881C112.365 61.3523 112.32 61.5126 112.239 61.6562C112.159 61.7997 112.047 61.9224 111.91 62.0146L107.995 64.2771C107.732 64.4295 107.533 64.3048 107.533 64V59.4796C107.54 59.3154 107.586 59.1551 107.666 59.0115C107.746 58.868 107.859 58.7453 107.995 58.6531Z" fill="#8771C5"/>
<path d="M114.489 54.9272L118.4 52.6646C118.663 52.5123 118.862 52.6369 118.862 52.9417V57.4621C118.854 57.6263 118.809 57.7864 118.729 57.9299C118.648 58.0734 118.536 58.1962 118.4 58.2886L114.489 60.5465C114.226 60.6989 114.027 60.5742 114.027 60.2695V55.7537C114.035 55.5895 114.08 55.4293 114.161 55.2858C114.241 55.1424 114.353 55.0196 114.489 54.9272Z" fill="#8771C5"/>
<path d="M47.3418 128.301L97.4495 99.373V101.437L47.3418 130.37V128.301Z" fill="#455A64"/>
<path d="M47.3418 126.238V113.836L51.756 116.385L56.0086 108.507L61.0785 111.435L63.4472 108.674L67.0256 110.738L72.234 102.957L76.3851 104.693L81.3441 94.2074L84.8118 100.233L89.5492 93.367L91.313 96.7146L97.4495 86.9766V97.3056L47.3418 126.238Z" fill="#8771C5"/>
<path d="M47.3418 112.686L51.4605 114.87L55.7316 106.928L60.8291 109.874L63.1194 107.2L66.6978 109.269L71.8231 101.77L75.9741 103.506L81.3441 92.1431L84.9226 98.3397L89.66 91.4736L91.3915 94.8258L97.4495 85.2032V76.6426L91.1145 86.5192L88.501 81.8094L84.9226 88.0106L81.3441 85.942L77.7657 92.1431L74.1872 90.0745L68.8172 99.3739L65.2387 96.2757L61.6926 101.419L56.0963 98.3397L51.5713 105.949L47.3418 103.506V112.686Z" fill="#8771C5"/>
<path opacity="0.3" d="M47.3418 112.686L51.4605 114.87L55.7316 106.928L60.8291 109.874L63.1194 107.2L66.6978 109.269L71.8231 101.77L75.9741 103.506L81.3441 92.1431L84.9226 98.3397L89.66 91.4736L91.3915 94.8258L97.4495 85.2032V76.6426L91.1145 86.5192L88.501 81.8094L84.9226 88.0106L81.3441 85.942L77.7657 92.1431L74.1872 90.0745L68.8172 99.3739L65.2387 96.2757L61.6926 101.419L56.0963 98.3397L51.5713 105.949L47.3418 103.506V112.686Z" fill="black"/>
<g opacity="0.3">
<path d="M101.025 75.017C100.935 75.0048 100.85 74.9663 100.782 74.9062C100.714 74.8462 100.665 74.7674 100.641 74.6796C100.617 74.5919 100.62 74.4991 100.649 74.4129C100.678 74.3267 100.731 74.2509 100.803 74.1951L118.7 63.8614C118.798 63.8318 118.904 63.8358 118.999 63.8727C119.095 63.9096 119.176 63.9774 119.229 64.0653C119.282 64.1531 119.304 64.2562 119.292 64.358C119.28 64.4599 119.234 64.5549 119.162 64.6279L101.265 74.957C101.192 74.9998 101.109 75.0207 101.025 75.017Z" fill="#455A64"/>
<path d="M101.025 79.1498C100.935 79.1376 100.85 79.0991 100.782 79.0391C100.714 78.9791 100.665 78.9002 100.641 78.8125C100.617 78.7247 100.62 78.6319 100.649 78.5457C100.678 78.4595 100.731 78.3837 100.803 78.3279L118.7 67.9942C118.798 67.9646 118.904 67.9686 118.999 68.0055C119.095 68.0425 119.176 68.1102 119.229 68.1981C119.282 68.286 119.304 68.389 119.292 68.4909C119.28 68.5927 119.234 68.6877 119.162 68.7607L101.265 79.0898C101.192 79.1327 101.109 79.1535 101.025 79.1498Z" fill="#455A64"/>
<path d="M101.025 83.2826C100.935 83.2704 100.85 83.2319 100.782 83.1719C100.714 83.1119 100.665 83.033 100.641 82.9453C100.617 82.8575 100.62 82.7647 100.649 82.6785C100.678 82.5923 100.731 82.5166 100.803 82.4607L118.7 72.127C118.798 72.0974 118.904 72.1014 118.999 72.1384C119.095 72.1753 119.176 72.243 119.229 72.3309C119.282 72.4188 119.304 72.5218 119.292 72.6237C119.28 72.7255 119.234 72.8205 119.162 72.8935L101.265 83.2226C101.192 83.2655 101.109 83.2863 101.025 83.2826Z" fill="#455A64"/>
<path d="M101.025 87.4143C100.935 87.4021 100.85 87.3635 100.782 87.3035C100.714 87.2435 100.665 87.1647 100.641 87.0769C100.617 86.9892 100.62 86.8964 100.649 86.8102C100.678 86.724 100.731 86.6482 100.803 86.5924L118.7 76.2633C118.802 76.2103 118.919 76.1969 119.03 76.226C119.141 76.255 119.238 76.3243 119.3 76.4203C119.355 76.5225 119.369 76.6413 119.34 76.7533C119.311 76.8654 119.241 76.9624 119.143 77.0252L101.246 87.3543C101.179 87.3938 101.103 87.4145 101.025 87.4143Z" fill="#455A64"/>
<path d="M101.025 91.5471C100.935 91.5349 100.85 91.4964 100.782 91.4364C100.714 91.3763 100.665 91.2975 100.641 91.2098C100.617 91.122 100.62 91.0292 100.649 90.943C100.678 90.8568 100.731 90.781 100.803 90.7252L118.7 80.3961C118.802 80.3431 118.919 80.3298 119.03 80.3588C119.141 80.3878 119.238 80.4571 119.3 80.5531C119.355 80.6553 119.369 80.7741 119.34 80.8861C119.311 80.9982 119.241 81.0952 119.143 81.158L101.246 91.4871C101.179 91.5266 101.103 91.5473 101.025 91.5471Z" fill="#455A64"/>
<path d="M101.025 95.6799C100.935 95.6677 100.85 95.6292 100.782 95.5692C100.714 95.5092 100.665 95.4303 100.641 95.3426C100.617 95.2548 100.62 95.162 100.649 95.0758C100.678 94.9896 100.731 94.9139 100.803 94.858L118.7 84.5289C118.802 84.4759 118.919 84.4626 119.03 84.4916C119.141 84.5206 119.238 84.5899 119.3 84.6859C119.355 84.7881 119.369 84.9069 119.34 85.019C119.311 85.131 119.241 85.228 119.143 85.2908L101.246 95.6199C101.179 95.6594 101.103 95.6802 101.025 95.6799Z" fill="#455A64"/>
<path d="M101.025 99.8113C100.935 99.7991 100.85 99.7606 100.782 99.7006C100.714 99.6406 100.665 99.5618 100.641 99.474C100.617 99.3862 100.62 99.2934 100.649 99.2072C100.678 99.121 100.731 99.0453 100.803 98.9894L118.7 88.6603C118.797 88.6325 118.901 88.6375 118.995 88.6745C119.09 88.7114 119.169 88.7784 119.222 88.865C119.274 88.9516 119.297 89.0531 119.286 89.1537C119.275 89.2544 119.231 89.3488 119.162 89.4222L101.265 99.7513C101.192 99.7942 101.109 99.815 101.025 99.8113Z" fill="#455A64"/>
</g>
<path d="M46.8516 160.631V161.587C46.859 161.752 46.9046 161.913 46.9847 162.057C47.0648 162.201 47.1773 162.325 47.3133 162.418L101.221 193.539C101.37 193.614 101.535 193.654 101.701 193.654C101.868 193.654 102.033 193.614 102.182 193.539L140.815 171.284C140.951 171.19 141.064 171.067 141.144 170.922C141.224 170.778 141.269 170.617 141.277 170.452V169.483C141.27 169.318 141.224 169.157 141.144 169.013C141.064 168.868 140.951 168.745 140.815 168.652L86.9073 137.503C86.7591 137.428 86.5954 137.389 86.4294 137.389C86.2633 137.389 86.0996 137.428 85.9515 137.503L47.3318 159.8C47.1923 159.892 47.0763 160.014 46.9929 160.159C46.9095 160.303 46.8611 160.465 46.8516 160.631Z" fill="#8771C5"/>
<path opacity="0.5" d="M140.88 168.672C141.078 168.824 141.055 169.046 140.815 169.184L102.2 191.477C102.058 191.554 101.899 191.593 101.738 191.593V193.67C101.899 193.671 102.058 193.632 102.2 193.555L140.815 171.285C140.951 171.192 141.064 171.068 141.144 170.924C141.224 170.78 141.269 170.619 141.277 170.454V169.485C141.274 169.328 141.237 169.175 141.168 169.034C141.1 168.894 141.001 168.77 140.88 168.672Z" fill="black"/>
<path opacity="0.6" d="M47.2587 159.857L47.2171 159.89L47.1525 159.954C47.0265 160.102 46.942 160.28 46.9078 160.472C46.9057 160.512 46.9057 160.552 46.9078 160.592V161.589C46.9162 161.754 46.9623 161.914 47.0423 162.058C47.1223 162.202 47.2342 162.326 47.3695 162.42L101.277 193.541C101.419 193.617 101.578 193.657 101.739 193.657V191.602C101.578 191.604 101.419 191.566 101.277 191.491L47.3325 160.356C47.2524 160.316 47.1888 160.249 47.1525 160.167C47.1344 160.122 47.13 160.074 47.1399 160.027C47.1497 159.98 47.1734 159.937 47.2079 159.904C47.2225 159.886 47.2396 159.87 47.2587 159.857Z" fill="black"/>
<g opacity="0.3">
<path d="M46.8897 160.391C46.8727 160.449 46.8619 160.51 46.8574 160.571C46.8574 160.571 46.8574 160.534 46.8574 160.515C46.8659 160.473 46.8767 160.432 46.8897 160.391Z" fill="black"/>
<path d="M140.817 169.183L102.202 191.476C102.06 191.553 101.901 191.592 101.74 191.591C101.579 191.592 101.42 191.552 101.278 191.476L47.3706 160.355C47.2885 160.317 47.224 160.249 47.1905 160.166C47.1747 160.121 47.1716 160.073 47.1813 160.026C47.1911 159.98 47.2135 159.937 47.2459 159.902C47.2564 159.887 47.2707 159.874 47.2875 159.865L47.3614 159.81L85.9764 137.513C86.1254 137.438 86.2899 137.398 86.4566 137.398C86.6234 137.398 86.7879 137.438 86.9369 137.513L140.845 168.638L140.909 168.68C141.08 168.832 141.057 169.045 140.817 169.183Z" fill="black"/>
<path opacity="0.15" d="M47.1483 159.953L47.1113 159.999C47.1256 159.986 47.138 159.97 47.1483 159.953Z" fill="black"/>
</g>
<path d="M61.4533 146.839C61.4533 147.707 62.6631 148.622 62.9955 149.393C63.0246 149.455 63.0493 149.52 63.0694 149.587C62.9032 150.136 62.3952 150.51 62.289 150.884C62.2622 150.966 62.2482 151.052 62.2475 151.138V151.891C62.2588 152.061 62.2819 152.231 62.3168 152.399C62.29 152.58 62.2483 152.759 62.1921 152.934C62.0849 153.231 62.0257 153.542 62.0166 153.858V154.564C62.0003 154.698 62.0262 154.834 62.0908 154.952C62.1554 155.07 62.2554 155.166 62.3768 155.224L64.5423 156.471L80.7262 147.125V146.41L78.5607 145.158C78.2268 144.985 77.8498 144.913 77.4756 144.951H77.3324C76.9677 144.951 76.4921 144.988 75.8503 145.057C75.0425 145.149 74.228 145.168 73.4169 145.112C73.1907 145.112 72.9921 145.085 72.7889 145.085C72.6347 145.083 72.4805 145.091 72.3272 145.108C71.4037 145.2 70.4249 145.782 68.5548 145.528H68.4948C67.1696 145.334 65.5997 144.641 64.0991 144.637H63.9513C63.3501 144.641 62.7601 144.8 62.2383 145.098C61.6565 145.431 61.4395 145.791 61.4395 146.151C61.4487 146.244 61.4533 146.724 61.4533 146.839ZM63.9097 147.338C64.0012 147.178 64.1356 147.047 64.2976 146.959C64.4245 146.888 64.5593 146.832 64.6993 146.793C65.7103 146.569 66.7687 146.734 67.6637 147.255C68.0322 147.443 68.3361 147.737 68.5363 148.1C68.443 148.26 68.3072 148.391 68.1439 148.478C67.4534 148.79 66.6755 148.848 65.946 148.645C65.5359 148.549 65.1421 148.394 64.7778 148.183C64.4098 147.995 64.1071 147.701 63.9097 147.338Z" fill="#263238"/>
<path d="M77.4729 144.925H77.3298C76.965 144.925 76.4894 144.962 75.8476 145.032C75.0383 145.124 74.2223 145.143 73.4096 145.087C73.188 145.087 72.9895 145.059 72.7863 145.059C72.6321 145.058 72.4779 145.065 72.3246 145.082C71.4011 145.175 70.4222 145.756 68.5522 145.502H68.4922C67.167 145.309 65.5971 144.616 64.0964 144.611H63.9487C63.3474 144.615 62.7574 144.774 62.2356 145.073C60.2594 146.214 62.508 147.59 62.979 148.684C63.45 149.778 62.4295 150.355 62.2726 150.896C62.1156 151.436 62.5496 151.731 62.1756 152.923C61.8016 154.114 62.0879 154.331 62.3603 154.488L64.5258 155.739L80.7097 146.394L78.5442 145.142C78.2153 144.969 77.8434 144.893 77.4729 144.925ZM65.3385 154.022C65.1949 154.078 65.0403 154.101 64.8866 154.088C64.7329 154.075 64.5842 154.027 64.452 153.948C64.1703 153.786 64.1103 153.555 64.3227 153.435C64.4668 153.378 64.6223 153.354 64.7769 153.367C64.9316 153.38 65.0811 153.429 65.2138 153.509C65.4909 153.671 65.5555 153.901 65.3385 154.022ZM68.1412 148.481C67.4507 148.792 66.6728 148.851 65.9434 148.647C65.5332 148.552 65.1395 148.396 64.7752 148.185C63.7132 147.571 63.5008 146.698 64.3134 146.241C64.4401 146.169 64.575 146.111 64.7151 146.07C65.7263 145.85 66.7833 146.014 67.6795 146.532C68.723 147.137 68.94 148.005 68.1597 148.467L68.1412 148.481ZM77.8377 146.828C77.6934 146.884 77.538 146.907 77.3836 146.894C77.2291 146.881 77.0796 146.833 76.9466 146.754C76.6649 146.592 76.6049 146.361 76.8173 146.241C76.9612 146.183 77.1168 146.159 77.2717 146.172C77.4265 146.184 77.5761 146.234 77.7084 146.315C77.9808 146.463 78.0363 146.689 77.8285 146.814L77.8377 146.828Z" fill="#37474F"/>
<path d="M100.224 188.091L133.825 168.698C133.909 168.644 133.98 168.57 134.031 168.484C134.081 168.397 134.11 168.299 134.116 168.199V167.825C134.11 167.725 134.081 167.628 134.03 167.541C133.98 167.454 133.909 167.381 133.825 167.327L89.4289 141.686C89.3403 141.641 89.2422 141.617 89.1426 141.617C89.0431 141.617 88.945 141.641 88.8563 141.686L55.2511 161.079C55.1674 161.134 55.0978 161.207 55.048 161.294C54.9983 161.381 54.9698 161.478 54.9648 161.578V161.952C54.9708 162.051 54.9998 162.148 55.0495 162.235C55.0991 162.321 55.1682 162.395 55.2511 162.451L99.6471 188.082C99.7358 188.129 99.8343 188.154 99.9346 188.155C100.035 188.157 100.134 188.135 100.224 188.091Z" fill="#FAFAFA"/>
<path d="M133.898 167.375C133.981 167.463 133.958 167.578 133.829 167.652L100.224 187.045C100.136 187.092 100.037 187.116 99.9375 187.114V188.153C100.039 188.155 100.139 188.132 100.228 188.084L133.829 168.691C133.914 168.637 133.985 168.564 134.036 168.477C134.086 168.39 134.115 168.293 134.12 168.192V167.818C134.115 167.733 134.093 167.65 134.055 167.574C134.017 167.498 133.963 167.43 133.898 167.375Z" fill="#F0F0F0"/>
<path d="M55.1921 161.125L55.1136 161.204L55.0813 161.25C55.0491 161.298 55.0213 161.349 54.9982 161.402C54.9852 161.436 54.9759 161.472 54.9705 161.508C54.9682 161.533 54.9682 161.558 54.9705 161.582V161.952C54.9754 162.051 55.0039 162.149 55.0537 162.235C55.1034 162.322 55.173 162.396 55.2568 162.45L99.6528 188.086C99.7409 188.133 99.8393 188.156 99.9391 188.155V187.121C99.8378 187.123 99.7376 187.099 99.6482 187.052L55.2337 161.421C55.1182 161.342 55.0951 161.222 55.1921 161.125Z" fill="#E0E0E0"/>
<path d="M66.6426 156.444V157.164C66.6588 157.526 66.7916 157.873 67.0212 158.153L86.8205 146.729V146.009C86.2235 145.7 85.5627 145.534 84.8904 145.524H84.8627C84.4097 145.52 83.9611 145.613 83.5468 145.796C82.1108 146.447 81.6998 146.655 80.8133 147.025C80.5898 147.105 80.3501 147.129 80.115 147.095C79.88 147.061 79.6568 146.971 79.465 146.831L79.4373 146.808L78.8417 146.263L77.2394 144.776C77.1377 144.684 77.0174 144.615 76.8868 144.574C76.7562 144.533 76.6182 144.52 76.4822 144.536H76.4406C76.3137 144.538 76.1871 144.551 76.062 144.573C75.5175 144.66 74.9627 144.66 74.4182 144.573C73.7716 144.511 73.1539 144.275 72.6313 143.889C71.8572 143.238 70.8722 142.892 69.8609 142.915H69.7824C69.1407 142.913 68.5078 143.064 67.9354 143.354C66.975 143.857 66.5502 144.684 66.7395 145.492C66.6777 145.833 66.7089 146.185 66.83 146.51C66.9511 146.835 67.1575 147.121 67.4275 147.339C67.6703 147.56 67.8327 147.855 67.8893 148.179C67.8427 148.515 67.709 148.834 67.5014 149.102C67.3778 149.227 67.3011 149.39 67.2844 149.564C67.2844 149.735 67.2844 150.178 67.2844 150.284C67.2847 150.354 67.3007 150.422 67.331 150.485C67.3614 150.547 67.4054 150.602 67.4598 150.645L69.3068 152.344L69.8978 152.889L69.9625 152.958C69.9217 153.026 69.8754 153.091 69.8239 153.152L67.4321 155.022C67.2074 155.19 67.0208 155.403 66.8846 155.648C66.7485 155.893 66.666 156.165 66.6426 156.444ZM71.9295 145.584C71.798 145.908 71.549 146.17 71.2322 146.318C70.5824 146.63 69.8358 146.673 69.1544 146.438C68.8625 146.34 68.5939 146.183 68.3649 145.976C68.1935 145.826 68.0618 145.636 67.9816 145.422C68.1155 145.099 68.3637 144.836 68.6788 144.684C68.7677 144.636 68.8604 144.596 68.9559 144.564C69.3911 144.413 69.8577 144.376 70.3112 144.457C70.7646 144.538 71.1898 144.734 71.5462 145.025C71.7182 145.177 71.8499 145.369 71.9295 145.584Z" fill="#37474F"/>
<path d="M84.8904 145.524H84.8627C84.4097 145.52 83.961 145.613 83.5467 145.796C82.1107 146.447 81.6998 146.655 80.8133 147.025C80.5898 147.105 80.35 147.129 80.115 147.095C79.88 147.061 79.6568 146.971 79.465 146.831L79.4373 146.808L78.8416 146.263L77.2394 144.776C77.1376 144.684 77.0174 144.615 76.8868 144.574C76.7562 144.533 76.6182 144.52 76.4822 144.536H76.4406C76.3136 144.538 76.187 144.551 76.062 144.573C75.5175 144.66 74.9627 144.66 74.4182 144.573C73.7716 144.511 73.1539 144.275 72.6313 143.889C71.8572 143.238 70.8721 142.892 69.8609 142.915H69.7824C69.1407 142.913 68.5077 143.064 67.9354 143.354C66.5086 144.106 66.2778 145.566 67.4275 146.618C68.1524 147.283 67.94 148.558 67.4829 149.102C67.0258 149.647 67.446 149.943 67.446 149.943L69.2929 151.647L69.8839 152.187C70.3457 152.593 69.8101 153.17 69.8101 153.17L67.4183 155.04C66.384 155.964 66.4394 156.73 66.9796 157.465L86.7789 146.037C86.1967 145.724 85.5508 145.549 84.8904 145.524ZM71.5462 144.31C72.248 144.956 72.1141 145.856 71.2322 146.318C70.5824 146.63 69.8358 146.673 69.1544 146.438C68.8625 146.34 68.5938 146.183 68.3648 145.976C67.6584 145.33 67.7969 144.43 68.6788 143.968C68.7686 143.921 68.8611 143.879 68.9559 143.843C69.3915 143.693 69.8583 143.657 70.3118 143.739C70.7653 143.821 71.1902 144.017 71.5462 144.31Z" fill="#455A64"/>
<path opacity="0.1" d="M70.5349 167.026L81.044 173.089C81.1488 173.143 81.2652 173.172 81.3834 173.172C81.5015 173.172 81.618 173.143 81.7228 173.089L96.2259 164.717C96.4152 164.606 96.4152 164.431 96.2259 164.325L85.7075 158.258C85.6013 158.205 85.4844 158.178 85.3659 158.178C85.2473 158.178 85.1304 158.205 85.0242 158.258L70.521 166.629C70.4812 166.646 70.4474 166.674 70.4242 166.71C70.4009 166.747 70.3893 166.789 70.3908 166.832C70.3923 166.875 70.4068 166.917 70.4326 166.952C70.4583 166.986 70.494 167.012 70.5349 167.026Z" fill="#8771C5"/>
<path d="M81.3852 171.441L73.3926 166.828L73.9467 166.51L81.9347 171.127L81.3852 171.441Z" fill="#8771C5"/>
<path d="M81.8164 171.833L82.6152 171.371L82.8599 171.514L82.0611 171.976L81.8164 171.833Z" fill="#455A64"/>
<path d="M82.4341 170.838L76.0391 167.149L76.5931 166.83L82.9836 170.524L82.4341 170.838Z" fill="#8771C5"/>
<path d="M82.8613 171.229L83.6601 170.768L83.9049 170.911L83.106 171.372L82.8613 171.229Z" fill="#455A64"/>
<path d="M84.0324 169.919L77.0879 165.906L77.642 165.588L84.5819 169.6L84.0324 169.919Z" fill="#8771C5"/>
<path d="M84.4629 170.305L85.2617 169.844L85.5064 169.987L84.7076 170.449L84.4629 170.305Z" fill="#455A64"/>
<path d="M85.0819 169.31L79.3379 165.994L79.8874 165.676L85.6314 168.996L85.0819 169.31Z" fill="#8771C5"/>
<path d="M85.5078 169.702L86.3066 169.24L86.556 169.383L85.7525 169.84L85.5078 169.702Z" fill="#455A64"/>
<path d="M86.683 168.391L83.4785 166.539L84.028 166.221L87.2324 168.072L86.683 168.391Z" fill="#8771C5"/>
<path d="M87.1055 168.782L87.9043 168.32L88.149 168.459L87.3502 168.921L87.1055 168.782Z" fill="#455A64"/>
<path d="M87.7303 167.785L84.0918 165.684L84.6413 165.365L88.2798 167.466L87.7303 167.785Z" fill="#8771C5"/>
<path d="M88.1543 168.172L88.9531 167.715L89.1978 167.853L88.399 168.315L88.1543 168.172Z" fill="#455A64"/>
<path d="M89.3279 166.863L84.9414 164.332L85.4955 164.014L89.8774 166.544L89.3279 166.863Z" fill="#8771C5"/>
<path d="M89.7598 167.249L90.5586 166.787L90.8079 166.926L90.0045 167.387L89.7598 167.249Z" fill="#455A64"/>
<path d="M90.377 166.258L87.5234 164.61L88.0729 164.291L90.9264 165.939L90.377 166.258Z" fill="#8771C5"/>
<path d="M90.8145 166.643L91.6086 166.182L91.858 166.32L91.0592 166.782L90.8145 166.643Z" fill="#455A64"/>
<path d="M91.9733 165.332L90.7266 164.612L91.276 164.293L92.5227 165.013L91.9733 165.332Z" fill="#8771C5"/>
<path d="M81.3852 171.441L73.3926 166.828L73.9467 166.51L81.9347 171.127L81.3852 171.441Z" fill="#8771C5"/>
<path d="M84.0324 169.919L77.0879 165.906L77.642 165.588L84.5819 169.6L84.0324 169.919Z" fill="#8771C5"/>
<path d="M86.683 168.391L83.4785 166.539L84.028 166.221L87.2324 168.072L86.683 168.391Z" fill="#8771C5"/>
<path d="M89.3279 166.863L84.9414 164.332L85.4955 164.014L89.8774 166.544L89.3279 166.863Z" fill="#8771C5"/>
<path d="M91.9733 165.332L90.7266 164.612L91.276 164.293L92.5227 165.013L91.9733 165.332Z" fill="#8771C5"/>
<path d="M92.4062 165.72L93.2051 165.258L93.4544 165.396L92.651 165.858L92.4062 165.72Z" fill="#455A64"/>
<path d="M93.0191 164.728L92.4004 164.367L92.9499 164.049L93.5686 164.409L93.0191 164.728Z" fill="#8771C5"/>
<path d="M93.4551 165.111L94.2539 164.654L94.4986 164.793L93.6998 165.255L93.4551 165.111Z" fill="#455A64"/>
<path d="M81.1042 162.055L80.5039 162.401L81.1042 162.747L81.7044 162.401L81.1042 162.055Z" fill="#8771C5"/>
<path opacity="0.25" d="M81.1042 162.055L80.5039 162.401L81.1042 162.747L81.7044 162.401L81.1042 162.055Z" fill="black"/>
<path d="M85.8278 159.423L81.5521 161.898C81.4644 161.949 81.4644 162.028 81.5521 162.078L81.6676 162.143C81.7161 162.168 81.7699 162.181 81.8245 162.181C81.8792 162.181 81.933 162.168 81.9815 162.143L86.2665 159.673C86.2845 159.666 86.2999 159.653 86.3108 159.637C86.3216 159.621 86.3274 159.602 86.3274 159.583C86.3274 159.563 86.3216 159.544 86.3108 159.528C86.2999 159.512 86.2845 159.5 86.2665 159.493L86.151 159.423C86.1013 159.397 86.0458 159.383 85.9894 159.383C85.933 159.383 85.8775 159.397 85.8278 159.423Z" fill="#455A64"/>
<path d="M82.0996 162.631L81.5039 162.973L82.1042 163.319L82.6998 162.973L82.0996 162.631Z" fill="#8771C5"/>
<path d="M86.8264 159.999L82.5414 162.474C82.5234 162.481 82.508 162.494 82.4971 162.51C82.4863 162.526 82.4805 162.545 82.4805 162.564C82.4805 162.583 82.4863 162.602 82.4971 162.618C82.508 162.635 82.5234 162.647 82.5414 162.654L82.6615 162.719C82.71 162.744 82.7639 162.757 82.8185 162.757C82.8731 162.757 82.927 162.744 82.9755 162.719L87.2558 160.248C87.3435 160.198 87.3435 160.115 87.2558 160.068L87.1403 159.999C87.0918 159.974 87.038 159.961 86.9833 159.961C86.9287 159.961 86.8749 159.974 86.8264 159.999Z" fill="#455A64"/>
<path d="M81.3852 171.441L73.3926 166.828L73.9467 166.51L81.9347 171.127L81.3852 171.441Z" fill="#8771C5"/>
<path d="M84.0324 169.919L77.0879 165.906L77.642 165.588L84.5819 169.6L84.0324 169.919Z" fill="#8771C5"/>
<path d="M86.683 168.391L83.4785 166.539L84.028 166.221L87.2324 168.072L86.683 168.391Z" fill="#8771C5"/>
<path d="M89.3279 166.863L84.9414 164.332L85.4955 164.014L89.8774 166.544L89.3279 166.863Z" fill="#8771C5"/>
<path d="M81.3852 171.441L73.3926 166.828L73.9467 166.51L81.9347 171.127L81.3852 171.441Z" fill="#8771C5"/>
<path d="M84.0324 169.919L77.0879 165.906L77.642 165.588L84.5819 169.6L84.0324 169.919Z" fill="#8771C5"/>
<path d="M86.683 168.391L83.4785 166.539L84.028 166.221L87.2324 168.072L86.683 168.391Z" fill="#8771C5"/>
<path d="M89.3279 166.863L84.9414 164.332L85.4955 164.014L89.8774 166.544L89.3279 166.863Z" fill="#8771C5"/>
<path d="M91.9733 165.332L90.7266 164.612L91.276 164.293L92.5227 165.013L91.9733 165.332Z" fill="#8771C5"/>
<path opacity="0.25" d="M81.3852 171.441L73.3926 166.828L73.9467 166.51L81.9347 171.127L81.3852 171.441Z" fill="black"/>
<path opacity="0.25" d="M84.0324 169.919L77.0879 165.906L77.642 165.588L84.5819 169.6L84.0324 169.919Z" fill="black"/>
<path opacity="0.25" d="M86.683 168.391L83.4785 166.539L84.028 166.221L87.2324 168.072L86.683 168.391Z" fill="black"/>
<path opacity="0.25" d="M89.3279 166.863L84.9414 164.332L85.4955 164.014L89.8774 166.544L89.3279 166.863Z" fill="black"/>
<path opacity="0.25" d="M91.9733 165.332L90.7266 164.612L91.276 164.293L92.5227 165.013L91.9733 165.332Z" fill="black"/>
<path opacity="0.1" d="M85.3019 175.546L99.154 183.534C99.2936 183.604 99.4478 183.641 99.6042 183.641C99.7606 183.641 99.9148 183.604 100.054 183.534L114.336 175.287C114.39 175.268 114.436 175.232 114.469 175.186C114.502 175.139 114.52 175.083 114.52 175.026C114.52 174.969 114.502 174.913 114.469 174.867C114.436 174.82 114.39 174.785 114.336 174.765L100.484 166.777C100.345 166.707 100.192 166.67 100.036 166.67C99.8803 166.67 99.7268 166.707 99.588 166.777L85.3019 175.029C85.2476 175.047 85.2003 175.081 85.1668 175.128C85.1333 175.174 85.1152 175.23 85.1152 175.287C85.1152 175.344 85.1333 175.4 85.1668 175.447C85.2003 175.493 85.2476 175.528 85.3019 175.546Z" fill="#8771C5"/>
<path d="M87.7486 174.832L86.959 175.289L87.7486 175.746L88.5381 175.289L87.7486 174.832Z" fill="#8771C5"/>
<path d="M90.8593 173.266L88.2551 174.771C88.1858 174.808 88.1858 174.873 88.2551 174.914L88.4675 175.039C88.5065 175.057 88.5491 175.067 88.5921 175.067C88.6352 175.067 88.6778 175.057 88.7168 175.039L91.321 173.534C91.3903 173.492 91.3903 173.432 91.321 173.391L91.1086 173.266C91.0696 173.248 91.027 173.238 90.9839 173.238C90.9409 173.238 90.8983 173.248 90.8593 173.266Z" fill="#455A64"/>
<path d="M92.2193 172.25L91.4297 172.703L92.2193 173.16L93.0088 172.703L92.2193 172.25Z" fill="#8771C5"/>
<path opacity="0.25" d="M92.2193 172.25L91.4297 172.703L92.2193 173.16L93.0088 172.703L92.2193 172.25Z" fill="black"/>
<path d="M95.3768 170.689L92.7726 172.208C92.7034 172.25 92.7034 172.31 92.7726 172.351L92.9897 172.476C93.0279 172.494 93.0697 172.504 93.112 172.504C93.1543 172.504 93.1961 172.494 93.2344 172.476L95.8386 170.971C95.9078 170.934 95.9078 170.869 95.8386 170.828L95.6262 170.703C95.5882 170.683 95.5461 170.671 95.503 170.668C95.46 170.666 95.4169 170.673 95.3768 170.689Z" fill="#455A64"/>
<path d="M96.688 169.664L95.8984 170.121L96.6926 170.574L97.4776 170.121L96.688 169.664Z" fill="#8771C5"/>
<path opacity="0.4" d="M96.688 169.664L95.8984 170.121L96.6926 170.574L97.4776 170.121L96.688 169.664Z" fill="black"/>
<path d="M99.8971 168.117L97.2883 169.618C97.219 169.66 97.219 169.724 97.2883 169.761L97.5053 169.886C97.5435 169.904 97.5853 169.913 97.6277 169.913C97.67 169.913 97.7118 169.904 97.75 169.886L100.359 168.381C100.373 168.374 100.384 168.364 100.393 168.352C100.401 168.339 100.405 168.324 100.405 168.309C100.405 168.294 100.401 168.279 100.393 168.266C100.384 168.254 100.373 168.244 100.359 168.237L100.142 168.117C100.104 168.097 100.062 168.086 100.019 168.086C99.9767 168.086 99.9346 168.097 99.8971 168.117Z" fill="#455A64"/>
<path d="M104.896 172.975C104.83 172.938 104.76 172.908 104.688 172.882L104.508 172.804C104.03 172.62 103.535 172.481 103.031 172.388L102.541 172.301C102.211 172.253 101.878 172.223 101.544 172.213C101.373 172.213 101.202 172.213 101.036 172.213C100.87 172.213 100.768 172.213 100.63 172.213L100.297 172.236L99.8079 172.282L99.5262 172.328L99.3508 172.356L99.1014 172.407C98.8013 172.471 98.515 172.545 98.238 172.633L97.9425 172.739C97.8231 172.779 97.7059 172.825 97.5915 172.878C97.4773 172.923 97.3663 172.975 97.2591 173.035L96.9405 173.201C94.6318 174.545 94.6318 176.724 96.9405 178.068C99.2492 179.411 103.035 179.407 105.363 178.068C107.69 176.729 107.671 174.549 105.363 173.21C105.211 173.124 105.056 173.045 104.896 172.975ZM104.434 177.541C103.488 178.051 102.43 178.32 101.355 178.322C101.304 178.322 101.239 178.322 101.179 178.322H100.99H100.814C99.7788 178.306 98.7622 178.041 97.8501 177.551C96.0309 176.498 96.0309 174.78 97.8501 173.746C98.0576 173.63 98.2719 173.527 98.4919 173.436C98.6628 173.367 98.8429 173.307 99.0229 173.252L99.3 173.178L99.5308 173.127C99.6253 173.104 99.7208 173.085 99.8171 173.072L100.071 173.035H100.15L100.514 173.002H100.579C100.707 172.993 100.835 172.993 100.962 173.002C101.068 172.996 101.175 172.996 101.281 173.002C101.727 173.007 102.172 173.052 102.611 173.136C103.258 173.248 103.882 173.467 104.458 173.783C106.258 174.794 106.258 176.493 104.444 177.541H104.434Z" fill="#8771C5"/>
<path opacity="0.25" d="M103.034 172.387L102.623 173.093C102.185 173.009 101.74 172.964 101.294 172.959C101.188 172.952 101.081 172.952 100.975 172.959C100.847 172.95 100.719 172.95 100.592 172.959H100.527C100.407 172.959 100.282 172.959 100.162 172.992H100.084L99.8299 173.029C99.7336 173.042 99.6381 173.061 99.5437 173.084L99.3128 173.135L99.0357 173.209C98.8557 173.264 98.6756 173.324 98.5047 173.393C98.2835 173.481 98.069 173.584 97.8629 173.703L96.9395 173.172L97.258 173.005C97.3652 172.946 97.4763 172.893 97.5905 172.848C97.7049 172.796 97.822 172.75 97.9414 172.71L98.2369 172.604C98.514 172.516 98.8003 172.442 99.1004 172.378L99.3497 172.327L99.5252 172.299L99.8068 172.253L100.296 172.207L100.629 172.184C100.767 172.184 100.897 172.184 101.035 172.184C101.174 172.184 101.372 172.184 101.543 172.184C101.88 172.184 102.212 172.23 102.54 172.271L103.034 172.387Z" fill="black"/>
<path opacity="0.4" d="M105.362 173.215L104.439 173.742C103.863 173.425 103.239 173.207 102.592 173.095L103.003 172.389C103.507 172.481 104.002 172.62 104.48 172.804L104.66 172.883C104.732 172.908 104.801 172.939 104.868 172.975C105.037 173.046 105.202 173.126 105.362 173.215Z" fill="black"/>
<path d="M65.5196 163.057C65.6514 162.976 65.7946 162.915 65.9444 162.877C66.0947 162.835 66.2501 162.815 66.4061 162.817C66.5625 162.818 66.7178 162.842 66.8678 162.886C67.0295 162.938 67.1845 163.01 67.3296 163.098C67.4947 163.181 67.6385 163.301 67.7498 163.449C67.7851 163.498 67.8074 163.555 67.8146 163.615C67.8219 163.674 67.8139 163.735 67.7913 163.791L69.1765 164.137C69.1949 164.141 69.2123 164.149 69.2273 164.16C69.255 164.16 69.2689 164.188 69.2735 164.206C69.2781 164.225 69.2735 164.239 69.2504 164.253L68.8302 164.497C68.7912 164.52 68.7459 164.53 68.7009 164.525H68.5855L67.3527 164.211L67.0664 164.377L67.9529 164.89C67.9853 164.89 68.0037 164.927 68.0083 164.95C68.0105 164.961 68.0089 164.972 68.0039 164.982C67.9989 164.992 67.9907 165 67.9806 165.005L67.5743 165.241C67.544 165.248 67.5122 165.248 67.482 165.241C67.4446 165.238 67.4084 165.227 67.3758 165.208L64.6931 163.662C64.6699 163.646 64.6508 163.626 64.6377 163.601C64.6355 163.59 64.6371 163.579 64.6421 163.569C64.6471 163.559 64.6553 163.551 64.6654 163.546L65.5196 163.057ZM66.443 163.98L66.7986 163.777C66.8679 163.743 66.921 163.684 66.9463 163.611C66.9463 163.555 66.9048 163.491 66.7893 163.426C66.6934 163.363 66.5807 163.331 66.4661 163.334C66.3655 163.342 66.2677 163.372 66.1799 163.421L65.8289 163.625L66.443 163.98Z" fill="#455A64"/>
<path d="M70.7142 162.646C70.7445 162.639 70.7762 162.639 70.8065 162.646C70.8438 162.649 70.8801 162.66 70.9127 162.679L71.3514 162.933C71.3837 162.933 71.4022 162.97 71.4068 162.993C71.4089 163.004 71.4074 163.015 71.4023 163.025C71.3973 163.035 71.3892 163.043 71.3791 163.048L69.9015 163.898C69.8713 163.906 69.8394 163.906 69.8092 163.898C69.7733 163.895 69.7386 163.884 69.7076 163.865L67.0249 162.314C67.0115 162.309 66.9994 162.301 66.9898 162.291C66.9801 162.28 66.9732 162.268 66.9695 162.254C66.9676 162.244 66.9693 162.233 66.9744 162.224C66.9794 162.215 66.9875 162.207 66.9972 162.203L68.447 161.363C68.477 161.353 68.5094 161.353 68.5394 161.363C68.5767 161.366 68.6129 161.377 68.6456 161.395L69.0842 161.649C69.1094 161.662 69.1291 161.683 69.1396 161.709C69.1425 161.72 69.1413 161.731 69.1361 161.74C69.1309 161.75 69.1222 161.757 69.1119 161.76L68.1515 162.314L68.6133 162.573L69.5044 162.06C69.5344 162.05 69.5668 162.05 69.5968 162.06C69.6341 162.063 69.6703 162.074 69.703 162.092L70.1416 162.346C70.155 162.351 70.1671 162.359 70.1767 162.37C70.1864 162.38 70.1933 162.393 70.197 162.406C70.197 162.429 70.197 162.443 70.1693 162.457L69.2782 162.974L69.7399 163.242L70.7142 162.646Z" fill="#455A64"/>
<path d="M70.0465 160.442C70.1774 160.364 70.3189 160.305 70.4667 160.267C70.6174 160.228 70.7729 160.21 70.9284 160.216C71.0849 160.223 71.2399 160.25 71.3902 160.294C71.5596 160.344 71.7223 160.414 71.875 160.502C72.0096 160.578 72.1325 160.673 72.2398 160.784C72.3131 160.859 72.3587 160.956 72.3691 161.061C72.372 161.156 72.3409 161.249 72.2813 161.324C72.1988 161.422 72.0985 161.503 71.9858 161.564L71.5887 161.795L72.4337 162.284C72.466 162.284 72.4845 162.321 72.4891 162.344C72.492 162.355 72.4907 162.366 72.4855 162.375C72.4804 162.385 72.4717 162.392 72.4614 162.395L72.0551 162.635C72.0245 162.641 71.9933 162.641 71.9627 162.635C71.9256 162.632 71.8895 162.621 71.8565 162.603L69.1738 161.052C69.1615 161.046 69.1505 161.038 69.1417 161.027C69.133 161.017 69.1266 161.005 69.123 160.992C69.123 160.992 69.123 160.955 69.1461 160.941L70.0465 160.442ZM70.9469 161.421L71.3301 161.199C71.3656 161.184 71.397 161.16 71.4219 161.131C71.4467 161.101 71.4643 161.066 71.4733 161.028C71.4733 160.97 71.4179 160.905 71.3071 160.835C71.2054 160.773 71.0887 160.741 70.97 160.742C70.8662 160.741 70.7641 160.768 70.6745 160.821L70.2912 161.042L70.9469 161.421Z" fill="#455A64"/>
<path d="M72.379 160.345C72.2441 160.266 72.1226 160.167 72.0188 160.05C71.9389 159.962 71.8832 159.856 71.8572 159.74C71.8403 159.633 71.8616 159.524 71.9172 159.431C71.9948 159.308 72.1052 159.209 72.2358 159.145C72.389 159.056 72.556 158.994 72.7299 158.96C72.9081 158.928 73.0894 158.917 73.2701 158.928C73.4551 158.937 73.6381 158.97 73.815 159.025C73.9941 159.076 74.1674 159.145 74.3321 159.232L74.7107 159.445L75.0709 159.662C75.2049 159.742 75.3262 159.842 75.4311 159.957C75.5158 160.046 75.5748 160.156 75.6019 160.276C75.6188 160.383 75.5975 160.492 75.5419 160.585C75.4617 160.706 75.3521 160.805 75.2233 160.872C75.0694 160.959 74.9026 161.021 74.7292 161.056C74.5513 161.09 74.3697 161.101 74.189 161.089C74.004 161.079 73.821 161.047 73.6441 160.992C73.4657 160.938 73.2926 160.869 73.127 160.784L72.7576 160.576C72.6145 160.493 72.4944 160.419 72.379 160.345ZM74.466 159.971L74.3044 159.874L74.1197 159.763L73.935 159.657L73.7688 159.569C73.6963 159.532 73.6205 159.501 73.5426 159.477C73.4686 159.455 73.3929 159.44 73.3163 159.431C73.2427 159.422 73.1683 159.422 73.0947 159.431C73.0232 159.444 72.9545 159.469 72.8915 159.505C72.8371 159.532 72.7909 159.574 72.7576 159.625C72.7419 159.665 72.7419 159.709 72.7576 159.75C72.773 159.8 72.7999 159.846 72.8361 159.883C72.8835 159.932 72.9362 159.976 72.9931 160.013L73.1455 160.11L73.3302 160.216L73.5195 160.322L73.6903 160.414C73.8349 160.487 73.9912 160.534 74.152 160.553C74.2994 160.569 74.4481 160.539 74.5768 160.465C74.7061 160.391 74.7569 160.308 74.7292 160.221C74.669 160.112 74.5772 160.025 74.466 159.971Z" fill="#455A64"/>
<path d="M74.6861 157.764C74.8179 157.683 74.9611 157.622 75.1109 157.584C75.2612 157.542 75.4167 157.522 75.5727 157.524C75.729 157.525 75.8844 157.549 76.0344 157.593C76.1957 157.646 76.3506 157.717 76.4961 157.805C76.6613 157.888 76.805 158.008 76.9163 158.156C76.9516 158.205 76.9739 158.262 76.9812 158.322C76.9885 158.381 76.9804 158.442 76.9579 158.498L78.3431 158.844C78.3629 158.848 78.3817 158.856 78.3985 158.867C78.4262 158.867 78.44 158.895 78.4447 158.913C78.4493 158.932 78.4447 158.946 78.4216 158.96L78.0014 159.204C77.9621 159.226 77.917 159.236 77.8721 159.232H77.7567L76.5192 158.918L76.2329 159.084L77.1241 159.597C77.1493 159.609 77.169 159.631 77.1795 159.657C77.1816 159.668 77.1801 159.679 77.1751 159.689C77.1701 159.699 77.1619 159.707 77.1518 159.712L76.7455 159.948C76.7155 159.958 76.6831 159.958 76.6531 159.948C76.6158 159.945 76.5796 159.934 76.5469 159.915L73.8688 158.355C73.8365 158.355 73.8181 158.318 73.8134 158.295C73.8113 158.284 73.8128 158.272 73.8179 158.262C73.8229 158.252 73.8311 158.244 73.8411 158.239L74.6861 157.764ZM75.6096 158.687L75.9605 158.484C76.0307 158.452 76.0855 158.394 76.1129 158.322C76.1129 158.262 76.0713 158.198 75.9559 158.133C75.8597 158.071 75.7472 158.039 75.6327 158.041C75.532 158.049 75.4343 158.079 75.3464 158.128L74.9955 158.332L75.6096 158.687Z" fill="#455A64"/>
<path d="M77.6594 156.047C77.6897 156.039 77.7215 156.039 77.7517 156.047C77.7891 156.05 77.8253 156.061 77.8579 156.079L78.2966 156.333C78.3289 156.333 78.3474 156.37 78.352 156.393C78.3541 156.404 78.3526 156.416 78.3476 156.426C78.3426 156.436 78.3344 156.444 78.3243 156.449L77.7748 156.763L79.908 157.995C79.9204 158.001 79.9314 158.009 79.9401 158.02C79.9489 158.03 79.9553 158.042 79.9588 158.055C79.9588 158.055 79.9588 158.092 79.9358 158.106L79.5248 158.342C79.4949 158.352 79.4623 158.352 79.4325 158.342C79.3967 158.342 79.3616 158.332 79.3309 158.314L77.1977 157.081L76.6528 157.4C76.6228 157.41 76.5904 157.41 76.5605 157.4C76.5231 157.397 76.4869 157.386 76.4543 157.367L75.9925 157.113C75.9602 157.113 75.9417 157.077 75.9371 157.053C75.9325 157.03 75.9371 157.017 75.9648 157.003L77.6594 156.047Z" fill="#455A64"/>
<path d="M81.9849 156.348L95.5046 148.545L92.6095 146.873L79.0898 154.676L81.9849 156.348Z" fill="#8771C5"/>
<g opacity="0.3">
<path d="M88.7439 157.7C88.7136 157.707 88.682 157.709 88.651 157.705C88.6199 157.701 88.5901 157.69 88.5631 157.674C88.536 157.659 88.5124 157.638 88.4935 157.613C88.4747 157.588 88.4609 157.559 88.453 157.529C88.4451 157.498 88.4433 157.467 88.4476 157.436C88.4519 157.405 88.4623 157.375 88.4782 157.348C88.494 157.321 88.5151 157.297 88.54 157.278C88.565 157.26 88.5935 157.246 88.6238 157.238L99.8163 150.774C99.8433 150.758 99.8731 150.748 99.9039 150.744C99.9348 150.74 99.9661 150.742 99.9961 150.75C100.026 150.759 100.054 150.773 100.079 150.792C100.103 150.811 100.124 150.834 100.14 150.861C100.155 150.888 100.165 150.918 100.169 150.949C100.173 150.98 100.171 151.011 100.163 151.041C100.154 151.071 100.141 151.099 100.121 151.124C100.102 151.148 100.079 151.169 100.052 151.184L88.8639 157.649C88.8287 157.675 88.7875 157.693 88.7439 157.7Z" fill="#455A64"/>
<path d="M90.6746 158.818C90.6134 158.833 90.5486 158.823 90.4945 158.791C90.4403 158.758 90.4013 158.706 90.386 158.645C90.3707 158.583 90.3803 158.518 90.4128 158.464C90.4453 158.41 90.4979 158.371 90.5592 158.356L101.747 151.892C101.801 151.869 101.861 151.867 101.916 151.885C101.971 151.904 102.018 151.942 102.047 151.992C102.076 152.042 102.086 152.101 102.075 152.158C102.064 152.216 102.033 152.267 101.987 152.303L90.7947 158.767C90.7606 158.795 90.7188 158.813 90.6746 158.818Z" fill="#455A64"/>
<path d="M92.6311 159.935C92.5727 159.943 92.5134 159.93 92.4643 159.897C92.4153 159.864 92.38 159.814 92.3651 159.757C92.3503 159.7 92.357 159.64 92.3839 159.587C92.4108 159.535 92.4561 159.494 92.5111 159.473L103.699 153.009C103.754 152.977 103.82 152.968 103.881 152.985C103.942 153.001 103.995 153.041 104.027 153.096C104.057 153.151 104.065 153.215 104.049 153.276C104.032 153.336 103.993 153.388 103.939 153.42L92.7465 159.884C92.7126 159.91 92.673 159.927 92.6311 159.935Z" fill="#455A64"/>
<path d="M94.5388 161.047C94.4776 161.063 94.4125 161.054 94.358 161.022C94.3034 160.99 94.2638 160.938 94.2479 160.876C94.232 160.815 94.241 160.75 94.2731 160.696C94.3051 160.641 94.3575 160.601 94.4188 160.586L105.611 154.121C105.638 154.106 105.668 154.096 105.699 154.092C105.73 154.088 105.761 154.09 105.791 154.098C105.821 154.106 105.849 154.12 105.874 154.139C105.898 154.158 105.919 154.182 105.934 154.209C105.95 154.236 105.96 154.266 105.964 154.297C105.968 154.327 105.966 154.359 105.958 154.389C105.949 154.419 105.935 154.447 105.916 154.471C105.897 154.496 105.874 154.517 105.847 154.532L94.6589 160.996C94.6244 161.024 94.5828 161.042 94.5388 161.047Z" fill="#455A64"/>
<path d="M96.4668 162.166C96.4249 162.165 96.3838 162.154 96.3475 162.133C96.3112 162.112 96.2808 162.082 96.259 162.046C96.2284 161.991 96.2205 161.926 96.2368 161.865C96.2532 161.803 96.2926 161.751 96.3468 161.718L107.539 155.254C107.566 155.239 107.596 155.229 107.627 155.225C107.658 155.221 107.689 155.223 107.719 155.231C107.749 155.239 107.777 155.253 107.802 155.272C107.826 155.291 107.847 155.315 107.862 155.342C107.878 155.369 107.888 155.398 107.892 155.429C107.896 155.46 107.894 155.491 107.886 155.522C107.877 155.552 107.863 155.58 107.844 155.604C107.825 155.629 107.802 155.649 107.775 155.665L96.5869 162.129C96.5503 162.151 96.5092 162.163 96.4668 162.166Z" fill="#455A64"/>
</g>
<g opacity="0.3">
<path d="M104.204 166.621C104.163 166.62 104.121 166.608 104.085 166.587C104.049 166.566 104.018 166.536 103.997 166.501C103.981 166.474 103.971 166.444 103.967 166.413C103.963 166.382 103.965 166.351 103.973 166.321C103.981 166.291 103.995 166.262 104.014 166.238C104.033 166.213 104.057 166.193 104.084 166.177L115.277 159.713C115.331 159.682 115.396 159.673 115.457 159.69C115.517 159.706 115.569 159.746 115.6 159.801C115.631 159.855 115.64 159.92 115.623 159.98C115.607 160.041 115.567 160.093 115.512 160.124L104.32 166.588C104.285 166.608 104.245 166.619 104.204 166.621Z" fill="#455A64"/>
<path d="M106.135 167.733C106.104 167.741 106.073 167.743 106.042 167.738C106.011 167.734 105.981 167.723 105.954 167.708C105.927 167.692 105.903 167.671 105.884 167.646C105.865 167.621 105.851 167.592 105.844 167.562C105.836 167.532 105.834 167.5 105.838 167.469C105.843 167.438 105.853 167.408 105.869 167.381C105.885 167.354 105.906 167.33 105.931 167.312C105.956 167.293 105.984 167.279 106.014 167.271L117.207 160.807C117.234 160.791 117.264 160.781 117.295 160.777C117.325 160.773 117.357 160.776 117.387 160.784C117.417 160.792 117.445 160.806 117.469 160.825C117.494 160.844 117.515 160.867 117.53 160.894C117.546 160.921 117.556 160.951 117.56 160.982C117.564 161.013 117.561 161.044 117.553 161.074C117.545 161.104 117.531 161.132 117.512 161.157C117.493 161.182 117.469 161.202 117.442 161.218L106.255 167.682C106.221 167.711 106.179 167.728 106.135 167.733Z" fill="#455A64"/>
<path d="M108.063 168.852C108.022 168.851 107.981 168.84 107.946 168.819C107.91 168.798 107.88 168.768 107.86 168.732C107.844 168.705 107.833 168.675 107.828 168.644C107.824 168.613 107.826 168.582 107.834 168.551C107.842 168.521 107.857 168.493 107.876 168.468C107.896 168.444 107.92 168.424 107.948 168.409L119.135 161.944C119.189 161.922 119.249 161.92 119.304 161.938C119.359 161.957 119.406 161.995 119.435 162.045C119.465 162.095 119.475 162.154 119.464 162.211C119.453 162.268 119.421 162.32 119.376 162.355L108.183 168.82C108.146 168.839 108.105 168.851 108.063 168.852Z" fill="#455A64"/>
<path d="M109.999 169.964C109.957 169.965 109.915 169.954 109.879 169.933C109.842 169.912 109.812 169.881 109.792 169.844C109.776 169.817 109.766 169.787 109.762 169.757C109.758 169.726 109.76 169.694 109.768 169.664C109.776 169.634 109.79 169.606 109.809 169.581C109.828 169.557 109.852 169.536 109.879 169.521L121.067 163.057C121.094 163.036 121.125 163.021 121.159 163.013C121.192 163.005 121.227 163.004 121.26 163.01C121.294 163.017 121.326 163.03 121.354 163.05C121.381 163.07 121.405 163.095 121.422 163.125C121.439 163.154 121.45 163.187 121.454 163.221C121.457 163.255 121.453 163.29 121.442 163.322C121.432 163.355 121.414 163.384 121.391 163.409C121.367 163.435 121.339 163.454 121.307 163.468L110.115 169.932C110.08 169.953 110.04 169.964 109.999 169.964Z" fill="#455A64"/>
<path d="M111.929 171.082C111.887 171.081 111.846 171.07 111.81 171.049C111.773 171.028 111.743 170.998 111.721 170.962C111.706 170.935 111.696 170.906 111.691 170.875C111.687 170.844 111.69 170.812 111.698 170.782C111.706 170.752 111.72 170.724 111.739 170.7C111.758 170.675 111.782 170.654 111.809 170.639L122.997 164.175C123.052 164.143 123.118 164.134 123.179 164.151C123.24 164.167 123.293 164.207 123.325 164.262C123.34 164.289 123.351 164.319 123.355 164.35C123.359 164.381 123.357 164.412 123.348 164.442C123.34 164.472 123.326 164.501 123.307 164.525C123.288 164.55 123.264 164.57 123.237 164.586L112.049 171.05C112.012 171.069 111.971 171.08 111.929 171.082Z" fill="#455A64"/>
<path d="M113.872 172.209C113.831 172.209 113.791 172.199 113.755 172.179C113.719 172.158 113.69 172.129 113.669 172.094C113.637 172.039 113.628 171.973 113.645 171.912C113.661 171.85 113.702 171.798 113.757 171.766L124.944 165.302C124.998 165.279 125.058 165.277 125.113 165.296C125.168 165.314 125.215 165.352 125.244 165.402C125.274 165.452 125.284 165.512 125.273 165.569C125.262 165.626 125.23 165.677 125.185 165.713L113.992 172.177C113.955 172.197 113.914 172.208 113.872 172.209Z" fill="#455A64"/>
</g>
<path d="M169.524 70.8848L158.281 74.8003L157.967 75.3128L168.661 92.2632L179.308 87.4612L179.627 86.9486L169.524 70.8848Z" fill="#37474F"/>
<path d="M169.847 70.3711L158.285 74.7992L168.984 91.7496L179.631 86.9475L169.847 70.3711Z" fill="#455A64"/>
<path d="M169.936 72.0664L160.115 76.1343L169.013 89.9911L178.072 85.6092L169.936 72.0664Z" fill="#F0F0F0"/>
<path opacity="0.15" d="M167.779 73.5346L167.229 72.9343C166.924 72.5926 166.033 72.5603 165.234 72.8558L163.706 73.396C162.912 73.6962 162.51 74.2133 162.815 74.5504L163.364 75.1645L167.779 73.5346Z" fill="black"/>
<path d="M166.281 71.226C166.156 71.118 166.003 71.0474 165.839 71.022C165.676 70.9967 165.509 71.0178 165.357 71.0829L164.771 71.3229C164.771 71.3229 163.579 69.9931 162.153 70.3995C160.726 70.8058 161.954 72.3295 161.954 72.3295L161.335 72.5974C160.994 72.7451 160.874 73.0314 161.026 73.2438L161.335 73.627L166.636 71.6L166.281 71.226Z" fill="#8771C5"/>
<path opacity="0.15" d="M166.281 71.226C166.156 71.118 166.003 71.0474 165.839 71.022C165.676 70.9967 165.509 71.0178 165.357 71.0829L164.771 71.3229C164.771 71.3229 163.579 69.9931 162.153 70.3995C160.726 70.8058 161.954 72.3295 161.954 72.3295L161.335 72.5974C160.994 72.7451 160.874 73.0314 161.026 73.2438L161.335 73.627L166.636 71.6L166.281 71.226Z" fill="black"/>
<path d="M165.991 71.8619C165.488 72.0328 165.262 72.1297 165.728 72.6561C166.194 73.1825 166.693 73.695 166.693 73.695L164.347 74.5954C164.347 74.5954 163.687 73.8382 163.424 73.5426C163.323 73.391 163.176 73.2762 163.005 73.2154C162.833 73.1547 162.646 73.1512 162.473 73.2056L162.168 72.9701L165.903 71.6172L165.991 71.8619Z" fill="#8771C5"/>
<path opacity="0.4" d="M165.991 71.8619C165.488 72.0328 165.262 72.1297 165.728 72.6561C166.194 73.1825 166.693 73.695 166.693 73.695L164.347 74.5954C164.347 74.5954 163.687 73.8382 163.424 73.5426C163.323 73.391 163.176 73.2762 163.005 73.2154C162.833 73.1547 162.646 73.1512 162.473 73.2056L162.168 72.9701L165.903 71.6172L165.991 71.8619Z" fill="black"/>
<path d="M167.939 73.5953L167.389 72.9812C167.085 72.6395 166.193 72.6072 165.395 72.9027L163.866 73.4706C163.072 73.7707 162.67 74.2879 162.975 74.625L163.52 75.2391L167.939 73.5953Z" fill="#8771C5"/>
<path opacity="0.15" d="M167.939 73.5953L167.389 72.9812C167.085 72.6395 166.193 72.6072 165.395 72.9027L163.866 73.4706C163.072 73.7707 162.67 74.2879 162.975 74.625L163.52 75.2391L167.939 73.5953Z" fill="black"/>
<path d="M175.097 79.0806C175.097 79.0806 175.254 77.1459 174.635 76.5364C174.016 75.9269 171.661 76.2502 170.479 75.8438C169.186 75.4098 169.496 76.8181 170.147 77.229C171.523 78.0602 174.205 78.268 175.097 79.0806Z" fill="#B16668"/>
<path d="M196.062 137.055C196.404 137.184 196.598 137.826 196.75 139.391C196.842 140.361 197.175 141.644 195.693 142.429C195.151 142.708 194.55 142.851 193.94 142.844C193.331 142.838 192.733 142.683 192.197 142.392C190.918 141.598 190.517 139.784 189.016 138.606C187.7 137.576 185.581 136.542 184.86 134.949C184.251 133.633 184.251 131.754 186.435 131.856C189.099 131.98 190.59 134.076 192.41 134.118C193.398 134.141 195.72 136.93 196.062 137.055Z" fill="#263238"/>
<path d="M196.064 136.285V137.864C196.064 138.635 192.781 139.789 191.862 138.025C191.793 137.873 191.438 135.717 191.438 135.717L196.064 136.285Z" fill="#B16668"/>
<path d="M181.997 145.608C181.997 145.608 182.575 145.608 182.806 147.967C182.893 148.867 183.106 150.714 182.806 151.384C182.505 152.053 180.825 152.354 178.978 152.515C177.593 152.64 176.327 153.314 175.034 154.044C173.812 154.731 172.439 155.109 171.036 155.143H170.948C169.746 155.18 168.549 154.973 167.43 154.533C166.552 154.164 165.583 153.573 165.301 152.594C165.261 152.464 165.245 152.328 165.255 152.192C165.295 151.956 165.422 151.743 165.61 151.596C165.799 151.451 166.005 151.332 166.225 151.241C167.49 150.641 168.769 150.063 170.015 149.431C171.262 148.798 172.435 148.184 173.598 147.478C174.176 147.122 174.739 146.748 175.284 146.342C175.519 146.166 175.778 145.995 176.009 145.815C176.133 145.718 176.369 145.294 176.544 145.303L181.997 145.608Z" fill="#263238"/>
<path d="M181.853 143.857C181.853 143.857 181.853 145.044 181.853 145.704C181.853 146.365 181.059 147.394 178.972 147.334C177.504 147.288 176.474 146.9 176.529 145.704V143.977L181.853 143.857Z" fill="#B16668"/>
<path d="M196.988 116.924C196.649 114.333 196.056 111.781 195.219 109.305C195.219 109.305 195.709 102.721 195.926 96.4781C196.117 90.0828 195.939 83.6817 195.395 77.3067C195.395 77.3067 174.187 75.2982 173.836 83.0877C173.485 90.8772 173.901 110.196 173.901 113.946C173.901 117.376 174.321 120.789 174.944 127.165C175.54 133.279 176.459 144.527 176.459 144.527C178.952 145.856 182 144.383 182 144.383C182 144.383 183.722 128.841 184.161 124.912C184.467 122.093 184.179 119.241 183.316 116.541C183.316 116.541 183.565 113.549 184.35 106.927C184.904 102.25 185.366 96.6674 185.366 96.6674C185.366 96.6674 185.786 104.258 186.225 107.934C186.635 111.341 187.125 112.704 188.432 119.385C189.701 125.849 191.17 136.608 191.17 136.608C193.663 137.938 196.124 136.363 196.124 136.363C196.124 136.363 197.662 121.703 196.988 116.924Z" fill="#37474F"/>
<path d="M185.352 96.6689L186.363 90.1584C186.363 90.1584 190.491 88.8471 192.592 86.3906C192.592 86.3906 191.47 89.2534 187.623 90.791L186.081 96.2718L185.656 101.351L185.352 96.6689Z" fill="#263238"/>
<path d="M191.006 51.1815C194.316 50.3827 196.404 51.9849 197.627 56.4822C198.671 60.3377 200.204 68.3166 200.799 71.2994C201.021 72.403 201.455 73.6681 199.132 75.0626C195.765 77.0106 192.291 78.7665 188.725 80.3218L187.455 75.5659L192.585 65.0659L191.006 51.1815Z" fill="#37474F"/>
<path d="M181.875 49.0862L182.863 56.0446L189.725 55.6937L189.124 47.5625L181.875 49.0862Z" fill="#B16668"/>
<path d="M177.375 40.498C177.375 40.498 175.699 42.9591 175.879 43.2084C176.059 43.4578 177.264 43.6702 177.264 43.6702L177.375 40.498Z" fill="#9A4A4D"/>
<path d="M177.931 42.1025C177.526 42.096 177.133 41.9698 176.8 41.7397C176.467 41.5096 176.21 41.1861 176.062 40.8099C175.913 40.4338 175.879 40.0219 175.964 39.6265C176.049 39.231 176.25 38.8697 176.54 38.5882C176.831 38.3067 177.198 38.1176 177.596 38.045C177.994 37.9723 178.405 38.0193 178.776 38.18C179.147 38.3407 179.462 38.6078 179.682 38.9477C179.901 39.2875 180.015 39.6848 180.009 40.0893C179.999 40.6314 179.775 41.1476 179.385 41.5249C178.996 41.9022 178.473 42.1099 177.931 42.1025ZM177.986 38.4686C177.672 38.464 177.364 38.5528 177.1 38.7235C176.836 38.8942 176.629 39.1393 176.505 39.4278C176.38 39.7162 176.344 40.0351 176.401 40.344C176.458 40.653 176.605 40.9382 176.824 41.1635C177.043 41.3888 177.324 41.5442 177.631 41.61C177.938 41.6757 178.258 41.6489 178.55 41.533C178.842 41.417 179.093 41.2171 179.271 40.9585C179.449 40.6998 179.547 40.3942 179.552 40.08C179.557 39.6591 179.395 39.2534 179.101 38.9514C178.808 38.6495 178.407 38.4759 177.986 38.4686Z" fill="#263238"/>
<path d="M182.045 33.6879C178.711 34.3343 177.732 35.7796 177.335 41.048C176.919 46.5519 177.455 48.2926 178.166 49.0453C178.628 49.5532 181.361 49.6871 182.737 49.3316C184.46 48.8698 188.357 47.577 190.217 44.8342C192.402 41.6021 193.034 37.1925 190.776 35.3455C187.599 32.7367 183.398 33.4201 182.045 33.6879Z" fill="#B16668"/>
<path d="M181.925 49.4684C180.493 49.6254 178.568 49.4684 178.166 49.039C179.387 49.0312 180.596 48.7948 181.731 48.3418L181.925 49.4684Z" fill="#9A4A4D"/>
<path d="M176.712 35.3398C176.712 35.4091 176.712 35.4783 176.735 35.543C176.794 35.7946 176.907 36.0302 177.067 36.2336C177.226 36.4369 177.428 36.6031 177.658 36.7204C177.997 36.9037 178.373 37.0093 178.757 37.0298C178.896 37.0298 179.87 37.0806 179.907 36.9697C179.724 37.3075 179.602 37.6748 179.547 38.0548C179.543 38.2464 179.589 38.4358 179.68 38.6042C179.772 38.7726 179.906 38.9142 180.069 39.0152C180.275 39.0904 180.475 39.1847 180.664 39.2969C180.974 39.5509 180.854 40.1326 180.987 40.4697C181.029 40.5805 181.791 41.5917 181.828 41.4578C181.828 41.4578 182.41 39.3338 184.201 39.6109C185.993 39.8879 186.214 42.2197 185.055 43.6003C183.896 44.9809 182.839 44.4314 182.839 44.4314C182.839 44.4314 182.839 47.4743 184.169 49.2243C184.169 49.2243 185.697 49.746 188.532 49.1873C190.273 48.8456 192.762 46.7124 193.828 44.4314C196.091 39.6016 196.313 35.2336 193.228 33.8715C192.803 30.6947 189.35 29.7574 186.634 29.6743C184.875 29.6235 183.102 29.7989 181.352 29.5773C180.521 29.4567 179.696 29.2918 178.882 29.0833C178.378 28.9254 177.847 28.8689 177.321 28.917C176.803 29.0377 176.338 29.3228 175.995 29.7298C175.652 30.1367 175.45 30.6437 175.419 31.1749C175.379 31.729 175.477 32.2844 175.705 32.791C175.948 33.3099 176.334 33.7488 176.818 34.0562C176.847 34.0718 176.872 34.0959 176.887 34.1254C176.896 34.1602 176.896 34.1968 176.887 34.2316C176.773 34.5899 176.713 34.9636 176.712 35.3398Z" fill="#263238"/>
<path d="M192.982 34.2654L194.986 33.1249C194.915 32.9852 194.817 32.8612 194.697 32.7606C194.578 32.6599 194.439 32.5847 194.289 32.5395C194.139 32.4943 193.982 32.48 193.826 32.4975C193.67 32.515 193.52 32.5639 193.384 32.6413C193.248 32.7187 193.129 32.823 193.035 32.9477C192.94 33.0725 192.872 33.2152 192.835 33.3671C192.797 33.519 192.791 33.6769 192.816 33.8314C192.841 33.9858 192.898 34.1335 192.982 34.2654Z" fill="#263238"/>
<path d="M181.777 42.6496L181.874 40.3409C181.568 40.328 181.269 40.4373 181.043 40.6447C180.818 40.8521 180.684 41.1406 180.671 41.4467C180.658 41.7529 180.767 42.0516 180.975 42.2772C181.182 42.5027 181.471 42.6367 181.777 42.6496Z" fill="#263238"/>
<path d="M176.115 39.6016L182.274 40.4973L182.02 40.9267L176.105 40.0679L176.115 39.6016Z" fill="#263238"/>
<path d="M196.037 54.8379C195.308 51.9798 194.278 51.0471 191.789 50.9824C190.506 51.0689 189.23 51.2324 187.966 51.4719C187.708 52.677 184.586 53.4989 181.428 52.8571C180.504 53.1295 178.006 53.8036 177.226 54.0899C174.991 54.898 173.911 57.2205 173.763 64.5806C173.763 64.5806 173.334 82.0435 173.763 85.0587C179.396 87.2566 185.242 87.155 188.469 86.4439C195.188 84.9386 195.982 82.1451 195.982 82.1451C195.982 82.1451 195.631 75.1359 195.405 69.8075C195.737 66.4137 196.245 63.8603 196.43 61.1545C196.595 59.041 196.463 56.9148 196.037 54.8379Z" fill="#455A64"/>
<path d="M151.634 60.167C151.837 60.3102 153.338 61.5523 153.994 62.1525C153.994 62.1525 155.305 56.4639 155.305 56.4593C155.305 56.4547 154.7 55.896 154.645 55.8313C154.43 55.6003 154.231 55.355 154.049 55.0972C153.668 54.4727 153.342 53.8161 153.075 53.1348C152.748 52.394 152.335 51.6949 151.842 51.0523C151.362 50.3997 150.88 49.7502 150.397 49.1038C150.318 48.9679 150.198 48.8598 150.055 48.7944C149.932 48.7644 149.801 48.7801 149.688 48.8387C149.576 48.8972 149.488 48.9947 149.441 49.113C149.353 49.354 149.334 49.6145 149.386 49.8657C149.458 50.3704 149.585 50.8658 149.764 51.3432C149.87 51.6249 150.18 52.3221 149.538 52.2667C149.336 52.22 149.154 52.1119 149.016 51.9573C148.237 51.2297 147.509 50.449 146.837 49.6209C146.627 49.3327 146.378 49.0748 146.098 48.8545C145.955 48.7478 145.789 48.676 145.614 48.6447C145.438 48.6134 145.258 48.6236 145.087 48.6744C144.887 48.7847 144.712 48.9352 144.573 49.1164C144.434 49.2975 144.334 49.5055 144.279 49.7271C144.035 50.2521 143.879 50.8137 143.817 51.3894C143.81 51.7574 143.857 52.1246 143.956 52.4791C144.348 53.8835 145.09 55.1655 146.112 56.2053C146.908 57.1017 147.829 57.8792 148.845 58.514C149.072 58.6525 149.496 58.8926 149.917 59.1558C150.54 59.5114 150.919 59.673 151.634 60.167Z" fill="#B16668"/>
<path d="M164.427 63.1088L154.333 55.721L152.361 60.6432C152.361 60.6432 159.117 67.0613 162.39 69.8502C163.775 71.0738 165.304 70.8014 166.795 70.0718C169.362 68.8159 175.915 63.7368 175.915 63.7368C175.915 63.7368 179.415 57.6419 177.226 54.0957C176.075 54.3185 174.999 54.8266 174.095 55.5733C172.53 56.8892 164.62 63.0857 164.62 63.0857" fill="#B16668"/>
<path d="M177.652 53.9401C176.563 53.888 175.481 54.1492 174.535 54.6927C173.386 55.3438 164.617 62.884 164.617 62.884L157.52 57.8603C155.558 58.3497 154.237 60.9216 154.053 62.6808C154.053 62.6808 157.853 66.1993 160.111 68.4849C163.805 72.2111 164.65 71.7447 166.69 70.6827C168.731 69.6207 176.207 64.163 176.207 64.163C176.207 64.163 178.492 62.4638 178.927 60.543C180.122 55.2422 177.652 53.9401 177.652 53.9401Z" fill="#37474F"/>
<path opacity="0.1" d="M164.616 62.8822C163.717 63.5922 163.054 64.5581 162.714 65.6526C162.678 65.0587 162.778 64.4644 163.006 63.9148C163.234 63.3652 163.584 62.8747 164.03 62.4805L164.616 62.8822Z" fill="black"/>
<path d="M157.522 57.8596L155.749 56.5898C154.834 57.0892 154.044 57.7903 153.44 58.64C152.868 59.3691 152.492 60.232 152.346 61.1472L154.04 62.6802C154.762 60.7982 155.962 59.1368 157.522 57.8596Z" fill="#263238"/>
<path d="M153.123 61.1092C153.145 61.1696 153.185 61.222 153.238 61.2597C153.29 61.2975 153.352 61.3189 153.417 61.3214C153.481 61.3239 153.545 61.3074 153.6 61.2738C153.655 61.2402 153.699 61.1911 153.726 61.1327C153.754 61.0742 153.763 61.009 153.754 60.9452C153.744 60.8814 153.716 60.8218 153.673 60.774C153.629 60.7261 153.573 60.6921 153.51 60.6762C153.448 60.6602 153.382 60.6631 153.321 60.6844C153.28 60.6989 153.242 60.7214 153.21 60.7507C153.177 60.78 153.151 60.8155 153.132 60.855C153.114 60.8946 153.104 60.9375 153.102 60.9811C153.1 61.0248 153.107 61.0683 153.123 61.1092Z" fill="#8771C5"/>
<path d="M189.27 49.529L189.316 50.1985C188.548 50.9641 187.557 51.4668 186.485 51.6345C183.295 52.2256 182.177 51.2328 182.177 51.2328L182.094 50.6603C182.094 50.6603 181.789 50.5356 181.272 50.9327C180.483 51.7491 179.745 52.6126 179.061 53.5184C179.061 53.5184 179.67 53.343 181.665 54.1926C183.656 54.9666 185.85 55.0479 187.894 54.4234C189.491 53.8925 190.692 52.3179 190.775 51.7361C190.858 51.1543 189.819 49.2889 189.27 49.529Z" fill="#263238"/>
</svg>
