<svg width="24" height="24" viewBox="0 0 24 24" fill="none" xmlns="http://www.w3.org/2000/svg">
<path d="M2.56332 16.4794L1.57532 19.8343L1.04266 21.6471C0.935267 22.0122 1.03407 22.4031 1.3004 22.6695C1.56673 22.9358 1.95763 23.0346 2.31847 22.9315L4.13553 22.3945L7.49044 21.4065C8.02311 21.2519 8.50852 20.9813 8.92519 20.6161C8.98533 20.5646 9.04118 20.5087 9.09702 20.4529L22.1644 7.38979C23.1052 6.44904 23.2211 5.00141 22.5167 3.93179C22.4179 3.78144 22.2976 3.63539 22.1644 3.50222L20.4719 1.80544C19.398 0.731521 17.6583 0.731521 16.5844 1.80544L3.51696 14.8728C3.07021 15.3196 2.74374 15.8737 2.56332 16.4794ZM4.53933 17.0593C4.61235 16.8188 4.73263 16.5954 4.90016 16.4064C4.92594 16.3806 4.94741 16.3548 4.97319 16.3291L14.7888 6.51778L17.4521 9.18108L7.64079 18.9967C7.4389 19.1986 7.18545 19.3489 6.91053 19.4305L5.90535 19.7269L3.55132 20.4185L4.24293 18.0645L4.53933 17.0593Z" fill="#0B090A"/>
</svg>
