<svg width="16" height="15" viewBox="0 0 16 15" fill="none" xmlns="http://www.w3.org/2000/svg">
<g clip-path="url(#clip0_5341_986)">
<path d="M9.22241 3.63867L9.72046 4.13672L10.7136 3.14355L10.2156 2.64551L8.1062 0.536133L7.60815 0.0380859L7.11011 0.536133L5.00073 2.64551L4.50269 3.14355L5.50171 4.13379L5.99976 3.63574L6.90796 2.72754V6.79688H2.83862L3.74683 5.88867L4.24487 5.39062L3.25171 4.39746L2.75366 4.89551L0.644287 7.00488L0.14624 7.50293L0.644287 8.00098L2.75366 10.1104L3.25171 10.6084L4.24487 9.60938L3.74683 9.11133L2.83862 8.20312H6.90796V12.2725L5.99976 11.3643L5.50171 10.8662L4.50855 11.8594L5.00659 12.3574L7.11597 14.4668L7.61401 14.9648L8.11206 14.4668L10.2214 12.3574L10.7195 11.8594L9.72046 10.8662L9.22241 11.3643L8.31421 12.2725V8.20312H12.3835L11.4753 9.11133L10.9773 9.60938L11.9705 10.6025L12.4685 10.1045L14.5779 7.99512L15.0759 7.49707L14.5779 6.99902L12.4685 4.88965L11.9705 4.3916L10.9773 5.39062L11.4753 5.88867L12.3835 6.79688H8.31421V2.72754L9.22241 3.63574V3.63867Z" fill="#949494"/>
</g>
<defs>
<clipPath id="clip0_5341_986">
<rect width="15" height="15" fill="white" transform="translate(0.111084)"/>
</clipPath>
</defs>
</svg>
