<svg width="176" height="180" viewBox="0 0 176 180" fill="none" xmlns="http://www.w3.org/2000/svg">
<path d="M128.359 114.973H156.34V93.389H128.359V114.973Z" fill="#EBEBEB"/>
<path d="M130.357 113.088H133.729V109.278H130.357V113.088Z" fill="white"/>
<path d="M147.805 93.4453H144.626V98.0493H147.805V93.4453Z" fill="#FAFAFA"/>
<path d="M147.805 110.305H144.626V114.909H147.805V110.305Z" fill="#FAFAFA"/>
<path d="M135.341 115.12C135.291 115.12 135.252 110.373 135.252 104.518C135.252 98.6633 135.291 93.916 135.341 93.916C135.391 93.916 135.43 98.6633 135.43 104.518C135.43 110.373 135.391 115.12 135.341 115.12Z" fill="#E0E0E0"/>
<path d="M116.948 152.139H165.227V114.9H116.948V152.139Z" fill="#EBEBEB"/>
<path d="M120.398 148.891H126.214V142.316H120.398V148.891Z" fill="white"/>
<path d="M150.497 114.996H145.014V122.942H150.497V114.996Z" fill="#FAFAFA"/>
<path d="M150.497 144.08H145.014V152.026H150.497V144.08Z" fill="#FAFAFA"/>
<path d="M128.998 152.395C128.912 152.395 128.843 144.205 128.843 134.103C128.843 124 128.912 115.811 128.998 115.811C129.083 115.811 129.149 124 129.149 134.103C129.149 144.205 129.083 152.395 128.998 152.395Z" fill="#E0E0E0"/>
<path d="M163.693 37.4492L166.28 42.6883L172.061 43.5286L167.879 47.6098L168.866 53.3678L163.693 50.6495L158.52 53.3678L159.507 47.6098L155.325 43.5286L161.106 42.6883L163.693 37.4492Z" fill="#EBEBEB"/>
<path d="M9.69189 105.119L11.3221 108.422L14.9658 108.949L12.3289 111.52L12.9523 115.152L9.69189 113.437L6.43151 115.152L7.05493 111.52L4.41797 108.949L8.0617 108.422L9.69189 105.119Z" fill="#EBEBEB"/>
<path d="M11.7134 76.3457L15.3339 83.6796L23.4268 84.8568L17.572 90.5644L18.9544 98.6263L11.7134 94.8199L4.47625 98.6263L5.85863 90.5644L0 84.8568L8.09288 83.6796L11.7134 76.3457Z" fill="#EBEBEB"/>
<path d="M161.389 61.1133L162.95 64.2769L166.439 64.7841L163.914 67.243L164.51 70.7163L161.389 69.0784L158.268 70.7163L158.865 67.243L156.34 64.7841L159.829 64.2769L161.389 61.1133Z" fill="#EBEBEB"/>
<path d="M110.191 9.90234L111.751 13.0621L115.24 13.5693L112.716 16.032L113.312 19.5054L110.191 17.8636L107.07 19.5054L107.666 16.032L105.142 13.5693L108.63 13.0621L110.191 9.90234Z" fill="#EBEBEB"/>
<path d="M145.881 43.7207L146.903 45.7885L149.188 46.1215L147.535 47.7323L147.926 50.0053L145.881 48.9327L143.84 50.0053L144.232 47.7323L142.578 46.1215L144.863 45.7885L145.881 43.7207Z" fill="#EBEBEB"/>
<path d="M51.67 148.156L53.6603 152.183L58.1055 152.83L54.8877 155.966L55.6506 160.396L51.67 158.305L47.6932 160.396L48.4522 155.966L45.2344 152.83L49.6835 152.183L51.67 148.156Z" fill="#EBEBEB"/>
<path d="M56.9209 144.146L57.7418 145.812L59.5811 146.079L58.2491 147.376L58.5627 149.207L56.9209 148.34L55.2791 149.207L55.5928 147.376L54.2607 146.079L56.1 145.812L56.9209 144.146Z" fill="#EBEBEB"/>
<path d="M130.356 128.719L132.107 132.262L136.018 132.831L133.187 135.588L133.857 139.483L130.356 137.644L126.86 139.483L127.53 135.588L124.699 132.831L128.61 132.262L130.356 128.719Z" fill="#8771C5"/>
<path d="M138.701 125.578L139.526 127.247L141.365 127.514L140.033 128.815L140.347 130.651L138.701 129.783L137.052 130.651L137.369 128.815L136.033 127.514L137.876 127.247L138.701 125.578Z" fill="#8771C5"/>
<path d="M127.767 33.3611L129.146 29.0784C127.832 26.4327 127.433 23.426 128.011 20.5293C128.59 17.6325 130.112 15.0094 132.341 13.071C134.57 11.1325 137.379 9.9882 140.328 9.81729C143.277 9.64638 146.199 10.4585 148.637 12.1265C151.075 13.7945 152.891 16.2241 153.8 19.0347C154.709 21.8452 154.66 24.8779 153.661 27.6576C152.662 30.4374 150.768 32.8071 148.278 34.3956C145.788 35.9841 142.841 36.7016 139.899 36.4356C137.028 36.2401 134.312 35.0645 132.205 33.1055L127.767 33.3611Z" fill="#FAFAFA"/>
<path d="M127.767 33.3605L128.061 33.3373L128.917 33.2753L132.205 33.0507C133.834 34.5578 135.841 35.5961 138.013 36.0555C138.683 36.2045 139.364 36.3016 140.05 36.346L141.134 36.3885C141.498 36.3885 141.873 36.346 142.249 36.3266C145.646 36.0183 148.794 34.414 151.039 31.8465C152.304 30.4203 153.244 28.7355 153.792 26.9094C154.354 24.9581 154.468 22.9051 154.125 20.9036C154.04 20.3891 153.921 19.8807 153.769 19.3819C153.7 19.1292 153.616 18.8809 153.517 18.6384C153.42 18.3906 153.335 18.1428 153.231 17.8988C152.799 16.914 152.253 15.9834 151.604 15.1263C151.281 14.6991 150.93 14.293 150.555 13.9105C150.373 13.7154 150.179 13.5318 149.974 13.3606C149.777 13.1864 149.587 12.9966 149.378 12.8379L148.743 12.3655L148.425 12.1331L148.084 11.9318L147.415 11.5446C147.186 11.4168 146.946 11.32 146.714 11.2038C144.934 10.3616 142.988 9.92927 141.019 9.93865C139.05 9.94803 137.109 10.3989 135.337 11.258C132.267 12.7323 129.884 15.3324 128.681 18.5184C128.615 18.6965 128.553 18.8746 128.491 19.0489C128.421 19.2208 128.365 19.3982 128.325 19.5794C128.236 19.9356 128.15 20.288 128.065 20.6326C127.948 21.3079 127.867 21.9891 127.825 22.6732C127.738 24.8863 128.204 27.086 129.18 29.074L128.143 32.2414L127.868 33.0623C127.806 33.2482 127.771 33.345 127.771 33.345C127.771 33.345 127.794 33.2559 127.852 33.0739L128.1 32.2608L129.095 29.0507V29.0817C128.093 27.0901 127.608 24.8782 127.686 22.65C127.722 21.9582 127.798 21.2691 127.914 20.5861C127.999 20.2376 128.088 19.8814 128.174 19.5213C128.215 19.3382 128.269 19.1583 128.336 18.983C128.402 18.8049 128.464 18.6268 128.53 18.4448C129.177 16.7078 130.177 15.1239 131.467 13.7935C132.758 12.4631 134.311 11.4151 136.027 10.7159C137.744 10.0167 139.587 9.68144 141.44 9.73143C143.293 9.78143 145.115 10.2156 146.791 11.0063C147.027 11.1186 147.271 11.2193 147.504 11.351L148.185 11.7575L148.526 11.9628L148.851 12.199L149.494 12.6752C149.707 12.8417 149.901 13.0315 150.102 13.2057C150.308 13.3806 150.505 13.5667 150.69 13.7633C151.071 14.1536 151.427 14.5675 151.755 15.0024C152.417 15.8644 152.975 16.8015 153.416 17.7943C153.521 18.0421 153.606 18.2977 153.703 18.5455C153.806 18.7979 153.892 19.0566 153.962 19.3199C154.116 19.8277 154.235 20.3451 154.319 20.8688C154.668 22.9 154.552 24.9841 153.978 26.9636C153.428 28.8245 152.478 30.5426 151.194 31.9975C148.914 34.5893 145.726 36.2058 142.288 36.5125C141.901 36.5125 141.513 36.5667 141.157 36.5667L140.061 36.5202C139.369 36.4718 138.682 36.3708 138.005 36.2182C135.825 35.7409 133.817 34.6778 132.197 33.1436H132.228L128.909 33.3179L128.065 33.3566C127.86 33.3605 127.767 33.3605 127.767 33.3605Z" fill="#263238"/>
<path d="M133.525 22.6512L135.721 20.7461L139.419 24.5447L147.713 17.6367L149.467 19.8245L138.842 28.475L133.525 22.6512Z" fill="#8771C5"/>
<path d="M104.794 128.557L30.5406 145.106C30.1109 145.205 29.6659 145.217 29.2314 145.142C28.7968 145.068 28.3813 144.908 28.0088 144.672C27.6363 144.437 27.3141 144.13 27.0608 143.769C26.8075 143.408 26.6281 143.001 26.5329 142.57L2.45174 34.4391C2.35581 34.0107 2.34535 33.5675 2.42096 33.135C2.49657 32.7025 2.65676 32.2892 2.89236 31.9187C3.12796 31.5482 3.43434 31.2279 3.79395 30.976C4.15356 30.7241 4.55934 30.5456 4.98803 30.4508L79.2412 13.901C79.6699 13.8051 80.1133 13.7946 80.546 13.8701C80.9788 13.9457 81.3924 14.1058 81.7632 14.3414C82.134 14.577 82.4547 14.8833 82.707 15.243C82.9593 15.6026 83.1381 16.0085 83.2334 16.4373L107.33 124.568C107.426 124.997 107.436 125.44 107.361 125.872C107.285 126.305 107.125 126.718 106.889 127.089C106.654 127.459 106.347 127.78 105.988 128.031C105.628 128.283 105.222 128.462 104.794 128.557Z" fill="#E0E0E0"/>
<path d="M104.793 128.557L105.041 128.487C105.281 128.409 105.514 128.306 105.734 128.181C106.095 127.969 106.414 127.692 106.675 127.364C107.03 126.915 107.264 126.381 107.352 125.815C107.408 125.473 107.408 125.124 107.352 124.781C107.29 124.421 107.194 124.042 107.108 123.647C106.93 122.872 106.721 121.989 106.528 121.052C106.107 119.176 105.623 117.016 105.076 114.574C102.895 104.828 99.7435 90.7253 95.8481 73.2966C93.912 64.5841 91.7746 55.0392 89.4861 44.7895C88.3451 39.6679 87.1641 34.3759 85.943 28.9135C85.3364 26.1823 84.7194 23.4137 84.0921 20.6077C83.7746 19.2059 83.461 17.7926 83.1396 16.3715C82.965 15.6631 82.5574 15.0341 81.9823 14.5853C81.4071 14.1366 80.6978 13.8942 79.9683 13.8971C79.6045 13.9052 79.2431 13.9572 78.8918 14.052L77.8076 14.2921L75.6275 14.78L71.2287 15.7597L62.2762 17.7577L43.8291 21.8816L5.01424 30.5243C4.19378 30.7062 3.47489 31.1971 3.00691 31.8951C2.53892 32.5931 2.35781 33.4446 2.50119 34.2726C2.85356 35.9183 3.23303 37.5679 3.59314 39.2097C4.32628 42.4881 5.05296 45.7472 5.77319 48.9869L10.0326 68.1195C12.8283 80.6615 15.5234 92.7427 18.0906 104.282C20.6579 115.821 23.0935 126.741 25.3781 137.006C25.6621 138.296 25.9447 139.567 26.2261 140.816C26.3694 141.443 26.4972 142.078 26.6482 142.694C26.8108 143.3 27.1441 143.847 27.6085 144.27C28.0699 144.686 28.6386 144.965 29.2503 145.075C29.5537 145.125 29.8622 145.134 30.168 145.103C30.47 145.064 30.7759 144.99 31.078 144.921L34.683 144.119L48.3634 141.075L89.6487 131.902L100.878 129.416L103.798 128.773L104.793 128.557L103.802 128.789L100.882 129.447L89.6526 131.96L48.375 141.188L34.7101 144.243L31.1051 145.048C30.803 145.114 30.501 145.192 30.1835 145.234C29.866 145.266 29.5456 145.256 29.2309 145.203C28.5903 145.092 27.9948 144.8 27.5146 144.362C27.0343 143.923 26.6894 143.357 26.5204 142.729C26.3655 142.105 26.2377 141.478 26.0945 140.851C25.8131 139.594 25.5291 138.324 25.2426 137.041C22.958 126.791 20.5146 115.84 17.9435 104.317C15.3724 92.7931 12.6773 80.6963 9.87771 68.1543L5.6183 49.0257C4.89807 45.7885 4.17139 42.5268 3.43826 39.2406C3.07427 37.5988 2.69867 35.957 2.34243 34.2959C2.19336 33.4284 2.38418 32.5369 2.87523 31.8064C3.36629 31.076 4.11984 30.5627 4.97939 30.3733L43.7981 21.719L62.2568 17.6222L71.2055 15.628L75.6043 14.6483L77.7882 14.1372L78.8724 13.8971C79.2305 13.8043 79.5984 13.7549 79.9683 13.75C80.724 13.7518 81.4577 14.005 82.0537 14.4699C82.6496 14.9347 83.0739 15.5847 83.2596 16.3173C83.5771 17.7422 83.8947 19.1517 84.2083 20.5573C84.8408 23.3659 85.4629 26.1307 86.0747 28.8515C87.2854 34.3113 88.4638 39.6033 89.61 44.7275C91.8907 54.9772 94.0127 64.5222 95.9527 73.2385C99.8249 90.6634 102.961 104.777 105.13 114.528C105.668 116.963 106.148 119.132 106.566 121.006C106.772 121.947 106.954 122.81 107.139 123.604C107.225 123.991 107.321 124.379 107.379 124.739C107.438 125.085 107.438 125.438 107.379 125.784C107.291 126.361 107.054 126.904 106.69 127.36C106.426 127.688 106.105 127.964 105.742 128.177C105.519 128.303 105.282 128.403 105.037 128.475L104.793 128.557Z" fill="#263238"/>
<g opacity="0.3">
<path d="M34.3033 141.274L101.958 125.808L99.8208 112.55L95.9835 105.119L31.2637 130.54L34.3033 141.274Z" fill="black"/>
</g>
<g opacity="0.3">
<path d="M62.5508 17.8691L65.1103 22.0937L65.6059 24.3357L63.8712 24.7229L62.5508 17.8691Z" fill="black"/>
</g>
<path d="M6.30371 35.0648L29.7769 140.388L103.352 123.994L99.155 105.159L79.8792 18.666L6.30371 35.0648Z" fill="white"/>
<path d="M6.30368 35.0662L79.8753 18.6055H79.9373V18.6713C86.4658 47.9412 94.609 84.4676 103.422 123.995V124.076H103.345L29.773 140.467H29.7033V140.394C15.8835 78.1985 6.44308 35.6973 6.2998 35.07C6.44308 35.7128 15.9454 78.2024 29.8466 140.394L29.7575 140.339L103.329 123.933L103.267 124.03C94.4657 84.5102 86.3303 47.9838 79.8134 18.7061L79.8908 18.7565L6.30368 35.0662Z" fill="#263238"/>
<path d="M27.0221 22.5337L59.4693 15.3046C60.1038 15.1633 60.7685 15.2797 61.3171 15.6285C61.8658 15.9772 62.2534 16.5295 62.3948 17.1641L64.2692 25.5773L27.0295 33.874L25.1568 25.4684C25.0855 25.1531 25.0773 24.8269 25.1326 24.5085C25.1878 24.1901 25.3056 23.8857 25.4789 23.613C25.6523 23.3402 25.8779 23.1044 26.1427 22.9192C26.4076 22.734 26.7064 22.6029 27.0221 22.5337Z" fill="#263238"/>
<path d="M47.0817 13.8086L37.6064 15.9189L40.5222 23.795L47.6587 22.2035L47.0817 13.8086Z" fill="#263238"/>
<path d="M59.4685 15.2973C59.4685 15.3399 52.2237 16.9933 43.2673 18.9914C34.3109 20.9894 27.0351 22.5809 27.0235 22.5383C27.0118 22.4957 34.2683 20.8423 43.2324 18.8443C52.1966 16.8462 59.4453 15.2663 59.4685 15.2973Z" fill="#455A64"/>
<path d="M27.4844 31.9479C27.4418 31.9479 27.0662 30.4377 26.648 28.5558C26.2298 26.6739 25.9201 25.1367 25.9665 25.1251C26.013 25.1134 26.3847 26.6352 26.8029 28.521C27.2211 30.4067 27.527 31.9479 27.4844 31.9479Z" fill="#455A64"/>
<path d="M62.4937 23.2893C62.1826 22.2706 61.9241 21.2367 61.7192 20.1915C61.463 19.1699 61.2588 18.136 61.1074 17.0938C61.4179 18.106 61.6764 19.1335 61.8819 20.1721C62.1388 21.2001 62.343 22.2405 62.4937 23.2893Z" fill="#455A64"/>
<path d="M61.0177 25.1297C61.0177 25.1723 53.5792 26.8683 44.3866 28.9167C35.194 30.9651 27.7362 32.5953 27.7168 32.5488C27.6975 32.5024 35.1514 30.8102 44.3673 28.7618C53.5831 26.7134 60.9945 25.0871 61.0177 25.1297Z" fill="#455A64"/>
<path d="M41.4205 55.7668C41.4205 55.8133 36.406 56.9672 30.1911 58.3535C23.9763 59.7397 18.9618 60.82 18.9347 60.7775C18.9076 60.7349 23.9685 59.5771 30.164 58.1947C36.3595 56.8123 41.4089 55.7242 41.4205 55.7668Z" fill="#263238"/>
<path d="M78.8688 51.5493C78.8688 51.5958 65.7537 54.558 49.5563 58.1669C33.3589 61.7758 20.2128 64.6683 20.2051 64.6257C20.1973 64.5831 33.3163 61.617 49.5214 58.0081C65.7266 54.3992 78.861 51.5067 78.8688 51.5493Z" fill="#263238"/>
<path d="M79.6783 55.1804C79.6783 55.223 66.5593 58.1853 50.362 61.798C34.1646 65.4108 21.0224 68.2994 21.0107 68.253C20.9991 68.2065 34.1259 65.2481 50.3271 61.6392C66.5284 58.0304 79.6667 55.1262 79.6783 55.1804Z" fill="#263238"/>
<path d="M80.483 58.7915C80.483 58.8341 67.3679 61.7963 51.1705 65.4052C34.9731 69.0141 21.8271 71.9105 21.8154 71.864C21.8038 71.8175 34.9306 68.8592 51.1357 65.2464C67.3408 61.6337 80.4714 58.7489 80.483 58.7915Z" fill="#263238"/>
<path d="M81.2887 62.4107C81.2887 62.4533 68.1736 65.4155 51.9762 69.0244C35.7788 72.6333 22.6327 75.5258 22.625 75.4832C22.6173 75.4406 35.7362 72.4784 51.9414 68.8657C68.1465 65.2529 81.281 62.3642 81.2887 62.4107Z" fill="#263238"/>
<path d="M82.0983 66.0238C82.0983 66.0703 68.9793 69.0325 52.7819 72.6414C36.5845 76.2503 23.4346 79.1467 23.4346 79.1041C23.4346 79.0615 36.5497 76.0993 52.7509 72.4865C68.9522 68.8738 82.0867 65.9851 82.0983 66.0238Z" fill="#263238"/>
<path d="M34.8069 91.506C34.7912 91.4673 34.7795 91.427 34.7721 91.3859L34.6869 91.0413C34.6133 90.7277 34.5087 90.2901 34.381 89.7441C34.1215 88.625 33.7575 87.0529 33.3239 85.1711L33.409 85.2253L27.0586 86.6502C27.0586 86.6502 27.1748 86.4682 27.1206 86.5534V86.5805V86.6347L27.1438 86.7432L27.1942 86.96L27.2871 87.3898C27.3529 87.6764 27.4149 87.959 27.4768 88.2417C27.6008 88.7993 27.7247 89.3491 27.8408 89.8835C28.077 90.9484 28.2977 91.9551 28.503 92.8806L28.4178 92.8264L33.0063 91.839L34.3113 91.5679L34.6598 91.5021L34.7837 91.4789C34.7837 91.4789 34.7527 91.4789 34.6752 91.5137L34.3461 91.595L33.0683 91.8971L28.4681 92.9929H28.3984V92.9232L27.7247 89.93C27.6046 89.3956 27.4807 88.8458 27.3374 88.2882C27.2755 88.0055 27.2097 87.7228 27.1477 87.4363C27.1129 87.2969 27.0819 87.1497 27.0509 87.0065L27.0006 86.7896L26.9773 86.6812V86.627V86.5999V86.5805C26.9231 86.6696 27.0509 86.4644 27.0393 86.4837L33.3936 85.0781H33.4633V85.1478L34.4623 89.7945C34.5746 90.3366 34.6636 90.7702 34.7295 91.08C34.7566 91.2194 34.7759 91.3278 34.7953 91.4169C34.803 91.446 34.8069 91.4759 34.8069 91.506Z" fill="#263238"/>
<path d="M82.0097 75.8521L37.7061 85.7227L38.5296 89.419L82.8332 79.5485L82.0097 75.8521Z" fill="#E0E0E0"/>
<path d="M37.262 102.526C37.2474 102.485 37.2358 102.444 37.2272 102.402C37.2039 102.313 37.1768 102.196 37.142 102.057C37.0684 101.743 36.9639 101.31 36.8361 100.764C36.5766 99.6408 36.2127 98.0532 35.779 96.1868L35.8642 96.241L29.5138 97.666C29.5138 97.6892 29.6299 97.484 29.5757 97.573V97.5924V97.6195V97.6737L29.5989 97.7821L29.6493 97.999C29.6803 98.1461 29.7112 98.2894 29.7461 98.4327L29.932 99.2807C30.0559 99.8421 30.1798 100.388 30.2959 100.922C30.5321 101.987 30.7529 102.994 30.9581 103.92L30.8729 103.865L35.4653 102.882L36.7664 102.611L37.1149 102.541C37.1553 102.53 37.1969 102.523 37.2388 102.522L37.1342 102.553L36.8012 102.634L35.5234 102.94L30.9039 104.005H30.8342V103.935L30.1604 100.942C30.0404 100.407 29.9165 99.8576 29.7732 99.3C29.7112 99.0212 29.6454 98.7347 29.5835 98.452C29.5525 98.3087 29.5176 98.1655 29.4867 98.0183L29.4363 97.8015L29.4131 97.6931V97.6389V97.5924L29.475 97.4917L35.8254 96.1055H35.8951V96.1713C36.3056 98.0803 36.6696 99.6563 36.8942 100.818C37.0065 101.36 37.0955 101.794 37.1613 102.103C37.1884 102.243 37.2078 102.351 37.2272 102.44C37.2424 102.467 37.2541 102.496 37.262 102.526Z" fill="#263238"/>
<path d="M84.4628 86.8716L40.1592 96.7422L40.9827 100.439L85.2863 90.568L84.4628 86.8716Z" fill="#E0E0E0"/>
<path d="M39.7177 113.543C39.7177 113.543 39.7177 113.497 39.6829 113.419C39.648 113.342 39.6325 113.214 39.5977 113.075C39.5241 112.761 39.4196 112.327 39.2918 111.781C39.0324 110.662 38.6684 109.071 38.2347 107.204L38.3199 107.259L31.954 108.683C31.954 108.707 32.0702 108.501 32.0159 108.591V108.618V108.645V108.699L32.0392 108.807L32.0895 109.024C32.1205 109.171 32.1515 109.315 32.1863 109.458L32.3722 110.306C32.4961 110.867 32.62 111.413 32.7362 111.948L33.3983 114.945L33.3131 114.894L37.9055 113.907L39.2066 113.636L39.5551 113.566C39.5963 113.562 39.6378 113.562 39.679 113.566L39.5745 113.597L39.2415 113.679L37.9636 113.984L33.3441 115.049H33.2744V114.98C33.0692 114.058 32.8407 113.044 32.6006 111.986C32.4806 111.452 32.3567 110.906 32.2134 110.345C32.1515 110.066 32.0856 109.783 32.0237 109.497C31.9927 109.353 31.9579 109.21 31.9269 109.067L31.8804 108.85L31.8533 108.742V108.683V108.618C31.7991 108.703 31.9269 108.498 31.9153 108.521L38.2695 107.115H38.3392V107.185L39.3383 111.832C39.4506 112.374 39.5396 112.807 39.6054 113.121C39.6325 113.257 39.6558 113.365 39.6713 113.454C39.6908 113.481 39.7064 113.511 39.7177 113.543Z" fill="#263238"/>
<path d="M86.9208 97.8912L42.6172 107.762L43.4407 111.458L87.7443 101.588L86.9208 97.8912Z" fill="#E0E0E0"/>
<path d="M28.7041 89.2342L29.3701 88.1849L31.3488 89.2846L33.8967 85.4434L34.8802 86.1249L31.5966 90.9651L28.7041 89.2342Z" fill="#8771C5"/>
<path d="M31.0781 99.8827L31.7441 98.8333L33.7228 99.933L36.2669 96.0918L37.2543 96.7733L33.9668 101.61L31.0781 99.8827Z" fill="#8771C5"/>
<path d="M33.5137 110.797L34.1797 109.751L36.1545 110.851L38.7024 107.01L39.6859 107.687L36.4023 112.528L33.5137 110.797Z" fill="#8771C5"/>
<path d="M53.7932 124.494C53.7932 124.54 50.0604 125.411 45.437 126.43C40.8136 127.448 37.0576 128.257 37.0498 128.215C37.0421 128.172 40.7787 127.301 45.4021 126.279C50.0255 125.256 53.7816 124.455 53.7932 124.494Z" fill="#263238"/>
<path d="M62.1332 122.504C61.1225 122.816 60.0963 123.074 59.0587 123.279C58.0369 123.533 57.003 123.736 55.9609 123.887C56.9706 123.576 57.9955 123.318 59.0316 123.112C60.7315 122.737 62.1255 122.462 62.1332 122.504Z" fill="#263238"/>
<path d="M89.7571 113.812C89.7571 113.855 86.4 114.645 82.2412 115.57C78.0825 116.496 74.6982 117.212 74.6904 117.17C74.6827 117.127 78.0438 116.341 82.2064 115.412C86.369 114.482 89.7494 113.77 89.7571 113.812Z" fill="#263238"/>
<path d="M86.164 124.002C86.164 124.002 86.1988 123.898 86.2375 123.697C86.2887 123.399 86.2729 123.093 86.1911 122.802C86.0533 122.342 85.8745 121.895 85.6567 121.466C85.348 120.898 85.1669 120.269 85.1262 119.623C85.1354 119.226 85.2276 118.835 85.397 118.475C85.5664 118.116 85.8092 117.796 86.1097 117.536C86.4619 117.243 86.8832 117.046 87.3333 116.963C87.7834 116.879 88.2473 116.913 88.6809 117.06C89.1569 117.204 89.5815 117.483 89.9045 117.861C90.0765 118.065 90.1783 118.319 90.1949 118.585C90.1993 118.728 90.1576 118.869 90.0761 118.987C89.9946 119.105 89.8774 119.193 89.7419 119.24C89.4887 119.322 89.2298 119.385 88.9674 119.429L88.193 119.588C87.6741 119.693 87.1475 119.786 86.6054 119.855C85.5554 120.007 84.4897 120.013 83.4379 119.875C82.9628 119.772 82.4666 119.853 82.0478 120.099C81.7151 120.435 81.4333 120.817 81.2114 121.234C81.0766 121.439 80.8895 121.605 80.6693 121.714C80.4454 121.813 80.1924 121.824 79.9607 121.745C79.5624 121.568 79.1834 121.35 78.83 121.094C78.666 120.985 78.4793 120.915 78.284 120.889C78.1014 120.869 77.9175 120.914 77.7652 121.017C77.4973 121.262 77.2757 121.553 77.1108 121.877C76.9346 122.154 76.694 122.385 76.4095 122.549C76.125 122.714 75.805 122.807 75.4767 122.821C74.9801 122.841 74.4948 122.669 74.1214 122.341C73.8869 122.138 73.7026 121.884 73.5832 121.598C73.5414 121.5 73.5115 121.397 73.4941 121.292C73.4941 121.292 73.529 121.396 73.6142 121.586C73.7397 121.86 73.9265 122.101 74.1602 122.291C74.5243 122.599 74.9924 122.757 75.469 122.732C75.7822 122.716 76.0867 122.624 76.3566 122.464C76.6264 122.305 76.8533 122.082 77.0178 121.815C77.1881 121.476 77.4191 121.172 77.6993 120.916C77.8757 120.794 78.0896 120.738 78.3034 120.758C78.5153 120.789 78.7184 120.864 78.8997 120.978C79.2474 121.224 79.6183 121.436 80.0072 121.609C80.2061 121.676 80.4229 121.667 80.6151 121.582C80.8121 121.484 80.9772 121.333 81.0914 121.145C81.3215 120.717 81.6138 120.325 81.9588 119.983C82.1732 119.83 82.4244 119.736 82.6867 119.712C82.9441 119.685 83.2037 119.685 83.4612 119.712C84.5015 119.847 85.5552 119.84 86.5938 119.693C87.1281 119.623 87.6509 119.526 88.1697 119.425L88.9442 119.271C89.1928 119.225 89.4385 119.164 89.6799 119.089C89.786 119.055 89.8782 118.988 89.9425 118.897C90.0068 118.806 90.0397 118.696 90.0361 118.585C90.0186 118.353 89.9293 118.133 89.7806 117.954C89.475 117.591 89.072 117.322 88.6189 117.18C88.2083 117.04 87.7688 117.007 87.3421 117.085C86.9153 117.162 86.5152 117.347 86.1794 117.621C85.8909 117.867 85.6571 118.17 85.493 118.511C85.329 118.853 85.2383 119.225 85.2269 119.604C85.2618 120.235 85.4307 120.851 85.7225 121.412C85.9368 121.846 86.1092 122.3 86.2375 122.767C86.3133 123.066 86.3199 123.379 86.2569 123.681C86.2387 123.791 86.2075 123.899 86.164 124.002Z" fill="#263238"/>
<path d="M94.1674 119.045C94.1021 119.071 94.0348 119.092 93.966 119.107L93.3775 119.246L91.2168 119.746C89.3969 120.172 86.8799 120.768 84.1113 121.469C81.3427 122.17 78.8451 122.848 77.0446 123.343L74.9071 123.932L74.3224 124.087C74.2554 124.108 74.1867 124.123 74.1172 124.133C74.1795 124.099 74.2459 124.073 74.3147 124.056L74.8878 123.874C75.3873 123.715 76.1114 123.486 77.0097 123.235C78.8103 122.708 81.3001 122.015 84.0726 121.299C86.8451 120.582 89.362 120.017 91.1935 119.626C92.1074 119.428 92.8509 119.274 93.3659 119.173L93.9583 119.061C94.0274 119.049 94.0974 119.044 94.1674 119.045Z" fill="#263238"/>
<path d="M62.4067 34.083L32.333 40.7832L33.5919 46.4336L63.6656 39.7334L62.4067 34.083Z" fill="#E0E0E0"/>
<path d="M90.8564 125.777L100.572 177.106L109.451 160.7L126.279 170.578L108.417 120.596L90.8564 125.777Z" fill="#8771C5"/>
<g opacity="0.3">
<path d="M94.1252 143.041C95.0501 143.215 96.0035 143.162 96.9034 142.886C97.8032 142.61 98.6225 142.12 99.2907 141.457C100.177 140.543 100.766 139.296 101.881 138.685C102.884 138.135 104.119 138.212 105.223 138.518C106.327 138.824 107.364 139.331 108.468 139.618C109.557 139.895 110.69 139.953 111.802 139.788C112.913 139.624 113.981 139.239 114.942 138.657L112.139 130.874L99.1281 129.248L92.9326 136.702L94.1252 143.041Z" fill="black"/>
</g>
<path d="M108.82 158.661C108.766 158.661 107.318 153.341 105.587 146.754C103.856 140.168 102.489 134.809 102.551 134.797C102.613 134.785 104.049 140.11 105.78 146.704C107.511 153.298 108.874 158.646 108.82 158.661Z" fill="#263238"/>
<path d="M92.2773 128.443L82.562 179.772L73.683 163.37L56.8545 173.244L74.7169 123.262L92.2773 128.443Z" fill="#8771C5"/>
<g opacity="0.3">
<path d="M69.374 138.215C69.374 138.215 72.1388 140.488 75.434 139.442C78.7292 138.397 80.7776 138.172 82.5627 139.442C84.3478 140.713 89.1764 144.844 89.1764 144.844L90.2955 138.924L83.8096 130.018L77.041 131.384L72.224 131.853L70.4311 135.249L69.374 138.215Z" fill="black"/>
</g>
<path d="M149.241 82.1089C149.241 85.7914 144.537 88.9627 143.847 92.4438C143.139 96.0294 146.26 100.757 144.893 104.06C143.526 107.363 137.923 108.548 135.936 111.534C133.95 114.519 134.995 120.111 132.451 122.659C129.907 125.206 124.32 124.134 121.327 126.143C118.333 128.153 117.211 133.706 113.853 135.1C110.554 136.467 105.826 133.346 102.237 134.054C98.7518 134.744 95.5843 139.448 91.9019 139.448C88.2194 139.448 85.0442 134.744 81.5631 134.054C77.9775 133.346 73.2495 136.467 69.9465 135.1C66.6436 133.733 65.4626 128.13 62.4771 126.143C59.4916 124.157 53.9002 125.203 51.3484 122.659C48.7966 120.114 49.8731 114.527 47.8634 111.534C45.8538 108.54 40.3011 107.418 38.9109 104.06C37.5208 100.703 40.665 96.0333 39.9564 92.4438C39.2672 88.9588 34.5586 85.7914 34.5586 82.1089C34.5586 78.4265 39.2672 75.2513 39.9564 71.7702C40.665 68.1845 37.5402 63.4566 38.9109 60.1536C40.2817 56.8506 45.8809 55.6657 47.8634 52.6841C49.846 49.7025 48.8044 44.1072 51.3484 41.5554C53.8924 39.0037 59.48 40.0801 62.4771 38.0705C65.4742 36.0608 66.5894 30.5081 69.9465 29.118C73.3037 27.7279 77.9736 30.8721 81.5631 30.1635C85.0481 29.4742 88.2194 24.7656 91.9019 24.7656C95.5843 24.7656 98.7557 29.4742 102.237 30.1635C105.822 30.8721 110.55 27.7472 113.853 29.118C117.211 30.5081 118.341 36.0879 121.327 38.0705C124.312 40.053 129.904 39.0114 132.451 41.5554C134.999 44.0995 133.927 49.6871 135.936 52.6841C137.946 55.6812 143.499 56.7964 144.893 60.1536C146.287 63.5108 143.139 68.1806 143.847 71.7702C144.537 75.2513 149.241 78.4148 149.241 82.1089Z" fill="#8771C5"/>
<path d="M78.4848 49.9655C78.4848 49.9655 78.4422 49.9152 78.3802 49.8068C78.3183 49.6983 78.2215 49.5241 78.1169 49.3344C77.8885 48.9239 77.5748 48.3198 77.2031 47.5686C76.4558 46.0662 75.4877 43.952 74.5545 41.5667C73.6213 39.1815 72.905 36.9666 72.4364 35.3712C72.2041 34.5619 72.026 33.9075 71.9137 33.4351C71.8633 33.226 71.8207 33.0479 71.7898 32.9085C71.7697 32.8486 71.7593 32.7859 71.7588 32.7227C71.7889 32.7791 71.8122 32.8389 71.8285 32.9008L71.9872 33.4158C72.1383 33.8921 72.3357 34.5348 72.5719 35.3132C73.0753 36.9124 73.8149 39.1079 74.7404 41.5087C75.6658 43.9094 76.6184 46.0043 77.3309 47.5222L78.1866 49.315L78.4151 49.8029C78.4432 49.8549 78.4665 49.9093 78.4848 49.9655Z" fill="#263238"/>
<path d="M83.588 48.026C83.5203 47.8908 83.4695 47.7477 83.437 47.6001C83.3557 47.3213 83.2473 46.9147 83.1195 46.4113C82.8639 45.4084 82.5464 44.0067 82.2599 42.45C81.9733 40.8934 81.772 39.4723 81.6558 38.4423C81.5939 37.9273 81.5551 37.5091 81.5319 37.2187C81.5141 37.0695 81.5141 36.9187 81.5319 36.7695C81.5764 36.9133 81.6063 37.0612 81.621 37.211L81.8068 38.423C81.9617 39.4491 82.194 40.8624 82.469 42.4152C82.7439 43.9679 83.0498 45.3697 83.2666 46.3803C83.3712 46.8527 83.4564 47.2554 83.5261 47.5807C83.5615 47.7267 83.5822 47.8759 83.588 48.026Z" fill="#263238"/>
<path d="M92.5914 47.132C92.5333 47.132 92.39 42.7874 92.27 37.4322C92.15 32.077 92.0957 27.7285 92.15 27.7246C92.2042 27.7207 92.3513 32.0653 92.4714 37.4283C92.5914 42.7913 92.6456 47.132 92.5914 47.132Z" fill="#263238"/>
<path d="M101.652 38.2071C101.706 38.2071 101.079 40.3949 100.254 43.059C99.4296 45.723 98.7055 47.8644 98.6668 47.8489C98.6281 47.8334 99.2399 45.6611 100.065 42.997C100.889 40.3329 101.594 38.1916 101.652 38.2071Z" fill="#263238"/>
<path d="M105.346 49.4317C105.353 49.3676 105.37 49.305 105.396 49.2458L105.57 48.7347C105.725 48.2933 105.958 47.6582 106.267 46.876C106.875 45.3272 107.743 43.1626 108.734 40.8006C109.725 38.4385 110.647 36.3127 111.324 34.7793C111.657 34.0358 111.932 33.424 112.141 32.9671L112.37 32.4792C112.428 32.3708 112.459 32.3127 112.467 32.3166C112.453 32.3775 112.433 32.4371 112.409 32.4947L112.211 32.9981L111.456 34.8374C110.794 36.4095 109.907 38.5315 108.92 40.8819C107.932 43.2323 107.057 45.3543 106.399 46.9302L105.644 48.7657L105.431 49.2613C105.41 49.3214 105.381 49.3786 105.346 49.4317Z" fill="#263238"/>
<path d="M110.171 51.956C110.23 51.8191 110.304 51.6892 110.392 51.5688C110.547 51.321 110.779 50.9686 111.065 50.5388C111.646 49.683 112.483 48.5136 113.455 47.2668C114.426 46.0199 115.36 44.9435 116.049 44.169C116.394 43.7818 116.68 43.4759 116.881 43.2668C116.978 43.1508 117.089 43.0468 117.211 42.957C117.136 43.0891 117.045 43.2114 116.939 43.321C116.73 43.5766 116.467 43.8902 116.165 44.262C115.503 45.0596 114.593 46.1632 113.621 47.4101C112.649 48.6569 111.801 49.8069 111.189 50.6433L110.465 51.6307C110.379 51.7491 110.28 51.8581 110.171 51.956Z" fill="#263238"/>
<path d="M117.226 57.7252C117.187 57.6865 120.254 54.7746 124.068 51.2238C127.882 47.673 131.011 44.8269 131.038 44.8656C131.065 44.9043 128.014 47.8201 124.196 51.3709C120.378 54.9217 117.265 57.7678 117.226 57.7252Z" fill="#263238"/>
<path d="M129.532 58.9297C129.158 59.1658 128.77 59.3779 128.37 59.5647C127.642 59.952 126.655 60.4902 125.563 61.1136C124.471 61.737 123.464 62.2559 122.717 62.6044C122.33 62.7786 122.043 62.9142 121.826 62.9916C121.72 63.0468 121.607 63.0859 121.489 63.1078C121.863 62.8717 122.251 62.6596 122.651 62.4727C123.379 62.0855 124.366 61.5473 125.458 60.9239C126.55 60.3004 127.557 59.7622 128.304 59.4331C128.692 59.2588 128.978 59.1233 129.195 59.0459C129.3 58.9891 129.414 58.9498 129.532 58.9297Z" fill="#263238"/>
<path d="M140.912 63.6499C140.931 63.7041 137.284 65.0362 132.78 66.6276C128.277 68.2191 124.587 69.4621 124.571 69.4117C124.556 69.3614 128.196 68.0255 132.703 66.434C137.21 64.8426 140.893 63.5996 140.912 63.6499Z" fill="#263238"/>
<path d="M144.537 84.355C144.537 84.4092 140.568 84.0801 135.685 83.6154C130.802 83.1507 126.845 82.7287 126.853 82.6706C126.86 82.6125 130.818 82.9494 135.704 83.414C140.591 83.8787 144.541 84.3008 144.537 84.355Z" fill="#263238"/>
<path d="M141.621 102.925C141.598 102.975 137.892 101.271 133.346 99.1262C128.8 96.981 125.133 95.196 125.156 95.1456C125.18 95.0953 128.885 96.7952 133.431 98.9442C137.977 101.093 141.644 102.875 141.621 102.925Z" fill="#263238"/>
<path d="M129.431 120.594C129.389 120.629 126.721 117.527 123.464 113.671C120.208 109.814 117.606 106.65 117.656 106.616C117.706 106.581 120.367 109.678 123.623 113.539C126.88 117.4 129.474 120.555 129.431 120.594Z" fill="#263238"/>
<path d="M119.255 122.946C119.135 122.812 119.027 122.667 118.934 122.512C118.736 122.226 118.457 121.804 118.124 121.281C117.451 120.232 116.548 118.764 115.596 117.118C114.643 115.473 113.83 113.955 113.273 112.859C112.99 112.305 112.761 111.856 112.614 111.542C112.527 111.383 112.454 111.216 112.397 111.043C112.507 111.187 112.603 111.342 112.684 111.504C112.87 111.845 113.11 112.278 113.4 112.793C114.001 113.881 114.837 115.384 115.786 117.029C116.734 118.675 117.617 120.15 118.26 121.215C118.562 121.726 118.818 122.148 119.015 122.481C119.112 122.627 119.192 122.783 119.255 122.946Z" fill="#263238"/>
<path d="M112.936 131.811C112.936 131.811 112.897 131.761 112.835 131.652L112.584 131.18C112.363 130.766 112.065 130.162 111.709 129.411C110.996 127.904 110.078 125.79 109.207 123.397C108.336 121.004 107.678 118.797 107.271 117.201C107.058 116.396 106.884 115.738 106.799 115.285C106.756 115.076 106.721 114.898 106.69 114.758C106.675 114.697 106.666 114.635 106.663 114.572C106.695 114.628 106.717 114.688 106.729 114.75L106.876 115.265C107.012 115.746 107.19 116.384 107.407 117.163C107.863 118.762 108.541 120.961 109.412 123.358C110.284 125.755 111.174 127.858 111.856 129.38L112.669 131.172C112.754 131.366 112.828 131.529 112.89 131.66C112.911 131.708 112.927 131.759 112.936 131.811Z" fill="#263238"/>
<path d="M100.134 125.582C100.05 125.137 99.9946 124.687 99.9675 124.234C99.8785 123.402 99.7352 122.252 99.5261 120.993C99.317 119.735 99.0731 118.604 98.8872 117.787C98.7655 117.35 98.6724 116.905 98.6084 116.455C98.6661 116.563 98.7103 116.677 98.7401 116.796C98.8175 117.02 98.9143 117.346 99.0266 117.752C99.2473 118.562 99.5106 119.688 99.7236 120.962C99.9089 122.042 100.038 123.13 100.111 124.223C100.138 124.641 100.153 124.997 100.153 125.218C100.163 125.339 100.157 125.462 100.134 125.582Z" fill="#263238"/>
<path d="M91.7587 136.731C91.7497 136.665 91.7497 136.599 91.7587 136.533C91.7587 136.378 91.7587 136.189 91.7587 135.964C91.7587 135.468 91.7587 134.752 91.7587 133.869C91.7897 132.1 91.871 129.66 92.0104 126.969C92.1498 124.278 92.324 121.838 92.4673 120.076C92.537 119.194 92.6028 118.481 92.6532 117.989C92.6803 117.765 92.6996 117.575 92.7151 117.424C92.7196 117.357 92.7326 117.29 92.7538 117.227C92.7629 117.293 92.7629 117.361 92.7538 117.428C92.7538 117.579 92.7538 117.769 92.7267 117.997C92.6958 118.52 92.657 119.225 92.6067 120.084C92.5021 121.877 92.3627 124.301 92.2195 126.977C92.0762 129.652 91.9755 132.107 91.9097 133.873C91.8787 134.733 91.8516 135.422 91.8323 135.964C91.8323 136.193 91.809 136.378 91.8013 136.533C91.7969 136.601 91.7826 136.667 91.7587 136.731Z" fill="#263238"/>
<path d="M84.9513 117.227C84.9485 117.56 84.9096 117.893 84.8351 118.218C84.7344 118.822 84.5718 119.654 84.3588 120.564C84.1458 121.474 83.9212 122.295 83.7431 122.888C83.6659 123.212 83.5529 123.526 83.4062 123.825C83.4407 123.494 83.5068 123.167 83.6037 122.849L84.1613 120.526C84.3627 119.654 84.5485 118.864 84.6957 118.202C84.7494 117.87 84.835 117.543 84.9513 117.227Z" fill="#263238"/>
<path d="M72.6417 111.328C72.1343 112.167 71.5689 112.969 70.9495 113.729C70.3813 114.528 69.7617 115.29 69.0947 116.01C69.601 115.17 70.1664 114.368 70.7869 113.609C71.3525 112.807 71.9722 112.045 72.6417 111.328Z" fill="#263238"/>
<path d="M66.187 106.975C66.2257 107.01 63.825 109.833 60.8202 113.275C57.8153 116.717 55.341 119.471 55.2984 119.443C55.2558 119.416 57.6604 116.586 60.6653 113.143C63.6701 109.701 66.1444 106.936 66.187 106.975Z" fill="#263238"/>
<path d="M62.9533 102.17C62.0037 103.086 61.0072 103.952 59.9679 104.764C58.2835 106.151 56.8895 107.242 56.8701 107.2C57.8204 106.286 58.8168 105.421 59.8556 104.609C60.8466 103.745 61.8805 102.931 62.9533 102.17Z" fill="#263238"/>
<path d="M59.1745 94.927C59.1978 94.9773 55.8522 96.6423 51.6973 98.6404C47.5425 100.638 44.162 102.222 44.1349 102.172C44.1078 102.121 47.4573 100.46 51.6121 98.4584C55.767 96.4565 59.1513 94.8766 59.1745 94.927Z" fill="#263238"/>
<path d="M57.6571 91.3125C57.5459 91.3613 57.4287 91.3952 57.3086 91.4132C57.0801 91.4674 56.751 91.5371 56.3444 91.6107C55.5274 91.7655 54.389 91.9359 53.1266 92.0637C51.8643 92.1915 50.7143 92.2457 49.8817 92.2573C49.4674 92.2573 49.1305 92.2573 48.8982 92.2573C48.7771 92.2652 48.6555 92.2534 48.5381 92.2225C48.9823 92.1615 49.4296 92.1266 49.8779 92.1179C50.7065 92.0676 51.8488 91.9901 53.1073 91.8624C54.3657 91.7346 55.5003 91.5874 56.3212 91.4751C56.7621 91.3894 57.2085 91.3351 57.6571 91.3125Z" fill="#263238"/>
<path d="M56.4289 82.9686C56.2034 82.9873 55.9767 82.9873 55.7512 82.9686L53.9081 82.8756C52.3592 82.7982 50.2062 82.7285 47.8326 82.7401C45.4589 82.7517 43.306 82.8485 41.7533 82.9415L39.914 83.0537C39.6891 83.0795 39.4625 83.0873 39.2363 83.077C39.4563 83.0242 39.6804 82.9905 39.9062 82.9763C40.3399 82.926 40.9672 82.864 41.7416 82.7982C43.2905 82.6704 45.4512 82.5542 47.8287 82.5387C50.2062 82.5233 52.3631 82.6201 53.9197 82.7324C54.6941 82.7904 55.3253 82.8446 55.759 82.8911C55.9838 82.9012 56.2077 82.9271 56.4289 82.9686Z" fill="#263238"/>
<path d="M57.1882 75.6418C57.1882 75.696 54.6674 75.0416 51.589 74.182C48.5106 73.3224 46.0285 72.5867 46.044 72.5325C46.0595 72.4782 48.5648 73.1288 51.6432 73.9884C54.7216 74.848 57.2037 75.5876 57.1882 75.6418Z" fill="#263238"/>
<path d="M58.81 69.509C58.7477 69.5053 58.6863 69.4923 58.628 69.4703L58.113 69.3154C57.6715 69.176 57.0326 68.9591 56.2543 68.6765C54.2206 67.9297 52.2276 67.0767 50.2834 66.1208C48.34 65.1639 46.4489 64.104 44.6184 62.9456C43.9175 62.5003 43.3561 62.1286 42.9766 61.8614L42.5429 61.5478C42.4461 61.4742 42.3957 61.4355 42.3996 61.4277C42.4582 61.4513 42.514 61.4812 42.5661 61.5168L43.023 61.7956C43.4103 62.0434 43.9833 62.3958 44.692 62.8256C46.1131 63.6852 48.1034 64.8198 50.3725 65.9233C52.6416 67.0269 54.7558 67.9253 56.3047 68.5293C57.0791 68.8275 57.7025 69.0637 58.1401 69.2263L58.6396 69.4161C58.6989 69.4422 58.7559 69.4733 58.81 69.509Z" fill="#263238"/>
<path d="M62.4538 63.3129C62.4228 63.3555 60.4635 62.0312 58.0782 60.3507C55.693 58.6701 53.784 57.2723 53.8188 57.2258C53.8537 57.1793 55.8091 58.5075 58.1983 60.188C60.5874 61.8685 62.4848 63.278 62.4538 63.3129Z" fill="#263238"/>
<path d="M54.7527 44.502C54.7527 44.502 54.8069 44.5329 54.8998 44.6065L55.287 44.9473L56.7159 46.2096L61.4051 50.3954L66.1137 54.558L67.5387 55.8242L67.9259 56.1766C67.9726 56.215 68.0143 56.2593 68.0498 56.3083C68.0498 56.3083 67.9956 56.2812 67.8988 56.2076L67.5116 55.8862C67.1592 55.6035 66.6597 55.1853 66.044 54.6665C64.8126 53.6287 63.1321 52.1766 61.2928 50.5464C59.4535 48.9163 57.8078 47.4138 56.6462 46.3141C56.0576 45.7643 55.5852 45.319 55.2599 45.0015L54.8921 44.6375C54.7992 44.5523 54.7449 44.5058 54.7527 44.502Z" fill="#263238"/>
<path d="M66.8301 44.8535C66.8301 44.8535 66.9346 44.9387 67.0934 45.1207C67.2521 45.3027 67.4806 45.5699 67.7478 45.8951C68.286 46.5689 69.0024 47.5215 69.7458 48.6057C70.4893 49.6899 71.1127 50.7044 71.5425 51.4517C71.7594 51.8389 71.9298 52.1294 72.0382 52.3423C72.1052 52.4483 72.1573 52.5629 72.1931 52.6831C71.9092 52.3136 71.6505 51.9255 71.4186 51.5214C70.9578 50.7935 70.315 49.7983 69.5755 48.7141C68.8359 47.6299 68.1389 46.6734 67.6394 45.9803C67.3474 45.6211 67.0772 45.2449 66.8301 44.8535Z" fill="#263238"/>
<g opacity="0.2">
<path d="M51.3525 41.5564L68.2004 56.3056L72.3863 52.9562L62.6129 37.9785C62.6129 37.9785 61.8617 38.5284 59.9023 39.086C58.0321 39.6242 52.4755 39.7675 51.3525 41.5564Z" fill="black"/>
</g>
<g opacity="0.2">
<path d="M70.1055 29.0856L78.33 49.6741L83.5884 48.0284L81.8343 30.1698C81.8343 30.1698 80.9321 30.3828 78.9225 30.1272C76.9747 29.8794 72.2545 28.0324 70.1055 29.0856Z" fill="black"/>
</g>
<g opacity="0.3">
<path d="M92.0371 24.7748L92.5908 47.1328L97.5163 47.369L102.504 30.2075C101.467 30.0017 100.482 29.5938 99.6034 29.0071C97.8996 27.9151 94.4224 24.5928 92.0371 24.7748Z" fill="black"/>
</g>
<g opacity="0.2">
<path d="M113.52 28.998L105.346 49.6097L109.783 51.7356L121.032 37.8499C120.186 37.1361 119.465 36.2869 118.898 35.3368C117.837 33.6214 116.01 29.6834 113.52 28.998Z" fill="black"/>
</g>
<g opacity="0.2">
<path d="M132.72 41.8574L117.494 57.7334L120.886 62.3065L135.763 52.3782C135.273 51.4759 134.942 50.4962 134.783 49.4818C134.427 47.5457 134.377 44.0297 132.72 41.8574Z" fill="black"/>
</g>
<g opacity="0.2">
<path d="M144.738 59.7715L124.234 68.209L125.934 73.4481L143.773 71.512C143.773 71.512 143.661 70.9621 143.897 68.9524C144.122 67.0047 146.182 62.6524 144.738 59.7715Z" fill="black"/>
</g>
<g opacity="0.2">
<path d="M149.28 82.1113L126.926 82.8858L126.74 87.8151L143.778 92.8025C143.891 92.0928 144.118 91.4062 144.452 90.7695C145.722 88.3998 149.28 85.0542 149.28 82.1113Z" fill="black"/>
</g>
<g opacity="0.2">
<path d="M145.156 103.244L124.575 95.2246L122.496 99.7125L136.502 110.799C137.238 110.094 138.053 109.475 138.93 108.955C140.633 107.867 144.684 106.105 145.156 103.244Z" fill="black"/>
</g>
<g opacity="0.2">
<path d="M114.888 102.928L109.792 107.187C110.179 107.574 116.967 119.129 121.153 126.262C121.207 126.215 121.264 126.171 121.323 126.13C124.077 124.287 128.979 125.026 131.743 123.203L114.888 102.928Z" fill="black"/>
<path d="M105.524 111.012L97.9189 113.606L101.52 134.253C101.754 134.17 101.993 134.104 102.236 134.055C105.822 133.347 110.55 136.468 113.853 135.101C114.305 134.907 114.726 134.646 115.1 134.326L105.524 111.012Z" fill="black"/>
<path d="M91.6383 139.443L92.8503 112.47L86.2675 110.801L81.377 134.034L81.5551 134.065C84.9626 134.727 88.0642 139.211 91.6383 139.443Z" fill="black"/>
<path d="M75.1043 107.887C75.1043 107.887 66.4151 119.527 61.8691 125.792C62.0795 125.898 62.2838 126.015 62.4809 126.144C65.4664 128.142 66.5932 133.707 69.9504 135.1C70.1053 135.162 70.2641 135.213 70.4228 135.259L82.5621 112.282L75.1043 107.887Z" fill="black"/>
<path d="M66.1866 98.5176L47.6543 111.253C47.724 111.346 47.8014 111.435 47.8634 111.532C49.8769 114.537 48.8043 120.109 51.3484 122.657C51.5832 122.888 51.8429 123.091 52.1228 123.265C58.6707 115.884 70.4267 102.634 70.8526 102.173L66.1866 98.5176Z" fill="black"/>
<path d="M61.9392 89.4219L40.0265 92.9611C40.3788 96.477 37.6063 100.915 38.9113 104.059C38.9899 104.251 39.0844 104.436 39.1939 104.612C46.8609 100.795 62.8801 92.8526 63.5461 92.81L61.9392 89.4219Z" fill="black"/>
<path d="M60.7424 77.215L40.03 71.2402C40.0106 71.4184 39.9874 71.5965 39.9564 71.7707C39.2672 75.2557 34.5586 78.427 34.5586 82.1095C34.5597 82.3547 34.5804 82.5994 34.6205 82.8413H59.9021L60.7424 77.215Z" fill="black"/>
<path d="M38.9961 59.9967C46.7405 64.1438 61.8691 72.5349 61.8691 72.5349L65.5942 65.4604L48.0996 52.2949C48.0222 52.4304 47.9486 52.5698 47.8634 52.6821C45.8925 55.6211 40.4985 56.7673 38.9961 59.9967Z" fill="black"/>
</g>
<path d="M149.241 82.1082L149.218 81.8604C149.209 81.6175 149.175 81.3762 149.117 81.1401C148.892 80.2116 148.498 79.3323 147.955 78.5458C147.289 77.4771 146.283 76.2805 145.245 74.7665C144.659 73.9611 144.209 73.0651 143.913 72.1141C143.661 71.004 143.661 69.8515 143.913 68.7414C144.13 67.5604 144.482 66.3445 144.788 65.0551C145.094 63.7656 145.38 62.3716 145.094 60.9467C144.932 60.2254 144.601 59.5527 144.13 58.9835C143.624 58.4039 143.046 57.8912 142.411 57.4578C141.125 56.544 139.646 55.816 138.232 54.8634C137.501 54.392 136.837 53.8241 136.258 53.1752C135.689 52.4708 135.276 51.6539 135.046 50.7783C134.55 49.0164 134.438 47.1346 134.062 45.2527C133.898 44.2945 133.575 43.3704 133.106 42.5189C132.596 41.6616 131.823 40.992 130.902 40.6099C129.952 40.2279 128.956 39.9676 127.94 39.8355C126.914 39.6651 125.861 39.5451 124.808 39.3592C123.728 39.2036 122.682 38.8727 121.71 38.3795C120.746 37.8 119.929 37.0047 119.325 36.0562C118.682 35.1346 118.128 34.1434 117.539 33.1637C116.976 32.1613 116.3 31.226 115.526 30.3757C114.728 29.5155 113.639 28.9816 112.471 28.8772C111.277 28.833 110.083 28.9727 108.932 29.2915C107.77 29.5742 106.577 29.9188 105.358 30.1473C104.125 30.4378 102.838 30.4139 101.617 30.0776C100.426 29.6105 99.313 28.967 98.314 28.1686C97.2801 27.3941 96.2734 26.6197 95.1698 25.9304C94.0662 25.2412 92.8155 24.7417 91.5144 24.8888H91.2705C91.1892 24.8888 91.1117 24.9237 91.0343 24.9392C90.8755 24.9779 90.7129 25.005 90.558 25.0514C90.2461 25.1506 89.9409 25.2696 89.6442 25.4077C89.0452 25.6925 88.4702 26.0253 87.9249 26.4028C86.8252 27.1773 85.7836 28.0214 84.6529 28.7881C84.09 29.1822 83.494 29.5268 82.8717 29.8181C82.2339 30.1034 81.5512 30.2751 80.8543 30.3254C79.4571 30.3343 78.0662 30.1373 76.7265 29.7407C75.3776 29.3555 74.0017 29.0721 72.6104 28.8927C71.9156 28.8243 71.2143 28.8714 70.5349 29.0321C69.8582 29.2202 69.234 29.5621 68.7111 30.0311C67.6424 30.9643 66.8989 32.2189 66.1554 33.4502C65.4535 34.7396 64.633 35.9608 63.7043 37.0978C63.2127 37.6611 62.6222 38.1296 61.9619 38.4802C61.2877 38.7989 60.5798 39.0405 59.8515 39.2004C58.3956 39.5218 56.9087 39.6574 55.4411 39.9207C53.9735 40.184 52.475 40.5983 51.414 41.6283C50.9019 42.1738 50.5066 42.8181 50.2524 43.5218C49.996 44.2315 49.808 44.9641 49.6909 45.7096C49.4198 47.2043 49.3037 48.7376 48.9164 50.2439C48.7501 51.0084 48.4722 51.7442 48.0917 52.4278C47.6908 53.1051 47.1652 53.7003 46.5428 54.1819C45.3192 55.1655 43.9291 55.8935 42.597 56.7066C41.9297 57.1082 41.2894 57.5532 40.6803 58.0387C40.0743 58.5229 39.5647 59.1166 39.1779 59.7889C38.8091 60.4736 38.6224 61.2416 38.6358 62.0193C38.6495 62.8009 38.7416 63.5793 38.9107 64.3426C39.236 65.8915 39.7277 67.4132 39.991 68.9892C40.1471 69.798 40.1785 70.6259 40.084 71.4442C39.9741 72.2604 39.7113 73.0486 39.3095 73.7675C38.5003 75.1808 37.447 76.4238 36.5138 77.7404C36.0346 78.3892 35.6171 79.0815 35.267 79.8081C34.8833 80.5168 34.6824 81.31 34.6824 82.1159C34.6824 82.9218 34.8833 83.715 35.267 84.4238C35.6166 85.1507 36.034 85.8431 36.5138 86.4915C37.447 87.8081 38.5003 89.051 39.3095 90.4644C39.7039 91.1699 39.9664 91.9415 40.084 92.7412C40.1824 93.5484 40.1562 94.366 40.0065 95.1652C39.7471 96.7567 39.2553 98.2823 38.9262 99.8312C38.7585 100.595 38.6664 101.373 38.6513 102.155C38.636 102.933 38.8214 103.703 39.1895 104.389C39.5733 105.063 40.0819 105.658 40.688 106.143C41.2971 106.628 41.9374 107.073 42.6048 107.475C43.9368 108.288 45.3153 109.024 46.5544 110C47.1758 110.482 47.7012 111.077 48.1033 111.754C48.4866 112.435 48.7647 113.17 48.9281 113.934C49.2921 115.444 49.416 116.977 49.7025 118.472C49.8227 119.217 50.012 119.95 50.2678 120.66C50.5161 121.363 50.9047 122.009 51.4101 122.557C52.4827 123.599 53.9929 124.013 55.4411 124.276C56.8893 124.54 58.3956 124.664 59.8515 124.997C60.5809 125.157 61.29 125.399 61.9657 125.717C62.6252 126.069 63.2155 126.537 63.7082 127.099C64.6276 128.238 65.4403 129.459 66.1361 130.747C66.8795 131.978 67.623 133.233 68.6917 134.166C69.2138 134.634 69.8365 134.976 70.5117 135.165C71.1969 135.338 71.9062 135.396 72.6104 135.335C73.9992 135.149 75.3723 134.86 76.7188 134.472C78.0592 134.072 79.4517 133.874 80.8504 133.883C81.5474 133.936 82.2299 134.109 82.8678 134.394C83.4897 134.687 84.0856 135.031 84.649 135.424C85.7797 136.199 86.8175 137.055 87.921 137.806C88.4641 138.186 89.0378 138.52 89.6364 138.805C89.9334 138.942 90.2386 139.061 90.5503 139.161C90.709 139.204 90.8678 139.235 91.0265 139.273L91.2666 139.324H91.5067C92.8116 139.471 94.0662 138.936 95.1659 138.282C96.2656 137.628 97.2762 136.803 98.3062 136.044C99.3067 135.246 100.421 134.602 101.613 134.135C102.835 133.801 104.12 133.777 105.354 134.065C106.573 134.298 107.751 134.642 108.928 134.925C110.081 135.24 111.276 135.38 112.471 135.339C113.638 135.231 114.724 134.696 115.522 133.837C116.294 132.983 116.969 132.047 117.536 131.045C118.12 130.069 118.674 129.078 119.317 128.152C119.925 127.205 120.742 126.411 121.706 125.829C122.678 125.335 123.724 125.006 124.804 124.853C125.861 124.664 126.91 124.544 127.936 124.377C128.953 124.239 129.949 123.972 130.898 123.583C131.819 123.2 132.591 122.53 133.102 121.674C133.568 120.822 133.89 119.898 134.054 118.94C134.442 117.059 134.542 115.173 135.042 113.411C135.27 112.536 135.683 111.72 136.254 111.018C136.831 110.367 137.496 109.799 138.229 109.33C139.642 108.377 141.121 107.649 142.403 106.735C143.041 106.303 143.621 105.789 144.126 105.206C144.597 104.638 144.926 103.967 145.086 103.246C145.221 102.551 145.241 101.838 145.144 101.136C145.064 100.463 144.943 99.796 144.78 99.1381C144.471 97.8486 144.122 96.6328 143.905 95.4518C143.653 94.3417 143.653 93.1892 143.905 92.0791C144.203 91.1287 144.653 90.2329 145.237 89.4266C146.287 87.9126 147.297 86.7161 147.948 85.6474C148.491 84.8612 148.885 83.9818 149.109 83.053C149.167 82.817 149.201 82.5757 149.21 82.3328L149.233 82.0888C149.233 82.0888 149.233 82.1701 149.233 82.3328C149.226 82.5766 149.195 82.8191 149.14 83.0569C148.92 83.9931 148.526 84.8796 147.979 85.6706C147.317 86.7471 146.314 87.9475 145.268 89.4615C144.687 90.2615 144.244 91.1527 143.956 92.0984C143.704 93.1968 143.704 94.3379 143.956 95.4363C144.172 96.5979 144.525 97.8254 144.838 99.1149C145.007 99.7778 145.136 100.45 145.226 101.128C145.322 101.839 145.302 102.561 145.168 103.266C145.006 104.002 144.671 104.69 144.192 105.272C143.682 105.861 143.097 106.382 142.453 106.821C141.16 107.742 139.684 108.474 138.279 109.423C137.561 109.889 136.91 110.45 136.343 111.092C135.784 111.782 135.379 112.585 135.158 113.446C134.666 115.188 134.558 117.07 134.178 118.964C134.015 119.937 133.689 120.875 133.214 121.74C132.691 122.622 131.898 123.311 130.953 123.707C129.993 124.101 128.987 124.372 127.959 124.513C126.929 124.683 125.876 124.803 124.827 124.993C123.761 125.145 122.728 125.471 121.768 125.957C120.831 126.525 120.036 127.3 119.445 128.222C118.81 129.14 118.256 130.127 117.667 131.111C117.098 132.123 116.417 133.068 115.638 133.93C114.815 134.818 113.692 135.369 112.486 135.479C111.274 135.526 110.062 135.387 108.893 135.064C107.712 134.782 106.535 134.441 105.327 134.212C104.12 133.93 102.863 133.953 101.667 134.278C100.494 134.741 99.3962 135.377 98.4108 136.164C97.3847 136.919 96.374 137.732 95.2588 138.414C94.9684 138.569 94.6935 138.751 94.3915 138.878C94.2405 138.948 94.0933 139.022 93.9423 139.084L93.4738 139.25C92.8384 139.468 92.1637 139.548 91.4951 139.482L91.2434 139.463C91.1621 139.463 91.0807 139.428 90.9956 139.413C90.8329 139.374 90.6664 139.343 90.5077 139.297C90.186 139.197 89.8716 139.076 89.5667 138.933C88.9591 138.644 88.3762 138.306 87.8242 137.922C86.7129 137.148 85.6713 136.303 84.5522 135.541C83.9963 135.155 83.4096 134.816 82.7981 134.526C82.1794 134.251 81.5179 134.085 80.8427 134.034C79.4622 134.028 78.0884 134.225 76.7653 134.619C75.4047 135.019 74.0158 135.316 72.6104 135.506C71.8923 135.576 71.1676 135.527 70.4652 135.362C69.7616 135.166 69.1125 134.811 68.5678 134.325C67.4681 133.361 66.7169 132.094 65.9735 130.859C65.2845 129.581 64.4782 128.371 63.565 127.242C63.0892 126.697 62.5168 126.244 61.8767 125.907C61.2168 125.593 60.523 125.357 59.8089 125.202C58.3685 124.884 56.8854 124.749 55.4062 124.482C54.661 124.358 53.9287 124.166 53.2185 123.909C52.4981 123.644 51.8393 123.236 51.2824 122.708C50.7538 122.144 50.3489 121.475 50.0936 120.745C49.8322 120.024 49.639 119.28 49.5166 118.522C49.2456 117.016 49.1294 115.483 48.7422 113.996C48.5814 113.251 48.3099 112.534 47.9368 111.87C47.5449 111.213 47.0325 110.637 46.4266 110.17C45.2263 109.206 43.84 108.478 42.5041 107.661C41.8301 107.254 41.1834 106.804 40.568 106.313C39.9416 105.811 39.4161 105.195 39.0191 104.497C38.6368 103.784 38.4447 102.983 38.4615 102.174C38.4707 101.373 38.5642 100.574 38.7403 99.7925C39.0695 98.2436 39.5612 96.6947 39.8168 95.1459C39.963 94.3657 39.9878 93.5677 39.8904 92.78C39.7731 91.9973 39.5104 91.2434 39.1159 90.5573C38.3415 89.1633 37.2728 87.9281 36.3318 86.5999C35.8415 85.9382 35.4125 85.2331 35.0501 84.4935C34.6563 83.7573 34.4502 82.9353 34.4502 82.1005C34.4502 81.2656 34.6563 80.4436 35.0501 79.7074C35.4075 78.97 35.8327 78.2674 36.3202 77.6087C37.2612 76.2805 38.3105 75.0453 39.1004 73.6552C39.4945 72.9675 39.7572 72.2125 39.8749 71.4287C39.9652 70.6405 39.9391 69.8434 39.7974 69.0628C39.538 67.5139 39.0462 65.965 38.7171 64.4161C38.5441 63.6352 38.452 62.8385 38.4422 62.0386C38.4267 61.2288 38.6201 60.4287 39.0036 59.7153C39.4032 59.0205 39.9284 58.406 40.5525 57.9031C41.167 57.4111 41.8138 56.9609 42.4886 56.5556C43.8245 55.7386 45.1991 55.0067 46.4111 54.0464C47.0159 53.5798 47.5269 53.003 47.9174 52.3465C48.2887 51.6803 48.5589 50.9625 48.719 50.2168C49.0791 48.7299 49.203 47.2004 49.4934 45.6941C49.6144 44.9369 49.8063 44.1928 50.0665 43.4715C50.3 42.7331 50.7064 42.0612 51.2519 41.5116C51.7975 40.9621 52.4664 40.5507 53.203 40.3118C53.9132 40.0544 54.6455 39.8626 55.3908 39.7387C56.8699 39.4715 58.353 39.3514 59.7934 39.0223C60.5061 38.8629 61.1995 38.6266 61.8612 38.3176C62.4995 37.9771 63.0703 37.5231 63.5456 36.9778C64.4589 35.8496 65.2652 34.6388 65.9541 33.3612C66.6976 32.1259 67.4488 30.8597 68.5523 29.8994C69.0997 29.4056 69.7547 29.0463 70.4652 28.8501C71.1678 28.6867 71.8923 28.6383 72.6104 28.7068C74.0071 28.8935 75.3881 29.1835 76.742 29.5742C78.0645 29.9712 79.4386 30.1696 80.8194 30.1627C81.4884 30.1094 82.1432 29.9418 82.7555 29.6671C83.369 29.3813 83.956 29.0418 84.5096 28.6526C85.6326 27.8781 86.6742 27.0301 87.7855 26.2751C88.3366 25.8894 88.9196 25.5513 89.528 25.2644C89.8324 25.1225 90.1454 24.9997 90.4651 24.8966C90.6277 24.8501 90.7942 24.823 90.9568 24.7843L91.2008 24.7301H91.4525C92.121 24.6669 92.7954 24.7461 93.4312 24.9624L93.8997 25.1289C94.0507 25.1908 94.1979 25.2644 94.3489 25.3341C94.6548 25.4658 94.9297 25.6439 95.2162 25.7988C96.3353 26.4803 97.3421 27.2934 98.3721 28.0485C99.3565 28.8353 100.453 29.4709 101.625 29.9343C102.82 30.2618 104.078 30.2844 105.284 30.0001C106.492 29.7755 107.669 29.4348 108.85 29.1521C110.02 28.8305 111.232 28.6895 112.444 28.7339C113.649 28.8446 114.771 29.3961 115.596 30.2828C116.375 31.1458 117.057 32.0925 117.628 33.1056C118.217 34.0853 118.767 35.0766 119.402 35.9904C119.993 36.9144 120.788 37.6906 121.725 38.2595C122.685 38.7475 123.718 39.0733 124.784 39.2237C125.834 39.4134 126.887 39.5334 127.917 39.7038C128.944 39.8463 129.95 40.1169 130.91 40.5092C131.855 40.9049 132.649 41.5929 133.175 42.4724C133.648 43.3381 133.974 44.2763 134.14 45.2488C134.527 47.1423 134.627 49.0242 135.115 50.7667C135.339 51.6264 135.743 52.4288 136.3 53.121C136.866 53.7643 137.518 54.3271 138.236 54.7938C139.642 55.7424 141.121 56.4743 142.411 57.3959C143.055 57.8348 143.639 58.3555 144.149 58.9447C144.629 59.5253 144.965 60.2114 145.129 60.9467C145.264 61.6526 145.283 62.3758 145.187 63.088C145.098 63.765 144.969 64.4361 144.8 65.0977C144.49 66.391 144.134 67.603 143.917 68.7801C143.665 69.8785 143.665 71.0196 143.917 72.1179C144.205 73.0637 144.649 73.9549 145.229 74.7549C146.271 76.2728 147.274 77.4654 147.94 78.5458C148.486 79.3373 148.88 80.2237 149.102 81.1595C149.156 81.3973 149.187 81.6398 149.195 81.8836C149.241 82.023 149.241 82.1082 149.241 82.1082Z" fill="#263238"/>
<path d="M81.1302 135.336C81.1844 135.336 79.7555 141.144 77.9395 148.277C76.1234 155.41 74.6055 161.183 74.5513 161.171C74.4971 161.16 75.9259 155.363 77.742 148.227C79.558 141.09 81.0914 135.305 81.1302 135.336Z" fill="#263238"/>
<path d="M91.9018 117.261C111.316 117.261 127.054 101.523 127.054 82.1088C127.054 62.695 111.316 46.957 91.9018 46.957C72.488 46.957 56.75 62.695 56.75 82.1088C56.75 101.523 72.488 117.261 91.9018 117.261Z" fill="white"/>
<path d="M70.2569 69.9266C69.7728 70.4106 67.1088 75.2586 66.8648 79.2585C66.6209 83.2585 67.1978 105.709 67.1978 105.709L67.3024 107.2C73.6295 114.6 96.6304 125.613 117.347 107.162L118.508 93.3495L115.089 64.1105L103.201 61.2025L100.417 56.6914L81.8618 61.036L80.2045 64.9469L70.2569 69.9266Z" fill="#455A64"/>
<path d="M99.1435 44.9348C99.9606 41.8951 100.762 38.8361 101.045 35.7035C101.327 32.5709 101.068 29.3338 99.8212 26.4451C99.6314 26.0075 98.0632 23.084 97.5908 23.1576C97.2539 23.208 98.2684 25.9572 98.1135 26.2554C96.6227 29.1479 96.3517 32.5438 96.7815 35.7693C97.2249 38.9017 98.0172 41.9747 99.1435 44.9309" fill="#263238"/>
<path d="M98.8332 32.9327C98.6861 25.0451 93.9697 18.5592 86.0898 18.927L85.3618 19.0045C81.8374 19.376 78.5819 21.0606 76.2429 23.7232C73.9039 26.3858 72.6528 29.8312 72.7385 33.3742C72.9089 40.2086 73.1799 47.7594 73.6097 51.3915C74.4965 58.9074 82.1286 59.2869 82.1286 59.2869L82.4809 64.2317L85.7142 67.7437L100.703 58.4505L98.8332 32.9327Z" fill="#FFBF9D"/>
<path d="M82.1484 59.3443C82.1484 59.3443 86.9228 59.1236 91.643 55.4141C91.643 55.4141 90.0632 62.233 82.4814 62.3453L82.1484 59.3443Z" fill="#FF9A6C"/>
<path d="M77.0718 39.5034C77.0983 39.786 77.2351 40.0469 77.4525 40.2295C77.6699 40.4121 77.9504 40.5018 78.2334 40.4792C78.3712 40.4757 78.507 40.4447 78.6326 40.3881C78.7583 40.3314 78.8714 40.2501 78.9652 40.1491C79.059 40.0481 79.1316 39.9293 79.1789 39.7998C79.2261 39.6703 79.2469 39.5327 79.2402 39.395C79.2126 39.1127 79.0756 38.8525 78.8584 38.67C78.6413 38.4876 78.3613 38.3976 78.0785 38.4192C77.9405 38.4221 77.8046 38.4527 77.6786 38.5092C77.5527 38.5657 77.4394 38.6469 77.3455 38.7481C77.2516 38.8492 77.179 38.9682 77.132 39.0979C77.0849 39.2277 77.0645 39.3656 77.0718 39.5034Z" fill="#263238"/>
<path d="M74.679 36.329C74.8261 36.4529 75.5773 35.7676 76.7351 35.6475C77.8929 35.5275 78.799 36.0347 78.9113 35.8605C78.9655 35.7947 78.8028 35.5546 78.404 35.3223C77.8673 35.0297 77.2535 34.9093 76.646 34.9776C76.0444 35.0396 75.4779 35.2904 75.0275 35.694C74.6983 36.0076 74.6054 36.2709 74.679 36.329Z" fill="#263238"/>
<path d="M87.2903 38.6342C87.3169 38.9168 87.4536 39.1777 87.671 39.3603C87.8884 39.5429 88.169 39.6326 88.452 39.61C88.5898 39.6065 88.7255 39.5755 88.8512 39.5189C88.9768 39.4622 89.0899 39.3809 89.1837 39.2799C89.2775 39.1789 89.3502 39.0601 89.3974 38.9306C89.4446 38.8011 89.4655 38.6634 89.4587 38.5258C89.4321 38.2428 89.2955 37.9816 89.0783 37.7984C88.861 37.6151 88.5805 37.5245 88.2971 37.5461C88.1591 37.55 88.0233 37.5815 87.8976 37.6386C87.7719 37.6957 87.6589 37.7773 87.5651 37.8786C87.4713 37.98 87.3987 38.099 87.3516 38.2287C87.3044 38.3584 87.2836 38.4963 87.2903 38.6342Z" fill="#263238"/>
<path d="M86.0589 35.5993C86.206 35.7271 86.9611 35.0378 88.115 34.9178C89.2689 34.7978 90.1828 35.305 90.2912 35.1346C90.3454 35.0649 90.1866 34.8249 89.7878 34.5964C89.2502 34.3023 88.6347 34.1819 88.0259 34.2518C87.4236 34.3111 86.8563 34.5622 86.4074 34.9681C86.0821 35.2779 85.9892 35.5451 86.0589 35.5993Z" fill="#263238"/>
<path d="M82.8453 44.9289C82.8453 44.8631 82.1134 44.8127 80.9324 44.7856C80.6342 44.7856 80.3477 44.7585 80.278 44.561C80.2196 44.2592 80.2561 43.9467 80.3826 43.6666L81.0176 41.3432C81.8927 38.0132 82.4929 35.2871 82.3612 35.2523C82.2296 35.2174 81.4048 37.8893 80.5297 41.2232L79.9334 43.5659C79.7876 43.9376 79.7766 44.3486 79.9024 44.7275C79.9553 44.8284 80.0306 44.9158 80.1226 44.9829C80.2145 45.05 80.3207 45.0952 80.4329 45.1148C80.6013 45.1354 80.7717 45.1354 80.9401 45.1148C82.1212 45.0644 82.8491 44.9947 82.8453 44.9289Z" fill="#263238"/>
<path d="M86.3337 45.3697C86.144 45.3697 86.2756 46.6321 85.296 47.6388C84.3163 48.6456 82.9727 48.6456 82.9727 48.8237C82.9727 48.9012 83.294 49.0367 83.8633 48.9902C84.5964 48.9214 85.2819 48.5965 85.7994 48.0725C86.2932 47.5656 86.5708 46.8867 86.5738 46.179C86.5932 45.6485 86.4189 45.3542 86.3337 45.3697Z" fill="#263238"/>
<path d="M85.6298 30.8992C85.777 31.2012 86.9154 30.9302 88.29 30.9534C89.6647 30.9766 90.8031 31.2283 90.9502 30.9263C91.016 30.783 90.7953 30.5081 90.3191 30.2487C89.6872 29.9423 88.9941 29.7832 88.292 29.7832C87.5898 29.7832 86.8967 29.9423 86.2649 30.2487C85.777 30.481 85.564 30.7559 85.6298 30.8992Z" fill="#263238"/>
<path d="M74.7523 32.4315C74.9808 32.6716 75.7514 32.3154 76.7078 32.1992C77.6642 32.083 78.4968 32.1992 78.6439 31.8972C78.7136 31.7539 78.5587 31.51 78.1792 31.2931C77.6709 31.0452 77.1004 30.9537 76.5399 31.0302C75.9795 31.1067 75.4544 31.3478 75.0311 31.7229C74.7291 32.0288 74.6478 32.3115 74.7523 32.4315Z" fill="#263238"/>
<path d="M98.8057 38.5748C98.9296 38.5051 103.816 36.4993 104.196 41.6726C104.575 46.8458 99.3284 46.1411 99.2936 45.9939C99.2587 45.8468 98.8057 38.5748 98.8057 38.5748Z" fill="#FFBF9D"/>
<path d="M100.727 43.9216C100.75 43.9216 100.82 43.9759 100.979 44.0339C101.199 44.1103 101.441 44.0978 101.652 43.9991C102.183 43.759 102.578 42.8607 102.535 41.9275C102.517 41.4836 102.4 41.0494 102.191 40.6574C102.13 40.4999 102.032 40.3595 101.905 40.2482C101.779 40.1369 101.627 40.058 101.463 40.0185C101.358 39.9977 101.249 40.0147 101.156 40.0664C101.062 40.1182 100.99 40.2013 100.952 40.3011C100.89 40.4522 100.932 40.5528 100.905 40.5644C100.878 40.5761 100.789 40.4831 100.812 40.2702C100.832 40.1392 100.897 40.0191 100.994 39.9294C101.129 39.8122 101.304 39.7524 101.482 39.7629C101.697 39.7883 101.902 39.8691 102.076 39.9974C102.251 40.1257 102.389 40.2971 102.477 40.4947C102.732 40.9254 102.875 41.4123 102.895 41.912C102.938 42.9536 102.477 43.9681 101.734 44.2353C101.598 44.2863 101.453 44.3061 101.309 44.2934C101.165 44.2807 101.026 44.2357 100.901 44.1617C100.746 44.0455 100.711 43.9294 100.727 43.9216Z" fill="#FF9A6C"/>
<path d="M75.5303 24.5914C74.6668 24.1809 77.0018 21.3116 79.0153 20.2468C82.0318 18.6398 86.7171 17.4665 89.6329 18.0938C93.1449 18.8683 96.1188 20.3784 98.051 23.4065C99.9832 26.4345 100.87 30.0473 101.002 33.6368C101.04 34.7326 101.002 35.8788 100.475 36.8391C99.8283 38.0279 98.4886 38.8372 98.6512 40.4093C98.6899 40.6931 98.6715 40.9819 98.597 41.2585C98.5226 41.5351 98.3935 41.7941 98.2175 42.0201C97.3347 43.0888 96.1188 42.2176 95.5263 41.3038C94.2601 39.3677 93.9775 36.9475 93.7297 34.632C93.5515 32.9902 93.3773 31.3096 93.7297 29.6988C93.9233 28.8198 94.2795 27.9795 94.4266 27.0928C94.5738 26.2061 94.4847 25.2187 93.8962 24.5372C93.759 24.3942 93.6086 24.2646 93.447 24.1499C92.6852 23.5652 91.7811 23.1945 90.828 23.076C89.875 22.9576 88.9077 23.0957 88.0259 23.4762C85.1798 24.6921 80.3125 26.5507 78.9495 25.6446C76.994 24.3436 76.4829 23.4297 76.4829 23.4297L75.5303 24.5914Z" fill="#263238"/>
<path d="M70.2566 69.9277C69.9584 70.3421 65.7261 71.7477 64.1192 74.4233C62.5122 77.099 60.9246 89.1106 60.9246 89.1106L59.9023 97.0021C61.9159 100.185 64.6187 104.402 67.4841 107.376L70.2566 69.9277Z" fill="#455A64"/>
<g opacity="0.3">
<path d="M102.059 81.5137C102.173 83.1332 102.48 84.7334 102.972 86.2803C103.526 87.8021 104.498 89.2348 105.919 90.0209C106.512 90.3461 107.182 90.563 107.681 91.0276C108.181 91.4923 108.483 92.2435 108.967 92.7895C109.572 93.39 110.319 93.8281 111.139 94.0634C113.446 94.9093 115.893 95.3036 118.349 95.2251C118.426 94.3965 118.43 91.3529 118.508 90.5204L102.059 81.5137Z" fill="black"/>
</g>
<path d="M115.088 64.1113C115.088 64.1113 120.424 65.6912 121.988 67.9642C123.553 70.2371 126.321 79.0502 126.891 80.6843C127.46 82.3184 126.96 86.1054 125.895 88.8159C124.831 91.5264 122.98 93.8846 119.785 94.237C116.591 94.5893 111.541 92.7462 110.403 91.5264C109.264 90.3067 108.796 87.6078 108.796 87.6078C110.215 87.3591 111.614 87.0084 112.982 86.5584" fill="#455A64"/>
<path d="M112.982 86.5854L112.916 86.6125L112.715 86.6861C112.537 86.748 112.27 86.8371 111.917 86.9416C110.899 87.2461 109.865 87.4943 108.82 87.6851L108.862 87.627C108.992 88.2923 109.175 88.9462 109.408 89.5825C109.536 89.9432 109.69 90.2939 109.869 90.6318C110.053 90.9929 110.295 91.3213 110.585 91.6038C110.913 91.8851 111.275 92.1244 111.662 92.3162C112.071 92.5309 112.491 92.7235 112.92 92.8932C113.842 93.2617 114.789 93.5619 115.755 93.7915C116.797 94.0473 117.865 94.1837 118.938 94.1981C119.217 94.2006 119.496 94.1877 119.774 94.1594C120.054 94.1273 120.332 94.0782 120.607 94.0123C121.169 93.8858 121.71 93.6756 122.21 93.3888C123.251 92.7865 124.126 91.9332 124.754 90.9068C125.418 89.8408 125.926 88.6856 126.264 87.476C126.54 86.5465 126.745 85.5978 126.88 84.6377C127.024 83.708 127.07 82.7658 127.019 81.8265C126.988 81.3745 126.896 80.9289 126.744 80.5022C126.597 80.0685 126.454 79.6387 126.314 79.2127L125.482 76.7229C124.932 75.1043 124.39 73.5748 123.848 72.1537C123.372 70.8314 122.798 69.5461 122.132 68.3086C121.824 67.7827 121.414 67.3243 120.924 66.9611C120.498 66.6218 120.044 66.3175 119.569 66.0512C118.805 65.6154 118.015 65.2274 117.203 64.8895C116.537 64.6146 116.01 64.421 115.654 64.2932L115.248 64.1499C115.199 64.137 115.152 64.1188 115.108 64.0957C115.157 64.102 115.205 64.1137 115.251 64.1306L115.666 64.2545C116.03 64.3706 116.564 64.5526 117.238 64.8159C118.057 65.1392 118.855 65.5129 119.627 65.935C120.111 66.2013 120.573 66.5056 121.009 66.845C121.513 67.2147 121.937 67.6822 122.256 68.2196C122.937 69.4638 123.523 70.7583 124.006 72.0918C124.56 73.509 125.106 75.0424 125.66 76.661C125.935 77.4703 126.214 78.3028 126.5 79.1508C126.643 79.5729 126.787 80.0027 126.93 80.4364C127.089 80.8778 127.187 81.339 127.22 81.8071C127.275 82.7605 127.23 83.717 127.085 84.6609C126.948 85.6314 126.74 86.5904 126.461 87.5302C126.116 88.7604 125.594 89.9341 124.913 91.0152C124.267 92.0691 123.367 92.9439 122.295 93.5592C121.778 93.8529 121.221 94.0683 120.642 94.1981C120.359 94.2653 120.074 94.3157 119.786 94.3491C119.499 94.3491 119.213 94.3995 118.934 94.3879C117.846 94.3681 116.764 94.2252 115.708 93.9619C114.734 93.7283 113.779 93.4215 112.851 93.0442C112.418 92.8693 111.996 92.6716 111.584 92.4518C111.186 92.2522 110.814 92.0038 110.477 91.7122C110.177 91.4156 109.929 91.0715 109.741 90.6938C109.562 90.3507 109.408 89.9948 109.281 89.6289C109.053 88.9812 108.876 88.3172 108.75 87.6425V87.5922H108.8C110.163 87.356 111.209 87.0888 111.917 86.8952L112.723 86.6667L112.928 86.6086C112.959 86.5854 112.982 86.5815 112.982 86.5854Z" fill="#263238"/>
<path d="M122.776 83.7308C122.737 83.7308 122.613 83.0725 122.168 82.089C121.583 80.8104 120.766 79.6511 119.759 78.6698C119.201 78.1387 118.57 77.6902 117.885 77.3378L117.416 77.1287C117.262 77.059 117.099 77.028 116.952 76.9777C116.673 76.89 116.387 76.8303 116.096 76.7996L115.902 76.7724H115.376C115.194 76.7697 115.012 76.7853 114.834 76.8189C114.678 76.8502 114.52 76.867 114.361 76.8693C114.508 76.8085 114.661 76.7656 114.818 76.7415C114.998 76.6903 115.185 76.663 115.372 76.6602H115.72H115.91L116.112 76.6834C116.412 76.7043 116.709 76.7562 116.998 76.8383C117.161 76.879 117.321 76.9281 117.478 76.9854L117.966 77.1945C118.677 77.5454 119.33 78.0023 119.902 78.5498C120.931 79.5442 121.747 80.7379 122.299 82.058C122.398 82.2825 122.483 82.5127 122.555 82.7472C122.615 82.9236 122.664 83.1033 122.702 83.2855C122.741 83.4312 122.765 83.5803 122.776 83.7308Z" fill="#263238"/>
<path d="M125.687 78.9424C125.467 78.3788 125.198 77.8359 124.882 77.3199C124.079 76.0951 122.878 75.1854 121.482 74.7449C119.844 74.2454 118.253 74.4003 117.141 74.5048L115.813 74.6636C115.652 74.6927 115.489 74.7069 115.325 74.7062C115.478 74.6464 115.638 74.6061 115.801 74.5862C116.111 74.5242 116.576 74.4429 117.126 74.3655C118.593 74.109 120.099 74.1724 121.54 74.5513C122.329 74.7885 123.062 75.1837 123.693 75.713C124.21 76.1523 124.652 76.6728 125.002 77.2541C125.241 77.6356 125.432 78.0453 125.571 78.4738C125.628 78.625 125.667 78.7823 125.687 78.9424Z" fill="#263238"/>
<path d="M121.663 73.2139C119.576 72.7218 117.394 72.8074 115.352 73.4618C115.619 73.287 115.914 73.1563 116.223 73.0745C116.956 72.8493 117.714 72.7191 118.48 72.6873C119.246 72.6602 120.013 72.7304 120.761 72.8964C121.076 72.9566 121.38 73.0636 121.663 73.2139Z" fill="#263238"/>
<path d="M113.029 65.4434C113.06 65.4434 112.983 65.9893 112.921 66.8645C112.759 69.106 112.952 71.3591 113.494 73.5401L113.355 73.5866C113.196 73.1413 113.072 72.7773 112.991 72.5217C112.94 72.3971 112.904 72.2672 112.882 72.1345C112.961 72.2547 113.024 72.385 113.068 72.5217C113.173 72.7657 113.316 73.1219 113.494 73.5633L113.355 73.6059C113.048 72.5345 112.844 71.4363 112.747 70.3262C112.645 69.1779 112.656 68.0224 112.778 66.8761C112.828 66.4385 112.886 66.1016 112.933 65.8422C112.946 65.7053 112.978 65.571 113.029 65.4434Z" fill="#263238"/>
<path d="M105.482 55.5098C105.482 55.5098 102.713 55.5098 102.364 58.836C102.097 61.3916 102.364 63.8698 102.364 64.9928C102.364 66.1157 101.873 70.0924 101.873 70.0924C101.873 70.0924 99.9831 71.7691 100.014 73.7826C100.045 75.7962 101.485 76.4235 101.485 76.4235C101.244 77.0474 101.191 77.7285 101.333 78.3824C101.474 79.0363 101.805 79.6342 102.283 80.1021C102.283 80.1021 101.482 81.9568 102.14 83.1998C102.519 83.8181 103.111 84.2766 103.805 84.4892C103.691 84.7339 103.632 85.0002 103.63 85.2699C103.628 85.5397 103.684 85.8067 103.794 86.053C103.904 86.2993 104.066 86.5191 104.268 86.6976C104.47 86.876 104.708 87.009 104.967 87.0875C105.897 87.3756 106.871 87.495 107.844 87.4399L109.911 87.4011L111.731 88.4079C111.731 88.4079 114.852 87.0488 114.93 85.2095L115.011 83.3702C115.011 83.3702 114.117 80.3499 114.043 79.3818C113.969 78.4138 114.763 76.1021 114.283 75.0643C113.803 74.0266 112.126 73.4148 112.285 71.9666C112.444 70.5184 112.126 69.713 111.406 68.9114C110.686 68.1099 107.507 66.5145 107.507 66.5145C107.507 66.5145 106.69 64.1912 106.69 62.5997C106.69 61.0083 108.281 56.1177 105.482 55.5098Z" fill="#FFBF9D"/>
<path d="M107.348 67.1191C107.11 67.3139 106.85 67.4803 106.574 67.6148C106.086 67.9013 105.412 68.2808 104.638 68.6912C103.863 69.1017 103.19 69.4657 102.702 69.7174C102.438 69.8768 102.157 70.0066 101.865 70.1046C102.102 69.9076 102.362 69.7399 102.64 69.6051C103.128 69.3185 103.801 68.9391 104.576 68.5286C105.35 68.1182 106.024 67.7542 106.512 67.5025C106.775 67.3431 107.056 67.2144 107.348 67.1191Z" fill="#FF9A6C"/>
<path d="M109.169 73.3809C109.169 73.3809 109.091 73.4699 108.925 73.5977C108.694 73.7792 108.453 73.9485 108.205 74.105C107.387 74.629 106.518 75.0675 105.61 75.4138C104.703 75.7657 103.762 76.0252 102.803 76.1882C102.416 76.2463 102.133 76.2811 101.928 76.2927C101.82 76.3129 101.71 76.3129 101.603 76.2927C101.603 76.2618 102.052 76.1998 102.764 76.0488C103.704 75.8514 104.627 75.5821 105.525 75.2434C106.421 74.8966 107.289 74.4797 108.119 73.9965C108.459 73.7736 108.809 73.5681 109.169 73.3809Z" fill="#FF9A6C"/>
<path d="M111.545 71.3862C111.596 71.4055 111.491 71.7734 111.158 72.056C110.825 72.3387 110.469 72.4239 110.457 72.3736C110.446 72.3232 110.732 72.1761 111.023 71.905C111.313 71.634 111.491 71.3629 111.545 71.3862Z" fill="#FF9A6C"/>
<path d="M110.404 78.8594C110.032 79.04 109.643 79.1827 109.242 79.2853C108.29 79.5688 107.319 79.7899 106.338 79.9475C105.357 80.1074 104.366 80.2005 103.372 80.2263C102.96 80.258 102.546 80.2451 102.137 80.1875C102.544 80.1297 102.953 80.096 103.364 80.0869C104.139 80.0327 105.165 79.932 106.307 79.75C107.449 79.568 108.468 79.3318 109.203 79.1459C109.598 79.0271 109.998 78.9314 110.404 78.8594Z" fill="#FF9A6C"/>
<path d="M112.936 78.414C112.995 78.2124 113.066 78.0145 113.149 77.8216C113.303 77.3486 113.354 76.8484 113.3 76.354C113.239 75.86 113.069 75.3855 112.805 74.9639C112.679 74.7955 112.564 74.6197 112.46 74.4373C112.46 74.4179 112.681 74.5612 112.925 74.8826C113.238 75.3074 113.435 75.8062 113.498 76.3302C113.56 76.8542 113.485 77.3854 113.281 77.8719C113.122 78.2243 112.956 78.414 112.936 78.414Z" fill="#FF9A6C"/>
<path d="M110.558 84.4666C110.241 84.5835 109.911 84.6616 109.575 84.699C108.77 84.8259 107.957 84.8893 107.143 84.8887C106.327 84.8872 105.512 84.8186 104.707 84.6835C104.371 84.6455 104.041 84.5662 103.724 84.4473C104.06 84.4532 104.395 84.4855 104.727 84.5441C105.529 84.6348 106.335 84.6826 107.143 84.6873C107.949 84.6857 108.754 84.6417 109.555 84.5557C109.887 84.4993 110.222 84.4695 110.558 84.4666Z" fill="#FF9A6C"/>
<path d="M105.632 62.6397C105.632 62.6629 105.504 62.7675 105.245 62.8604C104.904 62.9745 104.541 63.0115 104.183 62.9686C103.826 62.9258 103.482 62.8042 103.177 62.6126C102.945 62.4616 102.837 62.3299 102.852 62.3105C103.28 62.5256 103.736 62.6794 104.207 62.7675C104.686 62.7929 105.166 62.7499 105.632 62.6397Z" fill="#FF9A6C"/>
<path d="M113.51 78.6367C113.544 78.7321 113.56 78.8334 113.556 78.9349C113.556 79.2101 113.524 79.4843 113.459 79.7519C113.386 80.0888 113.258 80.4799 113.134 80.9136C112.984 81.3673 112.935 81.8484 112.991 82.323C113.057 82.8148 113.424 83.2098 113.482 83.7093C113.522 84.1315 113.414 84.5544 113.177 84.9058C113.032 85.1388 112.865 85.3567 112.677 85.5563C112.545 85.6996 112.464 85.7693 112.452 85.7615C112.441 85.7538 112.72 85.4208 113.053 84.8361C113.253 84.5064 113.339 84.1198 113.297 83.7364C113.25 83.3143 112.878 82.9194 112.789 82.3579C112.73 81.8535 112.787 81.3423 112.956 80.8632C113.091 80.4257 113.231 80.0423 113.32 79.7016C113.409 79.3518 113.473 78.9958 113.51 78.6367Z" fill="#FF9A6C"/>
<path d="M114.55 81.0664C114.613 81.1799 114.658 81.3028 114.682 81.4304C114.752 81.6666 114.845 82.0151 114.93 82.4488C115.035 82.959 115.097 83.4771 115.116 83.9977C115.149 84.6486 115.03 85.2984 114.767 85.895C114.462 86.4663 114.059 86.979 113.575 87.4091C113.189 87.7599 112.779 88.0822 112.347 88.3732C111.979 88.6249 111.669 88.8108 111.453 88.9308C111.346 89.003 111.23 89.0603 111.108 89.1012C111.089 89.0741 111.553 88.7798 112.27 88.2571C112.685 87.9548 113.081 87.6262 113.455 87.2735C113.915 86.8527 114.3 86.3564 114.593 85.806C114.841 85.2364 114.959 84.6186 114.938 83.9977C114.929 83.4851 114.882 82.9739 114.798 82.4681C114.647 81.6046 114.519 81.0742 114.55 81.0664Z" fill="#263238"/>
<path d="M85.3349 68.1757C85.1738 68.0809 85.0232 67.9693 84.8857 67.8427L83.724 66.8708L82.9186 66.1931C82.781 66.0643 82.6275 65.9537 82.4617 65.864C82.3814 65.8229 82.2925 65.8015 82.2023 65.8015C82.1121 65.8015 82.0231 65.8229 81.9428 65.864C81.6098 66.0383 81.3852 66.4642 81.1026 66.8204C80.8199 67.1767 80.5411 67.5949 80.2468 67.9821C79.7821 68.6094 79.3291 69.2096 78.9148 69.7672L78.6631 70.1002L78.7444 69.6897C78.9664 68.5382 79.289 67.4083 79.7086 66.3132C79.8635 65.926 80.0029 65.593 80.0958 65.38C80.1394 65.2656 80.1979 65.1575 80.27 65.0586C80.2435 65.1767 80.2059 65.2921 80.1578 65.4032C80.0764 65.6239 79.9564 65.9453 79.817 66.3558C79.4384 67.4565 79.142 68.5838 78.9303 69.7285L78.756 69.651L80.0842 67.8621L80.9399 66.7004L81.3504 66.1544C81.4807 65.9605 81.6561 65.801 81.8615 65.6898C81.9691 65.6426 82.0861 65.6205 82.2035 65.6252C82.3209 65.6299 82.4357 65.6612 82.5391 65.7169C82.7151 65.8159 82.8777 65.9369 83.0232 66.077L83.7976 66.774L84.9283 67.7924C85.0737 67.9092 85.2097 68.0374 85.3349 68.1757Z" fill="#263238"/>
<path d="M101.683 64.9054C101.638 64.9563 101.588 65.0017 101.532 65.0409L101.075 65.3971L99.3676 66.6788L93.6716 70.8724L93.5864 70.9344L93.5283 70.8453C93.4819 70.7756 93.4354 70.6982 93.3851 70.6246L90.5274 66.1096L90.632 66.1445C89.5308 66.5819 88.4686 67.1117 87.4567 67.7282C87.0928 67.9489 86.8101 68.1154 86.6165 68.2587C86.5224 68.3296 86.4211 68.3906 86.3145 68.4407C86.3966 68.3552 86.4874 68.2787 86.5855 68.2122C86.7714 68.0767 87.0463 67.8792 87.4064 67.643C88.4054 66.9928 89.4633 66.4379 90.5661 65.9857L90.632 65.9586L90.6707 66.0167C91.5109 67.3216 92.4983 68.8666 93.5555 70.5162C93.6058 70.5897 93.6523 70.6672 93.6987 70.7369L93.5516 70.7098L99.2863 66.5665L101.029 65.3313L101.509 65.006C101.621 64.9325 101.679 64.8976 101.683 64.9054Z" fill="#263238"/>
<path d="M66.9306 80.3027C66.9483 80.392 66.956 80.4829 66.9538 80.5738C66.9538 80.7751 66.9538 81.0346 66.9732 81.3482C66.9732 82.0491 67.008 83.0288 67.0274 84.2291C67.0739 86.6609 67.1707 90.0374 67.2984 93.7354C67.4262 97.4333 67.4998 100.81 67.5075 103.245C67.5075 104.465 67.5075 105.449 67.5075 106.13C67.5075 106.452 67.5075 106.715 67.4882 106.905C67.4924 106.997 67.4859 107.089 67.4688 107.18C67.4632 107.088 67.4632 106.996 67.4688 106.905C67.4688 106.707 67.4688 106.444 67.4456 106.13C67.4456 105.426 67.4146 104.446 67.3914 103.249C67.3488 100.814 67.2481 97.441 67.1242 93.7392C67.0003 90.0374 66.9228 86.6647 66.9151 84.2291C66.9151 83.0133 66.9151 82.0259 66.9151 81.3482C66.9151 81.023 66.9151 80.7635 66.9151 80.5738C66.9145 80.4832 66.9196 80.3927 66.9306 80.3027Z" fill="#263238"/>
<path d="M85.462 115.279C85.4491 115.244 85.4413 115.208 85.4388 115.17C85.4388 115.085 85.4388 114.977 85.4039 114.841C85.3729 114.535 85.3303 114.113 85.28 113.575C85.1716 112.475 85.0477 110.865 84.9238 108.909C84.7998 106.954 84.6953 104.584 84.6295 101.974C84.5636 99.3641 84.5559 96.4871 84.6295 93.4552C84.703 90.4233 84.8386 87.5695 85.0167 84.9635C85.1948 82.3575 85.4039 80.0109 85.613 78.0477C85.8221 76.0845 86.0002 74.4931 86.1706 73.4011C86.248 72.8629 86.3061 72.4447 86.3487 72.1426C86.372 72.0071 86.3874 71.8987 86.4029 71.8135C86.4048 71.7764 86.4127 71.7397 86.4262 71.7051C86.4322 71.7423 86.4322 71.7802 86.4262 71.8174C86.4262 71.9026 86.4068 72.011 86.3952 72.1465C86.3603 72.4485 86.3139 72.8706 86.2519 73.4088C86.1203 74.5085 85.9499 76.0961 85.7601 78.0555C85.5704 80.0148 85.3729 82.3652 85.2064 84.9712C85.0399 87.5772 84.9121 90.4465 84.8424 93.4591C84.7727 96.4716 84.7921 99.3409 84.8424 101.951C84.8928 104.561 84.9896 106.907 85.098 108.878C85.2064 110.849 85.3032 112.448 85.3884 113.548C85.4233 114.086 85.4542 114.512 85.4736 114.818C85.4736 114.954 85.4736 115.062 85.493 115.147C85.4863 115.192 85.4759 115.236 85.462 115.279Z" fill="#263238"/>
<path d="M73.9232 51.8984L73.5128 52.1695L72.3046 52.9439C71.7703 53.2885 71.143 53.7803 70.4073 54.3224C70.02 54.6012 69.6638 54.9381 69.2456 55.2789L68.6144 55.8093C68.3976 55.9952 68.1924 56.1966 67.9717 56.4095C65.8301 58.4073 63.9488 60.6672 62.3725 63.1355L61.6832 64.243C61.4393 64.6108 61.2534 65.0174 61.0288 65.4046C60.8042 65.7919 60.5835 66.2101 60.3822 66.636C60.1808 67.0619 59.9949 67.4995 59.7858 67.9409C59.689 68.1616 59.5806 68.3785 59.4877 68.6069C59.3948 68.8354 59.3134 69.0677 59.2244 69.3039C59.0501 69.7686 58.8643 70.2371 58.6939 70.7212C58.4073 71.7008 58.0434 72.6921 57.8265 73.7492C56.7226 78.323 56.5384 83.0706 57.2844 87.7162C58.2552 93.6985 60.7602 99.327 64.5551 104.052C68.3499 108.778 73.3049 112.439 78.9366 114.678C84.5682 116.918 90.6842 117.659 96.6878 116.829C102.691 116 108.377 113.629 113.191 109.946C114.406 109.012 115.563 108.004 116.653 106.926L117.427 106.105C117.691 105.834 117.946 105.559 118.202 105.269L118.937 104.421C119.17 104.127 119.398 103.832 119.631 103.542C123.133 99.0304 125.47 93.7252 126.434 88.0957C126.661 86.7887 126.814 85.4701 126.895 84.146C126.934 83.4916 126.934 82.845 126.957 82.21C126.98 81.5749 126.91 80.9283 126.887 80.2971C126.887 79.9834 126.86 79.6659 126.848 79.3523C126.837 79.0386 126.779 78.7327 126.748 78.4229C126.67 77.8073 126.597 77.1955 126.523 76.5914C126.45 75.9873 126.291 75.3988 126.175 74.8102C126.077 74.2265 125.948 73.6487 125.787 73.0793L125.307 71.4027C125.232 71.1276 125.14 70.8574 125.032 70.5934C124.932 70.3262 124.831 70.059 124.734 69.7957C124.529 69.273 124.347 68.7386 124.126 68.2468C123.905 67.7551 123.665 67.2555 123.437 66.7715C121.753 63.2707 119.494 60.077 116.754 57.3234C114.677 55.2604 112.361 53.4546 109.853 51.9449L108.374 51.0969C108.151 50.966 107.921 50.8471 107.685 50.7406L107.034 50.4309L105.873 49.881C105.524 49.7029 105.18 49.6022 104.889 49.4938L103.542 48.9749L103.085 48.7891L103.549 48.9556L104.901 49.459C105.195 49.5751 105.54 49.6758 105.892 49.8462L107.054 50.3883L107.708 50.6981C107.945 50.8018 108.177 50.9181 108.401 51.0466L109.884 51.8907C112.408 53.3909 114.739 55.1931 116.827 57.2575C119.584 60.0092 121.859 63.2043 123.557 66.7096C123.785 67.2013 124.018 67.6931 124.254 68.1965C124.49 68.6999 124.641 69.2304 124.866 69.7454L125.168 70.543C125.276 70.8083 125.367 71.0799 125.443 71.3562C125.605 71.9138 125.768 72.4714 125.931 73.0406C126.098 73.6121 126.234 74.1926 126.337 74.7792C126.453 75.3678 126.593 75.9409 126.693 76.5643C126.794 77.1877 126.841 77.7879 126.918 78.4075C126.953 78.7172 127.003 79.027 127.023 79.3407C127.042 79.6543 127.05 79.9718 127.061 80.2893C127.085 80.9244 127.119 81.5633 127.135 82.2254C127.15 82.8876 127.116 83.5226 127.073 84.1615C126.677 91.2497 124.134 98.0497 119.782 103.658L119.077 104.541L118.333 105.397C118.093 105.687 117.834 105.966 117.559 106.237L116.785 107.066C115.687 108.149 114.524 109.163 113.3 110.101C108.463 113.799 102.75 116.18 96.7188 117.013C90.6876 117.845 84.5436 117.101 78.8857 114.852C73.2278 112.604 68.249 108.927 64.4348 104.182C60.6206 99.4363 58.101 93.7834 57.1218 87.7743C56.7289 85.352 56.599 82.8944 56.7346 80.4442C56.8322 78.1842 57.1578 75.9399 57.7065 73.7453C57.9233 72.6844 58.2912 71.6931 58.5777 70.7057C58.752 70.2255 58.9417 69.7531 59.1198 69.2846C59.2089 69.0522 59.2979 68.8199 59.3831 68.5876C59.4683 68.3552 59.5884 68.1423 59.6852 67.9177C59.8904 67.4763 60.0724 67.0426 60.2854 66.6128C60.4983 66.1829 60.7268 65.7841 60.9398 65.3775C61.1527 64.971 61.3541 64.5682 61.598 64.1965L62.295 63.0891C63.8796 60.6169 65.7758 58.3589 67.9368 56.3708C68.1575 56.1656 68.3627 55.9565 68.5796 55.7706L69.2146 55.2401C69.6328 54.9032 69.9891 54.5702 70.3763 54.2914C71.1314 53.7493 71.7509 53.2653 72.2892 52.9246L73.5089 52.1501C73.7722 51.9797 73.9232 51.8984 73.9232 51.8984Z" fill="#263238"/>
</svg>
