<svg width="36" height="24" viewBox="0 0 36 24" fill="none" xmlns="http://www.w3.org/2000/svg">
<path d="M29.025 9.06C28.005 3.885 23.46 0 18 0C13.665 0 9.9 2.46 8.025 6.06C3.51 6.54 0 10.365 0 15C0 19.965 4.035 24 9 24H28.5C32.64 24 36 20.64 36 16.5C36 12.54 32.925 9.33 29.025 9.06ZM28.5 21H9C5.685 21 3 18.315 3 15C3 11.925 5.295 9.36 8.34 9.045L9.945 8.88L10.695 7.455C12.12 4.71 14.91 3 18 3C21.93 3 25.32 5.79 26.085 9.645L26.535 11.895L28.83 12.06C31.17 12.21 33 14.175 33 16.5C33 18.975 30.975 21 28.5 21ZM12 13.5H15.825V18H20.175V13.5H24L18 7.5L12 13.5Z" fill="#4A60E6"/>
</svg>
